<?xml version="1.0" standalone="no"?>
<!DOCTYPE svg PUBLIC "-//W3C//DTD SVG 1.1//EN" "http://www.w3.org/Graphics/SVG/1.1/DTD/svg11.dtd" >
<svg xmlns="http://www.w3.org/2000/svg" xmlns:xlink="http://www.w3.org/1999/xlink" version="1.1">
<metadata>
Created by FontForge 20141024 at Tue Nov  4 12:52:45 2014
 By Jimmy Warting
Copyright (c) 2013 by FONTYOU. All rights reserved. www.fontyou.com
</metadata>
<defs>
<font id="MarianinaFY-Regular" horiz-adv-x="413" >
  <font-face 
    font-family="MarianinaFY-Regular"
    font-weight="400"
    font-stretch="normal"
    units-per-em="1000"
    panose-1="2 0 5 6 0 0 0 2 0 4"
    ascent="772"
    descent="-228"
    x-height="508"
    cap-height="665"
    bbox="-141 -210 1187 875"
    underline-thickness="50"
    underline-position="-50"
    unicode-range="U+000D-FB04"
  />
<missing-glyph horiz-adv-x="602" 
d="M305 435q16 29 41.5 47t56.5 18q43 0 71 -29.5t28 -75.5q0 -30 -13.5 -65t-39 -70t-63 -67.5t-85.5 -57.5q-48 25 -85.5 57.5t-63 67.5t-39 70t-13.5 65q0 46 28 75.5t71 29.5q31 0 56.5 -18t41.5 -47h8z" />
    <glyph glyph-name="f_f" unicode="ff" horiz-adv-x="540" 
d="M135 457v-457h-65v533q0 80 33.5 128.5t104.5 48.5q41 0 67.5 -12.5t43.5 -32.5l-41 -36q-9 12 -24.5 21t-39.5 9q-25 0 -40.5 -10.5t-24 -27t-11.5 -36.5t-3 -38v-39h129v-51h-129zM403 457v-457h-65v533q0 81 33.5 129t104.5 48q42 0 68 -12.5t43 -32.5l-41 -36
q-9 12 -24.5 21t-39.5 9t-39.5 -10.5t-24.5 -27t-12 -36.5t-3 -38v-39h129v-51h-129z" />
    <glyph glyph-name="fi" unicode="fi" horiz-adv-x="470" 
d="M135 457v-457h-65v533q0 80 33.5 128.5t104.5 48.5q41 0 67.5 -12.5t43.5 -32.5l-41 -36q-9 12 -24.5 21t-39.5 9q-25 0 -40.5 -10.5t-24 -27t-11.5 -36.5t-3 -38v-39h129v-51h-129zM339 508h56l7 -65v-443h-63v508zM370 655q18 0 29 -11t11 -29t-11 -29.5t-29 -11.5
t-29.5 11.5t-11.5 29.5t11.5 29t29.5 11z" />
    <glyph glyph-name="fl" unicode="fl" horiz-adv-x="471" 
d="M135 457v-457h-65v533q0 80 33.5 128.5t104.5 48.5q41 0 67.5 -12.5t43.5 -32.5l-41 -36q-9 12 -24.5 21t-39.5 9q-25 0 -40.5 -10.5t-24 -27t-11.5 -36.5t-3 -38v-39h129v-51h-129zM402 645v-645h-58l-6 65v645h57z" />
    <glyph glyph-name="f_f_i" unicode="ffi" horiz-adv-x="739" 
d="M135 457v-457h-65v533q0 80 33.5 128.5t104.5 48.5q41 0 67.5 -12.5t43.5 -32.5l-41 -36q-9 12 -24.5 21t-39.5 9q-25 0 -40.5 -10.5t-24 -27t-11.5 -36.5t-3 -38v-39h129v-51h-129zM403 457v-457h-65v533q0 81 33.5 129t104.5 48q42 0 68 -12.5t43 -32.5l-41 -36
q-9 12 -24.5 21t-39.5 9t-39.5 -10.5t-24.5 -27t-12 -36.5t-3 -38v-39h129v-51h-129zM607 508h57l7 -65v-443h-64v508zM639 655q18 0 29 -11t11 -29t-11 -29.5t-29 -11.5q-19 0 -30.5 11.5t-11.5 29.5t11.5 29t30.5 11z" />
    <glyph glyph-name="f_f_l" unicode="ffl" horiz-adv-x="740" 
d="M135 457v-457h-65v533q0 80 33.5 128.5t104.5 48.5q41 0 67.5 -12.5t43.5 -32.5l-41 -36q-9 12 -24.5 21t-39.5 9q-25 0 -40.5 -10.5t-24 -27t-11.5 -36.5t-3 -38v-39h129v-51h-129zM403 457v-457h-65v533q0 81 33.5 129t104.5 48q42 0 68 -12.5t43 -32.5l-41 -36
q-9 12 -24.5 21t-39.5 9t-39.5 -10.5t-24.5 -27t-12 -36.5t-3 -38v-39h129v-51h-129zM671 645v-645h-58l-6 65v645h57z" />
    <glyph glyph-name=".notdef" horiz-adv-x="602" 
d="M305 435q16 29 41.5 47t56.5 18q43 0 71 -29.5t28 -75.5q0 -30 -13.5 -65t-39 -70t-63 -67.5t-85.5 -57.5q-48 25 -85.5 57.5t-63 67.5t-39 70t-13.5 65q0 46 28 75.5t71 29.5q31 0 56.5 -18t41.5 -47h8z" />
    <glyph glyph-name=".null" horiz-adv-x="0" 
 />
    <glyph glyph-name=".null" horiz-adv-x="0" 
 />
    <glyph glyph-name="nonmarkingreturn" unicode="&#xd;" horiz-adv-x="0" 
 />
    <glyph glyph-name="space" unicode=" " horiz-adv-x="180" 
 />
    <glyph glyph-name="exclam" unicode="!" horiz-adv-x="286" 
d="M175 665v-510h-58l-6 68v442h64zM99 36q0 19 12 30t31 11q20 0 31.5 -11t11.5 -30t-11.5 -30t-31.5 -11q-19 0 -31 11t-12 30z" />
    <glyph glyph-name="quotedbl" unicode="&#x22;" horiz-adv-x="320" 
d="M121 480h-46l-10 199h66zM245 480h-46l-10 199h66z" />
    <glyph glyph-name="numbersign" unicode="#" horiz-adv-x="567" 
d="M109 187h-78v49h94l67 203h-76v49h92l58 177h54l-58 -177h141l58 177h55l-58 -177h77v-49h-93l-66 -203h75v-49h-91l-60 -187h-55l60 187h-141l-61 -187h-55zM180 236h141l66 203h-141z" />
    <glyph glyph-name="dollar" unicode="$" horiz-adv-x="392" 
d="M52 530q0 23 6.5 46t20 42t34.5 32.5t51 18.5v61h63v-60q54 -8 83.5 -44.5t29.5 -107.5v-21h-64v25q0 18 -3.5 35.5t-12.5 31.5t-24.5 22.5t-39.5 8.5q-37 0 -58 -26.5t-21 -62.5v-30q0 -34 18 -60t66 -56q28 -19 53.5 -38.5t44.5 -43t30 -51t11 -62.5v-54
q0 -53 -29.5 -93t-83.5 -48v-60h-63v60q-54 10 -83 45t-29 108v20h65v-25q0 -18 3.5 -36t12 -31.5t24 -22t39.5 -8.5q39 0 59.5 27.5t20.5 63.5v45q0 47 -27 80.5t-78 66.5q-54 35 -86.5 72t-32.5 96v34z" />
    <glyph glyph-name="percent" unicode="%" horiz-adv-x="746" 
d="M266 377q0 -49 -26 -81t-81 -32q-54 0 -80 32t-26 81v185q0 48 26 80.5t80 32.5q55 0 81 -32.5t26 -80.5v-185zM210 568q0 23 -11 42t-40 19t-40 -19t-11 -42v-197q0 -21 11 -41t40 -20t40 20t11 41v197zM227 0h-55l347 665h55zM693 107q0 -49 -26 -81t-81 -32
q-54 0 -80 32t-26 81v185q0 48 26 80.5t80 32.5q55 0 81 -32.5t26 -80.5v-185zM637 298q0 23 -11 42t-40 19t-40 -19t-11 -42v-197q0 -21 11 -41t40 -20t40 20t11 41v197z" />
    <glyph glyph-name="ampersand" unicode="&#x26;" horiz-adv-x="470" 
d="M316 55q-14 -27 -39.5 -46t-73.5 -19q-66 0 -99.5 36.5t-33.5 113.5v40q0 34 9.5 60t26.5 47t41.5 38.5t54.5 36.5q54 34 78 64.5t24 71.5v24q0 18 -4.5 35.5t-14 31.5t-26 22.5t-40.5 8.5t-40.5 -8.5t-26 -22.5t-14 -31.5t-4.5 -35.5v-32q0 -39 17.5 -63.5t42.5 -37.5
l-48 -37q-15 9 -28.5 22t-24 31t-17 40.5t-6.5 51.5v24q0 69 38.5 111.5t111.5 42.5q37 0 65 -11t46 -30.5t27 -46.5t9 -58v-30q0 -29 -7.5 -51.5t-22.5 -43t-38 -39t-55 -39.5q-23 -15 -43 -29t-35 -31t-23.5 -38.5t-8.5 -51.5v-33q0 -39 19 -68.5t65 -29.5t66 29.5
t20 71.5v75h63v-76q0 -38 7.5 -69.5t22.5 -55t38 -36.5t55 -13v-56q-41 0 -71 11t-51 30t-33 44.5t-15 54.5h-4z" />
    <glyph glyph-name="quotesingle" unicode="'" horiz-adv-x="196" 
d="M121 480h-46l-10 199h66z" />
    <glyph glyph-name="parenleft" unicode="(" horiz-adv-x="307" 
d="M90 599q0 42 9 76t29 58t52 37t78 13h24v-56h-24q-104 0 -104 -133v-511q0 -132 104 -132h24v-56h-24q-46 0 -78 12.5t-52 35.5t-29 56.5t-9 75.5v524z" />
    <glyph glyph-name="parenright" unicode=")" horiz-adv-x="307" 
d="M216 75q0 -84 -38 -132t-129 -48h-24v56h24q104 0 104 132v508q0 66 -25 101t-79 35h-24v56h24q46 0 77.5 -13.5t51.5 -38.5t29 -59.5t9 -76.5v-520z" />
    <glyph glyph-name="asterisk" unicode="*" horiz-adv-x="297" 
d="M32 566l85 40v4l-85 39l22 38l76 -56l4 3l-7 95h44l-11 -94l4 -3l79 55l22 -38l-87 -42v-4l87 -37l-22 -38l-79 55l-3 -3l10 -94h-44l9 94l-3 1l-79 -53z" />
    <glyph glyph-name="plus" unicode="+" horiz-adv-x="412" 
d="M83 330h95v95h56v-95h95v-56h-95v-95h-56v95h-95v56z" />
    <glyph glyph-name="comma" unicode="," horiz-adv-x="200" 
d="M85 -114h-39l34 180h67z" />
    <glyph glyph-name="hyphen" unicode="-" horiz-adv-x="271" 
d="M50 350h171v-57h-171v57z" />
    <glyph glyph-name="period" unicode="." horiz-adv-x="199" 
d="M57 36q0 19 11.5 30t31.5 11q19 0 30.5 -11t11.5 -30t-11.5 -30t-30.5 -11q-20 0 -31.5 11t-11.5 30z" />
    <glyph glyph-name="slash" unicode="/" horiz-adv-x="329" 
d="M66 -89h-57l255 799h56z" />
    <glyph glyph-name="zero" unicode="0" horiz-adv-x="412" 
d="M354 171q0 -88 -37 -134.5t-112 -46.5t-111 46.5t-36 134.5v323q0 88 36.5 134.5t111.5 46.5t111.5 -46.5t36.5 -134.5v-323zM290 502q0 21 -4 42.5t-13.5 38t-26 27t-40.5 10.5q-25 0 -41.5 -10.5t-26 -27t-13.5 -38t-4 -42.5v-338q0 -21 4 -42.5t13.5 -38.5t25.5 -27.5
t41 -10.5t41 10.5t26 27.5t14 38t4 43v338z" />
    <glyph glyph-name="one" unicode="1" horiz-adv-x="328" 
d="M178 0v601l-120 -83l-38 43l145 104h76v-665h-63z" />
    <glyph glyph-name="two" unicode="2" horiz-adv-x="391" 
d="M44 506v16q0 73 38.5 113t113.5 40q78 0 112 -38t34 -110v-20q0 -51 -25.5 -105t-68.5 -122l-141 -225h235v-55h-297v64l131 210q54 82 78 135t24 97v19q0 45 -19.5 70t-62.5 25q-48 0 -68 -26.5t-20 -70.5v-17h-64z" />
    <glyph glyph-name="three" unicode="3" horiz-adv-x="397" 
d="M276 521q0 18 -4.5 35.5t-14 31.5t-26 23t-40.5 9t-40 -9t-26 -23t-14.5 -31.5t-4.5 -35.5v-20h-64v13q0 74 37 117.5t112 43.5t112 -39.5t37 -106.5v-40q0 -52 -22 -86t-62 -48v-4q39 -13 61.5 -44.5t22.5 -88.5v-68q0 -74 -41 -117t-108 -43q-75 0 -112 40t-37 115v19
h64v-20q0 -19 4.5 -36.5t14 -31.5t26 -22.5t40.5 -8.5t40.5 10t26 25t14 33.5t4.5 36.5v70q0 44 -22.5 74.5t-72.5 30.5h-40v54h40q25 0 43 9t29.5 23.5t17 33.5t5.5 39v37z" />
    <glyph glyph-name="four" unicode="4" horiz-adv-x="389" 
d="M266 151h-237v67l213 447h63l-217 -459h178v124h63v-330h-63v151z" />
    <glyph glyph-name="five" unicode="5" horiz-adv-x="409" 
d="M53 665h298v-56h-234v-211q14 21 40 38.5t68 17.5q126 0 126 -164v-135q0 -36 -9 -66t-27.5 -52t-46.5 -34.5t-66 -12.5q-75 0 -112 43.5t-37 114.5v16h64v-18q0 -17 4.5 -35t14 -32.5t26 -24t40.5 -9.5t40.5 9.5t26.5 25t14.5 34.5t4.5 39v149q0 18 -4.5 35t-14 31
t-24 22.5t-35.5 8.5q-20 0 -34.5 -7t-25 -17.5t-18 -23t-11.5 -24.5h-68v338z" />
    <glyph glyph-name="six" unicode="6" 
d="M292 503v16q0 19 -4.5 37t-14.5 32.5t-26 23t-39 8.5q-24 0 -41 -10t-27 -26.5t-14.5 -36.5t-4.5 -40v-152q13 23 40.5 40t65.5 17q128 0 128 -157v-101q0 -78 -37 -121t-111 -43q-75 0 -112 43.5t-37 121.5v348q0 77 37.5 124.5t112.5 47.5q147 0 147 -158v-14h-63z
M206 45q24 0 40.5 8.5t26.5 22.5t14.5 32t4.5 38v110q0 18 -4 36.5t-13 32.5t-25 23t-40 9t-41 -8.5t-27.5 -22.5t-15.5 -31.5t-5 -35.5v-113q0 -18 4.5 -36t14.5 -32.5t26 -23.5t40 -9z" />
    <glyph glyph-name="seven" unicode="7" horiz-adv-x="366" 
d="M58 0l220 609h-253v56h309v-67l-213 -598h-63z" />
    <glyph glyph-name="eight" unicode="8" 
d="M58 525q0 69 37 109.5t112 40.5t111.5 -39.5t36.5 -103.5v-43q0 -24 -8 -44t-22 -37t-33.5 -32.5t-42.5 -31.5q22 -16 41.5 -33t33.5 -37t22.5 -44.5t8.5 -55.5v-36q0 -66 -38.5 -107t-109.5 -41q-75 0 -112 39t-37 103v44q0 29 8 53t22.5 44t33.5 37t41 33
q-47 32 -76 66t-29 83v33zM121 137q0 -16 4.5 -32t14.5 -29.5t26.5 -22t40.5 -8.5t40 8.5t26 22t14.5 29.5t4.5 32v43q0 42 -25 73t-60 54q-36 -23 -61 -52t-25 -76v-42zM121 495q0 -35 22 -61t64 -53q42 27 63.5 51.5t21.5 62.5v33q0 16 -4.5 32t-14.5 29.5t-26 22t-40 8.5
t-40.5 -8t-26.5 -21.5t-14.5 -30t-4.5 -32.5v-33z" />
    <glyph glyph-name="nine" unicode="9" 
d="M123 162v-16q0 -18 4 -36t13.5 -32.5t25.5 -23.5t41 -9q24 0 40 9.5t26 25t14.5 35t4.5 38.5v159q-16 -26 -43 -42.5t-65 -16.5q-62 0 -94 37.5t-32 117.5v99q0 78 37 123t112 45t111.5 -45.5t36.5 -123.5v-347q0 -76 -36.5 -122.5t-111.5 -46.5t-112 40.5t-37 116.5v15
h65zM207 620q-24 0 -40.5 -9t-26 -24t-13.5 -33.5t-4 -37.5v-110q0 -19 4 -36.5t13.5 -31t25.5 -22t39 -8.5t39.5 8.5t27 22.5t15.5 31.5t5 35.5v110q0 19 -4.5 37.5t-14.5 33.5t-26 24t-40 9z" />
    <glyph glyph-name="colon" unicode=":" horiz-adv-x="199" 
d="M57 36q0 19 11.5 30t31.5 11q19 0 30.5 -11t11.5 -30t-11.5 -30t-30.5 -11q-20 0 -31.5 11t-11.5 30zM57 437q0 19 11.5 30t31.5 11q19 0 30.5 -11t11.5 -30t-11.5 -30t-30.5 -11q-20 0 -31.5 11t-11.5 30z" />
    <glyph glyph-name="semicolon" unicode=";" horiz-adv-x="206" 
d="M64 437q0 19 11.5 30t31.5 11q19 0 30.5 -11t11.5 -30t-11.5 -30t-30.5 -11q-20 0 -31.5 11t-11.5 30zM83 -114h-39l34 180h67z" />
    <glyph glyph-name="less" unicode="&#x3c;" horiz-adv-x="412" 
d="M77 338l246 120v-60l-185 -86l185 -86v-60l-246 120v52z" />
    <glyph glyph-name="equal" unicode="=" horiz-adv-x="412" 
d="M83 390h246v-56h-246v56zM83 270h246v-56h-246v56z" />
    <glyph glyph-name="greater" unicode="&#x3e;" horiz-adv-x="412" 
d="M335 286l-246 -120v60l185 86l-185 86v60l246 -120v-52z" />
    <glyph glyph-name="question" unicode="?" horiz-adv-x="402" 
d="M59 488v44q0 66 37 104.5t109 38.5q70 0 104 -35t34 -89v-44q0 -24 -3.5 -42.5t-12.5 -34.5t-24.5 -32t-38.5 -35q-22 -18 -34 -34t-18 -34t-7 -40t-1 -51v-49h-63v55q0 37 2.5 63.5t10.5 46.5t23 37.5t40 38.5q21 16 33 30.5t18.5 28.5t8.5 28t2 29v32q0 32 -19 53.5
t-56 21.5t-59.5 -21.5t-22.5 -67.5v-42h-63zM130 36q0 19 12 30t31 11q20 0 31.5 -11t11.5 -30t-11.5 -30t-31.5 -11q-19 0 -31 11t-12 30z" />
    <glyph glyph-name="at" unicode="@" horiz-adv-x="704" 
d="M348 233q-37 0 -53 -18t-16 -58q0 -29 11.5 -50.5t46.5 -21.5q30 0 50 18t27 44v69q-14 5 -31 11t-35 6zM360 -124h-18q-137 0 -204.5 59.5t-67.5 174.5v251q0 52 16 99.5t50.5 84t88.5 58t130 21.5q75 0 128 -22t86.5 -58.5t48.5 -84t15 -98.5v-196q0 -60 -30 -92.5
t-85 -32.5q-62 0 -90 58q-15 -26 -41.5 -42t-60.5 -16q-109 0 -109 116q0 34 8.5 57t23 37t33.5 20.5t40 6.5q32 0 53 -8t39 -19v62q0 19 -2.5 37t-9 32.5t-19.5 23t-34 8.5q-36 0 -53 -22.5t-17 -62.5v-9h-57v8q0 23 6 47.5t20.5 44.5t39 32.5t62.5 12.5q63 0 93 -39
t30 -112v-164q0 -28 12.5 -45t38.5 -17q29 0 42.5 18t13.5 47v210q0 41 -12 79.5t-38.5 68.5t-70 48t-106.5 18q-62 0 -105.5 -18t-71 -48t-40 -68.5t-12.5 -79.5v-249q0 -90 54 -139.5t166 -49.5h16v-48z" />
    <glyph glyph-name="A" unicode="A" horiz-adv-x="420" 
d="M28 0l144 665h76l144 -665h-66l-34 164h-166l-35 -164h-63zM133 218h151l-74 354h-3z" />
    <glyph glyph-name="B" unicode="B" horiz-adv-x="420" 
d="M367 161q0 -78 -37 -119.5t-112 -41.5h-148v665h131q74 0 114 -36.5t40 -114.5v-27q0 -51 -19 -78.5t-49 -43.5q46 -17 63 -55.5t17 -84.5v-64zM304 233q0 17 -4 34.5t-14 32t-25.5 23.5t-37.5 9h-90v-277h85q24 0 40.5 8.5t26.5 22.5t14.5 31.5t4.5 35.5v80zM291 523
q0 38 -21.5 62t-68.5 24h-68v-224h70q45 0 66.5 25.5t21.5 63.5v49z" />
    <glyph glyph-name="C" unicode="C" horiz-adv-x="394" 
d="M292 496v18q0 17 -4.5 35.5t-14.5 34.5t-26 26t-40 10q-23 0 -39.5 -10.5t-26.5 -27.5t-14.5 -38t-4.5 -42v-339q0 -23 4.5 -44t14.5 -37.5t26.5 -26.5t39.5 -10q24 0 40 10t26 25t14.5 34t4.5 37v18h63v-9q0 -77 -37.5 -123.5t-110.5 -46.5q-75 0 -111.5 46.5
t-36.5 134.5v323q0 88 36.5 134.5t111.5 46.5t111.5 -46.5t36.5 -124.5v-8h-63z" />
    <glyph glyph-name="D" unicode="D" horiz-adv-x="428" 
d="M369 161q0 -78 -37 -119.5t-112 -41.5h-150v665h150q75 0 112 -41.5t37 -119.5v-343zM306 512q0 18 -4.5 35t-15 31t-26.5 22.5t-40 8.5h-87v-554h87q24 0 40 8.5t26.5 22.5t15 31.5t4.5 35.5v359z" />
    <glyph glyph-name="E" unicode="E" horiz-adv-x="358" 
d="M329 609h-196v-224h163v-55h-163v-275h196v-55h-259v665h259v-56z" />
    <glyph glyph-name="F" unicode="F" horiz-adv-x="354" 
d="M70 0v665h259v-56h-196v-224h163v-55h-163v-330h-63z" />
    <glyph glyph-name="G" unicode="G" horiz-adv-x="411" 
d="M219 321v55h139v-205q0 -88 -37.5 -134.5t-112.5 -46.5t-112.5 46.5t-37.5 134.5v323q0 88 37.5 134.5t111.5 46.5q76 0 113.5 -44.5t37.5 -122.5v-11h-64v17q0 18 -4.5 37t-14.5 34t-26.5 25t-40.5 10t-40.5 -9.5t-27 -26t-15 -38t-4.5 -44.5v-338q0 -23 4.5 -44.5
t15 -38t26.5 -26.5t40 -10t40.5 9.5t27 25.5t15 38t4.5 46v157h-75z" />
    <glyph glyph-name="H" unicode="H" horiz-adv-x="450" 
d="M317 0v328h-184v-328h-63v665h63v-282h184v282h64v-665h-64z" />
    <glyph glyph-name="I" unicode="I" horiz-adv-x="203" 
d="M70 0v665h63v-665h-63z" />
    <glyph glyph-name="J" unicode="J" horiz-adv-x="256" 
d="M29 44q27 1 45.5 10.5t30 24.5t16 33.5t4.5 38.5v514h63v-506q0 -79 -39.5 -122t-119.5 -48v55z" />
    <glyph glyph-name="K" unicode="K" horiz-adv-x="419" 
d="M237 389l166 -389h-67l-140 330l-63 -99v-231h-63v665h63v-343l198 343h66z" />
    <glyph glyph-name="L" unicode="L" horiz-adv-x="355" 
d="M133 665v-610h203v-55h-266v665h63z" />
    <glyph glyph-name="M" unicode="M" horiz-adv-x="566" 
d="M70 0v665h81l132 -489h4l132 489h77v-665h-57v541h-3l-133 -476h-38l-135 476h-4v-541h-56z" />
    <glyph glyph-name="N" unicode="N" horiz-adv-x="460" 
d="M390 0h-78l-185 550h-3v-550h-54v665h77l185 -560h4v560h54v-665z" />
    <glyph glyph-name="O" unicode="O" horiz-adv-x="412" 
d="M354 171q0 -88 -37 -134.5t-112 -46.5t-111 46.5t-36 134.5v323q0 88 36.5 134.5t111.5 46.5t111.5 -46.5t36.5 -134.5v-323zM290 502q0 21 -4 42.5t-14 38t-26.5 27t-40.5 10.5t-40 -10.5t-25.5 -27t-14 -38t-4.5 -42.5v-338q0 -21 4.5 -42.5t14 -38.5t25.5 -27.5
t40 -10.5t40.5 10.5t26.5 27.5t14 38t4 43v338z" />
    <glyph glyph-name="P" unicode="P" horiz-adv-x="415" 
d="M362 437q0 -79 -37 -120t-112 -41h-80v-276h-63v665h143q75 0 112 -41.5t37 -119.5v-67zM298 512q0 19 -4.5 36.5t-15 31t-27 21.5t-40.5 8h-78v-278h78q24 0 40.5 8t27 22t15 31.5t4.5 37.5v82z" />
    <glyph glyph-name="Q" unicode="Q" horiz-adv-x="412" 
d="M354 171q0 -155 -118 -175q5 -38 33 -59.5t85 -21.5v-55q-93 0 -135 36.5t-47 98.5q-58 9 -86 54t-28 122v323q0 88 36 134.5t111 46.5t112 -46.5t37 -134.5v-323zM290 502q0 21 -4 42.5t-14 38t-26 27t-40 10.5t-40.5 -10.5t-26 -27t-14 -38t-4.5 -42.5v-338
q0 -21 4.5 -42.5t14 -38.5t25.5 -27.5t40 -10.5t40.5 10.5t26.5 27.5t14 38t4 43v338z" />
    <glyph glyph-name="R" unicode="R" horiz-adv-x="426" 
d="M367 480q0 -55 -22 -93t-64 -55l116 -332h-67l-104 315h-93v-315h-63v665h148q75 0 112 -41.5t37 -119.5v-24zM304 512q0 19 -5 36.5t-15.5 31t-27.5 21.5t-41 8h-82v-239h81q49 0 69.5 29t20.5 70v43z" />
    <glyph glyph-name="S" unicode="S" horiz-adv-x="372" 
d="M42 529q0 26 8 52t25.5 47t45 34t65.5 13q70 0 107 -37.5t37 -119.5v-21h-63v25q0 18 -3.5 35.5t-13 31.5t-25 22.5t-39.5 8.5q-38 0 -58.5 -27t-20.5 -63v-29q0 -34 19 -60t66 -56q28 -18 53 -38t44 -43t30 -50.5t11 -61.5v-56q0 -27 -8.5 -53t-26 -46.5t-44.5 -33.5
t-65 -13q-74 0 -109 41.5t-35 116.5v20h65v-25q0 -18 3.5 -35.5t12 -31.5t24 -22.5t39.5 -8.5q38 0 59.5 26t21.5 63v45q0 47 -27.5 82t-78.5 68q-54 35 -86.5 71t-32.5 92v37z" />
    <glyph glyph-name="T" unicode="T" horiz-adv-x="380" 
d="M156 0v609h-135v56h338v-56h-139v-609h-64z" />
    <glyph glyph-name="U" unicode="U" horiz-adv-x="433" 
d="M365 665v-494q0 -88 -37 -134.5t-112 -46.5t-111.5 46.5t-36.5 134.5v494h63v-502q0 -21 4.5 -42t15 -38t26.5 -27.5t39 -10.5q24 0 40.5 10.5t26.5 27.5t14.5 38t4.5 42v502h63z" />
    <glyph glyph-name="V" unicode="V" horiz-adv-x="398" 
d="M240 0h-82l-129 665h64l104 -572h3l105 572h63z" />
    <glyph glyph-name="W" unicode="W" horiz-adv-x="591" 
d="M315 665l103 -557h3l77 557h63l-103 -665h-68l-98 502h-3l-99 -502h-63l-98 665h64l69 -557h3l103 557h47z" />
    <glyph glyph-name="X" unicode="X" horiz-adv-x="392" 
d="M367 0h-66l-107 276h-3l-100 -276h-65l132 335l-132 330h65l106 -277h3l101 277h65l-135 -329z" />
    <glyph glyph-name="Y" unicode="Y" horiz-adv-x="409" 
d="M236 215v-215h-64v216l-143 449h66l107 -364h3l108 364h66z" />
    <glyph glyph-name="Z" unicode="Z" horiz-adv-x="346" 
d="M38 609v56h276v-66l-223 -544h217v-55h-276v66l223 543h-217z" />
    <glyph glyph-name="bracketleft" unicode="[" horiz-adv-x="294" 
d="M87 783h166v-56h-102v-776h102v-56h-166v888z" />
    <glyph glyph-name="backslash" unicode="\" horiz-adv-x="330" 
d="M9 710h57l256 -799h-59z" />
    <glyph glyph-name="bracketright" unicode="]" horiz-adv-x="293" 
d="M207 -105h-167v56h103v776h-103v56h167v-888z" />
    <glyph glyph-name="asciicircum" unicode="^" horiz-adv-x="412" 
d="M233 448l106 -238h-63l-70 171l-70 -171h-63l106 238h54z" />
    <glyph glyph-name="underscore" unicode="_" horiz-adv-x="386" 
d="M31 -22h323v-56h-323v56z" />
    <glyph glyph-name="grave" unicode="`" horiz-adv-x="437" 
d="M219 683l56 -135h-51l-72 135h67z" />
    <glyph glyph-name="a" unicode="a" horiz-adv-x="397" 
d="M56 367v14q0 27 7.5 52t23 43.5t41 30t61.5 11.5q73 0 105.5 -39.5t32.5 -117.5v-275q0 -23 9.5 -31t27.5 -10v-55q-47 1 -65.5 17t-26.5 47q-16 -29 -41.5 -46.5t-63.5 -17.5q-55 0 -85 33.5t-30 99.5v42q0 27 6.5 51t21 41.5t38 28t56.5 10.5q23 0 46 -5t43 -16v95
q0 18 -3 35.5t-11 31t-22.5 22t-37.5 8.5q-39 0 -56.5 -23.5t-17.5 -61.5v-15h-59zM263 237q-17 6 -31 10t-36 4q-48 0 -64.5 -25t-16.5 -73v-16q0 -46 14.5 -71t59.5 -25q25 0 44 14t30 34v148z" />
    <glyph glyph-name="b" unicode="b" horiz-adv-x="402" 
d="M133 75q7 -11 25.5 -22.5t47.5 -11.5q40 0 57.5 30.5t17.5 74.5v228q0 18 -3 35t-11 29.5t-22.5 20.5t-37.5 8q-26 0 -45 -14t-29 -32v-346zM112 0h-42v710h57l6 -65v-176q16 22 40.5 35.5t57.5 13.5q55 0 84.5 -37t29.5 -115v-210q0 -78 -31.5 -122t-94.5 -44
q-38 0 -62.5 13.5t-37.5 32.5z" />
    <glyph glyph-name="c" unicode="c" horiz-adv-x="378" 
d="M270 336v26q0 21 -3 40t-11.5 33.5t-23 23t-37.5 8.5t-37.5 -9t-22.5 -24.5t-11 -35.5t-3 -42v-204q0 -22 3 -42t11 -35.5t22.5 -24.5t37.5 -9t37.5 8.5t23 23t11.5 33.5t3 40v26h60v-19q0 -76 -31.5 -119.5t-104.5 -43.5t-104.5 45t-31.5 129v180q0 82 31.5 128
t104.5 46t104.5 -43.5t31.5 -119.5v-19h-60z" />
    <glyph glyph-name="d" unicode="d" horiz-adv-x="404" 
d="M269 431q-8 13 -26.5 24.5t-45.5 11.5q-22 0 -36.5 -8t-23.5 -22.5t-12.5 -34t-3.5 -41.5v-212q0 -22 3 -41.5t11 -34.5t23 -23.5t38 -8.5q26 0 44 14.5t29 34.5v341zM333 89q0 -24 8.5 -34t28.5 -10v-55q-46 0 -65 15.5t-27 47.5q-14 -27 -39 -45t-66 -18
q-115 0 -115 160v202q0 85 29 125.5t91 40.5q32 0 54.5 -11t36.5 -28v231h57l7 -65v-556z" />
    <glyph glyph-name="e" unicode="e" horiz-adv-x="386" 
d="M121 294h148v62q0 22 -3 42t-11 35.5t-22.5 24.5t-37.5 9t-37.5 -9t-22.5 -24.5t-11 -35.5t-3 -42v-62zM271 155h62v-8q0 -72 -33 -114.5t-106 -42.5q-75 0 -105.5 45t-30.5 129v180q0 84 31.5 129t104.5 45q75 0 107 -45t32 -129v-99h-212v-93q0 -22 3 -42t11 -35.5
t22.5 -24.5t37.5 -9t37.5 8.5t23 23t12 33.5t3.5 40v9z" />
    <glyph glyph-name="f" unicode="f" horiz-adv-x="272" 
d="M135 457v-457h-65v533q0 80 33.5 128.5t104.5 48.5q41 0 67.5 -12.5t43.5 -32.5l-41 -36q-9 12 -24.5 21t-39.5 9q-25 0 -40.5 -10.5t-24 -27t-11.5 -36.5t-3 -38v-39h129v-51h-129z" />
    <glyph glyph-name="g" unicode="g" horiz-adv-x="399" 
d="M269 431q-8 13 -25 24.5t-44 11.5q-44 0 -61.5 -32t-17.5 -79v-204q0 -23 3 -43t11 -35t22.5 -24t38.5 -9q26 0 44 14.5t29 34.5v341zM122 -78v-9q0 -33 17 -52.5t53 -19.5q46 0 61.5 30.5t15.5 74.5v102q-14 -26 -38 -42t-62 -16q-56 0 -83.5 41t-27.5 133v180
q0 84 32.5 129t96.5 45q41 0 62.5 -14.5t33.5 -33.5l7 38h43v-547q0 -78 -34.5 -124.5t-106.5 -46.5q-64 0 -98 30.5t-34 91.5v10h62z" />
    <glyph glyph-name="h" unicode="h" horiz-adv-x="411" 
d="M133 468q15 20 39 35t64 15q60 0 84.5 -39t24.5 -117v-362h-58l-6 64v304q0 20 -3 38t-10.5 31.5t-21 21.5t-34.5 8q-29 0 -49 -14.5t-30 -32.5v-420h-63v710h57l6 -65v-177z" />
    <glyph glyph-name="i" unicode="i" horiz-adv-x="201" 
d="M70 508h57l6 -65v-443h-63v508zM101 655q18 0 29.5 -11t11.5 -29t-11.5 -29.5t-29.5 -11.5t-29.5 11.5t-11.5 29.5t11.5 29t29.5 11z" />
    <glyph glyph-name="j" unicode="j" horiz-adv-x="203" 
d="M127 508l6 -65v-483q0 -91 -31.5 -130.5t-106.5 -39.5v55q25 0 40 8.5t23 22.5t10 33.5t2 41.5v557h57zM101 655q18 0 29.5 -11t11.5 -29t-11.5 -29.5t-29.5 -11.5t-29.5 11.5t-11.5 29.5t11.5 29t29.5 11z" />
    <glyph glyph-name="k" unicode="k" horiz-adv-x="387" 
d="M238 325l130 -325h-66l-107 272l-62 -81v-191h-63v710h57l6 -64v-382l167 244h65z" />
    <glyph glyph-name="l" unicode="l" horiz-adv-x="202" 
d="M133 645v-645h-58l-5 65v645h57z" />
    <glyph glyph-name="m" unicode="m" horiz-adv-x="616" 
d="M342 0h-64v370q0 21 -2.5 38.5t-9.5 30.5t-20 20.5t-34 7.5q-29 0 -49 -14.5t-30 -32.5v-420h-63v508h44l5 -50q16 26 43 43t64 17q38 0 63 -17t36 -49q14 27 42 46.5t70 19.5q60 0 86.5 -40t26.5 -116v-362h-58l-6 65v303q0 19 -2.5 36.5t-10 31.5t-20.5 22.5t-35 8.5
q-30 0 -48 -14.5t-28 -30.5v-422z" />
    <glyph glyph-name="n" unicode="n" horiz-adv-x="411" 
d="M119 458q14 25 43.5 42.5t68.5 17.5q60 0 87 -39t27 -117v-362h-58l-6 65v302q0 20 -2.5 38.5t-10 32t-21 21.5t-34.5 8q-29 0 -49.5 -14.5t-30.5 -32.5v-420h-63v508h44z" />
    <glyph glyph-name="o" unicode="o" horiz-adv-x="391" 
d="M333 163q0 -84 -32 -128.5t-107 -44.5q-73 0 -104.5 44.5t-31.5 128.5v182q0 84 32 128.5t104 44.5q73 0 106 -44.5t33 -128.5v-182zM269 356q0 22 -3 42t-11 35.5t-22.5 24.5t-37.5 9t-37.5 -9t-22.5 -24.5t-11 -35.5t-3 -42v-204q0 -22 3 -42t11 -35.5t22.5 -24.5
t37.5 -9t37.5 9t22.5 24.5t11 35.5t3 42v204z" />
    <glyph glyph-name="p" unicode="p" horiz-adv-x="401" 
d="M69 508h44l5 -50q14 26 42.5 43t63.5 17q64 0 92 -42.5t28 -127.5v-184q0 -84 -29.5 -129t-93.5 -45q-31 0 -53 11t-36 25v-171l-7 -65h-56v718zM132 72q7 -11 25.5 -21t44.5 -10q43 0 60.5 32t17.5 79v205q0 22 -2.5 42t-10 35t-21.5 24t-37 9q-29 0 -48 -15t-29 -32
v-348z" />
    <glyph glyph-name="q" unicode="q" horiz-adv-x="401" 
d="M269 430q-8 14 -25 25.5t-45 11.5q-43 0 -60.5 -33t-17.5 -84v-198q0 -23 3 -43t11 -35t22.5 -24t37.5 -9q26 0 44.5 14.5t29.5 34.5v340zM269 38q-14 -20 -37 -34t-58 -14q-60 0 -88 41t-28 130v177q0 84 31.5 132t97.5 48q37 0 59.5 -14.5t36.5 -34.5l7 39h43v-718h-58
l-6 65v183z" />
    <glyph glyph-name="r" unicode="r" horiz-adv-x="285" 
d="M70 508h44l5 -50q17 27 45 43.5t61 16.5q18 0 30 -3t23 -10l-21 -55q-8 6 -17.5 8t-21.5 2q-28 0 -50 -15t-35 -35v-410h-63v508z" />
    <glyph glyph-name="s" unicode="s" horiz-adv-x="350" 
d="M104 153v-10q0 -20 2.5 -38t10.5 -32.5t21.5 -23t36.5 -8.5q35 0 54 23.5t19 59.5q0 38 -21 66.5t-76 58.5q-52 29 -81 62t-29 86q0 22 7.5 44t24 39t41 27.5t59.5 10.5q68 0 101 -39t33 -112v-9h-62v13q0 18 -3 35t-10.5 30.5t-22 22t-36.5 8.5q-40 0 -55 -21t-15 -46
q0 -35 21.5 -59.5t73.5 -51.5q60 -30 85.5 -68.5t25.5 -89.5q0 -24 -7.5 -49.5t-23 -45.5t-40.5 -33t-61 -13q-71 0 -102.5 39.5t-31.5 114.5v9h61z" />
    <glyph glyph-name="t" unicode="t" horiz-adv-x="285" 
d="M271 5q-16 -7 -31.5 -11t-35.5 -4q-73 0 -104.5 40.5t-31.5 119.5v458h57l6 -63v-37h123v-51h-123v-314q0 -17 3 -34.5t11.5 -31.5t24 -23t39.5 -9q14 0 25 2.5t20 6.5z" />
    <glyph glyph-name="u" unicode="u" horiz-adv-x="410" 
d="M65 508h64v-369q0 -21 3 -38.5t11 -31t22 -21t36 -7.5q26 0 45.5 14t29.5 34v419h64v-420q0 -18 7 -30.5t30 -12.5v-55q-46 0 -65 16t-26 48q-16 -29 -43 -46.5t-67 -17.5q-58 0 -84.5 37t-26.5 114v367z" />
    <glyph glyph-name="v" unicode="v" horiz-adv-x="363" 
d="M217 0h-72l-115 508h64l85 -442h4l86 442h63z" />
    <glyph glyph-name="w" unicode="w" horiz-adv-x="573" 
d="M258 508h56l87 -404h3l75 404h63l-99 -508h-67l-88 394h-5l-88 -394h-67l-98 508h64l73 -404h4z" />
    <glyph glyph-name="x" unicode="x" horiz-adv-x="338" 
d="M89 508l78 -197h4l79 197h63l-112 -254l111 -254h-64l-84 197h-3l-71 -197h-63l104 265l-106 243h64z" />
    <glyph glyph-name="y" unicode="y" horiz-adv-x="353" 
d="M37 508h63l79 -410h3l82 410h63l-131 -564q-16 -69 -55.5 -111t-112.5 -42v54q37 0 68 25t44 79l10 40z" />
    <glyph glyph-name="z" unicode="z" horiz-adv-x="294" 
d="M36 453v55h229v-64l-177 -389h170v-55h-229v61l179 392h-172z" />
    <glyph glyph-name="braceleft" unicode="{" horiz-adv-x="338" 
d="M122 262q0 30 -12 40t-50 10h-18v56h18q38 0 50 10t12 40v194q0 86 41 128.5t127 42.5h23v-56h-23q-54 0 -79 -31t-25 -97v-193q0 -27 -15 -45t-43 -18h-10v-6h10q28 0 43 -18.5t15 -44.5v-203q0 -66 25 -93t79 -27h23v-56h-23q-86 0 -127 41t-41 122v204z" />
    <glyph glyph-name="bar" unicode="|" horiz-adv-x="291" 
d="M113 -105v888h64v-888h-64z" />
    <glyph glyph-name="braceright" unicode="}" horiz-adv-x="338" 
d="M216 418q0 -30 12.5 -40t50.5 -10h17v-56h-17q-38 0 -50.5 -10t-12.5 -40v-204q0 -163 -167 -163h-24v56h24q54 0 79 27t25 93v203q0 27 14 45t43 18h10v6h-10q-29 0 -43 18.5t-14 44.5v193q0 66 -25 97t-79 31h-24v56h24q167 0 167 -171v-194z" />
    <glyph glyph-name="asciitilde" unicode="~" horiz-adv-x="412" 
d="M338 365q0 -62 -19.5 -87t-50.5 -25q-18 0 -31.5 6.5t-25.5 16.5q-14 11 -26 20.5t-28 9.5q-31 0 -31 -53h-52q0 61 21.5 86.5t50.5 25.5q17 0 29.5 -6.5t25.5 -16.5q12 -10 25 -20.5t29 -10.5q15 0 23 12.5t8 41.5h52z" />
    <glyph glyph-name="uni00A0" unicode="&#xa0;" horiz-adv-x="180" 
 />
    <glyph glyph-name="exclamdown" unicode="&#xa1;" horiz-adv-x="286" 
d="M109 -152v510h58l7 -68v-442h-65zM185 477q0 -19 -12 -30t-31 -11q-20 0 -31.5 11t-11.5 30t11.5 30t31.5 11q19 0 31 -11t12 -30z" />
    <glyph glyph-name="cent" unicode="&#xa2;" horiz-adv-x="375" 
d="M160 -68v63q-57 10 -80.5 49t-23.5 106v208q0 66 24.5 105t79.5 49v64h64v-63q56 -8 80 -47t24 -103v-27h-61v14q0 25 -3 46t-11 37t-22.5 25t-37.5 9t-37.5 -8.5t-22.5 -22t-11 -31t-3 -35.5v-232q0 -18 3 -35.5t11 -31t22.5 -22t38.5 -8.5t38.5 9.5t22 25t10 37
t2.5 45.5v14h61v-27q0 -64 -24 -103t-80 -47v-63h-64z" />
    <glyph glyph-name="sterling" unicode="&#xa3;" horiz-adv-x="439" 
d="M46 297h50v206q0 81 37.5 126.5t112.5 45.5q147 0 147 -167v-12h-64v26q0 19 -4 36.5t-14 31t-25.5 22t-39.5 8.5q-23 0 -39.5 -9t-27 -24t-15.5 -35.5t-5 -42.5v-212h165v-55h-165v-187h234v-55h-347v55h50v187h-50v55z" />
    <glyph glyph-name="currency" unicode="&#xa4;" horiz-adv-x="404" 
d="M339 297q0 -47 -10 -80t-33 -54l42 -85h-58l-30 58q-21 -6 -49 -6q-31 0 -49 7l-30 -59h-57l40 86q-21 20 -31 47t-10 70v28q0 45 9.5 78.5t32.5 54.5l-42 86h57l31 -59q10 3 22.5 5t26.5 2t26.5 -2t22.5 -5l31 59h58l-43 -86q43 -37 43 -125v-20zM275 313
q0 22 -2.5 42.5t-10.5 36t-22.5 24.5t-37.5 9q-24 0 -38.5 -9t-23 -24.5t-11 -36t-2.5 -42.5v-20q0 -22 2.5 -42.5t10.5 -36t23 -24.5t39 -9q22 0 36.5 8t22.5 21.5t11 31t3 36.5v35z" />
    <glyph glyph-name="yen" unicode="&#xa5;" horiz-adv-x="442" 
d="M67 332h110l-131 333h65l109 -306h3l107 306h65l-132 -333h111v-43h-121v-61h121v-43h-121v-185h-64v185h-122v43h122v61h-122v43z" />
    <glyph glyph-name="brokenbar" unicode="&#xa6;" horiz-adv-x="291" 
d="M177 401h-64v382h64v-382zM177 277v-382h-64v382h64z" />
    <glyph glyph-name="section" unicode="&#xa7;" horiz-adv-x="381" 
d="M149 426q-18 -8 -29.5 -23.5t-11.5 -35.5q0 -30 23 -53.5t72 -50.5l29 -16q17 11 28.5 27t11.5 33q0 30 -22 54t-73 50zM106 461q-25 20 -39 42.5t-14 57.5q0 23 8 45t24 39t41 27.5t60 10.5q72 0 106.5 -39.5t34.5 -114.5v-9h-63v10q0 19 -3 37.5t-11.5 33t-23 23
t-37.5 8.5q-21 0 -35 -5.5t-22.5 -15t-12.5 -21.5t-4 -24q0 -17 4.5 -31t16.5 -27.5t33 -27.5t54 -32q57 -31 81 -62.5t24 -73.5q0 -35 -16.5 -59t-36.5 -42q25 -22 38.5 -46.5t13.5 -55.5q0 -24 -8.5 -45.5t-25 -38t-41.5 -26t-59 -9.5q-72 0 -105 41t-33 113v9h62v-10
q0 -20 3 -38t11 -32.5t23 -23t38 -8.5q41 0 57 21t16 45q0 18 -5 32t-18 27.5t-35.5 29t-58.5 35.5q-46 26 -70.5 57.5t-24.5 76.5q0 35 15 57.5t38 38.5z" />
    <glyph glyph-name="dieresis" unicode="&#xa8;" horiz-adv-x="434" 
d="M152 655q17 0 28 -11t11 -28t-11 -27.5t-28 -10.5t-28.5 10.5t-11.5 27.5t11.5 28t28.5 11zM282 655q17 0 28 -11t11 -28t-11 -27.5t-28 -10.5t-28 10.5t-11 27.5t11 28t28 11z" />
    <glyph glyph-name="copyright" unicode="&#xa9;" horiz-adv-x="692" 
d="M621 229q0 -55 -15.5 -102t-48.5 -82t-85.5 -55t-126.5 -20t-126 20t-85 54.5t-48.5 82t-15.5 102.5v202q0 51 14.5 98.5t47.5 84t85.5 59t127.5 22.5q76 0 128.5 -22.5t85.5 -60t47.5 -85t14.5 -96.5v-202zM568 433q0 39 -11.5 77.5t-38 69t-69 49.5t-104.5 19
t-104 -18.5t-68 -48.5t-37.5 -68.5t-11.5 -77.5v-206q0 -42 11.5 -80.5t38 -67.5t68.5 -46.5t103 -17.5t104 17.5t69 46.5t38 67t12 80v205zM422 399v25q0 19 -3 36.5t-11.5 31t-23 21.5t-37.5 8t-37.5 -9.5t-23 -24t-11.5 -33t-3 -36.5v-177q0 -18 3 -35t11.5 -30.5t23 -22
t37.5 -8.5t37.5 8t23 21t11.5 30.5t3 36.5v25h56v-18q0 -71 -30.5 -111t-100.5 -40q-71 0 -101 41t-30 115v153q0 36 7 66t22.5 51t40.5 33t60 12q71 0 101.5 -39.5t30.5 -110.5v-19h-56z" />
    <glyph glyph-name="ordfeminine" unicode="&#xaa;" horiz-adv-x="256" 
d="M35 582v8q0 36 20.5 60.5t64.5 24.5q88 0 88 -96v-159q0 -14 5.5 -19t16.5 -6v-38q-30 1 -43.5 10t-19.5 28q-9 -17 -26.5 -27.5t-39.5 -10.5q-32 0 -50.5 20t-18.5 62v26q0 31 17 54.5t58 23.5q14 0 28 -3t25 -10v56q0 21 -7.5 37.5t-32.5 16.5q-21 0 -31 -13t-10 -36
v-9h-44zM160 504q-8 3 -16.5 5t-19.5 2q-26 0 -35.5 -12.5t-9.5 -38.5v-17q0 -24 8 -37t30 -13q16 0 26.5 7t16.5 18v86z" />
    <glyph glyph-name="guillemotleft" unicode="&#xab;" horiz-adv-x="468" 
d="M199 464l43 -40l-137 -132l137 -131l-43 -40l-149 143v56zM380 464l43 -40l-137 -132l137 -131l-43 -40l-149 143v56z" />
    <glyph glyph-name="logicalnot" unicode="&#xac;" horiz-adv-x="412" 
d="M83 360h246v-144h-55v88h-191v56z" />
    <glyph glyph-name="uni00AD" unicode="&#xad;" horiz-adv-x="271" 
 />
    <glyph glyph-name="registered" unicode="&#xae;" horiz-adv-x="533" 
d="M473 396q0 -44 -10.5 -82t-35 -66t-64 -43.5t-97.5 -15.5q-57 0 -96.5 15.5t-64 43.5t-35 66t-10.5 82v94q0 45 10.5 82.5t35 65.5t64 43.5t96.5 15.5q58 0 97.5 -15.5t64 -43.5t35 -65.5t10.5 -82.5v-94zM423 490q0 83 -37 123t-120 40q-82 0 -118.5 -40t-36.5 -122v-96
q0 -82 36.5 -122t118.5 -40q83 0 120 40t37 122v95zM343 507q0 -47 -38 -64l50 -141h-45l-45 135h-28v-135h-44v287h72q39 0 58.5 -18.5t19.5 -52.5v-11zM300 520q0 34 -37 34h-26v-87h26q21 0 29 8.5t8 26.5v18z" />
    <glyph glyph-name="macron" unicode="&#xaf;" horiz-adv-x="438" 
d="M119 644h199v-52h-199v52z" />
    <glyph glyph-name="degree" unicode="&#xb0;" horiz-adv-x="297" 
d="M96 628q0 -22 13 -36.5t40 -14.5q28 0 40.5 14.5t12.5 36.5t-12.5 36.5t-40.5 14.5q-27 0 -40 -14.5t-13 -36.5zM49 628q0 41 26.5 67.5t73.5 26.5t73.5 -26.5t26.5 -67.5t-26.5 -67.5t-73.5 -26.5t-73.5 26.5t-26.5 67.5z" />
    <glyph glyph-name="plusminus" unicode="&#xb1;" horiz-adv-x="412" 
d="M83 360h95v65h56v-65h95v-56h-95v-65h-56v65h-95v56zM83 208h246v-56h-246v56z" />
    <glyph glyph-name="twosuperior" unicode="&#xb2;" horiz-adv-x="306" 
d="M46 566v8q0 43 26 72t86 29q57 0 81 -26t24 -67v-8q0 -54 -70 -143l-86 -114h156v-47h-213v53l82 110q39 50 57 80t18 56v5q0 25 -11.5 40t-39.5 15q-31 0 -43 -17t-12 -39v-7h-55z" />
    <glyph glyph-name="threesuperior" unicode="&#xb3;" horiz-adv-x="307" 
d="M202 577q0 20 -12 36t-41 16q-28 0 -40 -16.5t-12 -37.5v-9h-55v7q0 45 26.5 73.5t82.5 28.5q55 0 80.5 -27t25.5 -66v-17q0 -30 -14.5 -52t-39.5 -30v-2q26 -8 40 -29.5t14 -51.5v-30q0 -46 -27 -76t-81 -30q-53 0 -80 26t-27 73v13h55v-11q0 -23 11 -39t40 -16t41.5 18
t12.5 43v29q0 23 -14.5 40t-43.5 17h-31v45h30q31 0 45 17.5t14 38.5v19z" />
    <glyph glyph-name="acute" unicode="&#xb4;" horiz-adv-x="437" 
d="M292 683l-72 -135h-52l57 135h67z" />
    <glyph glyph-name="mu" unicode="&#xb5;" horiz-adv-x="416" 
d="M133 508v-391q0 -12 3 -25t11 -24.5t21 -19t34 -7.5q29 0 48.5 14t29.5 34v419h64v-419q0 -20 7 -32t30 -12v-55q-38 0 -54.5 14.5t-21.5 40.5q-14 -26 -39 -40.5t-60 -14.5q-23 0 -42.5 9t-30.5 23v-167l-6 -65h-57v718h63z" />
    <glyph glyph-name="paragraph" unicode="&#xb6;" horiz-adv-x="428" 
d="M296 0v665h63v-665h-63zM239 0h-22v357h-34q-68 0 -95 38.5t-27 112.5v6q0 74 27 112.5t95 38.5h56v-665z" />
    <glyph glyph-name="periodcentered" unicode="&#xb7;" horiz-adv-x="371" 
d="M188 383q18 0 29.5 -11.5t11.5 -28.5q0 -18 -11.5 -29.5t-29.5 -11.5t-30 11.5t-12 29.5q0 17 12 28.5t30 11.5z" />
    <glyph glyph-name="cedilla" unicode="&#xb8;" horiz-adv-x="437" 
d="M195 0h39v-44h8q37 0 59.5 -17t22.5 -59q0 -40 -24.5 -61t-64.5 -21t-62 18.5t-22 59.5v2h43v-2q0 -40 41 -40q20 0 31.5 10.5t11.5 32.5q0 23 -13 33t-39 10h-31v78z" />
    <glyph glyph-name="onesuperior" unicode="&#xb9;" horiz-adv-x="306" 
d="M166 270v342l-98 -52l-29 43l118 66h64v-399h-55z" />
    <glyph glyph-name="ordmasculine" unicode="&#xba;" horiz-adv-x="240" 
d="M208 455q0 -46 -20 -72t-68 -26t-68 26t-20 72v122q0 46 21.5 72t66.5 26t66.5 -26t21.5 -72v-122zM160 585q0 22 -7.5 38.5t-32.5 16.5t-33 -17t-8 -38v-139q0 -21 8 -37t33 -16t32.5 16t7.5 37v139z" />
    <glyph glyph-name="guillemotright" unicode="&#xbb;" horiz-adv-x="468" 
d="M88 121l-43 40l137 131l-137 132l43 40l149 -144v-56zM269 121l-43 40l137 131l-137 132l43 40l149 -144v-56z" />
    <glyph glyph-name="onequarter" unicode="&#xbc;" horiz-adv-x="733" 
d="M170 270v342l-98 -52l-29 43l118 66h64v-399h-55zM243 0h-55l347 665h55zM629 81h-167v58l140 260h56l-145 -271h116v74h51v-202h-51v81z" />
    <glyph glyph-name="onehalf" unicode="&#xbd;" horiz-adv-x="733" 
d="M170 270v342l-98 -52l-29 43l118 66h64v-399h-55zM216 0h-55l347 665h55zM470 296v8q0 43 26 72t86 29q57 0 81 -26t24 -67v-8q0 -54 -70 -143l-86 -114h156v-47h-213v53l82 110q39 50 57 80t18 56v5q0 25 -11.5 40t-39.5 15q-31 0 -43 -17t-12 -39v-7h-55z" />
    <glyph glyph-name="threequarters" unicode="&#xbe;" horiz-adv-x="734" 
d="M202 577q0 20 -12 36t-41 16q-28 0 -40 -16.5t-12 -37.5v-9h-55v7q0 45 26.5 73.5t82.5 28.5q55 0 80.5 -27t25.5 -66v-17q0 -30 -14.5 -52t-39.5 -30v-2q26 -8 40 -29.5t14 -51.5v-30q0 -46 -27 -76t-81 -30q-53 0 -80 26t-27 73v13h55v-11q0 -23 11 -39t40 -16t41.5 18
t12.5 43v29q0 23 -14.5 40t-43.5 17h-31v45h30q31 0 45 17.5t14 38.5v19zM244 0h-55l347 665h55zM629 81h-167v58l140 260h56l-145 -271h116v74h51v-202h-51v81z" />
    <glyph glyph-name="questiondown" unicode="&#xbf;" horiz-adv-x="397" 
d="M343 25v-44q0 -66 -37.5 -104.5t-109.5 -38.5q-69 0 -103 35t-34 89v44q0 24 3.5 42.5t12.5 34.5t24 32t38 35q22 18 34 34t18 34t7 40t1 51v49h64v-55q0 -38 -2.5 -64t-10.5 -46t-23 -37.5t-40 -38.5q-21 -17 -33.5 -31t-18.5 -28t-8 -28t-2 -29v-32q0 -32 19 -53.5
t56 -21.5t59 21.5t22 67.5v42h64zM271 477q0 -19 -11.5 -30t-31.5 -11q-19 0 -30.5 11t-11.5 30t11.5 30t30.5 11q20 0 31.5 -11t11.5 -30z" />
    <glyph glyph-name="Agrave" unicode="&#xc0;" horiz-adv-x="420" 
d="M28 0l144 665h76l144 -665h-66l-34 164h-166l-35 -164h-63zM133 218h151l-74 354h-3zM210 838l56 -135h-51l-72 135h67z" />
    <glyph glyph-name="Aacute" unicode="&#xc1;" horiz-adv-x="420" 
d="M28 0l144 665h76l144 -665h-66l-34 164h-166l-35 -164h-63zM133 218h151l-74 354h-3zM279 838l-72 -135h-52l57 135h67z" />
    <glyph glyph-name="Acircumflex" unicode="&#xc2;" horiz-adv-x="420" 
d="M28 0l144 665h76l144 -665h-66l-34 164h-166l-35 -164h-63zM133 218h151l-74 354h-3zM237 838l71 -135h-51l-47 93l-48 -93h-51l71 135h55z" />
    <glyph glyph-name="Atilde" unicode="&#xc3;" horiz-adv-x="420" 
d="M28 0l144 665h76l144 -665h-66l-34 164h-166l-35 -164h-63zM133 218h151l-74 354h-3zM84 724q0 27 5.5 44.5t15 28t22 15t25.5 4.5q19 0 33.5 -6.5t26.5 -15t23 -15t25 -6.5q11 0 18.5 7.5t7.5 33.5v5h49v-5q0 -27 -5.5 -44.5t-14.5 -28t-21 -15t-25 -4.5q-19 0 -33.5 7
t-27 15.5t-23.5 15.5t-24 7q-12 0 -19.5 -8t-7.5 -35v-4h-50v4z" />
    <glyph glyph-name="Adieresis" unicode="&#xc4;" horiz-adv-x="420" 
d="M28 0l144 665h76l144 -665h-66l-34 164h-166l-35 -164h-63zM133 218h151l-74 354h-3zM144 810q17 0 28 -11t11 -28t-11 -27.5t-28 -10.5t-28.5 10.5t-11.5 27.5t11.5 28t28.5 11zM274 810q17 0 28 -11t11 -28t-11 -27.5t-28 -10.5t-28 10.5t-11 27.5t11 28t28 11z" />
    <glyph glyph-name="Aring" unicode="&#xc5;" horiz-adv-x="420" 
d="M28 0l144 665h76l144 -665h-66l-34 164h-166l-35 -164h-63zM133 218h151l-74 354h-3zM167 776q0 -17 10 -30t33 -13t33 13t10 30q0 18 -10 31t-33 13t-33 -13t-10 -31zM128 776q0 35 22 56.5t60 21.5t60 -21.5t22 -56.5q0 -34 -22 -55.5t-60 -21.5t-60 21.5t-22 55.5z
" />
    <glyph glyph-name="AE" unicode="&#xc6;" horiz-adv-x="607" 
d="M318 169h-163l-72 -169h-64l277 665h281v-56h-195v-224h162v-55h-162v-275h195v-55h-259v169zM318 224v340h-4l-141 -340h145z" />
    <glyph glyph-name="Ccedilla" unicode="&#xc7;" horiz-adv-x="394" 
d="M183 -8q-63 7 -93.5 53t-30.5 126v323q0 88 36.5 134.5t111.5 46.5t112 -46.5t37 -124.5v-8h-64v18q0 17 -4.5 35.5t-14.5 34.5t-26 26t-40 10q-23 0 -39.5 -10.5t-26.5 -27.5t-14.5 -38t-4.5 -42v-339q0 -21 4.5 -42t14.5 -38t26.5 -27.5t39.5 -10.5q24 0 40 10t26 26
t14.5 34.5t4.5 35.5v18h64v-9q0 -73 -34 -118.5t-100 -50.5v-35h9q37 0 59.5 -17t22.5 -59q0 -39 -24 -60.5t-65 -21.5t-63 18.5t-22 59.5v2h43v-2q0 -21 11.5 -30.5t30.5 -9.5q43 0 43 43q0 23 -13 33t-39 10h-32v70z" />
    <glyph glyph-name="Egrave" unicode="&#xc8;" horiz-adv-x="358" 
d="M329 609h-196v-224h163v-55h-163v-275h196v-55h-259v665h259v-56zM196 838l56 -135h-51l-72 135h67z" />
    <glyph glyph-name="Eacute" unicode="&#xc9;" horiz-adv-x="358" 
d="M329 609h-196v-224h163v-55h-163v-275h196v-55h-259v665h259v-56zM270 838l-72 -135h-52l57 135h67z" />
    <glyph glyph-name="Ecircumflex" unicode="&#xca;" horiz-adv-x="358" 
d="M329 609h-196v-224h163v-55h-163v-275h196v-55h-259v665h259v-56zM223 838l71 -135h-51l-47 93l-48 -93h-51l71 135h55z" />
    <glyph glyph-name="Edieresis" unicode="&#xcb;" horiz-adv-x="358" 
d="M329 609h-196v-224h163v-55h-163v-275h196v-55h-259v665h259v-56zM135 810q17 0 28 -11t11 -28t-11 -27.5t-28 -10.5t-28.5 10.5t-11.5 27.5t11.5 28t28.5 11zM265 810q17 0 28 -11t11 -28t-11 -27.5t-28 -10.5t-28 10.5t-11 27.5t11 28t28 11z" />
    <glyph glyph-name="Igrave" unicode="&#xcc;" horiz-adv-x="203" 
d="M70 0v665h63v-665h-63zM101 838l56 -135h-51l-72 135h67z" />
    <glyph glyph-name="Iacute" unicode="&#xcd;" horiz-adv-x="203" 
d="M70 0v665h63v-665h-63zM175 838l-72 -135h-52l57 135h67z" />
    <glyph glyph-name="Icircumflex" unicode="&#xce;" horiz-adv-x="203" 
d="M70 0v665h63v-665h-63zM129 838l71 -135h-51l-47 93l-48 -93h-51l71 135h55z" />
    <glyph glyph-name="Idieresis" unicode="&#xcf;" horiz-adv-x="203" 
d="M70 0v665h63v-665h-63zM37 810q17 0 28 -11t11 -28t-11 -27.5t-28 -10.5t-28.5 10.5t-11.5 27.5t11.5 28t28.5 11zM167 810q17 0 28 -11t11 -28t-11 -27.5t-28 -10.5t-28 10.5t-11 27.5t11 28t28 11z" />
    <glyph glyph-name="Eth" unicode="&#xd0;" horiz-adv-x="435" 
d="M21 359h55v306h151q75 0 111.5 -41.5t36.5 -119.5v-343q0 -78 -36.5 -119.5t-111.5 -41.5h-151v305h-55v54zM312 512q0 18 -4.5 35t-14.5 31t-26.5 22.5t-39.5 8.5h-88v-250h84v-54h-84v-250h88q23 0 39.5 8.5t26.5 22.5t14.5 31.5t4.5 35.5v359z" />
    <glyph glyph-name="Ntilde" unicode="&#xd1;" horiz-adv-x="460" 
d="M390 0h-78l-185 550h-3v-550h-54v665h77l185 -560h4v560h54v-665zM103 724q0 27 5.5 44.5t15 28t22 15t25.5 4.5q19 0 33.5 -6.5t26.5 -15t23 -15t25 -6.5q11 0 18.5 7.5t7.5 33.5v5h49v-5q0 -27 -5.5 -44.5t-14.5 -28t-21 -15t-25 -4.5q-19 0 -33.5 7t-27 15.5
t-23.5 15.5t-24 7q-12 0 -19.5 -8t-7.5 -35v-4h-50v4z" />
    <glyph glyph-name="Ograve" unicode="&#xd2;" horiz-adv-x="412" 
d="M354 171q0 -88 -37 -134.5t-112 -46.5t-111 46.5t-36 134.5v323q0 88 36.5 134.5t111.5 46.5t111.5 -46.5t36.5 -134.5v-323zM290 502q0 21 -4 42.5t-14 38t-26.5 27t-40.5 10.5t-40 -10.5t-25.5 -27t-14 -38t-4.5 -42.5v-338q0 -21 4.5 -42.5t14 -38.5t25.5 -27.5
t40 -10.5t40.5 10.5t26.5 27.5t14 38t4 43v338zM206 838l56 -135h-51l-72 135h67z" />
    <glyph glyph-name="Oacute" unicode="&#xd3;" horiz-adv-x="412" 
d="M354 171q0 -88 -37 -134.5t-112 -46.5t-111 46.5t-36 134.5v323q0 88 36.5 134.5t111.5 46.5t111.5 -46.5t36.5 -134.5v-323zM290 502q0 21 -4 42.5t-14 38t-26.5 27t-40.5 10.5t-40 -10.5t-25.5 -27t-14 -38t-4.5 -42.5v-338q0 -21 4.5 -42.5t14 -38.5t25.5 -27.5
t40 -10.5t40.5 10.5t26.5 27.5t14 38t4 43v338zM280 838l-72 -135h-52l57 135h67z" />
    <glyph glyph-name="Ocircumflex" unicode="&#xd4;" horiz-adv-x="412" 
d="M354 171q0 -88 -37 -134.5t-112 -46.5t-111 46.5t-36 134.5v323q0 88 36.5 134.5t111.5 46.5t111.5 -46.5t36.5 -134.5v-323zM290 502q0 21 -4 42.5t-14 38t-26.5 27t-40.5 10.5t-40 -10.5t-25.5 -27t-14 -38t-4.5 -42.5v-338q0 -21 4.5 -42.5t14 -38.5t25.5 -27.5
t40 -10.5t40.5 10.5t26.5 27.5t14 38t4 43v338zM233 838l71 -135h-51l-47 93l-48 -93h-51l71 135h55z" />
    <glyph glyph-name="Otilde" unicode="&#xd5;" horiz-adv-x="412" 
d="M354 171q0 -88 -37 -134.5t-112 -46.5t-111 46.5t-36 134.5v323q0 88 36.5 134.5t111.5 46.5t111.5 -46.5t36.5 -134.5v-323zM290 502q0 21 -4 42.5t-14 38t-26.5 27t-40.5 10.5t-40 -10.5t-25.5 -27t-14 -38t-4.5 -42.5v-338q0 -21 4.5 -42.5t14 -38.5t25.5 -27.5
t40 -10.5t40.5 10.5t26.5 27.5t14 38t4 43v338zM80 724q0 27 5.5 44.5t15 28t22 15t25.5 4.5q19 0 33.5 -6.5t26.5 -15t23 -15t25 -6.5q11 0 18.5 7.5t7.5 33.5v5h49v-5q0 -27 -5.5 -44.5t-14.5 -28t-21 -15t-25 -4.5q-19 0 -33.5 7t-27 15.5t-23.5 15.5t-24 7
q-12 0 -19.5 -8t-7.5 -35v-4h-50v4z" />
    <glyph glyph-name="Odieresis" unicode="&#xd6;" horiz-adv-x="412" 
d="M354 171q0 -88 -37 -134.5t-112 -46.5t-111 46.5t-36 134.5v323q0 88 36.5 134.5t111.5 46.5t111.5 -46.5t36.5 -134.5v-323zM290 502q0 21 -4 42.5t-14 38t-26.5 27t-40.5 10.5t-40 -10.5t-25.5 -27t-14 -38t-4.5 -42.5v-338q0 -21 4.5 -42.5t14 -38.5t25.5 -27.5
t40 -10.5t40.5 10.5t26.5 27.5t14 38t4 43v338zM141 810q17 0 28 -11t11 -28t-11 -27.5t-28 -10.5t-28.5 10.5t-11.5 27.5t11.5 28t28.5 11zM271 810q17 0 28 -11t11 -28t-11 -27.5t-28 -10.5t-28 10.5t-11 27.5t11 28t28 11z" />
    <glyph glyph-name="multiply" unicode="&#xd7;" horiz-adv-x="412" 
d="M100 234l67 68l-67 67l39 39l67 -67l68 67l39 -39l-67 -67l67 -68l-39 -39l-68 67l-67 -67z" />
    <glyph glyph-name="Oslash" unicode="&#xd8;" 
d="M354 171q0 -88 -37 -134.5t-112 -46.5q-61 0 -95 30l-20 -55l-32 9l27 75q-27 45 -27 122v323q0 88 36.5 134.5t111.5 46.5q59 0 96 -32l21 57l32 -9l-28 -77q27 -45 27 -120v-323zM121 148l155 425q-9 20 -26.5 33.5t-44.5 13.5q-24 0 -40 -10.5t-25.5 -27t-14 -38
t-4.5 -42.5v-354zM290 512l-155 -422q10 -20 27 -32.5t43 -12.5q24 0 40.5 10.5t26.5 27.5t14 38t4 43v348z" />
    <glyph glyph-name="Ugrave" unicode="&#xd9;" horiz-adv-x="433" 
d="M365 665v-494q0 -88 -37 -134.5t-112 -46.5t-111.5 46.5t-36.5 134.5v494h63v-502q0 -21 4.5 -42t15 -38t26.5 -27.5t39 -10.5q24 0 40.5 10.5t26.5 27.5t14.5 38t4.5 42v502h63zM218 838l56 -135h-51l-72 135h67z" />
    <glyph glyph-name="Uacute" unicode="&#xda;" horiz-adv-x="433" 
d="M365 665v-494q0 -88 -37 -134.5t-112 -46.5t-111.5 46.5t-36.5 134.5v494h63v-502q0 -21 4.5 -42t15 -38t26.5 -27.5t39 -10.5q24 0 40.5 10.5t26.5 27.5t14.5 38t4.5 42v502h63zM291 838l-72 -135h-52l57 135h67z" />
    <glyph glyph-name="Ucircumflex" unicode="&#xdb;" horiz-adv-x="433" 
d="M365 665v-494q0 -88 -37 -134.5t-112 -46.5t-111.5 46.5t-36.5 134.5v494h63v-502q0 -21 4.5 -42t15 -38t26.5 -27.5t39 -10.5q24 0 40.5 10.5t26.5 27.5t14.5 38t4.5 42v502h63zM245 838l71 -135h-51l-47 93l-48 -93h-51l71 135h55z" />
    <glyph glyph-name="Udieresis" unicode="&#xdc;" horiz-adv-x="433" 
d="M365 665v-494q0 -88 -37 -134.5t-112 -46.5t-111.5 46.5t-36.5 134.5v494h63v-502q0 -21 4.5 -42t15 -38t26.5 -27.5t39 -10.5q24 0 40.5 10.5t26.5 27.5t14.5 38t4.5 42v502h63zM152 810q17 0 28 -11t11 -28t-11 -27.5t-28 -10.5t-28.5 10.5t-11.5 27.5t11.5 28t28.5 11
zM282 810q17 0 28 -11t11 -28t-11 -27.5t-28 -10.5t-28 10.5t-11 27.5t11 28t28 11z" />
    <glyph glyph-name="Yacute" unicode="&#xdd;" horiz-adv-x="409" 
d="M236 215v-215h-64v216l-143 449h66l107 -364h3l108 364h66zM278 838l-72 -135h-52l57 135h67z" />
    <glyph glyph-name="Thorn" unicode="&#xde;" horiz-adv-x="412" 
d="M363 299q0 -79 -37 -120t-112 -41h-79v-138h-65v665h65v-138h79q75 0 112 -41.5t37 -120.5v-66zM300 374q0 19 -5 37t-15.5 31.5t-27 21.5t-40.5 8h-77v-279h77q48 0 68 30t20 69v82z" />
    <glyph glyph-name="germandbls" unicode="&#xdf;" horiz-adv-x="404" 
d="M133 -65l-5 -65h-58v675q0 74 32.5 119.5t104.5 45.5t105.5 -40.5t33.5 -115.5v-21q0 -55 -20 -85t-55 -47q36 -15 55.5 -47.5t19.5 -92.5v-116q0 -72 -30.5 -111.5t-96.5 -39.5h-23v55h17q32 0 51 22.5t19 67.5v138q0 39 -17.5 65.5t-59.5 26.5h-20v55h20q19 0 33.5 8
t24.5 21t14.5 29.5t4.5 32.5v45q0 19 -3 36.5t-11.5 31.5t-23 22.5t-36.5 8.5q-23 0 -38 -9.5t-23.5 -24.5t-11.5 -34t-3 -37v-619z" />
    <glyph glyph-name="agrave" unicode="&#xe0;" horiz-adv-x="397" 
d="M56 367v14q0 27 7.5 52t23 43.5t41 30t61.5 11.5q73 0 105.5 -39.5t32.5 -117.5v-275q0 -23 9.5 -31t27.5 -10v-55q-47 1 -65.5 17t-26.5 47q-16 -29 -41.5 -46.5t-63.5 -17.5q-55 0 -85 33.5t-30 99.5v42q0 27 6.5 51t21 41.5t38 28t56.5 10.5q23 0 46 -5t43 -16v95
q0 18 -3 35.5t-11 31t-22.5 22t-37.5 8.5q-39 0 -56.5 -23.5t-17.5 -61.5v-15h-59zM263 237q-17 6 -31 10t-36 4q-48 0 -64.5 -25t-16.5 -73v-16q0 -46 14.5 -71t59.5 -25q25 0 44 14t30 34v148zM195 683l56 -135h-51l-72 135h67z" />
    <glyph glyph-name="aacute" unicode="&#xe1;" horiz-adv-x="397" 
d="M56 367v14q0 27 7.5 52t23 43.5t41 30t61.5 11.5q73 0 105.5 -39.5t32.5 -117.5v-275q0 -23 9.5 -31t27.5 -10v-55q-47 1 -65.5 17t-26.5 47q-16 -29 -41.5 -46.5t-63.5 -17.5q-55 0 -85 33.5t-30 99.5v42q0 27 6.5 51t21 41.5t38 28t56.5 10.5q23 0 46 -5t43 -16v95
q0 18 -3 35.5t-11 31t-22.5 22t-37.5 8.5q-39 0 -56.5 -23.5t-17.5 -61.5v-15h-59zM263 237q-17 6 -31 10t-36 4q-48 0 -64.5 -25t-16.5 -73v-16q0 -46 14.5 -71t59.5 -25q25 0 44 14t30 34v148zM268 683l-72 -135h-52l57 135h67z" />
    <glyph glyph-name="acircumflex" unicode="&#xe2;" horiz-adv-x="397" 
d="M56 367v14q0 27 7.5 52t23 43.5t41 30t61.5 11.5q73 0 105.5 -39.5t32.5 -117.5v-275q0 -23 9.5 -31t27.5 -10v-55q-47 1 -65.5 17t-26.5 47q-16 -29 -41.5 -46.5t-63.5 -17.5q-55 0 -85 33.5t-30 99.5v42q0 27 6.5 51t21 41.5t38 28t56.5 10.5q23 0 46 -5t43 -16v95
q0 18 -3 35.5t-11 31t-22.5 22t-37.5 8.5q-39 0 -56.5 -23.5t-17.5 -61.5v-15h-59zM263 237q-17 6 -31 10t-36 4q-48 0 -64.5 -25t-16.5 -73v-16q0 -46 14.5 -71t59.5 -25q25 0 44 14t30 34v148zM222 683l71 -135h-51l-47 93l-48 -93h-51l71 135h55z" />
    <glyph glyph-name="atilde" unicode="&#xe3;" horiz-adv-x="397" 
d="M56 367v14q0 27 7.5 52t23 43.5t41 30t61.5 11.5q73 0 105.5 -39.5t32.5 -117.5v-275q0 -23 9.5 -31t27.5 -10v-55q-47 1 -65.5 17t-26.5 47q-16 -29 -41.5 -46.5t-63.5 -17.5q-55 0 -85 33.5t-30 99.5v42q0 27 6.5 51t21 41.5t38 28t56.5 10.5q23 0 46 -5t43 -16v95
q0 18 -3 35.5t-11 31t-22.5 22t-37.5 8.5q-39 0 -56.5 -23.5t-17.5 -61.5v-15h-59zM263 237q-17 6 -31 10t-36 4q-48 0 -64.5 -25t-16.5 -73v-16q0 -46 14.5 -71t59.5 -25q25 0 44 14t30 34v148zM70 569q0 27 5.5 44.5t15 28t22 15t25.5 4.5q19 0 33.5 -6.5t26.5 -15t23 -15
t25 -6.5q11 0 18.5 7.5t7.5 33.5v5h49v-5q0 -27 -5.5 -44.5t-14.5 -28t-21 -15t-25 -4.5q-19 0 -33.5 7t-27 15.5t-23.5 15.5t-24 7q-12 0 -19.5 -8t-7.5 -35v-4h-50v4z" />
    <glyph glyph-name="adieresis" unicode="&#xe4;" horiz-adv-x="397" 
d="M56 367v14q0 27 7.5 52t23 43.5t41 30t61.5 11.5q73 0 105.5 -39.5t32.5 -117.5v-275q0 -23 9.5 -31t27.5 -10v-55q-47 1 -65.5 17t-26.5 47q-16 -29 -41.5 -46.5t-63.5 -17.5q-55 0 -85 33.5t-30 99.5v42q0 27 6.5 51t21 41.5t38 28t56.5 10.5q23 0 46 -5t43 -16v95
q0 18 -3 35.5t-11 31t-22.5 22t-37.5 8.5q-39 0 -56.5 -23.5t-17.5 -61.5v-15h-59zM263 237q-17 6 -31 10t-36 4q-48 0 -64.5 -25t-16.5 -73v-16q0 -46 14.5 -71t59.5 -25q25 0 44 14t30 34v148zM130 655q17 0 28 -11t11 -28t-11 -27.5t-28 -10.5t-28.5 10.5t-11.5 27.5
t11.5 28t28.5 11zM260 655q17 0 28 -11t11 -28t-11 -27.5t-28 -10.5t-28 10.5t-11 27.5t11 28t28 11z" />
    <glyph glyph-name="aring" unicode="&#xe5;" horiz-adv-x="397" 
d="M56 367v14q0 27 7.5 52t23 43.5t41 30t61.5 11.5q73 0 105.5 -39.5t32.5 -117.5v-275q0 -23 9.5 -31t27.5 -10v-55q-47 1 -65.5 17t-26.5 47q-16 -29 -41.5 -46.5t-63.5 -17.5q-55 0 -85 33.5t-30 99.5v42q0 27 6.5 51t21 41.5t38 28t56.5 10.5q23 0 46 -5t43 -16v95
q0 18 -3 35.5t-11 31t-22.5 22t-37.5 8.5q-39 0 -56.5 -23.5t-17.5 -61.5v-15h-59zM263 237q-17 6 -31 10t-36 4q-48 0 -64.5 -25t-16.5 -73v-16q0 -46 14.5 -71t59.5 -25q25 0 44 14t30 34v148zM153 621q0 -17 10 -30t33 -13t33 13t10 30q0 18 -10 31t-33 13t-33 -13
t-10 -31zM114 621q0 35 22 56.5t60 21.5t60 -21.5t22 -56.5q0 -34 -22 -55.5t-60 -21.5t-60 21.5t-22 55.5z" />
    <glyph glyph-name="ae" unicode="&#xe6;" horiz-adv-x="592" 
d="M263 237q-17 6 -31 10t-36 4q-47 0 -64 -26t-17 -66v-31q0 -38 14 -62.5t56 -24.5q26 0 46.5 15.5t31.5 38.5v142zM327 146q0 -21 3 -40.5t11 -33.5t22 -22.5t37 -8.5t37.5 8.5t23 23t11.5 33.5t3 40v9h63v-8q0 -72 -32 -114.5t-101 -42.5q-41 0 -68.5 18t-42.5 50
q-46 -68 -121 -68q-59 0 -90 33.5t-31 99.5v40q0 27 7 51t22 42t38.5 29t57.5 11q20 0 43 -4.5t43 -14.5v79q0 21 -3 41t-11 35.5t-22.5 25t-37.5 9.5q-39 0 -56.5 -23.5t-17.5 -61.5v-15h-59v14q0 28 8 53t24 43.5t40 29.5t57 11q42 0 68.5 -18t42.5 -51q14 33 41 51t68 18
q69 0 101 -45t32 -129v-99h-211v-99zM474 356q0 22 -3 42t-11 35.5t-22.5 24.5t-37.5 9t-37 -9t-22 -24.5t-11 -35.5t-3 -42v-62h147v62z" />
    <glyph glyph-name="ccedilla" unicode="&#xe7;" horiz-adv-x="378" 
d="M170 -8q-60 7 -86 51t-26 121v180q0 84 31.5 129t104.5 45t104.5 -43.5t31.5 -119.5v-19h-60v26q0 21 -3 40t-11.5 33.5t-23 23t-37.5 8.5t-37.5 -9t-22.5 -24.5t-11 -35.5t-3 -42v-204q0 -22 3 -42t11 -35.5t22.5 -24.5t37.5 -9t37.5 8.5t23 23t11.5 33.5t3 40v26h60
v-19q0 -72 -28.5 -114.5t-93.5 -47.5v-35h9q37 0 59.5 -17t22.5 -59q0 -40 -24.5 -61t-64.5 -21t-62 18.5t-22 59.5v2h42v-2q0 -20 11 -30t31 -10t31.5 10.5t11.5 32.5q0 23 -13 33t-39 10h-31v70z" />
    <glyph glyph-name="egrave" unicode="&#xe8;" horiz-adv-x="386" 
d="M121 294h148v62q0 22 -3 42t-11 35.5t-22.5 24.5t-37.5 9t-37.5 -9t-22.5 -24.5t-11 -35.5t-3 -42v-62zM271 155h62v-8q0 -72 -33 -114.5t-106 -42.5q-75 0 -105.5 45t-30.5 129v180q0 84 31.5 129t104.5 45q75 0 107 -45t32 -129v-99h-212v-93q0 -22 3 -42t11 -35.5
t22.5 -24.5t37.5 -9t37.5 8.5t23 23t12 33.5t3.5 40v9zM194 683l56 -135h-51l-72 135h67z" />
    <glyph glyph-name="eacute" unicode="&#xe9;" horiz-adv-x="386" 
d="M121 294h148v62q0 22 -3 42t-11 35.5t-22.5 24.5t-37.5 9t-37.5 -9t-22.5 -24.5t-11 -35.5t-3 -42v-62zM271 155h62v-8q0 -72 -33 -114.5t-106 -42.5q-75 0 -105.5 45t-30.5 129v180q0 84 31.5 129t104.5 45q75 0 107 -45t32 -129v-99h-212v-93q0 -22 3 -42t11 -35.5
t22.5 -24.5t37.5 -9t37.5 8.5t23 23t12 33.5t3.5 40v9zM267 683l-72 -135h-52l57 135h67z" />
    <glyph glyph-name="ecircumflex" unicode="&#xea;" horiz-adv-x="386" 
d="M121 294h148v62q0 22 -3 42t-11 35.5t-22.5 24.5t-37.5 9t-37.5 -9t-22.5 -24.5t-11 -35.5t-3 -42v-62zM271 155h62v-8q0 -72 -33 -114.5t-106 -42.5q-75 0 -105.5 45t-30.5 129v180q0 84 31.5 129t104.5 45q75 0 107 -45t32 -129v-99h-212v-93q0 -22 3 -42t11 -35.5
t22.5 -24.5t37.5 -9t37.5 8.5t23 23t12 33.5t3.5 40v9zM221 683l71 -135h-51l-47 93l-48 -93h-51l71 135h55z" />
    <glyph glyph-name="edieresis" unicode="&#xeb;" horiz-adv-x="386" 
d="M121 294h148v62q0 22 -3 42t-11 35.5t-22.5 24.5t-37.5 9t-37.5 -9t-22.5 -24.5t-11 -35.5t-3 -42v-62zM271 155h62v-8q0 -72 -33 -114.5t-106 -42.5q-75 0 -105.5 45t-30.5 129v180q0 84 31.5 129t104.5 45q75 0 107 -45t32 -129v-99h-212v-93q0 -22 3 -42t11 -35.5
t22.5 -24.5t37.5 -9t37.5 8.5t23 23t12 33.5t3.5 40v9zM129 655q17 0 28 -11t11 -28t-11 -27.5t-28 -10.5t-28.5 10.5t-11.5 27.5t11.5 28t28.5 11zM259 655q17 0 28 -11t11 -28t-11 -27.5t-28 -10.5t-28 10.5t-11 27.5t11 28t28 11z" />
    <glyph glyph-name="igrave" unicode="&#xec;" horiz-adv-x="203" 
d="M70 508h58l7 -65v-443h-65v508zM101 683l56 -135h-51l-72 135h67z" />
    <glyph glyph-name="iacute" unicode="&#xed;" horiz-adv-x="203" 
d="M70 508h58l7 -65v-443h-65v508zM175 683l-72 -135h-52l57 135h67z" />
    <glyph glyph-name="icircumflex" unicode="&#xee;" horiz-adv-x="203" 
d="M70 508h58l7 -65v-443h-65v508zM129 683l71 -135h-51l-47 93l-48 -93h-51l71 135h55z" />
    <glyph glyph-name="idieresis" unicode="&#xef;" horiz-adv-x="203" 
d="M70 508h58l7 -65v-443h-65v508zM37 655q17 0 28 -11t11 -28t-11 -27.5t-28 -10.5t-28.5 10.5t-11.5 27.5t11.5 28t28.5 11zM167 655q17 0 28 -11t11 -28t-11 -27.5t-28 -10.5t-28 10.5t-11 27.5t11 28t28 11z" />
    <glyph glyph-name="eth" unicode="&#xf0;" horiz-adv-x="391" 
d="M153 580l54 28q-36 30 -85 30h-7v37h8q38 0 67.5 -11.5t53.5 -33.5l57 31l17 -24l-54 -29q35 -43 52 -104.5t17 -138.5v-201q0 -85 -32 -129.5t-107 -44.5q-73 0 -104.5 44.5t-31.5 128.5v178q0 83 32.5 130t96.5 47q35 0 56 -13t34 -27q-7 32 -19 59.5t-31 49.5l-58 -31
zM269 370q0 19 -3 36.5t-11 31t-22.5 21.5t-37.5 8q-21 0 -35 -9t-23 -25t-12.5 -37.5t-3.5 -45.5v-198q0 -22 3 -42t11 -35.5t22.5 -24.5t37.5 -9t37.5 9t22.5 24.5t11 35.5t3 42v218z" />
    <glyph glyph-name="ntilde" unicode="&#xf1;" horiz-adv-x="409" 
d="M119 458q14 25 43.5 42.5t68.5 17.5q60 0 87 -39t27 -117v-362h-58l-6 65v302q0 20 -2.5 38.5t-10 32t-21 21.5t-34.5 8q-29 0 -49.5 -14.5t-30.5 -32.5v-420h-63v508h44zM79 569q0 27 5.5 44.5t15 28t22 15t25.5 4.5q19 0 33.5 -6.5t26.5 -15t23 -15t25 -6.5
q11 0 18.5 7.5t7.5 33.5v5h49v-5q0 -27 -5.5 -44.5t-14.5 -28t-21 -15t-25 -4.5q-19 0 -33.5 7t-27 15.5t-23.5 15.5t-24 7q-12 0 -19.5 -8t-7.5 -35v-4h-50v4z" />
    <glyph glyph-name="ograve" unicode="&#xf2;" horiz-adv-x="391" 
d="M333 163q0 -84 -32 -128.5t-107 -44.5q-73 0 -104.5 44.5t-31.5 128.5v182q0 84 32 128.5t104 44.5q73 0 106 -44.5t33 -128.5v-182zM269 356q0 22 -3 42t-11 35.5t-22.5 24.5t-37.5 9t-37.5 -9t-22.5 -24.5t-11 -35.5t-3 -42v-204q0 -22 3 -42t11 -35.5t22.5 -24.5
t37.5 -9t37.5 9t22.5 24.5t11 35.5t3 42v204zM196 683l56 -135h-51l-72 135h67z" />
    <glyph glyph-name="oacute" unicode="&#xf3;" horiz-adv-x="391" 
d="M333 163q0 -84 -32 -128.5t-107 -44.5q-73 0 -104.5 44.5t-31.5 128.5v182q0 84 32 128.5t104 44.5q73 0 106 -44.5t33 -128.5v-182zM269 356q0 22 -3 42t-11 35.5t-22.5 24.5t-37.5 9t-37.5 -9t-22.5 -24.5t-11 -35.5t-3 -42v-204q0 -22 3 -42t11 -35.5t22.5 -24.5
t37.5 -9t37.5 9t22.5 24.5t11 35.5t3 42v204zM269 683l-72 -135h-52l57 135h67z" />
    <glyph glyph-name="ocircumflex" unicode="&#xf4;" horiz-adv-x="391" 
d="M333 163q0 -84 -32 -128.5t-107 -44.5q-73 0 -104.5 44.5t-31.5 128.5v182q0 84 32 128.5t104 44.5q73 0 106 -44.5t33 -128.5v-182zM269 356q0 22 -3 42t-11 35.5t-22.5 24.5t-37.5 9t-37.5 -9t-22.5 -24.5t-11 -35.5t-3 -42v-204q0 -22 3 -42t11 -35.5t22.5 -24.5
t37.5 -9t37.5 9t22.5 24.5t11 35.5t3 42v204zM223 683l71 -135h-51l-47 93l-48 -93h-51l71 135h55z" />
    <glyph glyph-name="otilde" unicode="&#xf5;" horiz-adv-x="391" 
d="M333 163q0 -84 -32 -128.5t-107 -44.5q-73 0 -104.5 44.5t-31.5 128.5v182q0 84 32 128.5t104 44.5q73 0 106 -44.5t33 -128.5v-182zM269 356q0 22 -3 42t-11 35.5t-22.5 24.5t-37.5 9t-37.5 -9t-22.5 -24.5t-11 -35.5t-3 -42v-204q0 -22 3 -42t11 -35.5t22.5 -24.5
t37.5 -9t37.5 9t22.5 24.5t11 35.5t3 42v204zM69 569q0 27 5.5 44.5t15 28t22 15t25.5 4.5q19 0 33.5 -6.5t26.5 -15t23 -15t25 -6.5q11 0 18.5 7.5t7.5 33.5v5h49v-5q0 -27 -5.5 -44.5t-14.5 -28t-21 -15t-25 -4.5q-19 0 -33.5 7t-27 15.5t-23.5 15.5t-24 7q-12 0 -19.5 -8
t-7.5 -35v-4h-50v4z" />
    <glyph glyph-name="odieresis" unicode="&#xf6;" horiz-adv-x="391" 
d="M333 163q0 -84 -32 -128.5t-107 -44.5q-73 0 -104.5 44.5t-31.5 128.5v182q0 84 32 128.5t104 44.5q73 0 106 -44.5t33 -128.5v-182zM269 356q0 22 -3 42t-11 35.5t-22.5 24.5t-37.5 9t-37.5 -9t-22.5 -24.5t-11 -35.5t-3 -42v-204q0 -22 3 -42t11 -35.5t22.5 -24.5
t37.5 -9t37.5 9t22.5 24.5t11 35.5t3 42v204zM131 655q17 0 28 -11t11 -28t-11 -27.5t-28 -10.5t-28.5 10.5t-11.5 27.5t11.5 28t28.5 11zM261 655q17 0 28 -11t11 -28t-11 -27.5t-28 -10.5t-28 10.5t-11 27.5t11 28t28 11z" />
    <glyph glyph-name="divide" unicode="&#xf7;" horiz-adv-x="412" 
d="M170 195q0 19 11.5 30t31.5 11q19 0 30.5 -11t11.5 -30t-11.5 -30t-30.5 -11q-20 0 -31.5 11t-11.5 30zM170 409q0 19 11.5 30t31.5 11q19 0 30.5 -11t11.5 -30t-11.5 -30t-30.5 -11q-20 0 -31.5 11t-11.5 30zM83 330h246v-56h-246v56z" />
    <glyph glyph-name="oslash" unicode="&#xf8;" horiz-adv-x="391" 
d="M333 163q0 -84 -32 -128.5t-107 -44.5q-55 0 -88 27l-20 -47l-30 12l27 62q-25 43 -25 119v182q0 84 31.5 128.5t104.5 44.5q56 0 88 -27l20 44l29 -12l-26 -57q28 -43 28 -121v-182zM269 356v11.5t-1 13.5l-135 -304q8 -17 22.5 -26.5t39.5 -9.5q23 0 37.5 9t22.5 24.5
t11 35.5t3 42v204zM121 129l135 302q-8 17 -23 26.5t-38 9.5t-37.5 -9t-22.5 -24.5t-11 -35.5t-3 -42v-227z" />
    <glyph glyph-name="ugrave" unicode="&#xf9;" horiz-adv-x="409" 
d="M65 508h64v-369q0 -21 3 -38.5t11 -31t22 -21t36 -7.5q26 0 45.5 14t29.5 34v419h64v-420q0 -18 7 -30.5t30 -12.5v-55q-46 0 -65 16t-26 48q-16 -29 -43 -46.5t-67 -17.5q-58 0 -84.5 37t-26.5 114v367zM205 683l56 -135h-51l-72 135h67z" />
    <glyph glyph-name="uacute" unicode="&#xfa;" horiz-adv-x="409" 
d="M65 508h64v-369q0 -21 3 -38.5t11 -31t22 -21t36 -7.5q26 0 45.5 14t29.5 34v419h64v-420q0 -18 7 -30.5t30 -12.5v-55q-46 0 -65 16t-26 48q-16 -29 -43 -46.5t-67 -17.5q-58 0 -84.5 37t-26.5 114v367zM278 683l-72 -135h-52l57 135h67z" />
    <glyph glyph-name="ucircumflex" unicode="&#xfb;" horiz-adv-x="409" 
d="M65 508h64v-369q0 -21 3 -38.5t11 -31t22 -21t36 -7.5q26 0 45.5 14t29.5 34v419h64v-420q0 -18 7 -30.5t30 -12.5v-55q-46 0 -65 16t-26 48q-16 -29 -43 -46.5t-67 -17.5q-58 0 -84.5 37t-26.5 114v367zM232 683l71 -135h-51l-47 93l-48 -93h-51l71 135h55z" />
    <glyph glyph-name="udieresis" unicode="&#xfc;" horiz-adv-x="409" 
d="M65 508h64v-369q0 -21 3 -38.5t11 -31t22 -21t36 -7.5q26 0 45.5 14t29.5 34v419h64v-420q0 -18 7 -30.5t30 -12.5v-55q-46 0 -65 16t-26 48q-16 -29 -43 -46.5t-67 -17.5q-58 0 -84.5 37t-26.5 114v367zM140 655q17 0 28 -11t11 -28t-11 -27.5t-28 -10.5t-28.5 10.5
t-11.5 27.5t11.5 28t28.5 11zM270 655q17 0 28 -11t11 -28t-11 -27.5t-28 -10.5t-28 10.5t-11 27.5t11 28t28 11z" />
    <glyph glyph-name="yacute" unicode="&#xfd;" horiz-adv-x="353" 
d="M37 508h63l79 -410h3l82 410h63l-131 -564q-16 -69 -55.5 -111t-112.5 -42v54q37 0 68 25t44 79l10 40zM268 683l-72 -135h-52l57 135h67z" />
    <glyph glyph-name="thorn" unicode="&#xfe;" horiz-adv-x="402" 
d="M133 75q7 -12 25 -23t46 -11q42 0 59.5 30.5t17.5 81.5v207q0 21 -3 40.5t-10.5 34t-22 23.5t-36.5 9q-29 0 -47.5 -14t-28.5 -31v-347zM133 -210h-63v920h57l6 -65v-176q16 23 40.5 36t57.5 13q55 0 84.5 -39.5t29.5 -124.5v-190q0 -84 -32 -129t-95 -45q-31 0 -52 9
t-33 23v-232z" />
    <glyph glyph-name="ydieresis" unicode="&#xff;" horiz-adv-x="353" 
d="M37 508h63l79 -410h3l82 410h63l-131 -564q-16 -69 -55.5 -111t-112.5 -42v54q37 0 68 25t44 79l10 40zM112 655q17 0 28 -11t11 -28t-11 -27.5t-28 -10.5t-28.5 10.5t-11.5 27.5t11.5 28t28.5 11zM242 655q17 0 28 -11t11 -28t-11 -27.5t-28 -10.5t-28 10.5t-11 27.5
t11 28t28 11z" />
    <glyph glyph-name="Amacron" unicode="&#x100;" horiz-adv-x="420" 
d="M28 0l144 665h76l144 -665h-66l-34 164h-166l-35 -164h-63zM133 218h151l-74 354h-3zM109 799h199v-52h-199v52z" />
    <glyph glyph-name="amacron" unicode="&#x101;" horiz-adv-x="397" 
d="M56 367v14q0 27 7.5 52t23 43.5t41 30t61.5 11.5q73 0 105.5 -39.5t32.5 -117.5v-275q0 -23 9.5 -31t27.5 -10v-55q-47 1 -65.5 17t-26.5 47q-16 -29 -41.5 -46.5t-63.5 -17.5q-55 0 -85 33.5t-30 99.5v42q0 27 6.5 51t21 41.5t38 28t56.5 10.5q23 0 46 -5t43 -16v95
q0 18 -3 35.5t-11 31t-22.5 22t-37.5 8.5q-39 0 -56.5 -23.5t-17.5 -61.5v-15h-59zM263 237q-17 6 -31 10t-36 4q-48 0 -64.5 -25t-16.5 -73v-16q0 -46 14.5 -71t59.5 -25q25 0 44 14t30 34v148zM99 644h199v-52h-199v52z" />
    <glyph glyph-name="Abreve" unicode="&#x102;" horiz-adv-x="420" 
d="M28 0l144 665h76l144 -665h-66l-34 164h-166l-35 -164h-63zM133 218h151l-74 354h-3zM309 820v-9q0 -40 -25 -65.5t-75 -25.5t-75 25.5t-25 65.5v9h52v-9q0 -21 11 -33t37 -12q25 0 36.5 12t11.5 33v9h52z" />
    <glyph glyph-name="abreve" unicode="&#x103;" horiz-adv-x="397" 
d="M56 367v14q0 27 7.5 52t23 43.5t41 30t61.5 11.5q73 0 105.5 -39.5t32.5 -117.5v-275q0 -23 9.5 -31t27.5 -10v-55q-47 1 -65.5 17t-26.5 47q-16 -29 -41.5 -46.5t-63.5 -17.5q-55 0 -85 33.5t-30 99.5v42q0 27 6.5 51t21 41.5t38 28t56.5 10.5q23 0 46 -5t43 -16v95
q0 18 -3 35.5t-11 31t-22.5 22t-37.5 8.5q-39 0 -56.5 -23.5t-17.5 -61.5v-15h-59zM263 237q-17 6 -31 10t-36 4q-48 0 -64.5 -25t-16.5 -73v-16q0 -46 14.5 -71t59.5 -25q25 0 44 14t30 34v148zM295 665v-9q0 -40 -25 -65.5t-75 -25.5t-75 25.5t-25 65.5v9h52v-9
q0 -21 11 -33t37 -12q25 0 36.5 12t11.5 33v9h52z" />
    <glyph glyph-name="Aogonek" unicode="&#x104;" horiz-adv-x="420" 
d="M28 0l144 665h76l144 -665h-22q-49 -22 -75.5 -53.5t-26.5 -67.5q0 -20 9.5 -29t25.5 -9t25 9t9 30v6h43v-6q0 -32 -19 -55.5t-59 -23.5t-61 20t-21 55q0 45 29 79t75 55l-32 154h-166l-35 -164h-63zM133 218h151l-74 354h-3z" />
    <glyph glyph-name="aogonek" unicode="&#x105;" horiz-adv-x="397" 
d="M56 367v14q0 27 7.5 52t23 43.5t41 30t61.5 11.5q73 0 105.5 -39.5t32.5 -117.5v-276q0 -23 9.5 -30.5t27.5 -9.5v-55q-18 0 -33 3q-42 -22 -64.5 -51t-22.5 -63q0 -20 9.5 -29t25.5 -9t25 9t9 30v6h43v-6q0 -32 -19 -55.5t-59 -23.5t-61 20t-21 55q0 44 27.5 77.5
t72.5 55.5q-10 8 -15.5 19.5t-8.5 25.5q-16 -29 -41.5 -46.5t-63.5 -17.5q-55 0 -85 33.5t-30 99.5v42q0 27 6.5 51t21 41.5t38 28t56.5 10.5q23 0 46 -5t43 -16v95q0 18 -3 35.5t-11 31t-22.5 22t-37.5 8.5q-39 0 -56.5 -23.5t-17.5 -61.5v-15h-59zM263 237q-17 6 -31 10
t-36 4q-48 0 -64.5 -24t-16.5 -74v-16q0 -47 14.5 -71.5t58.5 -24.5q26 0 45 14t30 34v148z" />
    <glyph glyph-name="Cacute" unicode="&#x106;" horiz-adv-x="394" 
d="M292 496v18q0 17 -4.5 35.5t-14.5 34.5t-26 26t-40 10q-23 0 -39.5 -10.5t-26.5 -27.5t-14.5 -38t-4.5 -42v-339q0 -23 4.5 -44t14.5 -37.5t26.5 -26.5t39.5 -10q24 0 40 10t26 25t14.5 34t4.5 37v18h63v-9q0 -77 -37.5 -123.5t-110.5 -46.5q-75 0 -111.5 46.5
t-36.5 134.5v323q0 88 36.5 134.5t111.5 46.5t111.5 -46.5t36.5 -124.5v-8h-63zM279 838l-72 -135h-52l57 135h67z" />
    <glyph glyph-name="cacute" unicode="&#x107;" horiz-adv-x="378" 
d="M270 336v26q0 21 -3 40t-11.5 33.5t-23 23t-37.5 8.5t-37.5 -9t-22.5 -24.5t-11 -35.5t-3 -42v-204q0 -22 3 -42t11 -35.5t22.5 -24.5t37.5 -9t37.5 8.5t23 23t11.5 33.5t3 40v26h60v-19q0 -76 -31.5 -119.5t-104.5 -43.5t-104.5 45t-31.5 129v180q0 82 31.5 128
t104.5 46t104.5 -43.5t31.5 -119.5v-19h-60zM263 683l-72 -135h-52l57 135h67z" />
    <glyph glyph-name="Ccircumflex" unicode="&#x108;" horiz-adv-x="394" 
d="M292 496v18q0 17 -4.5 35.5t-14.5 34.5t-26 26t-40 10q-23 0 -39.5 -10.5t-26.5 -27.5t-14.5 -38t-4.5 -42v-339q0 -23 4.5 -44t14.5 -37.5t26.5 -26.5t39.5 -10q24 0 40 10t26 25t14.5 34t4.5 37v18h63v-9q0 -77 -37.5 -123.5t-110.5 -46.5q-75 0 -111.5 46.5
t-36.5 134.5v323q0 88 36.5 134.5t111.5 46.5t111.5 -46.5t36.5 -124.5v-8h-63zM233 838l71 -135h-51l-47 93l-48 -93h-51l71 135h55z" />
    <glyph glyph-name="ccircumflex" unicode="&#x109;" horiz-adv-x="378" 
d="M270 336v26q0 21 -3 40t-11.5 33.5t-23 23t-37.5 8.5t-37.5 -9t-22.5 -24.5t-11 -35.5t-3 -42v-204q0 -22 3 -42t11 -35.5t22.5 -24.5t37.5 -9t37.5 8.5t23 23t11.5 33.5t3 40v26h60v-19q0 -76 -31.5 -119.5t-104.5 -43.5t-104.5 45t-31.5 129v180q0 82 31.5 128
t104.5 46t104.5 -43.5t31.5 -119.5v-19h-60zM219 683l71 -135h-51l-47 93l-48 -93h-51l71 135h55z" />
    <glyph glyph-name="Cdotaccent" unicode="&#x10a;" horiz-adv-x="394" 
d="M292 496v18q0 17 -4.5 35.5t-14.5 34.5t-26 26t-40 10q-23 0 -39.5 -10.5t-26.5 -27.5t-14.5 -38t-4.5 -42v-339q0 -23 4.5 -44t14.5 -37.5t26.5 -26.5t39.5 -10q24 0 40 10t26 25t14.5 34t4.5 37v18h63v-9q0 -77 -37.5 -123.5t-110.5 -46.5q-75 0 -111.5 46.5
t-36.5 134.5v323q0 88 36.5 134.5t111.5 46.5t111.5 -46.5t36.5 -124.5v-8h-63zM207 810q19 0 30 -11.5t11 -29.5q0 -17 -11 -29t-30 -12t-30.5 12t-11.5 29q0 18 11.5 29.5t30.5 11.5z" />
    <glyph glyph-name="cdotaccent" unicode="&#x10b;" horiz-adv-x="378" 
d="M270 336v26q0 21 -3 40t-11.5 33.5t-23 23t-37.5 8.5t-37.5 -9t-22.5 -24.5t-11 -35.5t-3 -42v-204q0 -22 3 -42t11 -35.5t22.5 -24.5t37.5 -9t37.5 8.5t23 23t11.5 33.5t3 40v26h60v-19q0 -76 -31.5 -119.5t-104.5 -43.5t-104.5 45t-31.5 129v180q0 82 31.5 128
t104.5 46t104.5 -43.5t31.5 -119.5v-19h-60zM192 655q19 0 30 -11.5t11 -29.5q0 -17 -11 -29t-30 -12t-30.5 12t-11.5 29q0 18 11.5 29.5t30.5 11.5z" />
    <glyph glyph-name="Ccaron" unicode="&#x10c;" horiz-adv-x="394" 
d="M292 496v18q0 17 -4.5 35.5t-14.5 34.5t-26 26t-40 10q-23 0 -39.5 -10.5t-26.5 -27.5t-14.5 -38t-4.5 -42v-339q0 -23 4.5 -44t14.5 -37.5t26.5 -26.5t39.5 -10q24 0 40 10t26 25t14.5 34t4.5 37v18h63v-9q0 -77 -37.5 -123.5t-110.5 -46.5q-75 0 -111.5 46.5
t-36.5 134.5v323q0 88 36.5 134.5t111.5 46.5t111.5 -46.5t36.5 -124.5v-8h-63zM177 703l-69 135h49l48 -94l47 94h50l-70 -135h-55z" />
    <glyph glyph-name="ccaron" unicode="&#x10d;" horiz-adv-x="378" 
d="M270 336v26q0 21 -3 40t-11.5 33.5t-23 23t-37.5 8.5t-37.5 -9t-22.5 -24.5t-11 -35.5t-3 -42v-204q0 -22 3 -42t11 -35.5t22.5 -24.5t37.5 -9t37.5 8.5t23 23t11.5 33.5t3 40v26h60v-19q0 -76 -31.5 -119.5t-104.5 -43.5t-104.5 45t-31.5 129v180q0 82 31.5 128
t104.5 46t104.5 -43.5t31.5 -119.5v-19h-60zM162 548l-69 135h49l48 -94l47 94h50l-70 -135h-55z" />
    <glyph glyph-name="Dcaron" unicode="&#x10e;" horiz-adv-x="429" 
d="M369 161q0 -78 -37 -119.5t-112 -41.5h-150v665h150q75 0 112 -41.5t37 -119.5v-343zM306 512q0 18 -4.5 35t-15 31t-26.5 22.5t-40 8.5h-87v-554h87q24 0 40 8.5t26.5 22.5t15 31.5t4.5 35.5v359zM186 703l-69 135h49l48 -94l47 94h50l-70 -135h-55z" />
    <glyph glyph-name="dcaron" unicode="&#x10f;" horiz-adv-x="457" 
d="M269 431q-8 13 -26.5 24.5t-45.5 11.5q-22 0 -36.5 -8t-23.5 -22.5t-12.5 -34t-3.5 -41.5v-212q0 -22 3 -41.5t11 -34.5t23 -23.5t38 -8.5q26 0 44 14.5t29 34.5v341zM333 89q0 -24 8.5 -34t28.5 -10v-55q-46 0 -65 15.5t-27 47.5q-14 -27 -39 -45t-66 -18
q-115 0 -115 160v202q0 85 29 125.5t91 40.5q32 0 54.5 -11t36.5 -28v231h57l7 -65v-556zM423 568h-34l20 125h56z" />
    <glyph glyph-name="Dcroat" unicode="&#x110;" horiz-adv-x="435" 
d="M21 359h55v306h151q75 0 111.5 -41.5t36.5 -119.5v-343q0 -78 -36.5 -119.5t-111.5 -41.5h-151v305h-55v54zM312 512q0 18 -4.5 35t-14.5 31t-26.5 22.5t-39.5 8.5h-88v-250h84v-54h-84v-250h88q23 0 39.5 8.5t26.5 22.5t14.5 31.5t4.5 35.5v359z" />
    <glyph glyph-name="dcroat" unicode="&#x111;" horiz-adv-x="404" 
d="M333 627h37v-39h-37v-499q0 -24 8.5 -34t28.5 -10v-55q-46 0 -65 15.5t-27 47.5q-14 -27 -39 -45t-66 -18q-115 0 -115 160v202q0 85 29 125.5t91 40.5q32 0 54.5 -11t36.5 -28v109h-136v39h136v83h57l7 -65v-18zM269 431q-8 13 -26.5 24.5t-45.5 11.5q-22 0 -36.5 -8
t-23.5 -22.5t-12.5 -34t-3.5 -41.5v-212q0 -22 3 -41.5t11 -34.5t23 -23.5t38 -8.5q26 0 44 14.5t29 34.5v341z" />
    <glyph glyph-name="Emacron" unicode="&#x112;" horiz-adv-x="358" 
d="M329 609h-196v-224h163v-55h-163v-275h196v-55h-259v665h259v-56zM97 799h199v-52h-199v52z" />
    <glyph glyph-name="emacron" unicode="&#x113;" horiz-adv-x="386" 
d="M121 294h148v62q0 22 -3 42t-11 35.5t-22.5 24.5t-37.5 9t-37.5 -9t-22.5 -24.5t-11 -35.5t-3 -42v-62zM271 155h62v-8q0 -72 -33 -114.5t-106 -42.5q-75 0 -105.5 45t-30.5 129v180q0 84 31.5 129t104.5 45q75 0 107 -45t32 -129v-99h-212v-93q0 -22 3 -42t11 -35.5
t22.5 -24.5t37.5 -9t37.5 8.5t23 23t12 33.5t3.5 40v9zM94 644h199v-52h-199v52z" />
    <glyph glyph-name="Ebreve" unicode="&#x114;" horiz-adv-x="358" 
d="M329 609h-196v-224h163v-55h-163v-275h196v-55h-259v665h259v-56zM307 820v-9q0 -40 -25 -65.5t-75 -25.5t-75 25.5t-25 65.5v9h52v-9q0 -21 11 -33t37 -12q25 0 36.5 12t11.5 33v9h52z" />
    <glyph glyph-name="ebreve" unicode="&#x115;" horiz-adv-x="386" 
d="M121 294h148v62q0 22 -3 42t-11 35.5t-22.5 24.5t-37.5 9t-37.5 -9t-22.5 -24.5t-11 -35.5t-3 -42v-62zM271 155h62v-8q0 -72 -33 -114.5t-106 -42.5q-75 0 -105.5 45t-30.5 129v180q0 84 31.5 129t104.5 45q75 0 107 -45t32 -129v-99h-212v-93q0 -22 3 -42t11 -35.5
t22.5 -24.5t37.5 -9t37.5 8.5t23 23t12 33.5t3.5 40v9zM293 665v-9q0 -40 -25 -65.5t-75 -25.5t-75 25.5t-25 65.5v9h52v-9q0 -21 11 -33t37 -12q25 0 36.5 12t11.5 33v9h52z" />
    <glyph glyph-name="Edotaccent" unicode="&#x116;" horiz-adv-x="358" 
d="M329 609h-196v-224h163v-55h-163v-275h196v-55h-259v665h259v-56zM202 810q19 0 30 -11.5t11 -29.5q0 -17 -11 -29t-30 -12t-30.5 12t-11.5 29q0 18 11.5 29.5t30.5 11.5z" />
    <glyph glyph-name="edotaccent" unicode="&#x117;" horiz-adv-x="386" 
d="M121 294h148v62q0 22 -3 42t-11 35.5t-22.5 24.5t-37.5 9t-37.5 -9t-22.5 -24.5t-11 -35.5t-3 -42v-62zM271 155h62v-8q0 -72 -33 -114.5t-106 -42.5q-75 0 -105.5 45t-30.5 129v180q0 84 31.5 129t104.5 45q75 0 107 -45t32 -129v-99h-212v-93q0 -22 3 -42t11 -35.5
t22.5 -24.5t37.5 -9t37.5 8.5t23 23t12 33.5t3.5 40v9zM194 655q19 0 30 -11.5t11 -29.5q0 -17 -11 -29t-30 -12t-30.5 12t-11.5 29q0 18 11.5 29.5t30.5 11.5z" />
    <glyph glyph-name="Eogonek" unicode="&#x118;" horiz-adv-x="358" 
d="M329 609h-196v-224h163v-55h-163v-275h196v-55h-15q-49 -22 -75.5 -53.5t-26.5 -67.5q0 -20 9.5 -29t25.5 -9t25 9t9 30v6h43v-6q0 -32 -19 -55.5t-59 -23.5t-61 20t-21 55q0 39 23 70.5t61 53.5h-178v665h259v-56z" />
    <glyph glyph-name="eogonek" unicode="&#x119;" horiz-adv-x="386" 
d="M271 155h62v-8q0 -98 -62 -141q-42 -29 -67 -60t-25 -67q0 -20 9.5 -29t25.5 -9t25.5 9t9.5 30v6h42v-6q0 -32 -19 -55.5t-59 -23.5t-60.5 20t-20.5 55t18.5 64t47.5 50q-79 0 -109.5 45.5t-30.5 128.5v180q0 84 31.5 129t104.5 45q75 0 107 -45t32 -129v-99h-212v-93
q0 -22 3 -42t11 -35.5t22.5 -24.5t37.5 -9t37.5 8.5t23 23t12 33.5t3.5 40v9zM121 294h148v62q0 22 -3 42t-11 35.5t-22.5 24.5t-37.5 9t-37.5 -9t-22.5 -24.5t-11 -35.5t-3 -42v-62z" />
    <glyph glyph-name="Ecaron" unicode="&#x11a;" horiz-adv-x="358" 
d="M329 609h-196v-224h163v-55h-163v-275h196v-55h-259v665h259v-56zM172 703l-69 135h49l48 -94l47 94h50l-70 -135h-55z" />
    <glyph glyph-name="ecaron" unicode="&#x11b;" horiz-adv-x="386" 
d="M121 294h148v62q0 22 -3 42t-11 35.5t-22.5 24.5t-37.5 9t-37.5 -9t-22.5 -24.5t-11 -35.5t-3 -42v-62zM271 155h62v-8q0 -72 -33 -114.5t-106 -42.5q-75 0 -105.5 45t-30.5 129v180q0 84 31.5 129t104.5 45q75 0 107 -45t32 -129v-99h-212v-93q0 -22 3 -42t11 -35.5
t22.5 -24.5t37.5 -9t37.5 8.5t23 23t12 33.5t3.5 40v9zM166 548l-69 135h49l48 -94l47 94h50l-70 -135h-55z" />
    <glyph glyph-name="Gcircumflex" unicode="&#x11c;" horiz-adv-x="411" 
d="M219 321v55h139v-205q0 -88 -37.5 -134.5t-112.5 -46.5t-112.5 46.5t-37.5 134.5v323q0 88 37.5 134.5t111.5 46.5q76 0 113.5 -44.5t37.5 -122.5v-11h-64v17q0 18 -4.5 37t-14.5 34t-26.5 25t-40.5 10t-40.5 -9.5t-27 -26t-15 -38t-4.5 -44.5v-338q0 -23 4.5 -44.5
t15 -38t26.5 -26.5t40 -10t40.5 9.5t27 25.5t15 38t4.5 46v157h-75zM234 838l71 -135h-51l-47 93l-48 -93h-51l71 135h55z" />
    <glyph glyph-name="gcircumflex" unicode="&#x11d;" horiz-adv-x="399" 
d="M269 431q-8 13 -25 24.5t-44 11.5q-44 0 -61.5 -32t-17.5 -79v-204q0 -23 3 -43t11 -35t22.5 -24t38.5 -9q26 0 44 14.5t29 34.5v341zM122 -78v-9q0 -33 17 -52.5t53 -19.5q46 0 61.5 30.5t15.5 74.5v102q-14 -26 -38 -42t-62 -16q-56 0 -83.5 41t-27.5 133v180
q0 84 32.5 129t96.5 45q41 0 62.5 -14.5t33.5 -33.5l7 38h43v-547q0 -78 -34.5 -124.5t-106.5 -46.5q-64 0 -98 30.5t-34 91.5v10h62zM227 683l71 -135h-51l-47 93l-48 -93h-51l71 135h55z" />
    <glyph glyph-name="Gbreve" unicode="&#x11e;" horiz-adv-x="411" 
d="M219 321v55h139v-205q0 -88 -37.5 -134.5t-112.5 -46.5t-112.5 46.5t-37.5 134.5v323q0 88 37.5 134.5t111.5 46.5q76 0 113.5 -44.5t37.5 -122.5v-11h-64v17q0 18 -4.5 37t-14.5 34t-26.5 25t-40.5 10t-40.5 -9.5t-27 -26t-15 -38t-4.5 -44.5v-338q0 -23 4.5 -44.5
t15 -38t26.5 -26.5t40 -10t40.5 9.5t27 25.5t15 38t4.5 46v157h-75zM306 820v-9q0 -40 -25 -65.5t-75 -25.5t-75 25.5t-25 65.5v9h52v-9q0 -21 11 -33t37 -12q25 0 36.5 12t11.5 33v9h52z" />
    <glyph glyph-name="gbreve" unicode="&#x11f;" horiz-adv-x="399" 
d="M269 431q-8 13 -25 24.5t-44 11.5q-44 0 -61.5 -32t-17.5 -79v-204q0 -23 3 -43t11 -35t22.5 -24t38.5 -9q26 0 44 14.5t29 34.5v341zM122 -78v-9q0 -33 17 -52.5t53 -19.5q46 0 61.5 30.5t15.5 74.5v102q-14 -26 -38 -42t-62 -16q-56 0 -83.5 41t-27.5 133v180
q0 84 32.5 129t96.5 45q41 0 62.5 -14.5t33.5 -33.5l7 38h43v-547q0 -78 -34.5 -124.5t-106.5 -46.5q-64 0 -98 30.5t-34 91.5v10h62zM299 665v-9q0 -40 -25 -65.5t-75 -25.5t-75 25.5t-25 65.5v9h52v-9q0 -21 11 -33t37 -12q25 0 36.5 12t11.5 33v9h52z" />
    <glyph glyph-name="Gdotaccent" unicode="&#x120;" horiz-adv-x="411" 
d="M219 321v55h139v-205q0 -88 -37.5 -134.5t-112.5 -46.5t-112.5 46.5t-37.5 134.5v323q0 88 37.5 134.5t111.5 46.5q76 0 113.5 -44.5t37.5 -122.5v-11h-64v17q0 18 -4.5 37t-14.5 34t-26.5 25t-40.5 10t-40.5 -9.5t-27 -26t-15 -38t-4.5 -44.5v-338q0 -23 4.5 -44.5
t15 -38t26.5 -26.5t40 -10t40.5 9.5t27 25.5t15 38t4.5 46v157h-75zM206 810q19 0 30 -11.5t11 -29.5q0 -17 -11 -29t-30 -12t-30.5 12t-11.5 29q0 18 11.5 29.5t30.5 11.5z" />
    <glyph glyph-name="gdotaccent" unicode="&#x121;" horiz-adv-x="399" 
d="M269 431q-8 13 -25 24.5t-44 11.5q-44 0 -61.5 -32t-17.5 -79v-204q0 -23 3 -43t11 -35t22.5 -24t38.5 -9q26 0 44 14.5t29 34.5v341zM122 -78v-9q0 -33 17 -52.5t53 -19.5q46 0 61.5 30.5t15.5 74.5v102q-14 -26 -38 -42t-62 -16q-56 0 -83.5 41t-27.5 133v180
q0 84 32.5 129t96.5 45q41 0 62.5 -14.5t33.5 -33.5l7 38h43v-547q0 -78 -34.5 -124.5t-106.5 -46.5q-64 0 -98 30.5t-34 91.5v10h62zM200 655q19 0 30 -11.5t11 -29.5q0 -17 -11 -29t-30 -12t-30.5 12t-11.5 29q0 18 11.5 29.5t30.5 11.5z" />
    <glyph glyph-name="Gcommaaccent" unicode="&#x122;" horiz-adv-x="411" 
d="M219 321v55h139v-205q0 -88 -37.5 -134.5t-112.5 -46.5t-112.5 46.5t-37.5 134.5v323q0 88 37.5 134.5t111.5 46.5q76 0 113.5 -44.5t37.5 -122.5v-11h-64v17q0 18 -4.5 37t-14.5 34t-26.5 25t-40.5 10t-40.5 -9.5t-27 -26t-15 -38t-4.5 -44.5v-338q0 -23 4.5 -44.5
t15 -38t26.5 -26.5t40 -10t40.5 9.5t27 25.5t15 38t4.5 46v157h-75zM198 -161h-44l26 121h63z" />
    <glyph glyph-name="gcommaaccent" unicode="&#x123;" horiz-adv-x="399" 
d="M269 431q-8 13 -25 24.5t-44 11.5q-44 0 -61.5 -32t-17.5 -79v-204q0 -23 3 -43t11 -35t22.5 -24t38.5 -9q26 0 44 14.5t29 34.5v341zM122 -78v-9q0 -33 17 -52.5t53 -19.5q46 0 61.5 30.5t15.5 74.5v102q-14 -26 -38 -42t-62 -16q-56 0 -83.5 41t-27.5 133v180
q0 84 32.5 129t96.5 45q41 0 62.5 -14.5t33.5 -33.5l7 38h43v-547q0 -78 -34.5 -124.5t-106.5 -46.5q-64 0 -98 30.5t-34 91.5v10h62zM216 677h42l-20 -121h-63z" />
    <glyph glyph-name="Hcircumflex" unicode="&#x124;" horiz-adv-x="450" 
d="M317 0v328h-184v-328h-63v665h63v-282h184v282h64v-665h-64zM252 838l71 -135h-51l-47 93l-48 -93h-51l71 135h55z" />
    <glyph glyph-name="hcircumflex" unicode="&#x125;" horiz-adv-x="409" 
d="M133 468q15 20 39 35t64 15q60 0 84.5 -39t24.5 -117v-362h-58l-6 64v304q0 20 -3 38t-10.5 31.5t-21 21.5t-34.5 8q-29 0 -49 -14.5t-30 -32.5v-420h-63v710h57l6 -65v-177zM195 875l71 -135h-51l-47 93l-48 -93h-51l71 135h55z" />
    <glyph glyph-name="Hbar" unicode="&#x126;" horiz-adv-x="450" 
d="M317 0v328h-184v-328h-63v665h63v-136h184v136h64v-665h-64zM317 383v95h-184v-95h184z" />
    <glyph glyph-name="hbar" unicode="&#x127;" horiz-adv-x="409" 
d="M133 627h149v-39h-149v-120q15 20 39 35t64 15q60 0 84.5 -39t24.5 -117v-362h-58l-6 64v304q0 20 -3 38t-10.5 31.5t-21 21.5t-34.5 8q-29 0 -49 -14.5t-30 -32.5v-420h-63v588h-30v39h30v83h57l6 -65v-18z" />
    <glyph glyph-name="Itilde" unicode="&#x128;" horiz-adv-x="203" 
d="M70 0v665h63v-665h-63zM-25 724q0 27 5.5 44.5t15 28t22 15t25.5 4.5q19 0 33.5 -6.5t26.5 -15t23 -15t25 -6.5q11 0 18.5 7.5t7.5 33.5v5h49v-5q0 -27 -5.5 -44.5t-14.5 -28t-21 -15t-25 -4.5q-19 0 -33.5 7t-27 15.5t-23.5 15.5t-24 7q-12 0 -19.5 -8t-7.5 -35v-4h-50
v4z" />
    <glyph glyph-name="itilde" unicode="&#x129;" horiz-adv-x="203" 
d="M70 508h58l7 -65v-443h-65v508zM-25 569q0 27 5.5 44.5t15 28t22 15t25.5 4.5q19 0 33.5 -6.5t26.5 -15t23 -15t25 -6.5q11 0 18.5 7.5t7.5 33.5v5h49v-5q0 -27 -5.5 -44.5t-14.5 -28t-21 -15t-25 -4.5q-19 0 -33.5 7t-27 15.5t-23.5 15.5t-24 7q-12 0 -19.5 -8t-7.5 -35
v-4h-50v4z" />
    <glyph glyph-name="Imacron" unicode="&#x12a;" horiz-adv-x="203" 
d="M70 0v665h63v-665h-63zM1 799h199v-52h-199v52z" />
    <glyph glyph-name="imacron" unicode="&#x12b;" horiz-adv-x="203" 
d="M70 508h58l7 -65v-443h-65v508zM1 644h199v-52h-199v52z" />
    <glyph glyph-name="Ibreve" unicode="&#x12c;" horiz-adv-x="203" 
d="M70 0v665h63v-665h-63zM201 820v-9q0 -40 -25 -65.5t-75 -25.5t-75 25.5t-25 65.5v9h52v-9q0 -21 11 -33t37 -12q25 0 36.5 12t11.5 33v9h52z" />
    <glyph glyph-name="ibreve" unicode="&#x12d;" horiz-adv-x="203" 
d="M70 508h58l7 -65v-443h-65v508zM201 665v-9q0 -40 -25 -65.5t-75 -25.5t-75 25.5t-25 65.5v9h52v-9q0 -21 11 -33t37 -12q25 0 36.5 12t11.5 33v9h52z" />
    <glyph glyph-name="Iogonek" unicode="&#x12e;" horiz-adv-x="203" 
d="M126 0q-50 -24 -70 -58.5t-20 -63.5q0 -37 28 -37q14 0 21.5 9t7.5 30v6h43v-6q0 -32 -17 -55.5t-55 -23.5t-57 19.5t-19 52.5q0 41 21 74.5t61 56.5v661h63v-665h-7z" />
    <glyph glyph-name="iogonek" unicode="&#x12f;" horiz-adv-x="201" 
d="M125 0q-50 -24 -70 -58.5t-20 -63.5q0 -37 29 -37q14 0 21.5 9t7.5 30v6h42v-6q0 -32 -17 -55.5t-55 -23.5q-37 0 -56 19.5t-19 52.5q0 41 21 74.5t61 56.5v504h55l8 -65v-443h-8zM101 655q18 0 29.5 -11t11.5 -29t-11.5 -29.5t-29.5 -11.5t-29.5 11.5t-11.5 29.5
t11.5 29t29.5 11z" />
    <glyph glyph-name="Idotaccent" unicode="&#x130;" horiz-adv-x="203" 
d="M70 0v665h63v-665h-63zM102 810q19 0 30 -11.5t11 -29.5q0 -17 -11 -29t-30 -12t-30.5 12t-11.5 29q0 18 11.5 29.5t30.5 11.5z" />
    <glyph glyph-name="dotlessi" unicode="&#x131;" horiz-adv-x="202" 
d="M70 508h58l7 -65v-443h-65v508z" />
    <glyph glyph-name="IJ" unicode="&#x132;" horiz-adv-x="459" 
d="M70 0v665h63v-665h-63zM232 44q27 1 45.5 10.5t30 24.5t16 33.5t4.5 38.5v514h63v-506q0 -79 -39.5 -122t-119.5 -48v55z" />
    <glyph glyph-name="ij" unicode="&#x133;" horiz-adv-x="400" 
d="M70 508h57l6 -65v-443h-63v508zM101 655q18 0 29.5 -11t11.5 -29t-11.5 -29.5t-29.5 -11.5t-29.5 11.5t-11.5 29.5t11.5 29t29.5 11zM325 508l6 -65v-483q0 -91 -31.5 -130.5t-106.5 -39.5v55q25 0 40 8.5t23 22.5t10 33.5t2 41.5v557h57zM299 655q18 0 29.5 -11
t11.5 -29t-11.5 -29.5t-29.5 -11.5t-29.5 11.5t-11.5 29.5t11.5 29t29.5 11z" />
    <glyph glyph-name="Jcircumflex" unicode="&#x134;" horiz-adv-x="256" 
d="M29 44q27 1 45.5 10.5t30 24.5t16 33.5t4.5 38.5v514h63v-506q0 -79 -39.5 -122t-119.5 -48v55zM184 838l71 -135h-51l-47 93l-48 -93h-51l71 135h55z" />
    <glyph glyph-name="jcircumflex" unicode="&#x135;" horiz-adv-x="204" 
d="M127 508l6 -65v-483q0 -91 -31.5 -130.5t-106.5 -39.5v55q25 0 40 8.5t23 22.5t10 33.5t2 41.5v557h57zM130 683l71 -135h-51l-47 93l-48 -93h-51l71 135h55z" />
    <glyph glyph-name="Kcommaaccent" unicode="&#x136;" horiz-adv-x="419" 
d="M237 389l166 -389h-67l-140 330l-63 -99v-231h-63v665h63v-343l198 343h66zM201 -161h-44l26 121h63z" />
    <glyph glyph-name="kcommaaccent" unicode="&#x137;" horiz-adv-x="387" 
d="M238 325l130 -325h-66l-107 272l-62 -81v-191h-63v710h57l6 -64v-382l167 244h65zM203 -161h-44l26 121h63z" />
    <glyph glyph-name="Lacute" unicode="&#x139;" horiz-adv-x="360" 
d="M133 665v-610h203v-55h-266v665h63zM234 838l-72 -135h-52l57 135h67z" />
    <glyph glyph-name="lacute" unicode="&#x13a;" horiz-adv-x="202" 
d="M133 645v-645h-58l-5 65v645h57zM189 875l-72 -135h-52l57 135h67z" />
    <glyph glyph-name="Lcommaaccent" unicode="&#x13b;" horiz-adv-x="360" 
d="M133 665v-610h203v-55h-266v665h63zM189 -161h-44l26 121h63z" />
    <glyph glyph-name="lcommaaccent" unicode="&#x13c;" horiz-adv-x="202" 
d="M133 645v-645h-58l-5 65v645h57zM92 -161h-44l26 121h63z" />
    <glyph glyph-name="Lcaron" unicode="&#x13d;" horiz-adv-x="360" 
d="M133 665v-610h203v-55h-266v665h63zM270 548h-34l20 125h56z" />
    <glyph glyph-name="lcaron" unicode="&#x13e;" horiz-adv-x="255" 
d="M133 645v-645h-58l-5 65v645h57zM221 570h-34l20 125h56z" />
    <glyph glyph-name="Ldot" unicode="&#x13f;" horiz-adv-x="360" 
d="M133 665v-610h203v-55h-266v665h63zM276 383q18 0 29.5 -11.5t11.5 -28.5q0 -18 -11.5 -29.5t-29.5 -11.5t-30 11.5t-12 29.5q0 17 12 28.5t30 11.5z" />
    <glyph glyph-name="ldot" unicode="&#x140;" horiz-adv-x="276" 
d="M133 645v-645h-58l-5 65v645h57zM230 383q18 0 29.5 -11.5t11.5 -28.5q0 -18 -11.5 -29.5t-29.5 -11.5t-30 11.5t-12 29.5q0 17 12 28.5t30 11.5z" />
    <glyph glyph-name="Lslash" unicode="&#x141;" horiz-adv-x="355" 
d="M133 665v-320l115 53v-62l-115 -53v-228h203v-55h-266v255l-53 -24v61l53 24v349h63z" />
    <glyph glyph-name="lslash" unicode="&#x142;" horiz-adv-x="202" 
d="M133 645v-233l54 28v-60l-54 -28v-352h-58l-5 65v255l-54 -28v60l54 28v330h57z" />
    <glyph glyph-name="Nacute" unicode="&#x143;" horiz-adv-x="460" 
d="M390 0h-78l-185 550h-3v-550h-54v665h77l185 -560h4v560h54v-665zM302 838l-72 -135h-52l57 135h67z" />
    <glyph glyph-name="nacute" unicode="&#x144;" horiz-adv-x="409" 
d="M119 458q14 25 43.5 42.5t68.5 17.5q60 0 87 -39t27 -117v-362h-58l-6 65v302q0 20 -2.5 38.5t-10 32t-21 21.5t-34.5 8q-29 0 -49.5 -14.5t-30.5 -32.5v-420h-63v508h44zM278 683l-72 -135h-52l57 135h67z" />
    <glyph glyph-name="Ncommaaccent" unicode="&#x145;" horiz-adv-x="460" 
d="M390 0h-78l-185 550h-3v-550h-54v665h77l185 -560h4v560h54v-665zM220 -161h-44l26 121h63z" />
    <glyph glyph-name="ncommaaccent" unicode="&#x146;" horiz-adv-x="409" 
d="M119 458q14 25 43.5 42.5t68.5 17.5q60 0 87 -39t27 -117v-362h-58l-6 65v302q0 20 -2.5 38.5t-10 32t-21 21.5t-34.5 8q-29 0 -49.5 -14.5t-30.5 -32.5v-420h-63v508h44zM197 -161h-44l26 121h63z" />
    <glyph glyph-name="Ncaron" unicode="&#x147;" horiz-adv-x="460" 
d="M390 0h-78l-185 550h-3v-550h-54v665h77l185 -560h4v560h54v-665zM201 703l-69 135h49l48 -94l47 94h50l-70 -135h-55z" />
    <glyph glyph-name="ncaron" unicode="&#x148;" horiz-adv-x="409" 
d="M119 458q14 25 43.5 42.5t68.5 17.5q60 0 87 -39t27 -117v-362h-58l-6 65v302q0 20 -2.5 38.5t-10 32t-21 21.5t-34.5 8q-29 0 -49.5 -14.5t-30.5 -32.5v-420h-63v508h44zM177 548l-69 135h49l48 -94l47 94h50l-70 -135h-55z" />
    <glyph glyph-name="Omacron" unicode="&#x14c;" horiz-adv-x="412" 
d="M354 171q0 -88 -37 -134.5t-112 -46.5t-111 46.5t-36 134.5v323q0 88 36.5 134.5t111.5 46.5t111.5 -46.5t36.5 -134.5v-323zM290 502q0 21 -4 42.5t-14 38t-26.5 27t-40.5 10.5t-40 -10.5t-25.5 -27t-14 -38t-4.5 -42.5v-338q0 -21 4.5 -42.5t14 -38.5t25.5 -27.5
t40 -10.5t40.5 10.5t26.5 27.5t14 38t4 43v338zM107 799h199v-52h-199v52z" />
    <glyph glyph-name="omacron" unicode="&#x14d;" horiz-adv-x="391" 
d="M333 163q0 -84 -32 -128.5t-107 -44.5q-73 0 -104.5 44.5t-31.5 128.5v182q0 84 32 128.5t104 44.5q73 0 106 -44.5t33 -128.5v-182zM269 356q0 22 -3 42t-11 35.5t-22.5 24.5t-37.5 9t-37.5 -9t-22.5 -24.5t-11 -35.5t-3 -42v-204q0 -22 3 -42t11 -35.5t22.5 -24.5
t37.5 -9t37.5 9t22.5 24.5t11 35.5t3 42v204zM96 644h199v-52h-199v52z" />
    <glyph glyph-name="Obreve" unicode="&#x14e;" horiz-adv-x="412" 
d="M354 171q0 -88 -37 -134.5t-112 -46.5t-111 46.5t-36 134.5v323q0 88 36.5 134.5t111.5 46.5t111.5 -46.5t36.5 -134.5v-323zM290 502q0 21 -4 42.5t-14 38t-26.5 27t-40.5 10.5t-40 -10.5t-25.5 -27t-14 -38t-4.5 -42.5v-338q0 -21 4.5 -42.5t14 -38.5t25.5 -27.5
t40 -10.5t40.5 10.5t26.5 27.5t14 38t4 43v338zM306 820v-9q0 -40 -25 -65.5t-75 -25.5t-75 25.5t-25 65.5v9h52v-9q0 -21 11 -33t37 -12q25 0 36.5 12t11.5 33v9h52z" />
    <glyph glyph-name="obreve" unicode="&#x14f;" horiz-adv-x="391" 
d="M333 163q0 -84 -32 -128.5t-107 -44.5q-73 0 -104.5 44.5t-31.5 128.5v182q0 84 32 128.5t104 44.5q73 0 106 -44.5t33 -128.5v-182zM269 356q0 22 -3 42t-11 35.5t-22.5 24.5t-37.5 9t-37.5 -9t-22.5 -24.5t-11 -35.5t-3 -42v-204q0 -22 3 -42t11 -35.5t22.5 -24.5
t37.5 -9t37.5 9t22.5 24.5t11 35.5t3 42v204zM295 665v-9q0 -40 -25 -65.5t-75 -25.5t-75 25.5t-25 65.5v9h52v-9q0 -21 11 -33t37 -12q25 0 36.5 12t11.5 33v9h52z" />
    <glyph glyph-name="Ohungarumlaut" unicode="&#x150;" horiz-adv-x="412" 
d="M354 171q0 -88 -37 -134.5t-112 -46.5t-111 46.5t-36 134.5v323q0 88 36.5 134.5t111.5 46.5t111.5 -46.5t36.5 -134.5v-323zM290 502q0 21 -4 42.5t-14 38t-26.5 27t-40.5 10.5t-40 -10.5t-25.5 -27t-14 -38t-4.5 -42.5v-338q0 -21 4.5 -42.5t14 -38.5t25.5 -27.5
t40 -10.5t40.5 10.5t26.5 27.5t14 38t4 43v338zM360 838l-77 -135h-50l63 135h64zM235 838l-73 -135h-50l59 135h64z" />
    <glyph glyph-name="ohungarumlaut" unicode="&#x151;" horiz-adv-x="391" 
d="M333 163q0 -84 -32 -128.5t-107 -44.5q-73 0 -104.5 44.5t-31.5 128.5v182q0 84 32 128.5t104 44.5q73 0 106 -44.5t33 -128.5v-182zM269 356q0 22 -3 42t-11 35.5t-22.5 24.5t-37.5 9t-37.5 -9t-22.5 -24.5t-11 -35.5t-3 -42v-204q0 -22 3 -42t11 -35.5t22.5 -24.5
t37.5 -9t37.5 9t22.5 24.5t11 35.5t3 42v204zM350 683l-77 -135h-50l63 135h64zM225 683l-73 -135h-50l59 135h64z" />
    <glyph glyph-name="OE" unicode="&#x152;" horiz-adv-x="580" 
d="M551 609h-196v-224h163v-55h-163v-275h196v-55h-248v48q-16 -29 -41.5 -43.5t-64.5 -14.5q-66 0 -102.5 46.5t-36.5 134.5v327q0 86 36.5 131.5t102.5 45.5q39 0 65.5 -15.5t40.5 -42.5v48h248v-56zM207 45q22 0 38.5 10t26.5 25.5t15 36t5 41.5v348q0 21 -4.5 41
t-14.5 36.5t-26 26.5t-40 10t-40 -10t-26 -26.5t-14 -36.5t-4 -41v-342q0 -23 4 -44.5t14 -38t26 -26.5t40 -10z" />
    <glyph glyph-name="oe" unicode="&#x153;" horiz-adv-x="597" 
d="M301 449q32 69 111 69q70 0 101 -45t31 -129v-99h-211v-93q0 -22 3 -42t11 -35.5t22 -24.5t37 -9t37.5 8.5t23 23t11.5 33.5t3 40v9h63v-8q0 -72 -30 -114.5t-102 -42.5q-40 0 -68 18.5t-44 51.5q-17 -32 -43 -51t-68 -19q-69 0 -100 44.5t-31 128.5v182q0 84 33.5 128.5
t100.5 44.5q41 0 67 -17.5t42 -51.5zM269 356q0 22 -3 42t-11 35.5t-22.5 24.5t-37.5 9t-37.5 -9t-22.5 -24.5t-11 -35.5t-3 -42v-204q0 -22 3 -42t11 -35.5t22.5 -24.5t37.5 -9t37.5 9t22.5 24.5t11 35.5t3 42v204zM333 294h147v62q0 22 -3 42t-11 35.5t-22.5 24.5t-37.5 9
t-37 -9t-22 -24.5t-11 -35.5t-3 -42v-62z" />
    <glyph glyph-name="Racute" unicode="&#x154;" horiz-adv-x="426" 
d="M367 480q0 -55 -22 -93t-64 -55l116 -332h-67l-104 315h-93v-315h-63v665h148q75 0 112 -41.5t37 -119.5v-24zM304 512q0 19 -5 36.5t-15.5 31t-27.5 21.5t-41 8h-82v-239h81q49 0 69.5 29t20.5 70v43zM284 838l-72 -135h-52l57 135h67z" />
    <glyph glyph-name="racute" unicode="&#x155;" horiz-adv-x="287" 
d="M70 508h44l5 -50q17 27 45 43.5t61 16.5q18 0 30 -3t23 -10l-21 -55q-8 6 -17.5 8t-21.5 2q-28 0 -50 -15t-35 -35v-410h-63v508zM241 683l-72 -135h-52l57 135h67z" />
    <glyph glyph-name="Rcommaaccent" unicode="&#x156;" horiz-adv-x="427" 
d="M367 480q0 -55 -22 -93t-64 -55l116 -332h-67l-104 315h-93v-315h-63v665h148q75 0 112 -41.5t37 -119.5v-24zM304 512q0 19 -5 36.5t-15.5 31t-27.5 21.5t-41 8h-82v-239h81q49 0 69.5 29t20.5 70v43zM202 -161h-44l26 121h63z" />
    <glyph glyph-name="rcommaaccent" unicode="&#x157;" horiz-adv-x="287" 
d="M70 508h44l5 -50q17 27 45 43.5t61 16.5q18 0 30 -3t23 -10l-21 -55q-8 6 -17.5 8t-21.5 2q-28 0 -50 -15t-35 -35v-410h-63v508zM96 -161h-44l26 121h63z" />
    <glyph glyph-name="Rcaron" unicode="&#x158;" horiz-adv-x="426" 
d="M367 480q0 -55 -22 -93t-64 -55l116 -332h-67l-104 315h-93v-315h-63v665h148q75 0 112 -41.5t37 -119.5v-24zM304 512q0 19 -5 36.5t-15.5 31t-27.5 21.5t-41 8h-82v-239h81q49 0 69.5 29t20.5 70v43zM183 703l-69 135h49l48 -94l47 94h50l-70 -135h-55z" />
    <glyph glyph-name="rcaron" unicode="&#x159;" horiz-adv-x="287" 
d="M70 508h44l5 -50q17 27 45 43.5t61 16.5q18 0 30 -3t23 -10l-21 -55q-8 6 -17.5 8t-21.5 2q-28 0 -50 -15t-35 -35v-410h-63v508zM136 548l-69 135h49l48 -94l47 94h50l-70 -135h-55z" />
    <glyph glyph-name="Sacute" unicode="&#x15a;" horiz-adv-x="372" 
d="M42 529q0 26 8 52t25.5 47t45 34t65.5 13q70 0 107 -37.5t37 -119.5v-21h-63v25q0 18 -3.5 35.5t-13 31.5t-25 22.5t-39.5 8.5q-38 0 -58.5 -27t-20.5 -63v-29q0 -34 19 -60t66 -56q28 -18 53 -38t44 -43t30 -50.5t11 -61.5v-56q0 -27 -8.5 -53t-26 -46.5t-44.5 -33.5
t-65 -13q-74 0 -109 41.5t-35 116.5v20h65v-25q0 -18 3.5 -35.5t12 -31.5t24 -22.5t39.5 -8.5q38 0 59.5 26t21.5 63v45q0 47 -27.5 82t-78.5 68q-54 35 -86.5 71t-32.5 92v37zM260 838l-72 -135h-52l57 135h67z" />
    <glyph glyph-name="sacute" unicode="&#x15b;" horiz-adv-x="350" 
d="M104 153v-10q0 -20 2.5 -38t10.5 -32.5t21.5 -23t36.5 -8.5q35 0 54 23.5t19 59.5q0 38 -21 66.5t-76 58.5q-52 29 -81 62t-29 86q0 22 7.5 44t24 39t41 27.5t59.5 10.5q68 0 101 -39t33 -112v-9h-62v13q0 18 -3 35t-10.5 30.5t-22 22t-36.5 8.5q-40 0 -55 -21t-15 -46
q0 -35 21.5 -59.5t73.5 -51.5q60 -30 85.5 -68.5t25.5 -89.5q0 -24 -7.5 -49.5t-23 -45.5t-40.5 -33t-61 -13q-71 0 -102.5 39.5t-31.5 114.5v9h61zM248 683l-72 -135h-52l57 135h67z" />
    <glyph glyph-name="Scircumflex" unicode="&#x15c;" horiz-adv-x="372" 
d="M42 529q0 26 8 52t25.5 47t45 34t65.5 13q70 0 107 -37.5t37 -119.5v-21h-63v25q0 18 -3.5 35.5t-13 31.5t-25 22.5t-39.5 8.5q-38 0 -58.5 -27t-20.5 -63v-29q0 -34 19 -60t66 -56q28 -18 53 -38t44 -43t30 -50.5t11 -61.5v-56q0 -27 -8.5 -53t-26 -46.5t-44.5 -33.5
t-65 -13q-74 0 -109 41.5t-35 116.5v20h65v-25q0 -18 3.5 -35.5t12 -31.5t24 -22.5t39.5 -8.5q38 0 59.5 26t21.5 63v45q0 47 -27.5 82t-78.5 68q-54 35 -86.5 71t-32.5 92v37zM214 838l71 -135h-51l-47 93l-48 -93h-51l71 135h55z" />
    <glyph glyph-name="scircumflex" unicode="&#x15d;" horiz-adv-x="350" 
d="M104 153v-10q0 -20 2.5 -38t10.5 -32.5t21.5 -23t36.5 -8.5q35 0 54 23.5t19 59.5q0 38 -21 66.5t-76 58.5q-52 29 -81 62t-29 86q0 22 7.5 44t24 39t41 27.5t59.5 10.5q68 0 101 -39t33 -112v-9h-62v13q0 18 -3 35t-10.5 30.5t-22 22t-36.5 8.5q-40 0 -55 -21t-15 -46
q0 -35 21.5 -59.5t73.5 -51.5q60 -30 85.5 -68.5t25.5 -89.5q0 -24 -7.5 -49.5t-23 -45.5t-40.5 -33t-61 -13q-71 0 -102.5 39.5t-31.5 114.5v9h61zM202 683l71 -135h-51l-47 93l-48 -93h-51l71 135h55z" />
    <glyph glyph-name="Scedilla" unicode="&#x15e;" horiz-adv-x="372" 
d="M163 -9q-63 7 -92 47.5t-29 109.5v20h65v-25q0 -18 3.5 -35.5t12 -31.5t24 -22.5t39.5 -8.5q38 0 59.5 26t21.5 63v45q0 47 -27.5 82t-78.5 68q-54 35 -86.5 71t-32.5 92v37q0 26 8 52t25.5 47t45 34t65.5 13q70 0 107 -37.5t37 -119.5v-21h-63v25q0 18 -3.5 35.5
t-13 31.5t-25 22.5t-39.5 8.5q-38 0 -58.5 -27t-20.5 -63v-29q0 -34 19 -60t66 -56q28 -18 53 -38t44 -43t30 -50.5t11 -61.5v-56q0 -25 -7.5 -50t-23 -45t-40 -33.5t-57.5 -16.5v-35h9q36 0 58.5 -17t22.5 -59q0 -40 -24 -61t-65 -21q-40 0 -62 18.5t-22 59.5v2h43v-2
q0 -40 41 -40q20 0 31.5 10.5t11.5 32.5q0 23 -13 33t-39 10h-31v69z" />
    <glyph glyph-name="scedilla" unicode="&#x15f;" horiz-adv-x="350" 
d="M152 -8q-57 7 -83 45.5t-26 106.5v9h61v-10q0 -20 2.5 -38t10.5 -32.5t21.5 -23t36.5 -8.5q35 0 54 23.5t19 59.5q0 38 -21 67t-76 59q-52 29 -81 61.5t-29 85.5q0 22 7.5 44t24 39t41 27.5t59.5 10.5q68 0 101 -39t33 -112v-9h-62v13q0 18 -3 35t-10.5 30.5t-22 22
t-36.5 8.5q-40 0 -55 -21t-15 -46q0 -35 21.5 -59.5t73.5 -51.5q60 -30 85.5 -68.5t25.5 -89.5q0 -23 -6.5 -47t-21 -44t-37 -33.5t-54.5 -15.5v-35h9q37 0 59.5 -17t22.5 -59q0 -40 -24.5 -61t-64.5 -21t-62 18.5t-22 59.5v2h42v-2q0 -20 11 -30t31 -10t31.5 10.5
t11.5 32.5q0 23 -13 33t-39 10h-31v70z" />
    <glyph glyph-name="Scaron" unicode="&#x160;" horiz-adv-x="372" 
d="M42 529q0 26 8 52t25.5 47t45 34t65.5 13q70 0 107 -37.5t37 -119.5v-21h-63v25q0 18 -3.5 35.5t-13 31.5t-25 22.5t-39.5 8.5q-38 0 -58.5 -27t-20.5 -63v-29q0 -34 19 -60t66 -56q28 -18 53 -38t44 -43t30 -50.5t11 -61.5v-56q0 -27 -8.5 -53t-26 -46.5t-44.5 -33.5
t-65 -13q-74 0 -109 41.5t-35 116.5v20h65v-25q0 -18 3.5 -35.5t12 -31.5t24 -22.5t39.5 -8.5q38 0 59.5 26t21.5 63v45q0 47 -27.5 82t-78.5 68q-54 35 -86.5 71t-32.5 92v37zM159 703l-69 135h49l48 -94l47 94h50l-70 -135h-55z" />
    <glyph glyph-name="scaron" unicode="&#x161;" horiz-adv-x="350" 
d="M104 153v-10q0 -20 2.5 -38t10.5 -32.5t21.5 -23t36.5 -8.5q35 0 54 23.5t19 59.5q0 38 -21 66.5t-76 58.5q-52 29 -81 62t-29 86q0 22 7.5 44t24 39t41 27.5t59.5 10.5q68 0 101 -39t33 -112v-9h-62v13q0 18 -3 35t-10.5 30.5t-22 22t-36.5 8.5q-40 0 -55 -21t-15 -46
q0 -35 21.5 -59.5t73.5 -51.5q60 -30 85.5 -68.5t25.5 -89.5q0 -24 -7.5 -49.5t-23 -45.5t-40.5 -33t-61 -13q-71 0 -102.5 39.5t-31.5 114.5v9h61zM147 548l-69 135h49l48 -94l47 94h50l-70 -135h-55z" />
    <glyph glyph-name="uni0162" unicode="&#x162;" horiz-adv-x="380" 
d="M156 0v609h-135v56h338v-56h-139v-609h-64zM178 -161h-44l26 121h63z" />
    <glyph glyph-name="uni0163" unicode="&#x163;" horiz-adv-x="285" 
d="M271 5q-16 -7 -31.5 -11t-35.5 -4q-73 0 -104.5 40.5t-31.5 119.5v458h57l6 -63v-37h123v-51h-123v-314q0 -17 3 -34.5t11.5 -31.5t24 -23t39.5 -9q14 0 25 2.5t20 6.5zM157 -161h-44l26 121h63z" />
    <glyph glyph-name="Tcaron" unicode="&#x164;" horiz-adv-x="380" 
d="M156 0v609h-135v56h338v-56h-139v-609h-64zM162 703l-69 135h49l48 -94l47 94h50l-70 -135h-55z" />
    <glyph glyph-name="tcaron" unicode="&#x165;" horiz-adv-x="291" 
d="M271 5q-16 -7 -31.5 -11t-35.5 -4q-73 0 -104.5 40.5t-31.5 119.5v458h57l6 -63v-37h123v-51h-123v-314q0 -17 3 -34.5t11.5 -31.5t24 -23t39.5 -9q14 0 25 2.5t20 6.5zM220 576h-34l20 125h56z" />
    <glyph glyph-name="Tbar" unicode="&#x166;" horiz-adv-x="380" 
d="M64 427h92v182h-135v56h338v-56h-139v-182h95v-51h-95v-376h-64v376h-92v51z" />
    <glyph glyph-name="tbar" unicode="&#x167;" horiz-adv-x="285" 
d="M271 5q-16 -7 -31.5 -11t-35.5 -4q-73 0 -104.5 40.5t-31.5 119.5v458h57l6 -63v-37h123v-51h-123v-115h123v-47h-123v-152q0 -17 3 -34t11.5 -31.5t24 -23.5t39.5 -9q12 0 24 2.5t21 6.5z" />
    <glyph glyph-name="Utilde" unicode="&#x168;" horiz-adv-x="433" 
d="M365 665v-494q0 -88 -37 -134.5t-112 -46.5t-111.5 46.5t-36.5 134.5v494h63v-502q0 -21 4.5 -42t15 -38t26.5 -27.5t39 -10.5q24 0 40.5 10.5t26.5 27.5t14.5 38t4.5 42v502h63zM92 724q0 27 5.5 44.5t15 28t22 15t25.5 4.5q19 0 33.5 -6.5t26.5 -15t23 -15t25 -6.5
q11 0 18.5 7.5t7.5 33.5v5h49v-5q0 -27 -5.5 -44.5t-14.5 -28t-21 -15t-25 -4.5q-19 0 -33.5 7t-27 15.5t-23.5 15.5t-24 7q-12 0 -19.5 -8t-7.5 -35v-4h-50v4z" />
    <glyph glyph-name="utilde" unicode="&#x169;" horiz-adv-x="409" 
d="M65 508h64v-369q0 -21 3 -38.5t11 -31t22 -21t36 -7.5q26 0 45.5 14t29.5 34v419h64v-420q0 -18 7 -30.5t30 -12.5v-55q-46 0 -65 16t-26 48q-16 -29 -43 -46.5t-67 -17.5q-58 0 -84.5 37t-26.5 114v367zM79 569q0 27 5.5 44.5t15 28t22 15t25.5 4.5q19 0 33.5 -6.5
t26.5 -15t23 -15t25 -6.5q11 0 18.5 7.5t7.5 33.5v5h49v-5q0 -27 -5.5 -44.5t-14.5 -28t-21 -15t-25 -4.5q-19 0 -33.5 7t-27 15.5t-23.5 15.5t-24 7q-12 0 -19.5 -8t-7.5 -35v-4h-50v4z" />
    <glyph glyph-name="Umacron" unicode="&#x16a;" horiz-adv-x="434" 
d="M365 665v-494q0 -88 -37 -134.5t-112 -46.5t-111.5 46.5t-36.5 134.5v494h63v-502q0 -21 4.5 -42t15 -38t26.5 -27.5t39 -10.5q24 0 40.5 10.5t26.5 27.5t14.5 38t4.5 42v502h63zM119 799h199v-52h-199v52z" />
    <glyph glyph-name="umacron" unicode="&#x16b;" horiz-adv-x="409" 
d="M65 508h64v-369q0 -21 3 -38.5t11 -31t22 -21t36 -7.5q26 0 45.5 14t29.5 34v419h64v-420q0 -18 7 -30.5t30 -12.5v-55q-46 0 -65 16t-26 48q-16 -29 -43 -46.5t-67 -17.5q-58 0 -84.5 37t-26.5 114v367zM105 644h199v-52h-199v52z" />
    <glyph glyph-name="Ubreve" unicode="&#x16c;" horiz-adv-x="433" 
d="M365 665v-494q0 -88 -37 -134.5t-112 -46.5t-111.5 46.5t-36.5 134.5v494h63v-502q0 -21 4.5 -42t15 -38t26.5 -27.5t39 -10.5q24 0 40.5 10.5t26.5 27.5t14.5 38t4.5 42v502h63zM317 820v-9q0 -40 -25 -65.5t-75 -25.5t-75 25.5t-25 65.5v9h52v-9q0 -21 11 -33t37 -12
q25 0 36.5 12t11.5 33v9h52z" />
    <glyph glyph-name="ubreve" unicode="&#x16d;" horiz-adv-x="409" 
d="M65 508h64v-369q0 -21 3 -38.5t11 -31t22 -21t36 -7.5q26 0 45.5 14t29.5 34v419h64v-420q0 -18 7 -30.5t30 -12.5v-55q-46 0 -65 16t-26 48q-16 -29 -43 -46.5t-67 -17.5q-58 0 -84.5 37t-26.5 114v367zM304 665v-9q0 -40 -25 -65.5t-75 -25.5t-75 25.5t-25 65.5v9h52
v-9q0 -21 11 -33t37 -12q25 0 36.5 12t11.5 33v9h52z" />
    <glyph glyph-name="Uring" unicode="&#x16e;" horiz-adv-x="433" 
d="M365 665v-494q0 -88 -37 -134.5t-112 -46.5t-111.5 46.5t-36.5 134.5v494h63v-502q0 -21 4.5 -42t15 -38t26.5 -27.5t39 -10.5q24 0 40.5 10.5t26.5 27.5t14.5 38t4.5 42v502h63zM175 776q0 -17 10 -30t33 -13t33 13t10 30q0 18 -10 31t-33 13t-33 -13t-10 -31zM136 776
q0 35 22 56.5t60 21.5t60 -21.5t22 -56.5q0 -34 -22 -55.5t-60 -21.5t-60 21.5t-22 55.5z" />
    <glyph glyph-name="uring" unicode="&#x16f;" horiz-adv-x="409" 
d="M65 508h64v-369q0 -21 3 -38.5t11 -31t22 -21t36 -7.5q26 0 45.5 14t29.5 34v419h64v-420q0 -18 7 -30.5t30 -12.5v-55q-46 0 -65 16t-26 48q-16 -29 -43 -46.5t-67 -17.5q-58 0 -84.5 37t-26.5 114v367zM162 621q0 -17 10 -30t33 -13t33 13t10 30q0 18 -10 31t-33 13
t-33 -13t-10 -31zM123 621q0 35 22 56.5t60 21.5t60 -21.5t22 -56.5q0 -34 -22 -55.5t-60 -21.5t-60 21.5t-22 55.5z" />
    <glyph glyph-name="Uhungarumlaut" unicode="&#x170;" horiz-adv-x="433" 
d="M365 665v-494q0 -88 -37 -134.5t-112 -46.5t-111.5 46.5t-36.5 134.5v494h63v-502q0 -21 4.5 -42t15 -38t26.5 -27.5t39 -10.5q24 0 40.5 10.5t26.5 27.5t14.5 38t4.5 42v502h63zM372 838l-77 -135h-50l63 135h64zM247 838l-73 -135h-50l59 135h64z" />
    <glyph glyph-name="uhungarumlaut" unicode="&#x171;" horiz-adv-x="409" 
d="M65 508h64v-369q0 -21 3 -38.5t11 -31t22 -21t36 -7.5q26 0 45.5 14t29.5 34v419h64v-420q0 -18 7 -30.5t30 -12.5v-55q-46 0 -65 16t-26 48q-16 -29 -43 -46.5t-67 -17.5q-58 0 -84.5 37t-26.5 114v367zM359 683l-77 -135h-50l63 135h64zM234 683l-73 -135h-50l59 135
h64z" />
    <glyph glyph-name="Uogonek" unicode="&#x172;" horiz-adv-x="433" 
d="M365 665v-494q0 -66 -20 -106t-55 -61q-45 -26 -69 -57.5t-24 -67.5q0 -20 9.5 -29t25.5 -9t25.5 9t9.5 30v6h42v-6q0 -32 -19 -55.5t-59 -23.5t-60.5 20t-20.5 55t18 64t49 50q-75 0 -112 46.5t-37 134.5v494h63v-502q0 -21 4.5 -42t15 -38t26.5 -27.5t39 -10.5
q24 0 40.5 10.5t26.5 27.5t14.5 38t4.5 42v502h63z" />
    <glyph glyph-name="uogonek" unicode="&#x173;" horiz-adv-x="409" 
d="M65 508h64v-370q0 -21 3 -38.5t11 -30.5t22 -20.5t36 -7.5q26 0 45.5 14t29.5 34v419h64v-423q0 -18 7 -29t30 -11v-55q-20 0 -35 3q-42 -22 -64.5 -51t-22.5 -63q0 -20 9.5 -29t25.5 -9t25 9t9 30v6h43v-6q0 -32 -19.5 -55.5t-58.5 -23.5q-41 0 -61.5 20t-20.5 55
q0 44 28 78t73 55q-9 8 -14 19.5t-8 25.5q-16 -29 -43 -46.5t-67 -17.5q-58 0 -84.5 38t-26.5 113v367z" />
    <glyph glyph-name="Wcircumflex" unicode="&#x174;" horiz-adv-x="591" 
d="M315 665l103 -557h3l77 557h63l-103 -665h-68l-98 502h-3l-99 -502h-63l-98 665h64l69 -557h3l103 557h47zM322 838l71 -135h-51l-47 93l-48 -93h-51l71 135h55z" />
    <glyph glyph-name="wcircumflex" unicode="&#x175;" horiz-adv-x="573" 
d="M258 508h56l87 -404h3l75 404h63l-99 -508h-67l-88 394h-5l-88 -394h-67l-98 508h64l73 -404h4zM314 683l71 -135h-51l-47 93l-48 -93h-51l71 135h55z" />
    <glyph glyph-name="Ycircumflex" unicode="&#x176;" horiz-adv-x="409" 
d="M236 215v-215h-64v216l-143 449h66l107 -364h3l108 364h66zM231 838l71 -135h-51l-47 93l-48 -93h-51l71 135h55z" />
    <glyph glyph-name="ycircumflex" unicode="&#x177;" horiz-adv-x="353" 
d="M37 508h63l79 -410h3l82 410h63l-131 -564q-16 -69 -55.5 -111t-112.5 -42v54q37 0 68 25t44 79l10 40zM204 683l71 -135h-51l-47 93l-48 -93h-51l71 135h55z" />
    <glyph glyph-name="Ydieresis" unicode="&#x178;" horiz-adv-x="409" 
d="M236 215v-215h-64v216l-143 449h66l107 -364h3l108 364h66zM139 810q17 0 28 -11t11 -28t-11 -27.5t-28 -10.5t-28.5 10.5t-11.5 27.5t11.5 28t28.5 11zM269 810q17 0 28 -11t11 -28t-11 -27.5t-28 -10.5t-28 10.5t-11 27.5t11 28t28 11z" />
    <glyph glyph-name="Zacute" unicode="&#x179;" horiz-adv-x="346" 
d="M38 609v56h276v-66l-223 -544h217v-55h-276v66l223 543h-217zM247 838l-72 -135h-52l57 135h67z" />
    <glyph glyph-name="zacute" unicode="&#x17a;" horiz-adv-x="294" 
d="M36 453v55h229v-64l-177 -389h170v-55h-229v61l179 392h-172zM221 683l-72 -135h-52l57 135h67z" />
    <glyph glyph-name="Zdotaccent" unicode="&#x17b;" horiz-adv-x="346" 
d="M38 609v56h276v-66l-223 -544h217v-55h-276v66l223 543h-217zM174 810q19 0 30 -11.5t11 -29.5q0 -17 -11 -29t-30 -12t-30.5 12t-11.5 29q0 18 11.5 29.5t30.5 11.5z" />
    <glyph glyph-name="zdotaccent" unicode="&#x17c;" horiz-adv-x="294" 
d="M36 453v55h229v-64l-177 -389h170v-55h-229v61l179 392h-172zM148 655q19 0 30 -11.5t11 -29.5q0 -17 -11 -29t-30 -12t-30.5 12t-11.5 29q0 18 11.5 29.5t30.5 11.5z" />
    <glyph glyph-name="Zcaron" unicode="&#x17d;" horiz-adv-x="346" 
d="M38 609v56h276v-66l-223 -544h217v-55h-276v66l223 543h-217zM146 703l-69 135h49l48 -94l47 94h50l-70 -135h-55z" />
    <glyph glyph-name="zcaron" unicode="&#x17e;" horiz-adv-x="294" 
d="M36 453v55h229v-64l-177 -389h170v-55h-229v61l179 392h-172zM120 548l-69 135h49l48 -94l47 94h50l-70 -135h-55z" />
    <glyph glyph-name="florin" unicode="&#x192;" horiz-adv-x="483" 
d="M273 163q0 -82 -34 -127.5t-106 -45.5q-39 0 -65.5 13t-43.5 33l41 36q10 -11 25.5 -21t38.5 -10q25 0 40.5 9.5t24.5 25t12 35t3 39.5v348q0 84 33 130.5t105 46.5q41 0 67.5 -12.5t43.5 -32.5l-41 -38q-11 14 -25.5 23t-39.5 9q-24 0 -39.5 -10t-24 -25.5t-12 -35
t-3.5 -37.5v-133h130v-51h-130v-169z" />
    <glyph glyph-name="uni0218" unicode="&#x218;" horiz-adv-x="372" 
d="M42 529q0 26 8 52t25.5 47t45 34t65.5 13q70 0 107 -37.5t37 -119.5v-21h-63v25q0 18 -3.5 35.5t-13 31.5t-25 22.5t-39.5 8.5q-38 0 -58.5 -27t-20.5 -63v-29q0 -34 19 -60t66 -56q28 -18 53 -38t44 -43t30 -50.5t11 -61.5v-56q0 -27 -8.5 -53t-26 -46.5t-44.5 -33.5
t-65 -13q-74 0 -109 41.5t-35 116.5v20h65v-25q0 -18 3.5 -35.5t12 -31.5t24 -22.5t39.5 -8.5q38 0 59.5 26t21.5 63v45q0 47 -27.5 82t-78.5 68q-54 35 -86.5 71t-32.5 92v37zM178 -161h-44l26 121h63z" />
    <glyph glyph-name="uni0219" unicode="&#x219;" horiz-adv-x="350" 
d="M104 153v-10q0 -20 2.5 -38t10.5 -32.5t21.5 -23t36.5 -8.5q35 0 54 23.5t19 59.5q0 38 -21 66.5t-76 58.5q-52 29 -81 62t-29 86q0 22 7.5 44t24 39t41 27.5t59.5 10.5q68 0 101 -39t33 -112v-9h-62v13q0 18 -3 35t-10.5 30.5t-22 22t-36.5 8.5q-40 0 -55 -21t-15 -46
q0 -35 21.5 -59.5t73.5 -51.5q60 -30 85.5 -68.5t25.5 -89.5q0 -24 -7.5 -49.5t-23 -45.5t-40.5 -33t-61 -13q-71 0 -102.5 39.5t-31.5 114.5v9h61zM166 -161h-44l26 121h63z" />
    <glyph glyph-name="uni021A" unicode="&#x21a;" horiz-adv-x="380" 
d="M156 0v609h-135v56h338v-56h-139v-609h-64zM178 -161h-44l26 121h63z" />
    <glyph glyph-name="uni021B" unicode="&#x21b;" horiz-adv-x="285" 
d="M271 5q-16 -7 -31.5 -11t-35.5 -4q-73 0 -104.5 40.5t-31.5 119.5v458h57l6 -63v-37h123v-51h-123v-314q0 -17 3 -34.5t11.5 -31.5t24 -23t39.5 -9q14 0 25 2.5t20 6.5zM157 -161h-44l26 121h63z" />
    <glyph glyph-name="dotlessj" unicode="&#x237;" horiz-adv-x="203" 
d="M127 508l6 -65v-483q0 -91 -31.5 -130.5t-106.5 -39.5v55q25 0 40 8.5t23 22.5t10 33.5t2 41.5v557h57z" />
    <glyph glyph-name="circumflex" unicode="&#x2c6;" horiz-adv-x="437" 
d="M246 683l71 -135h-51l-47 93l-48 -93h-51l71 135h55z" />
    <glyph glyph-name="caron" unicode="&#x2c7;" horiz-adv-x="438" 
d="M191 548l-69 135h49l48 -94l47 94h50l-70 -135h-55z" />
    <glyph glyph-name="breve" unicode="&#x2d8;" horiz-adv-x="437" 
d="M318 665v-9q0 -40 -25 -65.5t-75 -25.5t-75 25.5t-25 65.5v9h52v-9q0 -21 11 -33t37 -12q25 0 36.5 12t11.5 33v9h52z" />
    <glyph glyph-name="dotaccent" unicode="&#x2d9;" horiz-adv-x="437" 
d="M219 655q19 0 30 -11.5t11 -29.5q0 -17 -11 -29t-30 -12t-30.5 12t-11.5 29q0 18 11.5 29.5t30.5 11.5z" />
    <glyph glyph-name="ring" unicode="&#x2da;" horiz-adv-x="437" 
d="M176 621q0 -17 10 -30t33 -13t33 13t10 30q0 18 -10 31t-33 13t-33 -13t-10 -31zM137 621q0 35 22 56.5t60 21.5t60 -21.5t22 -56.5q0 -34 -22 -55.5t-60 -21.5t-60 21.5t-22 55.5z" />
    <glyph glyph-name="ogonek" unicode="&#x2db;" horiz-adv-x="437" 
d="M338 0q-49 -22 -75.5 -53.5t-26.5 -67.5q0 -38 34 -38q17 0 26 9t9 30v6h43v-6q0 -32 -19.5 -55.5t-58.5 -23.5q-41 0 -61.5 20t-20.5 55q0 51 38 89t95 58z" />
    <glyph glyph-name="tilde" unicode="&#x2dc;" horiz-adv-x="438" 
d="M93 569q0 27 5.5 44.5t15 28t22 15t25.5 4.5q19 0 33.5 -6.5t26.5 -15t23 -15t25 -6.5q11 0 18.5 7.5t7.5 33.5v5h49v-5q0 -27 -5.5 -44.5t-14.5 -28t-21 -15t-25 -4.5q-19 0 -33.5 7t-27 15.5t-23.5 15.5t-24 7q-12 0 -19.5 -8t-7.5 -35v-4h-50v4z" />
    <glyph glyph-name="hungarumlaut" unicode="&#x2dd;" horiz-adv-x="437" 
d="M379 683l-77 -135h-50l63 135h64zM254 683l-73 -135h-50l59 135h64z" />
    <glyph glyph-name="uni0394" unicode="&#x394;" horiz-adv-x="390" 
d="M302 55l-107 506l-107 -506h214zM170 665h50l136 -600v-65h-322v65z" />
    <glyph glyph-name="uni03A9" unicode="&#x3a9;" horiz-adv-x="412" 
d="M354 188q0 -51 -22.5 -83.5t-55.5 -49.5h78v-55h-121v59q27 18 42 48.5t15 70.5v335q0 18 -4 37t-13.5 34.5t-25.5 25.5t-41 10t-41.5 -10t-26 -25.5t-13.5 -34.5t-4 -37v-335q0 -40 15.5 -70.5t42.5 -48.5v-59h-121v55h78q-32 17 -55 49.5t-23 83.5v317q0 78 36.5 124
t110.5 46q75 0 112 -46t37 -124v-317z" />
    <glyph glyph-name="pi" unicode="&#x3c0;" horiz-adv-x="493" 
d="M376 0h-63v453h-134v-453h-64v453h-73v55h409v-55h-75v-453z" />
    <glyph glyph-name="Wgrave" unicode="&#x1e80;" horiz-adv-x="591" 
d="M315 665l103 -557h3l77 557h63l-103 -665h-68l-98 502h-3l-99 -502h-63l-98 665h64l69 -557h3l103 557h47zM295 838l56 -135h-51l-72 135h67z" />
    <glyph glyph-name="wgrave" unicode="&#x1e81;" horiz-adv-x="573" 
d="M258 508h56l87 -404h3l75 404h63l-99 -508h-67l-88 394h-5l-88 -394h-67l-98 508h64l73 -404h4zM287 683l56 -135h-51l-72 135h67z" />
    <glyph glyph-name="Wacute" unicode="&#x1e82;" horiz-adv-x="591" 
d="M315 665l103 -557h3l77 557h63l-103 -665h-68l-98 502h-3l-99 -502h-63l-98 665h64l69 -557h3l103 557h47zM368 838l-72 -135h-52l57 135h67z" />
    <glyph glyph-name="wacute" unicode="&#x1e83;" horiz-adv-x="573" 
d="M258 508h56l87 -404h3l75 404h63l-99 -508h-67l-88 394h-5l-88 -394h-67l-98 508h64l73 -404h4zM360 683l-72 -135h-52l57 135h67z" />
    <glyph glyph-name="Wdieresis" unicode="&#x1e84;" horiz-adv-x="591" 
d="M315 665l103 -557h3l77 557h63l-103 -665h-68l-98 502h-3l-99 -502h-63l-98 665h64l69 -557h3l103 557h47zM229 810q17 0 28 -11t11 -28t-11 -27.5t-28 -10.5t-28.5 10.5t-11.5 27.5t11.5 28t28.5 11zM359 810q17 0 28 -11t11 -28t-11 -27.5t-28 -10.5t-28 10.5t-11 27.5
t11 28t28 11z" />
    <glyph glyph-name="wdieresis" unicode="&#x1e85;" horiz-adv-x="573" 
d="M258 508h56l87 -404h3l75 404h63l-99 -508h-67l-88 394h-5l-88 -394h-67l-98 508h64l73 -404h4zM221 655q17 0 28 -11t11 -28t-11 -27.5t-28 -10.5t-28.5 10.5t-11.5 27.5t11.5 28t28.5 11zM351 655q17 0 28 -11t11 -28t-11 -27.5t-28 -10.5t-28 10.5t-11 27.5t11 28
t28 11z" />
    <glyph glyph-name="Ygrave" unicode="&#x1ef2;" horiz-adv-x="409" 
d="M236 215v-215h-64v216l-143 449h66l107 -364h3l108 364h66zM204 838l56 -135h-51l-72 135h67z" />
    <glyph glyph-name="ygrave" unicode="&#x1ef3;" horiz-adv-x="353" 
d="M37 508h63l79 -410h3l82 410h63l-131 -564q-16 -69 -55.5 -111t-112.5 -42v54q37 0 68 25t44 79l10 40zM177 683l56 -135h-51l-72 135h67z" />
    <glyph glyph-name="endash" unicode="&#x2013;" horiz-adv-x="625" 
d="M62 350h500v-57h-500v57z" />
    <glyph glyph-name="emdash" unicode="&#x2014;" horiz-adv-x="1250" 
d="M62 350h1125v-57h-1125v57z" />
    <glyph glyph-name="quoteleft" unicode="&#x2018;" horiz-adv-x="217" 
d="M103 679h42l-19 -199h-63z" />
    <glyph glyph-name="quoteright" unicode="&#x2019;" horiz-adv-x="217" 
d="M114 480h-43l20 199h62z" />
    <glyph glyph-name="quotesinglbase" unicode="&#x201a;" horiz-adv-x="217" 
d="M114 -149h-43l20 182h62z" />
    <glyph glyph-name="quotedblleft" unicode="&#x201c;" horiz-adv-x="358" 
d="M103 679h42l-19 -199h-63zM243 679h42l-19 -199h-63z" />
    <glyph glyph-name="quotedblright" unicode="&#x201d;" horiz-adv-x="358" 
d="M114 480h-43l20 199h62zM255 480h-43l20 199h62z" />
    <glyph glyph-name="quotedblbase" unicode="&#x201e;" horiz-adv-x="358" 
d="M114 -149h-43l20 182h62zM255 -149h-43l20 182h62z" />
    <glyph glyph-name="dagger" unicode="&#x2020;" horiz-adv-x="356" 
d="M48 516h99v194h63v-194h98v-56h-98v-460h-63v460h-99v56z" />
    <glyph glyph-name="daggerdbl" unicode="&#x2021;" horiz-adv-x="356" 
d="M48 516h99v194h63v-194h98v-56h-98v-210h98v-56h-98v-194h-63v194h-99v56h99v210h-99v56z" />
    <glyph glyph-name="bullet" unicode="&#x2022;" horiz-adv-x="239" 
d="M45 328q0 35 21 55t53 20t53.5 -20t21.5 -55t-21.5 -55t-53.5 -20t-53 20t-21 55z" />
    <glyph glyph-name="ellipsis" unicode="&#x2026;" horiz-adv-x="635" 
d="M57 36q0 19 11.5 30t31.5 11q19 0 30.5 -11t11.5 -30t-11.5 -30t-30.5 -11q-20 0 -31.5 11t-11.5 30zM493 36q0 19 11.5 30t31.5 11q19 0 30.5 -11t11.5 -30t-11.5 -30t-30.5 -11q-20 0 -31.5 11t-11.5 30zM275 36q0 19 11.5 30t31.5 11q19 0 30.5 -11t11.5 -30
t-11.5 -30t-30.5 -11q-20 0 -31.5 11t-11.5 30z" />
    <glyph glyph-name="perthousand" unicode="&#x2030;" horiz-adv-x="1052" 
d="M266 377q0 -49 -26 -81t-81 -32q-54 0 -80 32t-26 81v185q0 48 26 80.5t80 32.5q55 0 81 -32.5t26 -80.5v-185zM210 568q0 23 -11 42t-40 19t-40 -19t-11 -42v-197q0 -21 11 -41t40 -20t40 20t11 41v197zM227 0h-55l347 665h55zM693 107q0 -49 -26 -81t-81 -32
q-54 0 -80 32t-26 81v185q0 48 26 80.5t80 32.5q55 0 81 -32.5t26 -80.5v-185zM637 298q0 23 -11 42t-40 19t-40 -19t-11 -42v-197q0 -21 11 -41t40 -20t40 20t11 41v197zM1000 107q0 -49 -26 -81t-81 -32q-54 0 -80 32t-26 81v185q0 48 26 80.5t80 32.5q55 0 81 -32.5
t26 -80.5v-185zM944 298q0 23 -11 42t-40 19t-40 -19t-11 -42v-197q0 -21 11 -41t40 -20t40 20t11 41v197z" />
    <glyph glyph-name="guilsinglleft" unicode="&#x2039;" horiz-adv-x="287" 
d="M199 464l43 -40l-137 -132l137 -131l-43 -40l-149 143v56z" />
    <glyph glyph-name="guilsinglright" unicode="&#x203a;" horiz-adv-x="287" 
d="M88 121l-43 40l137 131l-137 132l43 40l149 -144v-56z" />
    <glyph glyph-name="fraction" unicode="&#x2044;" horiz-adv-x="119" 
d="M-86 0h-55l347 665h55z" />
    <glyph glyph-name="zerosuperior" unicode="&#x2070;" horiz-adv-x="306" 
d="M260 377q0 -49 -26 -81t-81 -32q-54 0 -80 32t-26 81v185q0 48 26 80.5t80 32.5q55 0 81 -32.5t26 -80.5v-185zM204 568q0 23 -11 42t-40 19t-40 -19t-11 -42v-197q0 -21 11 -41t40 -20t40 20t11 41v197z" />
    <glyph glyph-name="foursuperior" unicode="&#x2074;" horiz-adv-x="307" 
d="M203 351h-167v58l140 260h56l-145 -271h116v74h51v-202h-51v81z" />
    <glyph glyph-name="fivesuperior" unicode="&#x2075;" horiz-adv-x="306" 
d="M46 669h209v-47h-156v-115q9 14 27.5 24t45.5 10q39 0 63 -25.5t24 -79.5v-62q0 -48 -27 -79t-81 -31t-79.5 27.5t-25.5 71.5v14h55v-12q0 -22 11 -38.5t40 -16.5t40 17.5t11 40.5v70q0 23 -10.5 40t-35.5 17q-23 0 -35.5 -11.5t-17.5 -23.5h-58v209z" />
    <glyph glyph-name="sixsuperior" unicode="&#x2076;" horiz-adv-x="306" 
d="M204 568v6q0 21 -11.5 38t-39.5 17t-39.5 -19t-11.5 -41v-86q8 14 26.5 24.5t43.5 10.5q42 0 65 -25t23 -73v-48q0 -48 -26 -78t-81 -30q-56 0 -81 30.5t-25 78.5v188q0 50 26 82t80 32q55 0 81 -28t26 -71v-8h-56zM153 310q29 0 40 17.5t11 40.5v49q0 23 -11 40t-40 17
q-27 0 -39 -17t-12 -38v-51q0 -21 10.5 -39.5t40.5 -18.5z" />
    <glyph glyph-name="sevensuperior" unicode="&#x2077;" horiz-adv-x="307" 
d="M57 270l157 352h-178v47h232v-54l-153 -345h-58z" />
    <glyph glyph-name="eightsuperior" unicode="&#x2078;" horiz-adv-x="306" 
d="M47 582q0 42 27.5 67.5t78.5 25.5q52 0 79.5 -27t27.5 -65v-16q0 -29 -19.5 -50t-50.5 -40q29 -19 49.5 -43t20.5 -60v-17q0 -40 -26.5 -66.5t-80.5 -26.5q-53 0 -79.5 27t-26.5 65v19q0 35 19.5 58.5t48.5 42.5q-30 20 -49 41t-19 50v15zM102 361q0 -18 12 -34.5
t39 -16.5t39 16.5t12 34.5v17q0 23 -14 40.5t-36 31.5q-23 -13 -37.5 -30t-14.5 -42v-17zM102 566q0 -36 52 -66q25 15 37.5 30.5t12.5 35.5v13q0 18 -12 34t-39 16t-39 -15.5t-12 -34.5v-13z" />
    <glyph glyph-name="ninesuperior" unicode="&#x2079;" horiz-adv-x="306" 
d="M102 371v-7q0 -23 12 -38.5t39 -15.5q26 0 38.5 19t12.5 44v82q-10 -14 -28 -24t-44 -10q-41 0 -63 24t-22 72v48q0 48 26 79t80 31q55 0 81 -31.5t26 -79.5v-182q0 -51 -26.5 -84.5t-80.5 -33.5t-80 28t-26 73v6h55zM153 629q-28 0 -39.5 -18.5t-11.5 -41.5v-49
q0 -23 11.5 -39t37.5 -16q28 0 40.5 17.5t12.5 37.5v49q0 23 -11.5 41.5t-39.5 18.5z" />
    <glyph glyph-name="zeroinferior" unicode="&#x2080;" horiz-adv-x="306" 
d="M260 107q0 -49 -26 -81t-81 -32q-54 0 -80 32t-26 81v185q0 48 26 80.5t80 32.5q55 0 81 -32.5t26 -80.5v-185zM204 298q0 23 -11 42t-40 19t-40 -19t-11 -42v-197q0 -21 11 -41t40 -20t40 20t11 41v197z" />
    <glyph glyph-name="oneinferior" unicode="&#x2081;" horiz-adv-x="306" 
d="M170 0v342l-98 -52l-29 43l118 66h64v-399h-55z" />
    <glyph glyph-name="twoinferior" unicode="&#x2082;" horiz-adv-x="306" 
d="M44 296v8q0 43 26 72t86 29q57 0 81 -26t24 -67v-8q0 -54 -70 -143l-86 -114h156v-47h-213v53l82 110q39 50 57 80t18 56v5q0 25 -11.5 40t-39.5 15q-31 0 -43 -17t-12 -39v-7h-55z" />
    <glyph glyph-name="threeinferior" unicode="&#x2083;" horiz-adv-x="307" 
d="M202 307q0 20 -12 36t-41 16q-28 0 -40 -16.5t-12 -37.5v-9h-55v7q0 45 26.5 73.5t82.5 28.5q55 0 80.5 -27t25.5 -66v-17q0 -30 -14.5 -52t-39.5 -30v-2q26 -8 40 -29.5t14 -51.5v-30q0 -46 -27 -76t-81 -30q-53 0 -80 26t-27 73v13h55v-11q0 -23 11 -39t40 -16t41.5 18
t12.5 43v29q0 23 -14.5 40t-43.5 17h-31v45h30q31 0 45 17.5t14 38.5v19z" />
    <glyph glyph-name="fourinferior" unicode="&#x2084;" horiz-adv-x="307" 
d="M203 81h-167v58l140 260h56l-145 -271h116v74h51v-202h-51v81z" />
    <glyph glyph-name="fiveinferior" unicode="&#x2085;" horiz-adv-x="306" 
d="M46 399h209v-47h-156v-115q9 14 27.5 24t45.5 10q39 0 63 -25.5t24 -79.5v-62q0 -48 -27 -79t-81 -31t-79.5 27.5t-25.5 71.5v14h55v-12q0 -22 11 -38.5t40 -16.5t40 17.5t11 40.5v70q0 23 -10.5 40t-35.5 17q-23 0 -35.5 -11.5t-17.5 -23.5h-58v209z" />
    <glyph glyph-name="sixinferior" unicode="&#x2086;" horiz-adv-x="306" 
d="M204 298v6q0 21 -11.5 38t-39.5 17t-39.5 -19t-11.5 -41v-86q8 14 26.5 24.5t43.5 10.5q42 0 65 -25t23 -73v-48q0 -48 -26 -78t-81 -30q-56 0 -81 30.5t-25 78.5v188q0 50 26 82t80 32q55 0 81 -28t26 -71v-8h-56zM153 40q29 0 40 17.5t11 40.5v49q0 23 -11 40t-40 17
q-27 0 -39 -17t-12 -38v-51q0 -21 10.5 -39.5t40.5 -18.5z" />
    <glyph glyph-name="seveninferior" unicode="&#x2087;" horiz-adv-x="307" 
d="M57 0l157 352h-178v47h232v-54l-153 -345h-58z" />
    <glyph glyph-name="eightinferior" unicode="&#x2088;" horiz-adv-x="306" 
d="M47 312q0 42 27.5 67.5t78.5 25.5q52 0 79.5 -27t27.5 -65v-16q0 -29 -19.5 -50t-50.5 -40q29 -19 49.5 -43t20.5 -60v-17q0 -40 -26.5 -66.5t-80.5 -26.5q-53 0 -79.5 27t-26.5 65v19q0 35 19.5 58.5t48.5 42.5q-30 20 -49 41t-19 50v15zM102 91q0 -18 12 -34.5
t39 -16.5t39 16.5t12 34.5v17q0 23 -14 40.5t-36 31.5q-23 -13 -37.5 -30t-14.5 -42v-17zM102 296q0 -36 52 -66q25 15 37.5 30.5t12.5 35.5v13q0 18 -12 34t-39 16t-39 -15.5t-12 -34.5v-13z" />
    <glyph glyph-name="nineinferior" unicode="&#x2089;" horiz-adv-x="306" 
d="M102 101v-7q0 -23 12 -38.5t39 -15.5q26 0 38.5 19t12.5 44v82q-10 -14 -28 -24t-44 -10q-41 0 -63 24t-22 72v48q0 48 26 79t80 31q55 0 81 -31.5t26 -79.5v-182q0 -51 -26.5 -84.5t-80.5 -33.5t-80 28t-26 73v6h55zM153 359q-28 0 -39.5 -18.5t-11.5 -41.5v-49
q0 -23 11.5 -39t37.5 -16q28 0 40.5 17.5t12.5 37.5v49q0 23 -11.5 41.5t-39.5 18.5z" />
    <glyph glyph-name="Euro" unicode="&#x20ac;" horiz-adv-x="440" 
d="M326 500v22q0 18 -4.5 35.5t-14 31.5t-25.5 22.5t-40 8.5q-23 0 -39 -9t-26 -24t-14.5 -34t-4.5 -40v-108h185v-42h-185v-62h185v-42h-185v-107q0 -20 4.5 -39t14.5 -34t26 -24.5t39 -9.5q24 0 40 8.5t25.5 22.5t14 31.5t4.5 35.5v22h64v-5q0 -83 -37 -126.5t-111 -43.5
q-75 0 -111.5 44.5t-36.5 122.5v102h-58v42h58v62h-58v42h58v103q0 78 36.5 122.5t111.5 44.5q74 0 111 -43t37 -124v-8h-64z" />
    <glyph glyph-name="uni2113" unicode="&#x2113;" horiz-adv-x="498" 
d="M35 211q23 15 45 29.5t43 29.5q6 81 31 160t61.5 141.5t82 101t93.5 38.5q35 0 50.5 -23.5t15.5 -54.5q0 -89 -72 -187t-213 -198q0 -46 4.5 -84t14.5 -65.5t26 -42.5t38 -15q32 0 64 25.5t57 62.5l42 -25q-15 -22 -33.5 -42.5t-39.5 -36.5t-45.5 -25.5t-51.5 -9.5
q-31 0 -54 16t-39 45t-24 70t-9 91q-16 -11 -33 -22t-32 -20zM377 660q-25 0 -56 -31t-59.5 -81t-51.5 -113t-33 -127q111 85 169.5 168t58.5 142q0 18 -6.5 30t-21.5 12z" />
    <glyph glyph-name="trademark" unicode="&#x2122;" horiz-adv-x="525" 
d="M84 419v213h-65v33h169v-33h-65v-213h-39zM226 419v246h61l61 -158h3l62 158h60v-246h-38v208h-2l-71 -177h-26l-71 177h-2v-208h-37z" />
    <glyph glyph-name="Omega" unicode="&#x2126;" horiz-adv-x="412" 
d="M354 188q0 -51 -22.5 -83.5t-55.5 -49.5h78v-55h-121v59q27 18 42 48.5t15 70.5v335q0 18 -4 37t-13.5 34.5t-25.5 25.5t-41 10t-41.5 -10t-26 -25.5t-13.5 -34.5t-4 -37v-335q0 -40 15.5 -70.5t42.5 -48.5v-59h-121v55h78q-32 17 -55 49.5t-23 83.5v317q0 78 36.5 124
t110.5 46q75 0 112 -46t37 -124v-317z" />
    <glyph glyph-name="estimated" unicode="&#x212e;" horiz-adv-x="833" 
d="M207 302q-5 0 -5 -4v-176q0 -12 8 -20q42 -45 98.5 -70.5t122.5 -25.5q70 0 129.5 29t102.5 78h52q-49 -57 -123 -91.5t-162 -34.5q-75 0 -140.5 25.5t-114 69.5t-77 103t-28.5 126t28.5 126t77 103t114 69.5t140.5 25.5t140.5 -25.5t114 -69.5t77 -103t28.5 -126v-9
h-583zM658 503q0 12 -9 21q-42 42 -98 67t-120 25q-65 0 -121.5 -25.5t-98.5 -69.5q-9 -9 -9 -22v-174q0 -5 5 -5h447q4 0 4 5v178z" />
    <glyph glyph-name="onethird" unicode="&#x2153;" horiz-adv-x="733" 
d="M170 270v342l-98 -52l-29 43l118 66h64v-399h-55zM212 0h-55l347 665h55zM629 307q0 20 -12 36t-41 16q-28 0 -40 -16.5t-12 -37.5v-9h-55v7q0 45 26.5 73.5t82.5 28.5q55 0 80.5 -27t25.5 -66v-17q0 -30 -14.5 -52t-39.5 -30v-2q26 -8 40 -29.5t14 -51.5v-30
q0 -46 -27 -76t-81 -30q-53 0 -80 26t-27 73v13h55v-11q0 -23 11 -39t40 -16t41.5 18t12.5 43v29q0 23 -14.5 40t-43.5 17h-31v45h30q31 0 45 17.5t14 38.5v19z" />
    <glyph glyph-name="twothirds" unicode="&#x2154;" horiz-adv-x="733" 
d="M44 566v8q0 43 26 72t86 29q57 0 81 -26t24 -67v-8q0 -54 -70 -143l-86 -114h156v-47h-213v53l82 110q39 50 57 80t18 56v5q0 25 -11.5 40t-39.5 15q-31 0 -43 -17t-12 -39v-7h-55zM227 0h-55l347 665h55zM629 307q0 20 -12 36t-41 16q-28 0 -40 -16.5t-12 -37.5v-9h-55
v7q0 45 26.5 73.5t82.5 28.5q55 0 80.5 -27t25.5 -66v-17q0 -30 -14.5 -52t-39.5 -30v-2q26 -8 40 -29.5t14 -51.5v-30q0 -46 -27 -76t-81 -30q-53 0 -80 26t-27 73v13h55v-11q0 -23 11 -39t40 -16t41.5 18t12.5 43v29q0 23 -14.5 40t-43.5 17h-31v45h30q31 0 45 17.5
t14 38.5v19z" />
    <glyph glyph-name="oneeighth" unicode="&#x215b;" horiz-adv-x="733" 
d="M170 270v342l-98 -52l-29 43l118 66h64v-399h-55zM216 0h-55l347 665h55zM474 312q0 42 27.5 67.5t78.5 25.5q52 0 79.5 -27t27.5 -65v-16q0 -29 -19.5 -50t-50.5 -40q29 -19 49.5 -43t20.5 -60v-17q0 -40 -26.5 -66.5t-80.5 -26.5q-53 0 -79.5 27t-26.5 65v19
q0 35 19.5 58.5t48.5 42.5q-30 20 -49 41t-19 50v15zM529 91q0 -18 12 -34.5t39 -16.5t39 16.5t12 34.5v17q0 23 -14 40.5t-36 31.5q-23 -13 -37.5 -30t-14.5 -42v-17zM529 296q0 -36 52 -66q25 15 37.5 30.5t12.5 35.5v13q0 18 -12 34t-39 16t-39 -15.5t-12 -34.5v-13z" />
    <glyph glyph-name="threeeighths" unicode="&#x215c;" horiz-adv-x="734" 
d="M202 577q0 20 -12 36t-41 16q-28 0 -40 -16.5t-12 -37.5v-9h-55v7q0 45 26.5 73.5t82.5 28.5q55 0 80.5 -27t25.5 -66v-17q0 -30 -14.5 -52t-39.5 -30v-2q26 -8 40 -29.5t14 -51.5v-30q0 -46 -27 -76t-81 -30q-53 0 -80 26t-27 73v13h55v-11q0 -23 11 -39t40 -16t41.5 18
t12.5 43v29q0 23 -14.5 40t-43.5 17h-31v45h30q31 0 45 17.5t14 38.5v19zM220 0h-55l347 665h55zM474 312q0 42 27.5 67.5t78.5 25.5q52 0 79.5 -27t27.5 -65v-16q0 -29 -19.5 -50t-50.5 -40q29 -19 49.5 -43t20.5 -60v-17q0 -40 -26.5 -66.5t-80.5 -26.5q-53 0 -79.5 27
t-26.5 65v19q0 35 19.5 58.5t48.5 42.5q-30 20 -49 41t-19 50v15zM529 91q0 -18 12 -34.5t39 -16.5t39 16.5t12 34.5v17q0 23 -14 40.5t-36 31.5q-23 -13 -37.5 -30t-14.5 -42v-17zM529 296q0 -36 52 -66q25 15 37.5 30.5t12.5 35.5v13q0 18 -12 34t-39 16t-39 -15.5
t-12 -34.5v-13z" />
    <glyph glyph-name="fiveeighths" unicode="&#x215d;" horiz-adv-x="733" 
d="M46 669h209v-47h-156v-115q9 14 27.5 24t45.5 10q39 0 63 -25.5t24 -79.5v-62q0 -48 -27 -79t-81 -31t-79.5 27.5t-25.5 71.5v14h55v-12q0 -22 11 -38.5t40 -16.5t40 17.5t11 40.5v70q0 23 -10.5 40t-35.5 17q-23 0 -35.5 -11.5t-17.5 -23.5h-58v209zM220 0h-55l347 665
h55zM474 312q0 42 27.5 67.5t78.5 25.5q52 0 79.5 -27t27.5 -65v-16q0 -29 -19.5 -50t-50.5 -40q29 -19 49.5 -43t20.5 -60v-17q0 -40 -26.5 -66.5t-80.5 -26.5q-53 0 -79.5 27t-26.5 65v19q0 35 19.5 58.5t48.5 42.5q-30 20 -49 41t-19 50v15zM529 91q0 -18 12 -34.5
t39 -16.5t39 16.5t12 34.5v17q0 23 -14 40.5t-36 31.5q-23 -13 -37.5 -30t-14.5 -42v-17zM529 296q0 -36 52 -66q25 15 37.5 30.5t12.5 35.5v13q0 18 -12 34t-39 16t-39 -15.5t-12 -34.5v-13z" />
    <glyph glyph-name="seveneighths" unicode="&#x215e;" horiz-adv-x="734" 
d="M57 270l157 352h-178v47h232v-54l-153 -345h-58zM183 0h-55l347 665h55zM474 312q0 42 27.5 67.5t78.5 25.5q52 0 79.5 -27t27.5 -65v-16q0 -29 -19.5 -50t-50.5 -40q29 -19 49.5 -43t20.5 -60v-17q0 -40 -26.5 -66.5t-80.5 -26.5q-53 0 -79.5 27t-26.5 65v19
q0 35 19.5 58.5t48.5 42.5q-30 20 -49 41t-19 50v15zM529 91q0 -18 12 -34.5t39 -16.5t39 16.5t12 34.5v17q0 23 -14 40.5t-36 31.5q-23 -13 -37.5 -30t-14.5 -42v-17zM529 296q0 -36 52 -66q25 15 37.5 30.5t12.5 35.5v13q0 18 -12 34t-39 16t-39 -15.5t-12 -34.5v-13z" />
    <glyph glyph-name="partialdiff" unicode="&#x2202;" horiz-adv-x="416" 
d="M58 511v7q0 34 9.5 62.5t27.5 49.5t44.5 33t59.5 12q46 0 76.5 -20.5t49 -62t26 -104.5t7.5 -147q0 -92 -8.5 -158.5t-27 -109t-48 -63t-71.5 -20.5q-33 0 -60 10.5t-45.5 35t-29 65t-10.5 99.5q0 58 10 98.5t29 65.5t45.5 36.5t58.5 11.5t56.5 -13t41.5 -36
q-2 135 -24.5 196t-74.5 61q-23 0 -39 -8.5t-25.5 -23t-14 -33t-4.5 -38.5v-6h-59zM206 45q32 0 50 22t27 58t11 81.5t2 93.5q-14 30 -36.5 43.5t-47.5 13.5q-51 0 -71 -38t-20 -115q0 -78 18.5 -118.5t66.5 -40.5z" />
    <glyph glyph-name="Delta" unicode="&#x2206;" horiz-adv-x="390" 
d="M302 55l-107 506l-107 -506h214zM170 665h50l136 -600v-65h-322v65z" />
    <glyph glyph-name="product" unicode="&#x220f;" horiz-adv-x="521" 
d="M401 -80h-63v690h-155v-690h-63v690h-78v55h437v-55h-78v-690z" />
    <glyph glyph-name="summation" unicode="&#x2211;" horiz-adv-x="339" 
d="M307 -25v-55h-265v69l151 303l-151 300v73h265v-55h-205l147 -290v-56l-147 -289h205z" />
    <glyph glyph-name="minus" unicode="&#x2212;" horiz-adv-x="412" 
d="M83 330h246v-56h-246v56z" />
    <glyph glyph-name="uni2215" unicode="&#x2215;" horiz-adv-x="119" 
d="M-86 0h-55l347 665h55z" />
    <glyph glyph-name="radical" unicode="&#x221a;" horiz-adv-x="409" 
d="M195 0l-102 282l-53 -14l-15 47l104 31l90 -267l100 586h56l-121 -665h-59z" />
    <glyph glyph-name="infinity" unicode="&#x221e;" horiz-adv-x="532" 
d="M266 301q-32 -37 -57 -51t-51 -14h-18q-18 0 -35.5 5.5t-31 17t-22 29.5t-8.5 44t8.5 44t22 29.5t31 17t35.5 5.5h18q26 0 51 -13.5t57 -51.5q32 38 57 51.5t51 13.5h18q18 0 35.5 -5.5t31 -17t22 -29.5t8.5 -44t-8.5 -44t-22 -29.5t-31 -17t-35.5 -5.5h-18q-26 0 -51 14
t-57 51zM150 276q12 0 21.5 2.5t19.5 8.5t20.5 17t24.5 28q-27 35 -45.5 45.5t-40.5 10.5h-12q-18 0 -33.5 -14t-15.5 -42t15.5 -42t33.5 -14h12zM394 275q18 0 33.5 14.5t15.5 42.5t-15.5 42t-33.5 14h-12q-22 0 -40.5 -11t-46.5 -45q28 -35 46 -46t41 -11h12z" />
    <glyph glyph-name="integral" unicode="&#x222b;" horiz-adv-x="307" 
d="M273 624q-25 0 -41.5 -9t-26.5 -24t-14.5 -34t-4.5 -39v-361q0 -82 -37 -124.5t-115 -42.5v51q26 0 43 9.5t26.5 24.5t13.5 34t4 39v360q0 82 36 124.5t116 42.5v-51z" />
    <glyph glyph-name="approxequal" unicode="&#x2248;" horiz-adv-x="412" 
d="M338 287q0 -62 -19.5 -87t-50.5 -25q-18 0 -31.5 6.5t-25.5 16.5q-14 11 -26 20.5t-28 9.5q-31 0 -31 -53h-52q0 61 21.5 86.5t50.5 25.5q17 0 29.5 -6.5t25.5 -16.5q12 -10 25 -20.5t29 -10.5q15 0 23 12.5t8 41.5h52zM338 423q0 -62 -19.5 -87t-50.5 -25
q-18 0 -31.5 6.5t-25.5 16.5q-14 11 -26 20.5t-28 9.5q-31 0 -31 -53h-52q0 61 21.5 86.5t50.5 25.5q17 0 29.5 -6.5t25.5 -16.5q12 -10 25 -20.5t29 -10.5q15 0 23 12.5t8 41.5h52z" />
    <glyph glyph-name="notequal" unicode="&#x2260;" horiz-adv-x="412" 
d="M83 390h127l34 89h53l-33 -89h65v-56h-84l-25 -64h109v-56h-127l-33 -89h-54l33 89h-65v56h83l26 64h-109v56z" />
    <glyph glyph-name="lessequal" unicode="&#x2264;" horiz-adv-x="412" 
d="M76 388l246 84v-60l-177 -50l177 -50v-60l-246 84v52zM76 218h246v-56h-246v56z" />
    <glyph glyph-name="greaterequal" unicode="&#x2265;" horiz-adv-x="412" 
d="M336 336l-246 -84v60l177 50l-177 50v60l246 -84v-52zM90 218h246v-56h-246v56z" />
    <glyph glyph-name="lozenge" unicode="&#x25ca;" horiz-adv-x="349" 
d="M174 110l83 222l-83 222l-83 -222zM147 612h54l113 -280l-113 -280h-54l-113 280z" />
    <glyph glyph-name="heart" unicode="&#x2665;" horiz-adv-x="602" 
d="M305 435q16 29 41.5 47t56.5 18q43 0 71 -29.5t28 -75.5q0 -30 -13.5 -65t-39 -70t-63 -67.5t-85.5 -57.5q-48 25 -85.5 57.5t-63 67.5t-39 70t-13.5 65q0 46 28 75.5t71 29.5q31 0 56.5 -18t41.5 -47h8z" />
    <glyph glyph-name="zeroslash" unicode="&#xe01a;" horiz-adv-x="412" 
d="M354 171q0 -88 -37 -134.5t-112 -46.5t-111 46.5t-36 134.5v323q0 88 36.5 134.5t111.5 46.5t111.5 -46.5t36.5 -134.5v-323zM290 489l-160 -387q9 -24 27 -40.5t48 -16.5q24 0 40.5 10.5t26.5 27.5t14 38t4 43v325zM121 187l158 381q-9 23 -26.5 37.5t-46.5 14.5
q-24 0 -40.5 -10.5t-26 -27t-14 -38t-4.5 -42.5v-315z" />
    <glyph glyph-name="numbersign.plf" unicode="&#xe020;" horiz-adv-x="567" 
d="M109 187h-78v49h94l67 203h-76v49h92l58 177h54l-58 -177h141l58 177h55l-58 -177h77v-49h-93l-66 -203h75v-49h-91l-60 -187h-55l60 187h-141l-61 -187h-55zM180 236h141l66 203h-141z" />
    <glyph glyph-name="Euro.plf" unicode="&#xe021;" horiz-adv-x="440" 
d="M326 500v22q0 18 -4.5 35.5t-14 31.5t-25.5 22.5t-40 8.5q-23 0 -39 -9t-26 -24t-14.5 -34t-4.5 -40v-108h185v-42h-185v-62h185v-42h-185v-107q0 -20 4.5 -39t14.5 -34t26 -24.5t39 -9.5q24 0 40 8.5t25.5 22.5t14 31.5t4.5 35.5v22h64v-5q0 -83 -37 -126.5t-111 -43.5
q-75 0 -111.5 44.5t-36.5 122.5v102h-58v42h58v62h-58v42h58v103q0 78 36.5 122.5t111.5 44.5q74 0 111 -43t37 -124v-8h-64z" />
    <glyph glyph-name="dollar.plf" unicode="&#xe022;" horiz-adv-x="392" 
d="M52 530q0 23 6.5 46t20 42t34.5 32.5t51 18.5v61h63v-60q54 -8 83.5 -44.5t29.5 -107.5v-21h-64v25q0 18 -3.5 35.5t-12.5 31.5t-24.5 22.5t-39.5 8.5q-37 0 -58 -26.5t-21 -62.5v-30q0 -34 18 -60t66 -56q28 -19 53.5 -38.5t44.5 -43t30 -51t11 -62.5v-54
q0 -53 -29.5 -93t-83.5 -48v-60h-63v60q-54 10 -83 45t-29 108v20h65v-25q0 -18 3.5 -36t12 -31.5t24 -22t39.5 -8.5q39 0 59.5 27.5t20.5 63.5v45q0 47 -27 80.5t-78 66.5q-54 35 -86.5 72t-32.5 96v34z" />
    <glyph glyph-name="yen.plf" unicode="&#xe023;" horiz-adv-x="442" 
d="M67 332h110l-131 333h65l109 -306h3l107 306h65l-132 -333h111v-43h-121v-61h121v-43h-121v-185h-64v185h-122v43h122v61h-122v43z" />
    <glyph glyph-name="sterling.plf" unicode="&#xe024;" horiz-adv-x="439" 
d="M46 297h50v206q0 81 37.5 126.5t112.5 45.5q147 0 147 -167v-12h-64v26q0 19 -4 36.5t-14 31t-25.5 22t-39.5 8.5q-23 0 -39.5 -9t-27 -24t-15.5 -35.5t-5 -42.5v-212h165v-55h-165v-187h234v-55h-347v55h50v187h-50v55z" />
    <glyph glyph-name="cent.plf" unicode="&#xe025;" horiz-adv-x="375" 
d="M160 -68v63q-57 10 -80.5 49t-23.5 106v208q0 66 24.5 105t79.5 49v64h64v-63q56 -8 80 -47t24 -103v-27h-61v14q0 25 -3 46t-11 37t-22.5 25t-37.5 9t-37.5 -8.5t-22.5 -22t-11 -31t-3 -35.5v-232q0 -18 3 -35.5t11 -31t22.5 -22t38.5 -8.5t38.5 9.5t22 25t10 37
t2.5 45.5v14h61v-27q0 -64 -24 -103t-80 -47v-63h-64z" />
    <glyph glyph-name="florin.plf" unicode="&#xe026;" horiz-adv-x="483" 
d="M273 163q0 -82 -34 -127.5t-106 -45.5q-39 0 -65.5 13t-43.5 33l41 36q10 -11 25.5 -21t38.5 -10q25 0 40.5 9.5t24.5 25t12 35t3 39.5v348q0 84 33 130.5t105 46.5q41 0 67.5 -12.5t43.5 -32.5l-41 -38q-11 14 -25.5 23t-39.5 9q-24 0 -39.5 -10t-24 -25.5t-12 -35
t-3.5 -37.5v-133h130v-51h-130v-169z" />
    <glyph glyph-name="zero.plf" unicode="&#xe027;" horiz-adv-x="412" 
d="M354 171q0 -88 -37 -134.5t-112 -46.5t-111 46.5t-36 134.5v323q0 88 36.5 134.5t111.5 46.5t111.5 -46.5t36.5 -134.5v-323zM290 502q0 21 -4 42.5t-13.5 38t-26 27t-40.5 10.5q-25 0 -41.5 -10.5t-26 -27t-13.5 -38t-4 -42.5v-338q0 -21 4 -42.5t13.5 -38.5t25.5 -27.5
t41 -10.5t41 10.5t26 27.5t14 38t4 43v338z" />
    <glyph glyph-name="one.plf" unicode="&#xe028;" horiz-adv-x="328" 
d="M178 0v601l-120 -83l-38 43l145 104h76v-665h-63z" />
    <glyph glyph-name="two.plf" unicode="&#xe029;" horiz-adv-x="391" 
d="M44 506v16q0 73 38.5 113t113.5 40q78 0 112 -38t34 -110v-20q0 -51 -25.5 -105t-68.5 -122l-141 -225h235v-55h-297v64l131 210q54 82 78 135t24 97v19q0 45 -19.5 70t-62.5 25q-48 0 -68 -26.5t-20 -70.5v-17h-64z" />
    <glyph glyph-name="three.plf" unicode="&#xe02a;" horiz-adv-x="397" 
d="M276 521q0 18 -4.5 35.5t-14 31.5t-26 23t-40.5 9t-40 -9t-26 -23t-14.5 -31.5t-4.5 -35.5v-20h-64v13q0 74 37 117.5t112 43.5t112 -39.5t37 -106.5v-40q0 -52 -22 -86t-62 -48v-4q39 -13 61.5 -44.5t22.5 -88.5v-68q0 -74 -41 -117t-108 -43q-75 0 -112 40t-37 115v19
h64v-20q0 -19 4.5 -36.5t14 -31.5t26 -22.5t40.5 -8.5t40.5 10t26 25t14 33.5t4.5 36.5v70q0 44 -22.5 74.5t-72.5 30.5h-40v54h40q25 0 43 9t29.5 23.5t17 33.5t5.5 39v37z" />
    <glyph glyph-name="four.plf" unicode="&#xe02b;" horiz-adv-x="389" 
d="M266 151h-237v67l213 447h63l-217 -459h178v124h63v-330h-63v151z" />
    <glyph glyph-name="five.plf" unicode="&#xe02c;" horiz-adv-x="409" 
d="M53 665h298v-56h-234v-211q14 21 40 38.5t68 17.5q126 0 126 -164v-135q0 -36 -9 -66t-27.5 -52t-46.5 -34.5t-66 -12.5q-75 0 -112 43.5t-37 114.5v16h64v-18q0 -17 4.5 -35t14 -32.5t26 -24t40.5 -9.5t40.5 9.5t26.5 25t14.5 34.5t4.5 39v149q0 18 -4.5 35t-14 31
t-24 22.5t-35.5 8.5q-20 0 -34.5 -7t-25 -17.5t-18 -23t-11.5 -24.5h-68v338z" />
    <glyph glyph-name="six.plf" unicode="&#xe02d;" 
d="M292 503v16q0 19 -4.5 37t-14.5 32.5t-26 23t-39 8.5q-24 0 -41 -10t-27 -26.5t-14.5 -36.5t-4.5 -40v-152q13 23 40.5 40t65.5 17q128 0 128 -157v-101q0 -78 -37 -121t-111 -43q-75 0 -112 43.5t-37 121.5v348q0 77 37.5 124.5t112.5 47.5q147 0 147 -158v-14h-63z
M206 45q24 0 40.5 8.5t26.5 22.5t14.5 32t4.5 38v110q0 18 -4 36.5t-13 32.5t-25 23t-40 9t-41 -8.5t-27.5 -22.5t-15.5 -31.5t-5 -35.5v-113q0 -18 4.5 -36t14.5 -32.5t26 -23.5t40 -9z" />
    <glyph glyph-name="seven.plf" unicode="&#xe02e;" horiz-adv-x="366" 
d="M58 0l220 609h-253v56h309v-67l-213 -598h-63z" />
    <glyph glyph-name="eight.plf" unicode="&#xe02f;" 
d="M58 525q0 69 37 109.5t112 40.5t111.5 -39.5t36.5 -103.5v-43q0 -24 -8 -44t-22 -37t-33.5 -32.5t-42.5 -31.5q22 -16 41.5 -33t33.5 -37t22.5 -44.5t8.5 -55.5v-36q0 -66 -38.5 -107t-109.5 -41q-75 0 -112 39t-37 103v44q0 29 8 53t22.5 44t33.5 37t41 33
q-47 32 -76 66t-29 83v33zM121 137q0 -16 4.5 -32t14.5 -29.5t26.5 -22t40.5 -8.5t40 8.5t26 22t14.5 29.5t4.5 32v43q0 42 -25 73t-60 54q-36 -23 -61 -52t-25 -76v-42zM121 495q0 -35 22 -61t64 -53q42 27 63.5 51.5t21.5 62.5v33q0 16 -4.5 32t-14.5 29.5t-26 22t-40 8.5
t-40.5 -8t-26.5 -21.5t-14.5 -30t-4.5 -32.5v-33z" />
    <glyph glyph-name="nine.plf" unicode="&#xe030;" 
d="M123 162v-16q0 -18 4 -36t13.5 -32.5t25.5 -23.5t41 -9q24 0 40 9.5t26 25t14.5 35t4.5 38.5v159q-16 -26 -43 -42.5t-65 -16.5q-62 0 -94 37.5t-32 117.5v99q0 78 37 123t112 45t111.5 -45.5t36.5 -123.5v-347q0 -76 -36.5 -122.5t-111.5 -46.5t-112 40.5t-37 116.5v15
h65zM207 620q-24 0 -40.5 -9t-26 -24t-13.5 -33.5t-4 -37.5v-110q0 -19 4 -36.5t13.5 -31t25.5 -22t39 -8.5t39.5 8.5t27 22.5t15.5 31.5t5 35.5v110q0 19 -4.5 37.5t-14.5 33.5t-26 24t-40 9z" />
    <glyph glyph-name="zeroslash.plf" unicode="&#xe031;" horiz-adv-x="412" 
d="M354 171q0 -88 -37 -134.5t-112 -46.5t-111 46.5t-36 134.5v323q0 88 36.5 134.5t111.5 46.5t111.5 -46.5t36.5 -134.5v-323zM290 489l-160 -387q9 -24 27 -40.5t48 -16.5q24 0 40.5 10.5t26.5 27.5t14 38t4 43v325zM121 187l158 381q-9 23 -26.5 37.5t-46.5 14.5
q-24 0 -40.5 -10.5t-26 -27t-14 -38t-4.5 -42.5v-315z" />
    <glyph glyph-name="numbersign.tlf" unicode="&#xe032;" 
d="M75 187h-58v49h68l44 203h-57v49h68l39 177h51l-39 -177h100l39 177h51l-39 -177h58v-49h-68l-44 -203h59v-49h-70l-40 -187h-51l40 187h-100l-41 -187h-51zM136 236h101l44 203h-101z" />
    <glyph glyph-name="Euro.tlf" unicode="&#xe033;" 
d="M317 500v22q0 18 -4.5 35.5t-14 31.5t-25.5 22.5t-40 8.5q-23 0 -39 -9t-26 -24t-14.5 -34t-4.5 -40v-108h185v-42h-185v-62h185v-42h-185v-107q0 -20 4.5 -39t14.5 -34t26 -24.5t39 -9.5q24 0 40 8.5t25.5 22.5t14 31.5t4.5 35.5v22h64v-5q0 -83 -37 -126.5t-111 -43.5
q-75 0 -111.5 44.5t-36.5 122.5v102h-58v42h58v62h-58v42h58v103q0 78 36.5 122.5t111.5 44.5q74 0 111 -43t37 -124v-8h-64z" />
    <glyph glyph-name="dollar.tlf" unicode="&#xe034;" 
d="M62 530q0 23 6.5 46t20 42t34.5 32.5t51 18.5v61h63v-60q54 -8 83.5 -44.5t29.5 -107.5v-21h-64v25q0 18 -3.5 35.5t-12.5 31.5t-24.5 22.5t-39.5 8.5q-37 0 -58 -26.5t-21 -62.5v-30q0 -34 18 -60t66 -56q28 -19 53.5 -38.5t44.5 -43t30 -51t11 -62.5v-54
q0 -53 -29.5 -93t-83.5 -48v-60h-63v60q-54 10 -83 45t-29 108v20h65v-25q0 -18 3.5 -36t12 -31.5t24 -22t39.5 -8.5q39 0 59.5 27.5t20.5 63.5v45q0 47 -27 80.5t-78 66.5q-54 35 -86.5 72t-32.5 96v34z" />
    <glyph glyph-name="yen.tlf" unicode="&#xe035;" 
d="M52 332h110l-131 333h65l109 -306h3l107 306h65l-132 -333h111v-43h-121v-61h121v-43h-121v-185h-64v185h-122v43h122v61h-122v43z" />
    <glyph glyph-name="sterling.tlf" unicode="&#xe036;" 
d="M32 297h50v206q0 81 37.5 126.5t112.5 45.5q147 0 147 -167v-12h-64v26q0 19 -4 36.5t-14 31t-25.5 22t-39.5 8.5q-23 0 -39.5 -9t-27 -24t-15.5 -35.5t-5 -42.5v-212h165v-55h-165v-187h234v-55h-347v55h50v187h-50v55z" />
    <glyph glyph-name="cent.tlf" unicode="&#xe037;" 
d="M173 -68v63q-57 10 -80.5 49t-23.5 106v208q0 66 24.5 105t79.5 49v64h64v-63q56 -8 80 -47t24 -103v-27h-61v14q0 25 -3 46t-11 37t-22.5 25t-37.5 9t-37.5 -8.5t-22.5 -22t-11 -31t-3 -35.5v-232q0 -18 3 -35.5t11 -31t22.5 -22t38.5 -8.5t38.5 9.5t22 25t10 37
t2.5 45.5v14h61v-27q0 -64 -24 -103t-80 -47v-63h-64z" />
    <glyph glyph-name="florin.tlf" unicode="&#xe038;" 
d="M239 163q0 -82 -34 -127.5t-106 -45.5q-39 0 -65.5 13t-43.5 33l41 36q10 -11 25.5 -21t38.5 -10q25 0 40.5 9.5t24.5 25t12 35t3 39.5v348q0 84 33 130.5t105 46.5q41 0 67.5 -12.5t43.5 -32.5l-41 -38q-11 14 -25.5 23t-39.5 9q-24 0 -39.5 -10t-24 -25.5t-12 -35
t-3.5 -37.5v-133h130v-51h-130v-169z" />
    <glyph glyph-name="zero.tlf" unicode="&#xe039;" horiz-adv-x="412" 
d="M354 171q0 -88 -37 -134.5t-112 -46.5t-111 46.5t-36 134.5v323q0 88 36.5 134.5t111.5 46.5t111.5 -46.5t36.5 -134.5v-323zM290 502q0 21 -4 42.5t-13.5 38t-26 27t-40.5 10.5q-25 0 -41.5 -10.5t-26 -27t-13.5 -38t-4 -42.5v-338q0 -21 4 -42.5t13.5 -38.5t25.5 -27.5
t41 -10.5t41 10.5t26 27.5t14 38t4 43v338z" />
    <glyph glyph-name="one.tlf" unicode="&#xe03a;" horiz-adv-x="412" 
d="M229 0v601l-132 -89l-39 43l158 110h76v-665h-63z" />
    <glyph glyph-name="two.tlf" unicode="&#xe03b;" 
d="M56 506v16q0 73 38.5 113t113.5 40q78 0 112 -38t34 -110v-20q0 -51 -25.5 -105t-68.5 -122l-141 -225h235v-55h-297v64l131 210q54 82 78 135t24 97v19q0 45 -19.5 70t-62.5 25q-48 0 -68 -26.5t-20 -70.5v-17h-64z" />
    <glyph glyph-name="three.tlf" unicode="&#xe03c;" 
d="M289 521q0 18 -4.5 35.5t-14 31.5t-26 23t-40.5 9t-40 -9t-26 -23t-14.5 -31.5t-4.5 -35.5v-20h-64v13q0 74 37 117.5t112 43.5t112 -39.5t37 -106.5v-40q0 -52 -22 -86t-62 -48v-4q39 -13 61.5 -44.5t22.5 -88.5v-68q0 -74 -41 -117t-108 -43q-75 0 -112 40t-37 115v19
h64v-20q0 -19 4.5 -36.5t14 -31.5t26 -22.5t40.5 -8.5t40.5 10t26 25t14 33.5t4.5 36.5v70q0 44 -22.5 74.5t-72.5 30.5h-40v54h40q25 0 43 9t29.5 23.5t17 33.5t5.5 39v37z" />
    <glyph glyph-name="four.tlf" unicode="&#xe03d;" 
d="M283 151h-237v67l213 447h63l-217 -459h178v124h63v-330h-63v151z" />
    <glyph glyph-name="five.tlf" unicode="&#xe03e;" 
d="M57 665h298v-56h-234v-211q14 21 40 38.5t68 17.5q126 0 126 -164v-135q0 -36 -9 -66t-27.5 -52t-46.5 -34.5t-66 -12.5q-75 0 -112 43.5t-37 114.5v16h64v-18q0 -17 4.5 -35t14 -32.5t26 -24t40.5 -9.5t40.5 9.5t26.5 25t14.5 34.5t4.5 39v149q0 18 -4.5 35t-14 31
t-24 22.5t-35.5 8.5q-20 0 -34.5 -7t-25 -17.5t-18 -23t-11.5 -24.5h-68v338z" />
    <glyph glyph-name="six.tlf" unicode="&#xe03f;" 
d="M292 503v16q0 19 -4.5 37t-14.5 32.5t-26 23t-39 8.5q-24 0 -41 -10t-27 -26.5t-14.5 -36.5t-4.5 -40v-152q13 23 40.5 40t65.5 17q128 0 128 -157v-101q0 -78 -37 -121t-111 -43q-75 0 -112 43.5t-37 121.5v348q0 77 37.5 124.5t112.5 47.5q147 0 147 -158v-14h-63z
M206 45q24 0 40.5 8.5t26.5 22.5t14.5 32t4.5 38v110q0 18 -4 36.5t-13 32.5t-25 23t-40 9t-41 -8.5t-27.5 -22.5t-15.5 -31.5t-5 -35.5v-113q0 -18 4.5 -36t14.5 -32.5t26 -23.5t40 -9z" />
    <glyph glyph-name="seven.tlf" unicode="&#xe040;" 
d="M83 0l220 609h-253v56h309v-67l-213 -598h-63z" />
    <glyph glyph-name="eight.tlf" unicode="&#xe041;" 
d="M58 525q0 69 37 109.5t112 40.5t111.5 -39.5t36.5 -103.5v-43q0 -24 -8 -44t-22 -37t-33.5 -32.5t-42.5 -31.5q22 -16 41.5 -33t33.5 -37t22.5 -44.5t8.5 -55.5v-36q0 -66 -38.5 -107t-109.5 -41q-75 0 -112 39t-37 103v44q0 29 8 53t22.5 44t33.5 37t41 33
q-47 32 -76 66t-29 83v33zM121 137q0 -16 4.5 -32t14.5 -29.5t26.5 -22t40.5 -8.5t40 8.5t26 22t14.5 29.5t4.5 32v43q0 42 -25 73t-60 54q-36 -23 -61 -52t-25 -76v-42zM121 495q0 -35 22 -61t64 -53q42 27 63.5 51.5t21.5 62.5v33q0 16 -4.5 32t-14.5 29.5t-26 22t-40 8.5
t-40.5 -8t-26.5 -21.5t-14.5 -30t-4.5 -32.5v-33z" />
    <glyph glyph-name="nine.tlf" unicode="&#xe042;" 
d="M122 162v-16q0 -18 4 -36t13.5 -32.5t25.5 -23.5t41 -9q24 0 40 9.5t26 25t14.5 35t4.5 38.5v159q-16 -26 -43 -42.5t-65 -16.5q-62 0 -94 37.5t-32 117.5v99q0 78 37 123t112 45t111.5 -45.5t36.5 -123.5v-347q0 -76 -36.5 -122.5t-111.5 -46.5t-112 40.5t-37 116.5v15
h65zM206 620q-24 0 -40.5 -9t-26 -24t-13.5 -33.5t-4 -37.5v-110q0 -19 4 -36.5t13.5 -31t25.5 -22t39 -8.5t39.5 8.5t27 22.5t15.5 31.5t5 35.5v110q0 19 -4.5 37.5t-14.5 33.5t-26 24t-40 9z" />
    <glyph glyph-name="zeroslash.tlf" unicode="&#xe043;" horiz-adv-x="412" 
d="M354 171q0 -88 -37 -134.5t-112 -46.5t-111 46.5t-36 134.5v323q0 88 36.5 134.5t111.5 46.5t111.5 -46.5t36.5 -134.5v-323zM290 489l-160 -387q9 -24 27 -40.5t48 -16.5q24 0 40.5 10.5t26.5 27.5t14 38t4 43v325zM121 187l158 381q-9 23 -26.5 37.5t-46.5 14.5
q-24 0 -40.5 -10.5t-26 -27t-14 -38t-4.5 -42.5v-315z" />
    <glyph glyph-name="numbersign.tosf" unicode="&#xe044;" 
d="M52 374h79l30 134h50l-29 -134h99l30 134h50l-29 -134h74v-49h-84l-31 -141h73v-49h-82l-30 -135h-51l29 135h-98l-32 -135h-50l30 135h-70v49h80l31 141h-69v49zM141 184h98l32 141h-99z" />
    <glyph glyph-name="Euro.tosf" unicode="&#xe045;" 
d="M318 356v9q0 18 -4.5 35.5t-14 31.5t-26 22.5t-40.5 8.5t-40 -9t-26 -24t-14 -33.5t-4 -37.5v-44h164v-32h-164v-58h164v-32h-164v-50q0 -18 4 -35.5t14 -31.5t26 -22.5t40 -8.5t40.5 8.5t26 22.5t14 31.5t4.5 35.5v9h64v-5q0 -72 -37 -114.5t-112 -42.5t-112 41.5
t-37 119.5v42h-58v32h58v58h-58v32h58v36q0 78 37 122.5t112 44.5t112 -41.5t37 -113.5v-7h-64z" />
    <glyph glyph-name="dollar.tosf" unicode="&#xe046;" 
d="M139 153v-10q0 -20 2.5 -38t10.5 -32.5t21.5 -23t36.5 -8.5q34 0 53 23.5t19 59.5q0 37 -20 66t-76 60q-52 28 -81 61t-29 86q0 20 6 39t19 34.5t32.5 27t46.5 15.5v56h59v-56q53 -8 77.5 -45t24.5 -101v-9h-61v13q0 18 -3 35t-11 30.5t-21.5 22t-35.5 8.5
q-20 0 -33.5 -6t-21.5 -15.5t-11.5 -21.5t-3.5 -24q0 -35 21.5 -59.5t73.5 -50.5q59 -30 84 -69t25 -90q0 -22 -5.5 -44.5t-17.5 -41.5t-32 -32.5t-49 -18.5v-55h-59v56q-103 18 -103 149v9h62z" />
    <glyph glyph-name="yen.tosf" unicode="&#xe047;" 
d="M53 233h108l-129 275h65l108 -252h3l108 252h65l-130 -275h109v-33h-121v-57h121v-33h-121v-110h-64v110h-122v33h122v57h-122v33z" />
    <glyph glyph-name="sterling.tosf" unicode="&#xe048;" 
d="M36 220h50v131q0 78 36.5 122.5t111.5 44.5t112 -41.5t37 -113.5v-16h-64v18q0 18 -4.5 35.5t-14.5 31.5t-26 22.5t-40 8.5q-23 0 -39 -9t-26 -24t-14.5 -34t-4.5 -38v-138h147v-33h-147v-132h233v-55h-347v55h50v132h-50v33z" />
    <glyph glyph-name="cent.tosf" unicode="&#xe049;" 
d="M181 -68v63q-57 10 -80.5 49t-23.5 106v128q0 66 23.5 105.5t80.5 48.5v64h64v-63q56 -8 80 -46t24 -95v-8h-59v3q0 21 -3.5 39t-12 31.5t-23 21.5t-37.5 8t-37.5 -8.5t-22.5 -22t-11 -31t-3 -35.5v-126q0 -26 2.5 -48t10.5 -39t22.5 -26.5t38.5 -9.5q23 0 37.5 7.5
t23 21t12 31.5t3.5 40v3h59q0 -69 -22 -104t-82 -45v-63h-64z" />
    <glyph glyph-name="florin.tosf" unicode="&#xe04a;" 
d="M43 41q26 0 42.5 9t25.5 23.5t12 33t3 37.5v195q0 82 33 127.5t106 45.5q41 0 67.5 -12t43.5 -32l-35 -40q-11 14 -27.5 23.5t-41.5 9.5t-41 -10t-25 -25.5t-12 -35t-3 -37.5v-62h133v-33h-133v-101q0 -82 -33 -124.5t-115 -42.5v51z" />
    <glyph glyph-name="zero.tosf" unicode="&#xe04b;" 
d="M355 161q0 -83 -36.5 -127t-111.5 -44t-112 44t-37 127v186q0 83 37 127t112 44t111.5 -44t36.5 -127v-186zM292 355q0 20 -4 39.5t-14 34.5t-26.5 24.5t-40.5 9.5t-40.5 -9.5t-26 -25t-13.5 -35t-4 -38.5v-202q0 -20 4 -39t13.5 -34.5t26 -25t40.5 -9.5t40.5 9.5
t26.5 24.5t14 34.5t4 39.5v202z" />
    <glyph glyph-name="one.tosf" unicode="&#xe04c;" 
d="M235 0v444l-131 -89l-39 43l158 110h76v-508h-64z" />
    <glyph glyph-name="two.tosf" unicode="&#xe04d;" 
d="M57 349v14q0 71 37.5 113t114.5 42q39 0 67 -10.5t45.5 -28.5t25.5 -42.5t8 -53.5v-10q0 -23 -4 -44.5t-16 -45t-34.5 -50.5t-59.5 -60l-116 -118h230v-55h-297v64l131 132q31 31 51 54.5t31.5 43t15.5 38t4 39.5v7q0 37 -18.5 61t-63.5 24q-25 0 -42 -8t-27 -21.5
t-14.5 -31.5t-4.5 -37v-16h-64z" />
    <glyph glyph-name="three.tosf" unicode="&#xe04e;" 
d="M290 364q0 18 -4.5 35.5t-14 31.5t-26 23t-40.5 9t-40 -9t-26 -23t-14.5 -31.5t-4.5 -35.5v-20h-64v13q0 75 37 118t113 43q74 0 111 -40.5t37 -109.5v-51q0 -51 -23 -87t-61 -50v-4q40 -12 62 -45.5t22 -90.5v-86q0 -75 -38.5 -119.5t-110.5 -44.5t-110.5 41t-38.5 116
v17h64v-19q0 -17 4.5 -34.5t14 -32t26 -24t40.5 -9.5t40.5 10t26 25t14 34t4.5 37v94q0 43 -23 74t-72 31h-40v54h40q25 0 43 9.5t29.5 24.5t17 34.5t5.5 39.5v52z" />
    <glyph glyph-name="four.tosf" unicode="&#xe04f;" 
d="M287 0h-237v67l213 441h63l-216 -453h177v124h64v-329h-64v150z" />
    <glyph glyph-name="five.tosf" unicode="&#xe050;" 
d="M57 508h297v-55h-234v-228q15 21 41.5 38.5t68.5 17.5q124 0 124 -164v-161q0 -78 -36 -122t-113 -44q-75 0 -111.5 42t-36.5 117v15h63v-21q0 -18 4 -35.5t13.5 -31.5t26 -22.5t41.5 -8.5t41.5 9.5t26.5 24.5t14 33.5t4 36.5v180q0 18 -4.5 35t-13.5 31t-23.5 22.5
t-35.5 8.5q-20 0 -34.5 -7t-25.5 -17.5t-18.5 -23t-11.5 -24.5h-67v354z" />
    <glyph glyph-name="six.tosf" unicode="&#xe051;" 
d="M300 503v19q0 19 -4.5 37t-14.5 31.5t-26.5 21.5t-40.5 8t-40.5 -9.5t-26.5 -25t-14 -34.5t-4 -37v-160q12 24 39.5 41t62.5 17q68 0 100 -39t32 -117v-106q0 -78 -37 -119t-111 -41q-75 0 -112 41.5t-37 119.5v358q0 77 37.5 121.5t111.5 44.5q73 0 110.5 -37t37.5 -118
v-17h-63zM214 45q24 0 40.5 8t26.5 21.5t14.5 31.5t4.5 37v116q0 18 -4.5 35.5t-14.5 31.5t-26.5 22.5t-40.5 8.5q-23 0 -39 -8.5t-26 -22.5t-15 -31.5t-5 -35.5v-116q0 -18 4.5 -35.5t14.5 -31.5t26 -22.5t40 -8.5z" />
    <glyph glyph-name="seven.tosf" unicode="&#xe052;" 
d="M71 -150l220 603h-254v55h310v-67l-213 -591h-63z" />
    <glyph glyph-name="eight.tosf" unicode="&#xe053;" 
d="M58 525q0 68 37 109t112 41t111.5 -39.5t36.5 -104.5v-41q0 -24 -7.5 -43.5t-21.5 -36.5t-33.5 -33t-44.5 -33q22 -16 42 -33t34 -37.5t22.5 -44.5t8.5 -53v-38q0 -66 -38.5 -107t-109.5 -41q-75 0 -112 39t-37 103v45q0 29 8 53t22.5 43.5t33.5 36.5t41 33
q-23 16 -42.5 32t-33.5 33.5t-21.5 37.5t-7.5 44v35zM121 137q0 -16 4 -32t14 -29.5t26.5 -22t41.5 -8.5q24 0 40.5 8.5t26.5 22t14 29.5t4 32v47q0 41 -25 70.5t-60 52.5q-36 -23 -61 -50.5t-25 -72.5v-47zM121 495q0 -35 21.5 -61t64.5 -53q42 27 63.5 51t21.5 62v34
q0 16 -4 32t-14 29.5t-26.5 22t-40.5 8.5q-25 0 -41.5 -8t-26.5 -21.5t-14 -30t-4 -32.5v-33z" />
    <glyph glyph-name="nine.tosf" unicode="&#xe054;" 
d="M122 -38v-19q0 -19 4 -37t14 -31.5t26 -21.5t40 -8q23 0 39.5 9t26.5 24t14.5 33.5t4.5 37.5v184q-13 -25 -41 -41t-65 -16q-128 0 -128 158v121q0 78 37 120.5t112 42.5t111.5 -43t36.5 -121v-397q0 -74 -37 -120.5t-111 -46.5q-149 0 -149 158v14h65zM206 463
q-24 0 -40.5 -8.5t-26 -23t-13.5 -32.5t-4 -37v-133q0 -18 4 -35.5t14 -31.5t26 -22.5t40 -8.5q22 0 38.5 8.5t26.5 22.5t15 31.5t5 35.5v133q0 18 -4.5 36t-14.5 32.5t-26 23.5t-40 9z" />
    <glyph glyph-name="zeroslash.tosf" unicode="&#xe055;" 
d="M355 161q0 -83 -36.5 -127t-111.5 -44t-112 44t-37 127v186q0 83 37 127t112 44t111.5 -44t36.5 -127v-186zM292 355q0 7 -0.5 13t-1.5 12l-156 -288q9 -20 26.5 -33.5t46.5 -13.5q24 0 40 9.5t26 24.5t14.5 34.5t4.5 39.5v202zM123 155l149 274q-10 15 -26 24.5t-39 9.5
q-24 0 -40 -9.5t-26 -25t-14 -35t-4 -38.5v-200z" />
    <glyph glyph-name="numbersign.posf" unicode="&#xe056;" horiz-adv-x="490" 
d="M80 374h90l46 134h54l-45 -134h116l45 134h54l-45 -134h78v-49h-91l-48 -141h77v-49h-90l-46 -135h-54l44 135h-115l-46 -135h-55l46 135h-78v49h91l49 141h-77v49zM163 184h116l48 141h-116z" />
    <glyph glyph-name="Euro.posf" unicode="&#xe057;" horiz-adv-x="442" 
d="M332 356v9q0 18 -4.5 35.5t-14 31.5t-26 22.5t-40.5 8.5t-40 -9t-26 -24t-14 -33.5t-4 -37.5v-44h164v-32h-164v-58h164v-32h-164v-50q0 -18 4 -35.5t14 -31.5t26 -22.5t40 -8.5t40.5 8.5t26 22.5t14 31.5t4.5 35.5v9h64v-5q0 -72 -37 -114.5t-112 -42.5t-112 41.5
t-37 119.5v42h-58v32h58v58h-58v32h58v36q0 78 37 122.5t112 44.5t112 -41.5t37 -113.5v-7h-64z" />
    <glyph glyph-name="dollar.posf" unicode="&#xe058;" horiz-adv-x="366" 
d="M113 153v-10q0 -20 2.5 -38t10.5 -32.5t21.5 -23t36.5 -8.5q34 0 53 23.5t19 59.5q0 37 -20 66t-76 60q-52 28 -81 61t-29 86q0 20 6 39t19 34.5t32.5 27t46.5 15.5v56h59v-56q53 -8 77.5 -45t24.5 -101v-9h-61v13q0 18 -3 35t-11 30.5t-21.5 22t-35.5 8.5
q-20 0 -33.5 -6t-21.5 -15.5t-11.5 -21.5t-3.5 -24q0 -35 21.5 -59.5t73.5 -50.5q59 -30 84 -69t25 -90q0 -22 -5.5 -44.5t-17.5 -41.5t-32 -32.5t-49 -18.5v-55h-59v56q-103 18 -103 149v9h62z" />
    <glyph glyph-name="yen.posf" unicode="&#xe059;" horiz-adv-x="430" 
d="M61 233h108l-129 275h65l108 -252h3l108 252h65l-130 -275h109v-33h-121v-57h121v-33h-121v-110h-64v110h-122v33h122v57h-122v33z" />
    <glyph glyph-name="sterling.posf" unicode="&#xe05a;" horiz-adv-x="431" 
d="M42 220h50v131q0 78 36.5 122.5t111.5 44.5t112 -41.5t37 -113.5v-16h-64v18q0 18 -4.5 35.5t-14.5 31.5t-26 22.5t-40 8.5q-23 0 -39 -9t-26 -24t-14.5 -34t-4.5 -38v-138h147v-33h-147v-132h233v-55h-347v55h50v132h-50v33z" />
    <glyph glyph-name="cent.posf" unicode="&#xe05b;" horiz-adv-x="375" 
d="M160 -68v63q-57 10 -80.5 49t-23.5 106v128q0 66 23.5 105.5t80.5 48.5v64h64v-63q56 -8 80 -46t24 -95v-8h-59v3q0 21 -3.5 39t-12 31.5t-23 21.5t-37.5 8t-37.5 -8.5t-22.5 -22t-11 -31t-3 -35.5v-126q0 -26 2.5 -48t10.5 -39t22.5 -26.5t38.5 -9.5q23 0 37.5 7.5
t23 21t12 31.5t3.5 40v3h59q0 -69 -22 -104t-82 -45v-63h-64z" />
    <glyph glyph-name="florin.posf" unicode="&#xe05c;" horiz-adv-x="379" 
d="M28 41q26 0 42.5 9t25.5 23.5t12 33t3 37.5v195q0 82 33 127.5t106 45.5q41 0 67.5 -12t43.5 -32l-35 -40q-11 14 -27.5 23.5t-41.5 9.5t-41 -10t-25 -25.5t-12 -35t-3 -37.5v-62h133v-33h-133v-101q0 -82 -33 -124.5t-115 -42.5v51z" />
    <glyph glyph-name="zero.posf" unicode="&#xe05d;" 
d="M355 161q0 -83 -36.5 -127t-111.5 -44t-112 44t-37 127v186q0 83 37 127t112 44t111.5 -44t36.5 -127v-186zM292 355q0 20 -4 39.5t-14 34.5t-26.5 24.5t-40.5 9.5t-40.5 -9.5t-26 -25t-13.5 -35t-4 -38.5v-202q0 -20 4 -39t13.5 -34.5t26 -25t40.5 -9.5t40.5 9.5
t26.5 24.5t14 34.5t4 39.5v202z" />
    <glyph glyph-name="one.posf" unicode="&#xe05e;" horiz-adv-x="341" 
d="M190 0v444l-131 -89l-39 43l158 110h76v-508h-64z" />
    <glyph glyph-name="two.posf" unicode="&#xe05f;" horiz-adv-x="400" 
d="M44 349v14q0 71 37.5 113t114.5 42q39 0 67 -10.5t45.5 -28.5t25.5 -42.5t8 -53.5v-10q0 -23 -4 -44.5t-16 -45t-34.5 -50.5t-59.5 -60l-116 -118h230v-55h-297v64l131 132q31 31 51 54.5t31.5 43t15.5 38t4 39.5v7q0 37 -18.5 61t-63.5 24q-25 0 -42 -8t-27 -21.5
t-14.5 -31.5t-4.5 -37v-16h-64z" />
    <glyph glyph-name="three.posf" unicode="&#xe060;" horiz-adv-x="397" 
d="M276 364q0 18 -4.5 35.5t-14 31.5t-26 23t-40.5 9t-40 -9t-26 -23t-14.5 -31.5t-4.5 -35.5v-20h-64v13q0 75 37 118t113 43q74 0 111 -40.5t37 -109.5v-51q0 -51 -23 -87t-61 -50v-4q40 -12 62 -45.5t22 -90.5v-86q0 -75 -38.5 -119.5t-110.5 -44.5t-110.5 41t-38.5 116
v17h64v-19q0 -17 4.5 -34.5t14 -32t26 -24t40.5 -9.5t40.5 10t26 25t14 34t4.5 37v94q0 43 -23 74t-72 31h-40v54h40q25 0 43 9.5t29.5 24.5t17 34.5t5.5 39.5v52z" />
    <glyph glyph-name="four.posf" unicode="&#xe061;" horiz-adv-x="385" 
d="M268 0h-237v67l213 441h63l-216 -453h177v124h64v-329h-64v150z" />
    <glyph glyph-name="five.posf" unicode="&#xe062;" horiz-adv-x="412" 
d="M59 508h297v-55h-234v-228q15 21 41.5 38.5t68.5 17.5q124 0 124 -164v-161q0 -78 -36 -122t-113 -44q-75 0 -111.5 42t-36.5 117v15h63v-21q0 -18 4 -35.5t13.5 -31.5t26 -22.5t41.5 -8.5t41.5 9.5t26.5 24.5t14 33.5t4 36.5v180q0 18 -4.5 35t-13.5 31t-23.5 22.5
t-35.5 8.5q-20 0 -34.5 -7t-25.5 -17.5t-18.5 -23t-11.5 -24.5h-67v354z" />
    <glyph glyph-name="six.posf" unicode="&#xe063;" 
d="M292 503v19q0 19 -4.5 37t-14.5 31.5t-26.5 21.5t-40.5 8t-40.5 -9.5t-26.5 -25t-14 -34.5t-4 -37v-160q12 24 39.5 41t62.5 17q68 0 100 -39t32 -117v-106q0 -78 -37 -119t-111 -41q-75 0 -112 41.5t-37 119.5v358q0 77 37.5 121.5t111.5 44.5q73 0 110.5 -37t37.5 -118
v-17h-63zM206 45q24 0 40.5 8t26.5 21.5t14.5 31.5t4.5 37v116q0 18 -4.5 35.5t-14.5 31.5t-26.5 22.5t-40.5 8.5q-23 0 -39 -8.5t-26 -22.5t-15 -31.5t-5 -35.5v-116q0 -18 4.5 -35.5t14.5 -31.5t26 -22.5t40 -8.5z" />
    <glyph glyph-name="seven.posf" unicode="&#xe064;" horiz-adv-x="366" 
d="M54 -150l220 603h-254v55h310v-67l-213 -591h-63z" />
    <glyph glyph-name="eight.posf" unicode="&#xe065;" 
d="M58 525q0 68 37 109t112 41t111.5 -39.5t36.5 -104.5v-41q0 -24 -7.5 -43.5t-21.5 -36.5t-33.5 -33t-44.5 -33q22 -16 42 -33t34 -37.5t22.5 -44.5t8.5 -53v-38q0 -66 -38.5 -107t-109.5 -41q-75 0 -112 39t-37 103v45q0 29 8 53t22.5 43.5t33.5 36.5t41 33
q-23 16 -42.5 32t-33.5 33.5t-21.5 37.5t-7.5 44v35zM121 137q0 -16 4 -32t14 -29.5t26.5 -22t41.5 -8.5q24 0 40.5 8.5t26.5 22t14 29.5t4 32v47q0 41 -25 70.5t-60 52.5q-36 -23 -61 -50.5t-25 -72.5v-47zM121 495q0 -35 21.5 -61t64.5 -53q42 27 63.5 51t21.5 62v34
q0 16 -4 32t-14 29.5t-26.5 22t-40.5 8.5q-25 0 -41.5 -8t-26.5 -21.5t-14 -30t-4 -32.5v-33z" />
    <glyph glyph-name="nine.posf" unicode="&#xe066;" 
d="M123 -38v-19q0 -19 4 -37t14 -31.5t26 -21.5t40 -8q23 0 39.5 9t26.5 24t14.5 33.5t4.5 37.5v184q-13 -25 -41 -41t-65 -16q-128 0 -128 158v121q0 78 37 120.5t112 42.5t111.5 -43t36.5 -121v-397q0 -74 -37 -120.5t-111 -46.5q-149 0 -149 158v14h65zM207 463
q-24 0 -40.5 -8.5t-26 -23t-13.5 -32.5t-4 -37v-133q0 -18 4 -35.5t14 -31.5t26 -22.5t40 -8.5q22 0 38.5 8.5t26.5 22.5t15 31.5t5 35.5v133q0 18 -4.5 36t-14.5 32.5t-26 23.5t-40 9z" />
    <glyph glyph-name="zeroslash.posf" unicode="&#xe067;" 
d="M355 161q0 -83 -36.5 -127t-111.5 -44t-112 44t-37 127v186q0 83 37 127t112 44t111.5 -44t36.5 -127v-186zM292 355q0 7 -0.5 13t-1.5 12l-156 -288q9 -20 26.5 -33.5t46.5 -13.5q24 0 40 9.5t26 24.5t14.5 34.5t4.5 39.5v202zM123 155l149 274q-10 15 -26 24.5t-39 9.5
q-24 0 -40 -9.5t-26 -25t-14 -35t-4 -38.5v-200z" />
    <glyph glyph-name="onefifth" unicode="&#xe07c;" horiz-adv-x="733" 
d="M170 270v342l-98 -52l-29 43l118 66h64v-399h-55zM207 0h-55l347 665h55zM473 399h209v-47h-156v-115q9 14 27.5 24t45.5 10q39 0 63 -25.5t24 -79.5v-62q0 -48 -27 -79t-81 -31t-79.5 27.5t-25.5 71.5v14h55v-12q0 -22 11 -38.5t40 -16.5t40 17.5t11 40.5v70
q0 23 -10.5 40t-35.5 17q-23 0 -35.5 -11.5t-17.5 -23.5h-58v209z" />
    <glyph glyph-name="twofifths" unicode="&#xe07d;" horiz-adv-x="733" 
d="M44 566v8q0 43 26 72t86 29q57 0 81 -26t24 -67v-8q0 -54 -70 -143l-86 -114h156v-47h-213v53l82 110q39 50 57 80t18 56v5q0 25 -11.5 40t-39.5 15q-31 0 -43 -17t-12 -39v-7h-55zM220 0h-55l347 665h55zM473 399h209v-47h-156v-115q9 14 27.5 24t45.5 10q39 0 63 -25.5
t24 -79.5v-62q0 -48 -27 -79t-81 -31t-79.5 27.5t-25.5 71.5v14h55v-12q0 -22 11 -38.5t40 -16.5t40 17.5t11 40.5v70q0 23 -10.5 40t-35.5 17q-23 0 -35.5 -11.5t-17.5 -23.5h-58v209z" />
    <glyph glyph-name="threefifths" unicode="&#xe07e;" horiz-adv-x="734" 
d="M202 577q0 20 -12 36t-41 16q-28 0 -40 -16.5t-12 -37.5v-9h-55v7q0 45 26.5 73.5t82.5 28.5q55 0 80.5 -27t25.5 -66v-17q0 -30 -14.5 -52t-39.5 -30v-2q26 -8 40 -29.5t14 -51.5v-30q0 -46 -27 -76t-81 -30q-53 0 -80 26t-27 73v13h55v-11q0 -23 11 -39t40 -16t41.5 18
t12.5 43v29q0 23 -14.5 40t-43.5 17h-31v45h30q31 0 45 17.5t14 38.5v19zM212 0h-55l347 665h55zM473 399h209v-47h-156v-115q9 14 27.5 24t45.5 10q39 0 63 -25.5t24 -79.5v-62q0 -48 -27 -79t-81 -31t-79.5 27.5t-25.5 71.5v14h55v-12q0 -22 11 -38.5t40 -16.5t40 17.5
t11 40.5v70q0 23 -10.5 40t-35.5 17q-23 0 -35.5 -11.5t-17.5 -23.5h-58v209z" />
    <glyph glyph-name="fourfifths" unicode="&#xe07f;" horiz-adv-x="734" 
d="M203 351h-167v58l140 260h56l-145 -271h116v74h51v-202h-51v81zM216 0h-55l347 665h55zM473 399h209v-47h-156v-115q9 14 27.5 24t45.5 10q39 0 63 -25.5t24 -79.5v-62q0 -48 -27 -79t-81 -31t-79.5 27.5t-25.5 71.5v14h55v-12q0 -22 11 -38.5t40 -16.5t40 17.5t11 40.5
v70q0 23 -10.5 40t-35.5 17q-23 0 -35.5 -11.5t-17.5 -23.5h-58v209z" />
    <glyph glyph-name="onesixth" unicode="&#xe080;" horiz-adv-x="733" 
d="M170 270v342l-98 -52l-29 43l118 66h64v-399h-55zM220 0h-55l347 665h55zM631 298v6q0 21 -11.5 38t-39.5 17t-39.5 -19t-11.5 -41v-86q8 14 26.5 24.5t43.5 10.5q42 0 65 -25t23 -73v-48q0 -48 -26 -78t-81 -30q-56 0 -81 30.5t-25 78.5v188q0 50 26 82t80 32
q55 0 81 -28t26 -71v-8h-56zM580 40q29 0 40 17.5t11 40.5v49q0 23 -11 40t-40 17q-27 0 -39 -17t-12 -38v-51q0 -21 10.5 -39.5t40.5 -18.5z" />
    <glyph glyph-name="fivesixths" unicode="&#xe081;" horiz-adv-x="733" 
d="M46 669h209v-47h-156v-115q9 14 27.5 24t45.5 10q39 0 63 -25.5t24 -79.5v-62q0 -48 -27 -79t-81 -31t-79.5 27.5t-25.5 71.5v14h55v-12q0 -22 11 -38.5t40 -16.5t40 17.5t11 40.5v70q0 23 -10.5 40t-35.5 17q-23 0 -35.5 -11.5t-17.5 -23.5h-58v209zM220 0h-55l347 665
h55zM631 298v6q0 21 -11.5 38t-39.5 17t-39.5 -19t-11.5 -41v-86q8 14 26.5 24.5t43.5 10.5q42 0 65 -25t23 -73v-48q0 -48 -26 -78t-81 -30q-56 0 -81 30.5t-25 78.5v188q0 50 26 82t80 32q55 0 81 -28t26 -71v-8h-56zM580 40q29 0 40 17.5t11 40.5v49q0 23 -11 40t-40 17
q-27 0 -39 -17t-12 -38v-51q0 -21 10.5 -39.5t40.5 -18.5z" />
    <glyph glyph-name="oneseventh" unicode="&#xe082;" horiz-adv-x="733" 
d="M170 270v342l-98 -52l-29 43l118 66h64v-399h-55zM205 0h-55l347 665h55zM483 0l157 352h-178v47h232v-54l-153 -345h-58z" />
    <glyph glyph-name="twosevenths" unicode="&#xe083;" horiz-adv-x="733" 
d="M44 566v8q0 43 26 72t86 29q57 0 81 -26t24 -67v-8q0 -54 -70 -143l-86 -114h156v-47h-213v53l82 110q39 50 57 80t18 56v5q0 25 -11.5 40t-39.5 15q-31 0 -43 -17t-12 -39v-7h-55zM218 0h-55l347 665h55zM483 0l157 352h-178v47h232v-54l-153 -345h-58z" />
    <glyph glyph-name="threesevenths" unicode="&#xe084;" horiz-adv-x="734" 
d="M202 577q0 20 -12 36t-41 16q-28 0 -40 -16.5t-12 -37.5v-9h-55v7q0 45 26.5 73.5t82.5 28.5q55 0 80.5 -27t25.5 -66v-17q0 -30 -14.5 -52t-39.5 -30v-2q26 -8 40 -29.5t14 -51.5v-30q0 -46 -27 -76t-81 -30q-53 0 -80 26t-27 73v13h55v-11q0 -23 11 -39t40 -16t41.5 18
t12.5 43v29q0 23 -14.5 40t-43.5 17h-31v45h30q31 0 45 17.5t14 38.5v19zM204 0h-55l347 665h55zM483 0l157 352h-178v47h232v-54l-153 -345h-58z" />
    <glyph glyph-name="foursevenths" unicode="&#xe085;" horiz-adv-x="734" 
d="M203 351h-167v58l140 260h56l-145 -271h116v74h51v-202h-51v81zM216 0h-55l347 665h55zM483 0l157 352h-178v47h232v-54l-153 -345h-58z" />
    <glyph glyph-name="fivesevenths" unicode="&#xe086;" horiz-adv-x="733" 
d="M46 669h209v-47h-156v-115q9 14 27.5 24t45.5 10q39 0 63 -25.5t24 -79.5v-62q0 -48 -27 -79t-81 -31t-79.5 27.5t-25.5 71.5v14h55v-12q0 -22 11 -38.5t40 -16.5t40 17.5t11 40.5v70q0 23 -10.5 40t-35.5 17q-23 0 -35.5 -11.5t-17.5 -23.5h-58v209zM212 0h-55l347 665
h55zM483 0l157 352h-178v47h232v-54l-153 -345h-58z" />
    <glyph glyph-name="sixsevenths" unicode="&#xe087;" horiz-adv-x="733" 
d="M204 568v6q0 21 -11.5 38t-39.5 17t-39.5 -19t-11.5 -41v-86q8 14 26.5 24.5t43.5 10.5q42 0 65 -25t23 -73v-48q0 -48 -26 -78t-81 -30q-56 0 -81 30.5t-25 78.5v188q0 50 26 82t80 32q55 0 81 -28t26 -71v-8h-56zM153 310q29 0 40 17.5t11 40.5v49q0 23 -11 40t-40 17
q-27 0 -39 -17t-12 -38v-51q0 -21 10.5 -39.5t40.5 -18.5zM212 0h-55l347 665h55zM483 0l157 352h-178v47h232v-54l-153 -345h-58z" />
    <glyph glyph-name="oneninth" unicode="&#xe088;" horiz-adv-x="733" 
d="M170 270v342l-98 -52l-29 43l118 66h64v-399h-55zM220 0h-55l347 665h55zM529 101v-7q0 -23 12 -38.5t39 -15.5q26 0 38.5 19t12.5 44v82q-10 -14 -28 -24t-44 -10q-41 0 -63 24t-22 72v48q0 48 26 79t80 31q55 0 81 -31.5t26 -79.5v-182q0 -51 -26.5 -84.5t-80.5 -33.5
t-80 28t-26 73v6h55zM580 359q-28 0 -39.5 -18.5t-11.5 -41.5v-49q0 -23 11.5 -39t37.5 -16q28 0 40.5 17.5t12.5 37.5v49q0 23 -11.5 41.5t-39.5 18.5z" />
    <glyph glyph-name="twoninths" unicode="&#xe089;" horiz-adv-x="733" 
d="M44 566v8q0 43 26 72t86 29q57 0 81 -26t24 -67v-8q0 -54 -70 -143l-86 -114h156v-47h-213v53l82 110q39 50 57 80t18 56v5q0 25 -11.5 40t-39.5 15q-31 0 -43 -17t-12 -39v-7h-55zM229 0h-55l347 665h55zM529 101v-7q0 -23 12 -38.5t39 -15.5q26 0 38.5 19t12.5 44v82
q-10 -14 -28 -24t-44 -10q-41 0 -63 24t-22 72v48q0 48 26 79t80 31q55 0 81 -31.5t26 -79.5v-182q0 -51 -26.5 -84.5t-80.5 -33.5t-80 28t-26 73v6h55zM580 359q-28 0 -39.5 -18.5t-11.5 -41.5v-49q0 -23 11.5 -39t37.5 -16q28 0 40.5 17.5t12.5 37.5v49q0 23 -11.5 41.5
t-39.5 18.5z" />
    <glyph glyph-name="fourninths" unicode="&#xe08a;" horiz-adv-x="734" 
d="M203 351h-167v58l140 260h56l-145 -271h116v74h51v-202h-51v81zM229 0h-55l347 665h55zM529 101v-7q0 -23 12 -38.5t39 -15.5q26 0 38.5 19t12.5 44v82q-10 -14 -28 -24t-44 -10q-41 0 -63 24t-22 72v48q0 48 26 79t80 31q55 0 81 -31.5t26 -79.5v-182q0 -51 -26.5 -84.5
t-80.5 -33.5t-80 28t-26 73v6h55zM580 359q-28 0 -39.5 -18.5t-11.5 -41.5v-49q0 -23 11.5 -39t37.5 -16q28 0 40.5 17.5t12.5 37.5v49q0 23 -11.5 41.5t-39.5 18.5z" />
    <glyph glyph-name="fiveninths" unicode="&#xe08b;" horiz-adv-x="733" 
d="M46 669h209v-47h-156v-115q9 14 27.5 24t45.5 10q39 0 63 -25.5t24 -79.5v-62q0 -48 -27 -79t-81 -31t-79.5 27.5t-25.5 71.5v14h55v-12q0 -22 11 -38.5t40 -16.5t40 17.5t11 40.5v70q0 23 -10.5 40t-35.5 17q-23 0 -35.5 -11.5t-17.5 -23.5h-58v209zM220 0h-55l347 665
h55zM529 101v-7q0 -23 12 -38.5t39 -15.5q26 0 38.5 19t12.5 44v82q-10 -14 -28 -24t-44 -10q-41 0 -63 24t-22 72v48q0 48 26 79t80 31q55 0 81 -31.5t26 -79.5v-182q0 -51 -26.5 -84.5t-80.5 -33.5t-80 28t-26 73v6h55zM580 359q-28 0 -39.5 -18.5t-11.5 -41.5v-49
q0 -23 11.5 -39t37.5 -16q28 0 40.5 17.5t12.5 37.5v49q0 23 -11.5 41.5t-39.5 18.5z" />
    <glyph glyph-name="sevenninths" unicode="&#xe08c;" horiz-adv-x="734" 
d="M57 270l157 352h-178v47h232v-54l-153 -345h-58zM192 0h-55l347 665h55zM529 101v-7q0 -23 12 -38.5t39 -15.5q26 0 38.5 19t12.5 44v82q-10 -14 -28 -24t-44 -10q-41 0 -63 24t-22 72v48q0 48 26 79t80 31q55 0 81 -31.5t26 -79.5v-182q0 -51 -26.5 -84.5t-80.5 -33.5
t-80 28t-26 73v6h55zM580 359q-28 0 -39.5 -18.5t-11.5 -41.5v-49q0 -23 11.5 -39t37.5 -16q28 0 40.5 17.5t12.5 37.5v49q0 23 -11.5 41.5t-39.5 18.5z" />
    <glyph glyph-name="eightninths" unicode="&#xe08d;" horiz-adv-x="733" 
d="M47 582q0 42 27.5 67.5t78.5 25.5q52 0 79.5 -27t27.5 -65v-16q0 -29 -19.5 -50t-50.5 -40q29 -19 49.5 -43t20.5 -60v-17q0 -40 -26.5 -66.5t-80.5 -26.5q-53 0 -79.5 27t-26.5 65v19q0 35 19.5 58.5t48.5 42.5q-30 20 -49 41t-19 50v15zM102 361q0 -18 12 -34.5
t39 -16.5t39 16.5t12 34.5v17q0 23 -14 40.5t-36 31.5q-23 -13 -37.5 -30t-14.5 -42v-17zM102 566q0 -36 52 -66q25 15 37.5 30.5t12.5 35.5v13q0 18 -12 34t-39 16t-39 -15.5t-12 -34.5v-13zM223 0h-55l347 665h55zM529 101v-7q0 -23 12 -38.5t39 -15.5q26 0 38.5 19
t12.5 44v82q-10 -14 -28 -24t-44 -10q-41 0 -63 24t-22 72v48q0 48 26 79t80 31q55 0 81 -31.5t26 -79.5v-182q0 -51 -26.5 -84.5t-80.5 -33.5t-80 28t-26 73v6h55zM580 359q-28 0 -39.5 -18.5t-11.5 -41.5v-49q0 -23 11.5 -39t37.5 -16q28 0 40.5 17.5t12.5 37.5v49
q0 23 -11.5 41.5t-39.5 18.5z" />
    <glyph glyph-name="zero.numerator" unicode="&#xe08e;" horiz-adv-x="306" 
d="M260 497q0 -49 -26 -81t-81 -32q-54 0 -80 32t-26 81v185q0 48 26 80.5t80 32.5q55 0 81 -32.5t26 -80.5v-185zM204 688q0 23 -11 42t-40 19t-40 -19t-11 -42v-197q0 -21 11 -41t40 -20t40 20t11 41v197z" />
    <glyph glyph-name="one.numerator" unicode="&#xe08f;" horiz-adv-x="306" 
d="M170 390v342l-98 -52l-29 43l118 66h64v-399h-55z" />
    <glyph glyph-name="two.numerator" unicode="&#xe090;" horiz-adv-x="306" 
d="M44 686v8q0 43 26 72t86 29q57 0 81 -26t24 -67v-8q0 -54 -70 -143l-86 -114h156v-47h-213v53l82 110q39 50 57 80t18 56v5q0 25 -11.5 40t-39.5 15q-31 0 -43 -17t-12 -39v-7h-55z" />
    <glyph glyph-name="three.numerator" unicode="&#xe091;" horiz-adv-x="307" 
d="M202 697q0 20 -12 36t-41 16q-28 0 -40 -16.5t-12 -37.5v-9h-55v7q0 45 26.5 73.5t82.5 28.5q55 0 80.5 -27t25.5 -66v-17q0 -30 -14.5 -52t-39.5 -30v-2q26 -8 40 -29.5t14 -51.5v-30q0 -46 -27 -76t-81 -30q-53 0 -80 26t-27 73v13h55v-11q0 -23 11 -39t40 -16t41.5 18
t12.5 43v29q0 23 -14.5 40t-43.5 17h-31v45h30q31 0 45 17.5t14 38.5v19z" />
    <glyph glyph-name="four.numerator" unicode="&#xe092;" horiz-adv-x="307" 
d="M203 471h-167v58l140 260h56l-145 -271h116v74h51v-202h-51v81z" />
    <glyph glyph-name="five.numerator" unicode="&#xe093;" horiz-adv-x="306" 
d="M46 789h209v-47h-156v-115q9 14 27.5 24t45.5 10q39 0 63 -25.5t24 -79.5v-62q0 -48 -27 -79t-81 -31t-79.5 27.5t-25.5 71.5v14h55v-12q0 -22 11 -38.5t40 -16.5t40 17.5t11 40.5v70q0 23 -10.5 40t-35.5 17q-23 0 -35.5 -11.5t-17.5 -23.5h-58v209z" />
    <glyph glyph-name="six.numerator" unicode="&#xe094;" horiz-adv-x="306" 
d="M204 688v6q0 21 -11.5 38t-39.5 17t-39.5 -19t-11.5 -41v-86q8 14 26.5 24.5t43.5 10.5q42 0 65 -25t23 -73v-48q0 -48 -26 -78t-81 -30q-56 0 -81 30.5t-25 78.5v188q0 50 26 82t80 32q55 0 81 -28t26 -71v-8h-56zM153 430q29 0 40 17.5t11 40.5v49q0 23 -11 40t-40 17
q-27 0 -39 -17t-12 -38v-51q0 -21 10.5 -39.5t40.5 -18.5z" />
    <glyph glyph-name="seven.numerator" unicode="&#xe095;" horiz-adv-x="307" 
d="M57 390l157 352h-178v47h232v-54l-153 -345h-58z" />
    <glyph glyph-name="eight.numerator" unicode="&#xe096;" horiz-adv-x="306" 
d="M47 702q0 42 27.5 67.5t78.5 25.5q52 0 79.5 -27t27.5 -65v-16q0 -29 -19.5 -50t-50.5 -40q29 -19 49.5 -43t20.5 -60v-17q0 -40 -26.5 -66.5t-80.5 -26.5q-53 0 -79.5 27t-26.5 65v19q0 35 19.5 58.5t48.5 42.5q-30 20 -49 41t-19 50v15zM102 481q0 -18 12 -34.5
t39 -16.5t39 16.5t12 34.5v17q0 23 -14 40.5t-36 31.5q-23 -13 -37.5 -30t-14.5 -42v-17zM102 686q0 -36 52 -66q25 15 37.5 30.5t12.5 35.5v13q0 18 -12 34t-39 16t-39 -15.5t-12 -34.5v-13z" />
    <glyph glyph-name="nine.numerator" unicode="&#xe097;" horiz-adv-x="306" 
d="M102 491v-7q0 -23 12 -38.5t39 -15.5q26 0 38.5 19t12.5 44v82q-10 -14 -28 -24t-44 -10q-41 0 -63 24t-22 72v48q0 48 26 79t80 31q55 0 81 -31.5t26 -79.5v-182q0 -51 -26.5 -84.5t-80.5 -33.5t-80 28t-26 73v6h55zM153 749q-28 0 -39.5 -18.5t-11.5 -41.5v-49
q0 -23 11.5 -39t37.5 -16q28 0 40.5 17.5t12.5 37.5v49q0 23 -11.5 41.5t-39.5 18.5z" />
    <glyph glyph-name="zero.denominator" unicode="&#xe098;" horiz-adv-x="306" 
d="M260 -13q0 -49 -26 -81t-81 -32q-54 0 -80 32t-26 81v185q0 48 26 80.5t80 32.5q55 0 81 -32.5t26 -80.5v-185zM204 178q0 23 -11 42t-40 19t-40 -19t-11 -42v-197q0 -21 11 -41t40 -20t40 20t11 41v197z" />
    <glyph glyph-name="one.denominator" unicode="&#xe099;" horiz-adv-x="306" 
d="M170 -120v342l-98 -52l-29 43l118 66h64v-399h-55z" />
    <glyph glyph-name="two.denominator" unicode="&#xe09a;" horiz-adv-x="306" 
d="M44 176v8q0 43 26 72t86 29q57 0 81 -26t24 -67v-8q0 -54 -70 -143l-86 -114h156v-47h-213v53l82 110q39 50 57 80t18 56v5q0 25 -11.5 40t-39.5 15q-31 0 -43 -17t-12 -39v-7h-55z" />
    <glyph glyph-name="three.denominator" unicode="&#xe09b;" horiz-adv-x="307" 
d="M202 187q0 20 -12 36t-41 16q-28 0 -40 -16.5t-12 -37.5v-9h-55v7q0 45 26.5 73.5t82.5 28.5q55 0 80.5 -27t25.5 -66v-17q0 -30 -14.5 -52t-39.5 -30v-2q26 -8 40 -29.5t14 -51.5v-30q0 -46 -27 -76t-81 -30q-53 0 -80 26t-27 73v13h55v-11q0 -23 11 -39t40 -16t41.5 18
t12.5 43v29q0 23 -14.5 40t-43.5 17h-31v45h30q31 0 45 17.5t14 38.5v19z" />
    <glyph glyph-name="four.denominator" unicode="&#xe09c;" horiz-adv-x="307" 
d="M203 -39h-167v58l140 260h56l-145 -271h116v74h51v-202h-51v81z" />
    <glyph glyph-name="five.denominator" unicode="&#xe09d;" horiz-adv-x="306" 
d="M46 279h209v-47h-156v-115q9 14 27.5 24t45.5 10q39 0 63 -25.5t24 -79.5v-62q0 -48 -27 -79t-81 -31t-79.5 27.5t-25.5 71.5v14h55v-12q0 -22 11 -38.5t40 -16.5t40 17.5t11 40.5v70q0 23 -10.5 40t-35.5 17q-23 0 -35.5 -11.5t-17.5 -23.5h-58v209z" />
    <glyph glyph-name="six.denominator" unicode="&#xe09e;" horiz-adv-x="306" 
d="M204 178v6q0 21 -11.5 38t-39.5 17t-39.5 -19t-11.5 -41v-86q8 14 26.5 24.5t43.5 10.5q42 0 65 -25t23 -73v-48q0 -48 -26 -78t-81 -30q-56 0 -81 30.5t-25 78.5v188q0 50 26 82t80 32q55 0 81 -28t26 -71v-8h-56zM153 -80q29 0 40 17.5t11 40.5v49q0 23 -11 40t-40 17
q-27 0 -39 -17t-12 -38v-51q0 -21 10.5 -39.5t40.5 -18.5z" />
    <glyph glyph-name="seven.denominator" unicode="&#xe09f;" horiz-adv-x="307" 
d="M57 -120l157 352h-178v47h232v-54l-153 -345h-58z" />
    <glyph glyph-name="eight.denominator" unicode="&#xe0a0;" horiz-adv-x="306" 
d="M47 192q0 42 27.5 67.5t78.5 25.5q52 0 79.5 -27t27.5 -65v-16q0 -29 -19.5 -50t-50.5 -40q29 -19 49.5 -43t20.5 -60v-17q0 -40 -26.5 -66.5t-80.5 -26.5q-53 0 -79.5 27t-26.5 65v19q0 35 19.5 58.5t48.5 42.5q-30 20 -49 41t-19 50v15zM102 -29q0 -18 12 -34.5
t39 -16.5t39 16.5t12 34.5v17q0 23 -14 40.5t-36 31.5q-23 -13 -37.5 -30t-14.5 -42v-17zM102 176q0 -36 52 -66q25 15 37.5 30.5t12.5 35.5v13q0 18 -12 34t-39 16t-39 -15.5t-12 -34.5v-13z" />
    <glyph glyph-name="nine.denominator" unicode="&#xe0a1;" horiz-adv-x="306" 
d="M102 -19v-7q0 -23 12 -38.5t39 -15.5q26 0 38.5 19t12.5 44v82q-10 -14 -28 -24t-44 -10q-41 0 -63 24t-22 72v48q0 48 26 79t80 31q55 0 81 -31.5t26 -79.5v-182q0 -51 -26.5 -84.5t-80.5 -33.5t-80 28t-26 73v6h55zM153 239q-28 0 -39.5 -18.5t-11.5 -41.5v-49
q0 -23 11.5 -39t37.5 -16q28 0 40.5 17.5t12.5 37.5v49q0 23 -11.5 41.5t-39.5 18.5z" />
    <glyph glyph-name="i.dot" unicode="&#xe166;" horiz-adv-x="201" 
d="M70 508h57l6 -65v-443h-63v508zM101 655q18 0 29.5 -11t11.5 -29t-11.5 -29.5t-29.5 -11.5t-29.5 11.5t-11.5 29.5t11.5 29t29.5 11z" />
    <glyph glyph-name="commaaccent" unicode="&#xf6c3;" horiz-adv-x="437" 
d="M210 -161h-44l26 121h63z" />
    <glyph glyph-name="caron.alt" horiz-adv-x="437" 
d="M295 560h-34l20 125h56z" />
    <glyph glyph-name="revcommaaccent" horiz-adv-x="437" 
d="M235 677h42l-20 -121h-63z" />
    </font>
</defs>
</svg>
