<?xml version="1.0" standalone="no"?>
<!DOCTYPE svg PUBLIC "-//W3C//DTD SVG 1.1//EN" "http://www.w3.org/Graphics/SVG/1.1/DTD/svg11.dtd" >
<svg xmlns="http://www.w3.org/2000/svg" xmlns:xlink="http://www.w3.org/1999/xlink" version="1.1">
<metadata>
Created by FontForge 20141024 at Tue Nov  4 12:54:28 2014
 By Jimmy Warting
Copyright (c) 2013 by FONTYOU. All rights reserved. www.fontyou.com
</metadata>
<defs>
<font id="MarianinaFY-Black" horiz-adv-x="421" >
  <font-face 
    font-family="MarianinaFY-Black"
    font-weight="400"
    font-stretch="normal"
    units-per-em="1000"
    panose-1="2 0 10 6 0 0 0 2 0 4"
    ascent="772"
    descent="-228"
    x-height="520"
    cap-height="665"
    bbox="-148 -220 1187 881"
    underline-thickness="50"
    underline-position="-50"
    unicode-range="U+000D-FB04"
  />
<missing-glyph horiz-adv-x="602" 
d="M305 435q16 29 41.5 47t56.5 18q43 0 71 -29.5t28 -75.5q0 -30 -13.5 -65t-39 -70t-63 -67.5t-85.5 -57.5q-48 25 -85.5 57.5t-63 67.5t-39 70t-13.5 65q0 46 28 75.5t71 29.5q31 0 56.5 -18t41.5 -47h8z" />
    <glyph glyph-name="f_f" unicode="ff" horiz-adv-x="585" 
d="M182 420v-420h-132v514q0 89 41.5 142.5t123.5 53.5q54 0 84 -14.5t52 -35.5l-77 -70q-7 7 -17.5 13.5t-24.5 6.5t-23.5 -6.5t-15.5 -17t-8.5 -23.5t-2.5 -27v-16h103v-100h-103zM469 420v-420h-132v514q0 89 41.5 142.5t123.5 53.5q54 0 84 -14.5t52 -35.5l-77 -70
q-7 7 -17.5 13.5t-24.5 6.5t-23.5 -6.5t-15.5 -17t-8.5 -23.5t-2.5 -27v-16h103v-100h-103z" />
    <glyph glyph-name="fi" unicode="fi" horiz-adv-x="511" 
d="M400 686q32 0 50.5 -19.5t18.5 -48.5t-18.5 -48.5t-50.5 -19.5t-51.5 19.5t-19.5 48.5q0 16 5 26l-60 -54q-7 7 -17.5 13.5t-24.5 6.5t-23.5 -6.5t-15.5 -17t-8.5 -23.5t-2.5 -27v-16h103v-100h-103v-420h-132v514q0 89 41.5 142.5t123.5 53.5q51 0 80.5 -13t50.5 -33
q10 10 23.5 16t30.5 6zM336 520h115l14 -95v-425h-129v520z" />
    <glyph glyph-name="fl" unicode="fl" horiz-adv-x="513" 
d="M466 615v-615h-118l-11 95v552l-63 -57q-7 7 -17.5 13.5t-24.5 6.5t-23.5 -6.5t-15.5 -17t-8.5 -23.5t-2.5 -27v-16h103v-100h-103v-420h-132v514q0 89 41.5 142.5t123.5 53.5q46 0 74 -10.5t48 -27.5v38h115z" />
    <glyph glyph-name="f_f_i" unicode="ffi" horiz-adv-x="797" 
d="M182 420v-420h-132v514q0 89 41.5 142.5t123.5 53.5q54 0 84 -14.5t52 -35.5l-77 -70q-7 7 -17.5 13.5t-24.5 6.5t-23.5 -6.5t-15.5 -17t-8.5 -23.5t-2.5 -27v-16h103v-100h-103zM686 686q32 0 50.5 -19.5t18.5 -48.5t-18.5 -48.5t-50.5 -19.5t-51.5 19.5t-19.5 48.5
q0 16 5 26l-60 -54q-7 7 -17.5 13.5t-24.5 6.5t-23.5 -6.5t-15.5 -17t-8.5 -23.5t-2.5 -27v-16h103v-100h-103v-420h-132v514q0 89 41.5 142.5t123.5 53.5q51 0 80.5 -13t50.5 -33q10 10 23.5 16t30.5 6zM622 520h115l14 -95v-425h-129v520z" />
    <glyph glyph-name="f_f_l" unicode="ffl" horiz-adv-x="800" 
d="M182 420v-420h-132v514q0 89 41.5 142.5t123.5 53.5q54 0 84 -14.5t52 -35.5l-77 -70q-7 7 -17.5 13.5t-24.5 6.5t-23.5 -6.5t-15.5 -17t-8.5 -23.5t-2.5 -27v-16h103v-100h-103zM753 615v-615h-118l-11 95v552l-63 -57q-7 7 -17.5 13.5t-24.5 6.5t-23.5 -6.5t-15.5 -17
t-8.5 -23.5t-2.5 -27v-16h103v-100h-103v-420h-132v514q0 89 41.5 142.5t123.5 53.5q46 0 74 -10.5t48 -27.5v38h115z" />
    <glyph glyph-name=".notdef" horiz-adv-x="602" 
d="M305 435q16 29 41.5 47t56.5 18q43 0 71 -29.5t28 -75.5q0 -30 -13.5 -65t-39 -70t-63 -67.5t-85.5 -57.5q-48 25 -85.5 57.5t-63 67.5t-39 70t-13.5 65q0 46 28 75.5t71 29.5q31 0 56.5 -18t41.5 -47h8z" />
    <glyph glyph-name=".null" horiz-adv-x="0" 
 />
    <glyph glyph-name=".null" horiz-adv-x="0" 
 />
    <glyph glyph-name="nonmarkingreturn" unicode="&#xd;" horiz-adv-x="0" 
 />
    <glyph glyph-name="space" unicode=" " horiz-adv-x="150" 
 />
    <glyph glyph-name="exclam" unicode="!" horiz-adv-x="279" 
d="M205 665v-474h-120l-11 95v379h131zM64 66q0 32 20 51.5t54 19.5t54 -19.5t20 -51.5t-20 -51.5t-54 -19.5t-54 19.5t-20 51.5z" />
    <glyph glyph-name="quotedbl" unicode="&#x22;" horiz-adv-x="396" 
d="M162 427h-97l-16 258h129zM330 427h-97l-16 258h129z" />
    <glyph glyph-name="numbersign" unicode="#" horiz-adv-x="633" 
d="M99 175h-67v95h98l44 135h-64v95h95l54 165h112l-54 -165h104l54 165h112l-54 -165h67v-95h-98l-43 -135h63v-95h-94l-57 -175h-113l57 175h-103l-57 -175h-113zM243 270h103l44 135h-104z" />
    <glyph glyph-name="dollar" unicode="$" horiz-adv-x="409" 
d="M33 511q0 51 26.5 92t81.5 58v69h129v-65q49 -15 77.5 -55t28.5 -117v-41h-129v53q0 23 -8 41.5t-34 18.5q-24 0 -31.5 -18.5t-7.5 -41.5v-19q0 -21 13.5 -40.5t48.5 -43.5q28 -19 54.5 -39.5t47.5 -44.5t33.5 -53t12.5 -66v-45q0 -60 -30 -98t-76 -54v-67h-129v67
q-24 9 -43.5 21.5t-34 32.5t-22.5 49t-8 71v37h133v-53q0 -11 1 -22t5 -19.5t11.5 -13.5t21.5 -5q24 0 33 18.5t9 41.5v26q0 35 -24 58.5t-55 43.5q-30 19 -55 39.5t-42.5 43t-27.5 49t-10 58.5v33z" />
    <glyph glyph-name="percent" unicode="%" horiz-adv-x="804" 
d="M296 396q0 -27 -7.5 -51t-23.5 -42t-41.5 -28.5t-61.5 -10.5t-62 10.5t-42.5 28.5t-24 42t-7.5 51v147q0 26 7.5 50t24 42t42.5 29t62 11t61.5 -11t41.5 -29t23.5 -42t7.5 -50v-147zM187 550q0 15 -5.5 25t-20.5 10q-16 0 -21.5 -10t-5.5 -25v-161q0 -15 5.5 -25
t21.5 -10q15 0 20.5 10t5.5 25v161zM282 0h-108l347 665h108zM777 126q0 -27 -7.5 -51t-23.5 -42t-41.5 -28.5t-61.5 -10.5t-62 10.5t-42.5 28.5t-24 42t-7.5 51v147q0 26 7.5 50t24 42t42.5 29t62 11t61.5 -11t41.5 -29t23.5 -42t7.5 -50v-147zM668 280q0 15 -5.5 25
t-20.5 10q-16 0 -21.5 -10t-5.5 -25v-161q0 -15 5.5 -25t21.5 -10q15 0 20.5 10t5.5 25v161z" />
    <glyph glyph-name="ampersand" unicode="&#x26;" horiz-adv-x="461" 
d="M275 20q-19 -16 -40 -23t-58 -7q-66 0 -100.5 36t-34.5 121v44q0 49 18.5 82.5t53.5 62.5q-12 10 -25 25t-23.5 35t-17 44.5t-6.5 53.5v22q0 35 12 64t34.5 50t55 33t72.5 12q44 0 75.5 -13t52 -34t30.5 -47.5t10 -53.5v-30q0 -26 -4 -48.5t-15.5 -43t-31.5 -40.5
t-51 -42q-26 -18 -46.5 -33t-35 -30.5t-22 -33t-7.5 -39.5v-28q0 -20 10 -39.5t33 -19.5t32 19t9 40v62h129v-56q0 -74 18.5 -119.5t68.5 -45.5v-110q-88 0 -133 31t-58 99h-5zM171 483q0 -27 12 -46.5t27 -30.5q28 23 36.5 43t8.5 42v14q0 23 -7.5 41.5t-33.5 18.5
q-27 0 -35 -18.5t-8 -41.5v-22z" />
    <glyph glyph-name="quotesingle" unicode="'" horiz-adv-x="227" 
d="M162 427h-97l-16 258h129z" />
    <glyph glyph-name="parenleft" unicode="(" horiz-adv-x="339" 
d="M64 567q0 49 12.5 90.5t40 72t72 48t108.5 17.5h17v-110h-17q-104 0 -104 -134v-429q0 -132 104 -132h17v-110h-17q-64 0 -108.5 16t-72 44.5t-40 68.5t-12.5 89v469z" />
    <glyph glyph-name="parenright" unicode=")" horiz-adv-x="339" 
d="M275 98q0 -49 -12.5 -89t-40 -68.5t-72 -44.5t-108.5 -16h-17v110h17q104 0 104 132v421q0 66 -25 104t-79 38h-17v110h17q64 0 108.5 -19t72 -51.5t40 -75.5t12.5 -92v-459z" />
    <glyph glyph-name="asterisk" unicode="*" horiz-adv-x="308" 
d="M21 579l73 31v5l-73 26l40 69l57 -53l8 6l-12 78h80l-16 -77l7 -6l62 52l40 -69l-75 -30v-9l75 -23l-40 -69l-61 54l-7 -5l15 -80h-80l15 78l-4 3l-64 -50z" />
    <glyph glyph-name="plus" unicode="+" 
d="M75 356h80v80h110v-80h80v-110h-80v-80h-110v80h-80v110z" />
    <glyph glyph-name="comma" unicode="," horiz-adv-x="217" 
d="M101 -114h-81l39 241h129z" />
    <glyph glyph-name="hyphen" unicode="-" horiz-adv-x="308" 
d="M50 371h208v-110h-208v110z" />
    <glyph glyph-name="period" unicode="." horiz-adv-x="216" 
d="M34 66q0 32 20 51.5t54 19.5t54 -19.5t20 -51.5t-20 -51.5t-54 -19.5t-54 19.5t-20 51.5z" />
    <glyph glyph-name="slash" unicode="/" horiz-adv-x="372" 
d="M115 -89h-113l255 799h113z" />
    <glyph glyph-name="zero" unicode="0" 
d="M381 187q0 -95 -42.5 -146t-129.5 -51t-128.5 51t-41.5 146v291q0 95 42 146t129 51t129 -51t42 -146v-291zM252 485q0 15 -1.5 29.5t-6 25.5t-13 18t-21.5 7q-14 0 -22 -7t-12.5 -18t-6 -25.5t-1.5 -29.5v-304q0 -15 1.5 -29.5t5.5 -25.5t12 -18t22 -7q26 0 34.5 24.5
t8.5 55.5v304z" />
    <glyph glyph-name="one" unicode="1" horiz-adv-x="379" 
d="M186 0v534l-98 -84l-79 83l155 132h151v-665h-129z" />
    <glyph glyph-name="two" unicode="2" horiz-adv-x="415" 
d="M34 477v29q0 82 44.5 125.5t129.5 43.5q92 0 131.5 -43t39.5 -128v-21q0 -45 -26 -97.5t-65 -106.5l-125 -169h216v-110h-345v123l102 134q33 43 54.5 77t35 61t19 48.5t5.5 41.5v15q0 31 -9 48t-34 17t-34.5 -14t-9.5 -43v-31h-129z" />
    <glyph glyph-name="three" unicode="3" horiz-adv-x="413" 
d="M245 504q0 21 -9 40.5t-35 19.5t-34.5 -18.5t-8.5 -41.5v-22h-129v16q0 86 42.5 131.5t129.5 45.5q43 0 75.5 -11t54 -29.5t32.5 -44t11 -55.5v-51q0 -50 -21.5 -79.5t-60.5 -46.5v-6q38 -17 60 -48t22 -84v-69q0 -41 -14.5 -71.5t-38.5 -50t-55.5 -29t-64.5 -9.5
q-172 0 -172 167v26h129v-23q0 -10 1.5 -20.5t6.5 -19.5t13 -14.5t22 -5.5q13 0 22 5.5t13.5 14.5t6.5 19.5t2 20.5v59q0 39 -19.5 58t-70.5 19h-30v110h30q51 0 70.5 18.5t19.5 58.5v20z" />
    <glyph glyph-name="four" unicode="4" 
d="M249 137h-223v130l166 398h129l-174 -418h102v83h129v-330h-129v137z" />
    <glyph glyph-name="five" unicode="5" horiz-adv-x="423" 
d="M38 665h345v-114h-216v-109q13 14 32.5 23t51.5 9q70 0 101 -43.5t31 -144.5v-123q0 -37 -10.5 -68.5t-31.5 -55t-53.5 -36.5t-77.5 -13t-77.5 13.5t-53.5 36.5t-31 55t-10 69v20h129v-16q0 -11 1.5 -23t6.5 -22t13 -16.5t22 -6.5q13 0 21.5 6.5t13.5 16t7 21.5t2 23v137
q0 24 -8.5 42t-33.5 18t-33.5 -20t-10.5 -47h-130v368z" />
    <glyph glyph-name="six" unicode="6" horiz-adv-x="424" 
d="M255 467v32q0 12 -2 23.5t-7 21t-13.5 15.5t-21.5 6q-14 0 -22 -6t-13 -15.5t-6.5 -21.5t-1.5 -23v-111q11 15 35.5 25.5t53.5 10.5q63 0 95 -36t32 -124v-93q0 -86 -42 -133.5t-130 -47.5t-130.5 47.5t-42.5 133.5v321q0 85 43.5 134t129.5 49q87 0 129.5 -44.5
t42.5 -138.5v-25h-129zM211 100q26 0 35 18.5t9 41.5v94q0 23 -9 41.5t-35 18.5t-34.5 -18.5t-8.5 -41.5v-94q0 -23 8 -41.5t35 -18.5z" />
    <glyph glyph-name="seven" unicode="7" horiz-adv-x="395" 
d="M44 0l203 551h-222v114h338v-130l-190 -535h-129z" />
    <glyph glyph-name="eight" unicode="8" horiz-adv-x="424" 
d="M39 511q0 75 42.5 119.5t130.5 44.5q87 0 129.5 -41.5t42.5 -106.5v-36q0 -49 -22 -82t-69 -65q45 -32 68 -71.5t23 -98.5v-23q0 -75 -46.5 -118t-125.5 -43q-85 0 -129 40.5t-44 104.5v39q0 59 24 98t67 71q-46 32 -68.5 65.5t-22.5 82.5v20zM168 160q0 -23 8.5 -41.5
t35.5 -18.5q26 0 34.5 18.5t8.5 41.5v37q0 19 -8.5 37.5t-34.5 37.5q-26 -18 -35 -36t-9 -41v-35zM168 492q0 -23 9.5 -40.5t34.5 -34.5q25 17 34 34.5t9 40.5v13q0 23 -8.5 41.5t-34.5 18.5t-35 -18.5t-9 -41.5v-13z" />
    <glyph glyph-name="nine" unicode="9" horiz-adv-x="424" 
d="M172 198v-32q0 -12 1 -23.5t5.5 -21t12 -15.5t21.5 -6q13 0 21.5 6t13 15.5t6.5 21.5t2 23v117q-16 -20 -39.5 -31t-58.5 -11q-58 0 -88 38t-30 124v90q0 86 42.5 134t130.5 48t130 -48t42 -134v-320q0 -87 -43 -135t-129 -48q-88 0 -130.5 44t-42.5 136v28h133zM213 565
q-27 0 -34 -18.5t-7 -41.5v-94q0 -23 7.5 -41.5t33.5 -18.5q25 0 33.5 18.5t8.5 41.5v94q0 23 -8 41.5t-34 18.5z" />
    <glyph glyph-name="colon" unicode=":" horiz-adv-x="216" 
d="M34 66q0 32 20 51.5t54 19.5t54 -19.5t20 -51.5t-20 -51.5t-54 -19.5t-54 19.5t-20 51.5zM34 443q0 32 20 51.5t54 19.5t54 -19.5t20 -51.5t-20 -51.5t-54 -19.5t-54 19.5t-20 51.5z" />
    <glyph glyph-name="semicolon" unicode=";" horiz-adv-x="230" 
d="M47 443q0 32 20 51.5t54 19.5t54 -19.5t20 -51.5t-20 -51.5t-54 -19.5t-54 19.5t-20 51.5zM96 -114h-81l39 241h129z" />
    <glyph glyph-name="less" unicode="&#x3c;" 
d="M70 362l270 120v-120l-145 -50l145 -50v-120l-270 120v100z" />
    <glyph glyph-name="equal" unicode="=" 
d="M76 433h270v-110h-270v110zM76 281h270v-110h-270v110z" />
    <glyph glyph-name="greater" unicode="&#x3e;" 
d="M351 262l-270 -120v120l145 50l-145 50v120l270 -120v-100z" />
    <glyph glyph-name="question" unicode="?" horiz-adv-x="413" 
d="M42 470v62q0 61 42 102t126 41q80 0 120.5 -34.5t40.5 -94.5v-59q0 -19 -2.5 -35.5t-10 -32.5t-21 -33.5t-35.5 -38.5q-17 -16 -26.5 -28.5t-14.5 -26.5t-6 -32.5t-1 -45.5v-23h-129v29q0 34 2 58t8.5 43.5t19.5 37.5t35 39q18 16 28 28.5t15 24t6.5 22t1.5 24.5v35
q0 18 -8.5 25.5t-25.5 7.5t-26.5 -10.5t-9.5 -30.5v-54h-129zM119 66q0 32 20 51.5t54 19.5t54 -19.5t20 -51.5t-20 -51.5t-54 -19.5t-54 19.5t-20 51.5z" />
    <glyph glyph-name="at" unicode="@" horiz-adv-x="769" 
d="M382 209q-18 0 -25.5 -10.5t-7.5 -30.5q0 -43 30 -43q12 0 22 6.5t13 22.5v43q-6 5 -15 8.5t-17 3.5zM396 -130h-20q-168 0 -247 71.5t-79 208.5v182q0 57 18 111.5t58 97t105 68.5t158 26t156.5 -27t102 -70t55 -97t16.5 -109v-132q0 -78 -42.5 -119t-115.5 -41
q-33 0 -60 10t-52 35q-34 -45 -101 -45q-57 0 -89.5 28t-32.5 95q0 36 8.5 60.5t23 39t33.5 20.5t40 6q33 0 51 -7.5t32 -20.5v52q0 28 -5.5 42.5t-26.5 14.5q-33 0 -33 -42v-9h-113v8q0 24 7.5 49.5t24.5 46t45.5 33.5t70.5 13q31 0 58 -8t47 -25.5t31.5 -45t11.5 -65.5
v-142q0 -32 10.5 -42.5t30.5 -10.5q21 0 32 12t11 40v151q0 42 -12 80.5t-39 67.5t-71.5 46.5t-109.5 17.5q-63 0 -107 -17.5t-71.5 -46.5t-40 -67.5t-12.5 -80.5v-175q0 -45 12.5 -82t39.5 -62.5t69.5 -39.5t102.5 -14h19v-90z" />
    <glyph glyph-name="A" unicode="A" horiz-adv-x="441" 
d="M11 0l135 665h151l132 -665h-134l-20 100h-117l-20 -100h-127zM171 210h91l-44 250h-4z" />
    <glyph glyph-name="B" unicode="B" horiz-adv-x="431" 
d="M395 177q0 -87 -43 -132t-130 -45h-172v665h158q84 0 130 -40t46 -127v-25q0 -35 -12.5 -62t-31.5 -46q32 -26 43.5 -59t11.5 -71v-58zM266 242q0 10 -2 20.5t-6.5 19.5t-12.5 14.5t-19 5.5h-47v-192h43q25 0 34.5 19t9.5 40v73zM255 509q0 26 -11 34t-36 8h-29v-144h29
q23 0 35 8.5t12 37.5v56z" />
    <glyph glyph-name="C" unicode="C" horiz-adv-x="413" 
d="M255 452v34q0 30 -9 54.5t-33 24.5q-12 0 -20 -7t-13 -18.5t-7 -25.5t-2 -28v-306q0 -38 9.5 -58.5t32.5 -20.5q24 0 33 21.5t9 57.5v33h129v-14q0 -106 -44 -157.5t-127 -51.5q-87 0 -129 51t-42 146v291q0 95 42 146t129 51q171 0 171 -211v-12h-129z" />
    <glyph glyph-name="D" unicode="D" horiz-adv-x="442" 
d="M400 177q0 -87 -43 -132t-130 -45h-177v665h177q87 0 130 -45t43 -132v-311zM271 496q0 21 -9.5 38t-34.5 17h-48v-441h48q25 0 34.5 19t9.5 40v327z" />
    <glyph glyph-name="E" unicode="E" horiz-adv-x="372" 
d="M346 551h-167v-141h136v-110h-136v-190h167v-110h-296v665h296v-114z" />
    <glyph glyph-name="F" unicode="F" horiz-adv-x="371" 
d="M50 0v665h296v-114h-167v-141h136v-110h-136v-300h-129z" />
    <glyph glyph-name="G" unicode="G" horiz-adv-x="430" 
d="M216 279v110h175v-202q0 -95 -44.5 -146t-131.5 -51t-131.5 51t-44.5 146v291q0 95 44 146t131 51q177 0 177 -206v-17h-129v33q0 30 -10.5 55t-36.5 25t-36.5 -25t-10.5 -55v-304q0 -37 10 -58.5t36 -21.5t37 21t11 59v98h-46z" />
    <glyph glyph-name="H" unicode="H" horiz-adv-x="457" 
d="M278 0v292h-99v-292h-129v665h129v-263h99v263h129v-665h-129z" />
    <glyph glyph-name="I" unicode="I" horiz-adv-x="229" 
d="M50 0v665h129v-665h-129z" />
    <glyph glyph-name="J" unicode="J" horiz-adv-x="288" 
d="M26 99q25 1 42 7.5t27.5 17.5t14.5 25.5t4 30.5v485h129v-478q0 -187 -217 -199v111z" />
    <glyph glyph-name="K" unicode="K" horiz-adv-x="452" 
d="M286 385l155 -385h-136l-106 271l-20 -37v-234h-129v665h129v-256l120 256h136z" />
    <glyph glyph-name="L" unicode="L" horiz-adv-x="385" 
d="M179 665v-555h187v-110h-316v665h129z" />
    <glyph glyph-name="M" unicode="M" horiz-adv-x="562" 
d="M50 0v665h140l94 -340h5l93 340h130v-665h-110v368h-5l-80 -251h-66l-86 251h-5v-368h-110z" />
    <glyph glyph-name="N" unicode="N" horiz-adv-x="465" 
d="M415 0h-128l-129 390h-4v-390h-104v665h128l129 -415h4v415h104v-665z" />
    <glyph glyph-name="O" unicode="O" 
d="M381 187q0 -95 -42.5 -146t-129.5 -51t-128.5 51t-41.5 146v291q0 95 42 146t129 51t129 -51t42 -146v-291zM252 485q0 30 -8.5 55t-34.5 25q-14 0 -22 -7t-12 -18t-5.5 -25.5t-1.5 -29.5v-304q0 -15 1.5 -29.5t5.5 -25.5t12 -18t22 -7q26 0 34.5 25t8.5 55v304z" />
    <glyph glyph-name="P" unicode="P" horiz-adv-x="427" 
d="M391 420q0 -175 -173 -175h-39v-245h-129v665h168q87 0 130 -45t43 -132v-68zM261 495q0 29 -11.5 42.5t-37.5 13.5h-33v-196h33q27 0 38 15.5t11 44.5v80z" />
    <glyph glyph-name="Q" unicode="Q" 
d="M381 187q0 -139 -99 -182q11 -17 35.5 -26t63.5 -9v-110q-110 0 -165 37.5t-69 102.5q-56 17 -82 64.5t-26 122.5v291q0 95 41.5 146t128.5 51t129.5 -51t42.5 -146v-291zM252 485q0 15 -1.5 29.5t-6 25.5t-13 18t-21.5 7q-14 0 -22 -7t-12.5 -18t-6 -25.5t-1.5 -29.5
v-304q0 -15 1.5 -29.5t5.5 -25.5t12 -18t22 -7q26 0 34.5 25t8.5 55v304z" />
    <glyph glyph-name="R" unicode="R" horiz-adv-x="439" 
d="M395 460q0 -51 -20.5 -89.5t-53.5 -60.5l104 -310h-135l-76 274h-35v-274h-129v665h172q87 0 130 -45t43 -132v-28zM266 495q0 56 -53 56h-34v-167h33q28 0 41 12.5t13 47.5v51z" />
    <glyph glyph-name="S" unicode="S" horiz-adv-x="400" 
d="M29 511q0 31 10 61t31 52.5t53 36.5t77 14q81 0 126 -41.5t45 -140.5v-41h-129v53q0 23 -8 41.5t-34 18.5q-24 0 -31.5 -18.5t-7.5 -41.5v-19q0 -21 13.5 -41t49.5 -43q28 -18 55 -38.5t47 -44t32.5 -52t12.5 -62.5v-51q0 -30 -9.5 -59t-30.5 -52.5t-53.5 -38
t-77.5 -14.5q-90 0 -130.5 51t-40.5 135v37h132v-53q0 -23 6.5 -41.5t32.5 -18.5q24 0 33 18.5t9 41.5v26q0 35 -23.5 59.5t-55.5 44.5q-59 38 -96.5 79.5t-37.5 97.5v44z" />
    <glyph glyph-name="T" unicode="T" horiz-adv-x="398" 
d="M132 0v551h-118v114h369v-114h-122v-551h-129z" />
    <glyph glyph-name="U" unicode="U" horiz-adv-x="435" 
d="M390 665v-478q0 -95 -43 -146t-130 -51t-129.5 51t-42.5 146v478h129v-485q0 -14 2.5 -28t7.5 -25.5t13 -18.5t20 -7t20.5 7t14 18t7.5 25.5t2 28.5v485h129z" />
    <glyph glyph-name="V" unicode="V" horiz-adv-x="425" 
d="M294 0h-163l-115 665h129l64 -460h5l65 460h129z" />
    <glyph glyph-name="W" unicode="W" horiz-adv-x="591" 
d="M339 665l66 -421h5l35 421h129l-93 -665h-125l-63 340h-5l-63 -340h-117l-92 665h129l34 -421h5l65 421h90z" />
    <glyph glyph-name="X" unicode="X" horiz-adv-x="441" 
d="M425 0h-134l-74 229h-5l-63 -229h-132l121 340l-122 325h133l71 -231h5l65 231h132l-127 -328z" />
    <glyph glyph-name="Y" unicode="Y" horiz-adv-x="444" 
d="M286 190v-190h-129v191l-141 474h134l69 -298h5l70 298h134z" />
    <glyph glyph-name="Z" unicode="Z" horiz-adv-x="375" 
d="M27 551v114h326v-130l-210 -425h204v-110h-325v130l210 421h-205z" />
    <glyph glyph-name="bracketleft" unicode="[" horiz-adv-x="314" 
d="M54 795h227v-110h-98v-695h98v-110h-227v915z" />
    <glyph glyph-name="backslash" unicode="\" horiz-adv-x="371" 
d="M2 710h113l254 -799h-113z" />
    <glyph glyph-name="bracketright" unicode="]" horiz-adv-x="314" 
d="M260 -120h-227v110h98v695h-98v110h227v-915z" />
    <glyph glyph-name="asciicircum" unicode="^" 
d="M262 460l108 -250h-127l-33 104l-33 -104h-127l108 250h104z" />
    <glyph glyph-name="underscore" unicode="_" horiz-adv-x="425" 
d="M31 -10h363v-110h-363v110z" />
    <glyph glyph-name="grave" unicode="`" horiz-adv-x="437" 
d="M257 695l47 -141h-105l-72 141h130z" />
    <glyph glyph-name="a" unicode="a" horiz-adv-x="414" 
d="M45 351v17q0 36 8.5 65.5t26.5 51t47 33.5t70 12q87 0 124.5 -41.5t37.5 -128.5v-234q0 -14 7.5 -20t26.5 -6v-110q-31 0 -53.5 2.5t-38.5 9.5t-27.5 19t-20.5 31q-14 -29 -37.5 -45.5t-59.5 -16.5q-54 0 -88.5 36t-34.5 112v38q0 29 7 54.5t22 44t38 29t54 10.5
q25 0 43.5 -5t32.5 -13v81q0 26 -7 39.5t-27 13.5q-17 0 -25.5 -13t-8.5 -48v-18h-117zM230 225q-12 4 -27 4q-23 0 -32 -12.5t-9 -41.5v-34q0 -29 8.5 -40t28.5 -11q9 0 17 3t14 11v121z" />
    <glyph glyph-name="b" unicode="b" horiz-adv-x="415" 
d="M179 97q4 -2 11 -4.5t18 -2.5q20 0 29.5 13t9.5 47v237q0 21 -7 32t-27 11q-11 0 -19.5 -2.5t-14.5 -5.5v-325zM133 0h-83v710h115l14 -95v-111q16 12 36 19t48 7q25 0 45.5 -8.5t35.5 -26.5t23.5 -47t8.5 -70v-216q0 -83 -36 -127.5t-96 -44.5q-38 0 -62.5 13.5
t-38.5 36.5z" />
    <glyph glyph-name="c" unicode="c" horiz-adv-x="394" 
d="M237 302v55q0 38 -7.5 55.5t-27.5 17.5t-27 -17.5t-7 -55.5v-194q0 -38 7 -55.5t27 -17.5t27.5 17.5t7.5 55.5v55h123v-36q0 -92 -36.5 -142t-122.5 -50q-85 0 -123.5 50t-38.5 142v156q0 92 38.5 142t123.5 50q86 0 122.5 -50.5t36.5 -141.5v-36h-123z" />
    <glyph glyph-name="d" unicode="d" horiz-adv-x="420" 
d="M236 421q-5 4 -12.5 6.5t-16.5 2.5q-22 0 -30.5 -14.5t-8.5 -47.5v-211q0 -37 8 -52t28 -15q21 0 32 14v317zM365 132q0 -17 7.5 -24.5t26.5 -7.5v-110q-31 0 -53.5 2.5t-38.5 9.5t-27.5 19t-20.5 31q-14 -29 -37.5 -45.5t-65.5 -16.5q-55 0 -86 40.5t-31 127.5v200
q0 93 32.5 132.5t85.5 39.5q51 0 79 -26v206h116l13 -95v-483z" />
    <glyph glyph-name="e" unicode="e" horiz-adv-x="404" 
d="M168 309h68v48q0 38 -7 55.5t-27 17.5t-27 -17.5t-7 -55.5v-48zM237 175h128v-9q0 -80 -39.5 -128t-124.5 -48q-90 0 -126 50t-36 142v156q0 92 38.5 142t123.5 50q87 0 125.5 -50t38.5 -142v-124h-197v-51q0 -38 7 -55.5t27 -17.5t27.5 17.5t7.5 55.5v12z" />
    <glyph glyph-name="f" unicode="f" horiz-adv-x="298" 
d="M182 420v-420h-132v514q0 89 41.5 142.5t123.5 53.5q54 0 84 -14.5t52 -35.5l-77 -70q-7 7 -17.5 13.5t-24.5 6.5t-23.5 -6.5t-15.5 -17t-8.5 -23.5t-2.5 -27v-16h103v-100h-103z" />
    <glyph glyph-name="g" unicode="g" horiz-adv-x="412" 
d="M236 418q-10 12 -29 12q-21 0 -30 -17.5t-9 -55.5v-194q0 -38 7.5 -55.5t28.5 -17.5q20 0 32 17v311zM169 -40v-9q0 -33 8 -47t25 -14q20 0 27 13t7 40v97q-11 -23 -32 -36.5t-59 -13.5q-26 0 -45.5 9t-33 31.5t-20.5 59t-7 92.5v156q0 92 35 142t99 50q42 0 63.5 -14
t35.5 -36l10 40h83v-549q0 -84 -41 -132.5t-122 -48.5t-121.5 37.5t-40.5 118.5v14h129z" />
    <glyph glyph-name="h" unicode="h" horiz-adv-x="422" 
d="M179 504q17 11 38 18.5t51 7.5q59 0 83.5 -39.5t24.5 -122.5v-368h-118l-11 95v282q0 26 -6.5 39.5t-26.5 13.5q-14 0 -22 -3t-13 -7v-420h-129v710h115l14 -95v-111z" />
    <glyph glyph-name="i" unicode="i" horiz-adv-x="225" 
d="M50 520h115l14 -95v-425h-129v520zM114 686q32 0 50.5 -19.5t18.5 -48.5t-18.5 -48.5t-50.5 -19.5t-51.5 19.5t-19.5 48.5t19.5 48.5t51.5 19.5z" />
    <glyph glyph-name="j" unicode="j" horiz-adv-x="229" 
d="M165 520l14 -95v-443q0 -57 -13.5 -94.5t-38 -59t-59 -30t-75.5 -8.5v110q34 0 45.5 15.5t11.5 57.5v547h115zM114 686q32 0 50.5 -19.5t18.5 -48.5t-18.5 -48.5t-50.5 -19.5t-51.5 19.5t-19.5 48.5t19.5 48.5t51.5 19.5z" />
    <glyph glyph-name="k" unicode="k" horiz-adv-x="414" 
d="M291 336l102 -336h-129l-60 229l-25 -40v-189h-129v710h115l14 -95v-285l93 190h127z" />
    <glyph glyph-name="l" unicode="l" horiz-adv-x="226" 
d="M179 615v-615h-118l-11 95v615h115z" />
    <glyph glyph-name="m" unicode="m" horiz-adv-x="618" 
d="M375 0h-129v377q0 26 -6 39.5t-26 13.5q-14 0 -22 -3t-13 -7v-420h-129v520h84l9 -40q15 23 41.5 36.5t58.5 13.5q38 0 61 -15.5t37 -42.5q13 23 41 40.5t69 17.5q59 0 90 -39.5t31 -122.5v-368h-119l-11 95v282q0 26 -6 39.5t-26 13.5q-14 0 -22 -3t-13 -7v-420z" />
    <glyph glyph-name="n" unicode="n" horiz-adv-x="422" 
d="M143 480q14 19 41 34.5t69 15.5q62 0 92.5 -39.5t30.5 -122.5v-368h-118l-11 95v282q0 26 -6.5 39.5t-26.5 13.5q-14 0 -22 -3t-13 -7v-420h-129v520h84z" />
    <glyph glyph-name="o" unicode="o" horiz-adv-x="405" 
d="M365 180q0 -92 -38.5 -141t-125.5 -49q-85 0 -123.5 49t-38.5 141v160q0 92 38.5 141t123.5 49q87 0 125.5 -49t38.5 -141v-160zM236 357q0 38 -7 55.5t-27 17.5t-27 -17.5t-7 -55.5v-194q0 -38 7 -55.5t27 -17.5t27 17.5t7 55.5v194z" />
    <glyph glyph-name="p" unicode="p" horiz-adv-x="412" 
d="M47 520h84l9 -40q15 21 40.5 35.5t62.5 14.5q63 0 96.5 -44t33.5 -138v-166q0 -92 -30 -142t-90 -50q-27 0 -45 7.5t-32 18.5v-131l-14 -95h-115v730zM176 95q8 -5 27 -5q23 0 32 17.5t9 55.5v196q0 35 -6.5 53t-29.5 18q-11 0 -19 -3.5t-13 -7.5v-324z" />
    <glyph glyph-name="q" unicode="q" horiz-adv-x="412" 
d="M236 419q-11 11 -29 11q-21 0 -30 -17.5t-9 -55.5v-194q0 -38 6.5 -55.5t27.5 -17.5q23 0 34 15v314zM236 16q-13 -11 -32 -18.5t-47 -7.5q-58 0 -88 44t-30 148v156q0 92 35 142t99 50q39 0 61.5 -14t37.5 -36l10 40h83v-730h-118l-11 95v131z" />
    <glyph glyph-name="r" unicode="r" horiz-adv-x="310" 
d="M50 520h84l10 -40q20 23 45 36.5t59 13.5q35 0 55 -12l-29 -109q-8 5 -17.5 6.5t-18.5 1.5q-19 0 -33.5 -6t-25.5 -16v-395h-129v520z" />
    <glyph glyph-name="s" unicode="s" horiz-adv-x="375" 
d="M154 169v-12q0 -33 6 -50t28 -17q37 0 37 48q0 12 -4 22t-14 20.5t-27.5 22.5t-44.5 27q-56 30 -82.5 66t-26.5 91q0 25 9 50.5t28.5 46t50 33.5t72.5 13q78 0 118 -42.5t40 -120.5v-10h-124v22q0 24 -6.5 37.5t-27.5 13.5q-19 0 -26.5 -11t-7.5 -30q0 -31 24 -49t71 -40
q58 -29 80 -68t22 -83q0 -26 -9 -54.5t-28 -51.5t-49 -38t-72 -15q-83 0 -122 43.5t-39 126.5v9h124z" />
    <glyph glyph-name="t" unicode="t" horiz-adv-x="305" 
d="M297 14q-22 -12 -42.5 -18t-49.5 -6q-86 0 -123 44.5t-37 127.5v458h115l14 -90v-10h104v-100h-104v-264q0 -20 8 -38t37 -18q25 0 48 13z" />
    <glyph glyph-name="u" unicode="u" horiz-adv-x="424" 
d="M44 520h129v-374q0 -28 7 -42t27 -14q25 0 34 14v416h129v-390q0 -12 7 -21t27 -9v-110q-31 0 -53.5 2.5t-38.5 9.5t-27.5 19t-20.5 31q-14 -29 -40.5 -45.5t-68.5 -16.5q-54 0 -82.5 34t-28.5 115v381z" />
    <glyph glyph-name="v" unicode="v" horiz-adv-x="395" 
d="M267 0h-139l-109 520h129l47 -383h5l47 383h129z" />
    <glyph glyph-name="w" unicode="w" horiz-adv-x="590" 
d="M244 520h101l52 -283h5l40 283h129l-91 -520h-121l-62 261h-7l-61 -261h-120l-90 520h129l36 -283h4z" />
    <glyph glyph-name="x" unicode="x" horiz-adv-x="387" 
d="M144 520l48 -151h5l45 151h129l-109 -261l107 -259h-129l-54 144h-5l-36 -144h-129l99 280l-100 240h129z" />
    <glyph glyph-name="y" unicode="y" horiz-adv-x="388" 
d="M20 520h129l46 -309h4l43 309h129l-129 -565q-8 -32 -24 -62t-43 -53t-65 -36.5t-89 -13.5v110q33 0 64.5 16t41.5 52l7 28z" />
    <glyph glyph-name="z" unicode="z" horiz-adv-x="321" 
d="M32 410v110h263v-120l-151 -290h146v-110h-264v120l151 290h-145z" />
    <glyph glyph-name="braceleft" unicode="{" horiz-adv-x="384" 
d="M109 228q0 30 -15.5 40t-53.5 10h-11v110h11q38 0 53.5 10t15.5 40v162q0 102 61.5 148.5t171.5 46.5h17v-110h-17q-54 0 -79 -28t-25 -94v-140q0 -41 -19 -62.5t-52 -21.5h-17v-12h17q33 0 52 -22.5t19 -61.5v-151q0 -33 6 -53t19 -31t32.5 -14.5t46.5 -3.5h17v-110h-17
q-110 0 -171.5 42.5t-61.5 132.5v173z" />
    <glyph glyph-name="bar" unicode="|" horiz-adv-x="317" 
d="M94 -120v915h129v-915h-129z" />
    <glyph glyph-name="braceright" unicode="}" horiz-adv-x="384" 
d="M275 438q0 -30 15.5 -40t53.5 -10h11v-110h-11q-38 0 -53.5 -10t-15.5 -40v-173q0 -90 -62 -132.5t-171 -42.5h-17v110h17q27 0 46.5 3.5t32 14.5t19 31t6.5 53v151q0 41 18.5 62.5t51.5 21.5h17v12h-17q-33 0 -51.5 22.5t-18.5 61.5v140q0 66 -25 94t-79 28h-17v110h17
q109 0 171 -46.5t62 -148.5v-162z" />
    <glyph glyph-name="asciitilde" unicode="~" horiz-adv-x="420" 
d="M365 395q0 -80 -21.5 -117t-63.5 -37q-31 0 -58 13q-13 6 -24.5 13t-22.5 7q-9 0 -14.5 -9.5t-5.5 -23.5h-100q0 40 7.5 69t20.5 48t29.5 28t33.5 9q14 0 25.5 -3t26.5 -11q9 -5 23.5 -13.5t25.5 -8.5q8 0 13 8t5 28h100z" />
    <glyph glyph-name="uni00A0" unicode="&#xa0;" horiz-adv-x="150" 
 />
    <glyph glyph-name="exclamdown" unicode="&#xa1;" horiz-adv-x="279" 
d="M71 -140v474h120l11 -95v-379h-131zM212 459q0 -32 -20 -51.5t-54 -19.5t-54 19.5t-20 51.5t20 51.5t54 19.5t54 -19.5t20 -51.5z" />
    <glyph glyph-name="cent" unicode="&#xa2;" horiz-adv-x="385" 
d="M129 -65v67q-51 17 -73 57.5t-22 102.5v196q0 61 22 101.5t73 57.5v68h129v-65q52 -17 74.5 -58t22.5 -104v-56h-123v25q0 52 -5.5 77.5t-29.5 25.5q-20 0 -27 -12.5t-7 -40.5v-234q0 -28 7 -40.5t27 -12.5q25 0 30 25t5 78v25h123v-56q0 -64 -22.5 -105.5t-74.5 -56.5
v-65h-129z" />
    <glyph glyph-name="sterling" unicode="&#xa3;" horiz-adv-x="462" 
d="M39 336h50v157q0 88 42 135t129 47q85 0 128 -46.5t43 -154.5v-22h-129v54q0 25 -9 42t-33 17q-23 0 -32.5 -18t-9.5 -41v-170h126v-110h-126v-116h214v-110h-393v110h50v116h-50v110z" />
    <glyph glyph-name="currency" unicode="&#xa4;" horiz-adv-x="439" 
d="M382 290q0 -46 -7.5 -79.5t-28.5 -58.5l58 -117h-116l-35 66q-8 -1 -17 -1h-18h-17.5t-16.5 1l-34 -66h-116l56 117q-9 10 -15 20t-10.5 21t-6.5 24.5t-2 32.5v60q0 46 7 79t28 59l-57 117h115l35 -67q8 1 16.5 1.5t17.5 0.5q10 0 19 -0.5t17 -1.5l34 67h116l-58 -118
q36 -42 36 -117v-40zM253 309q0 48 -5.5 69.5t-28.5 21.5t-28.5 -21.5t-5.5 -69.5v-18q0 -48 5 -69.5t29 -21.5q20 0 27 12.5t7 40.5v56z" />
    <glyph glyph-name="yen" unicode="&#xa5;" horiz-adv-x="471" 
d="M65 340h84l-119 325h133l70 -258h4l71 258h133l-125 -325h89v-80h-105v-31l105 1v-80h-105v-150h-130v150h-105v80h105v30h-105v80z" />
    <glyph glyph-name="brokenbar" unicode="&#xa6;" horiz-adv-x="317" 
d="M223 395h-129v400h129v-400zM223 280v-400h-129v400h129z" />
    <glyph glyph-name="section" unicode="&#xa7;" horiz-adv-x="398" 
d="M156 391q-14 -6 -14 -17q0 -14 21.5 -33.5t59.5 -37.5l17 -8q5 5 8.5 8t3.5 11q0 13 -20 33t-62 38zM76 460q-16 17 -28 37t-12 55q0 26 9 51.5t28.5 46t49 33t70.5 12.5q84 0 125 -43.5t41 -126.5v-9h-126v12q0 33 -7.5 49.5t-27.5 17.5t-28.5 -10.5t-8.5 -28.5
q0 -15 4.5 -25.5t16 -21t30 -21.5t46.5 -27q58 -32 81 -66t23 -76q0 -31 -11.5 -54.5t-28.5 -40.5q20 -24 28.5 -47.5t8.5 -47.5q0 -28 -10.5 -53.5t-30 -44.5t-48 -30t-65.5 -11q-84 0 -125 43.5t-41 126.5v9h126v-12q0 -33 6.5 -50t28.5 -17q19 0 27.5 11t8.5 28
q0 13 -4.5 23.5t-15 21t-29 22t-46.5 27.5q-55 31 -80 66t-25 81q0 32 10.5 51.5t29.5 38.5z" />
    <glyph glyph-name="dieresis" unicode="&#xa8;" horiz-adv-x="427" 
d="M135 688q30 0 48 -18.5t18 -46.5q0 -27 -18 -45.5t-48 -18.5q-29 0 -48 18.5t-19 45.5q0 28 19 46.5t48 18.5zM293 688q30 0 48 -18.5t18 -46.5q0 -27 -18 -45.5t-48 -18.5q-29 0 -48 18.5t-19 45.5q0 28 19 46.5t48 18.5z" />
    <glyph glyph-name="copyright" unicode="&#xa9;" horiz-adv-x="738" 
d="M688 246q0 -68 -18 -122t-57 -91.5t-99.5 -57.5t-145.5 -20t-145 20t-98.5 57.5t-56.5 92t-18 122.5v158q0 57 16.5 112t54 98t98 69t149.5 26t150.5 -27t99 -70.5t54 -98t16.5 -109.5v-159zM585 408q0 37 -11.5 75t-37 68.5t-67 49.5t-101.5 19t-101.5 -17.5t-66.5 -47
t-36 -66.5t-11 -76v-165q0 -45 12 -82.5t37.5 -64.5t66.5 -41.5t99 -14.5t99.5 14.5t67.5 41.5t38 64t12 82v161zM404 366v50q0 26 -7.5 39.5t-26.5 13.5q-35 0 -35 -53v-168q0 -53 35 -53q19 0 26.5 13.5t7.5 39.5v50h109v-33q0 -75 -32.5 -118.5t-111.5 -43.5t-111.5 43.5
t-32.5 118.5v134q0 75 32 118.5t111 43.5t112 -43.5t33 -118.5v-33h-109z" />
    <glyph glyph-name="ordfeminine" unicode="&#xaa;" horiz-adv-x="273" 
d="M30 566v10q0 44 22.5 71.5t76.5 27.5q107 0 107 -103v-133q0 -9 4 -14.5t17 -5.5v-69q-41 0 -61 7t-33 30q-19 -37 -65 -37q-32 0 -54 21.5t-22 68.5v22q0 36 18.5 60t58.5 24q16 0 27.5 -3t20.5 -8v48q0 29 -19 29q-8 0 -13 -7t-5 -28v-11h-80zM147 489q-8 3 -14 3
q-12 0 -17.5 -6.5t-5.5 -23.5v-21q0 -28 20 -28q9 0 17 6v70z" />
    <glyph glyph-name="guillemotleft" unicode="&#xab;" horiz-adv-x="517" 
d="M193 493l85 -83l-127 -117l127 -117l-85 -83l-153 145v110zM406 493l85 -83l-127 -117l127 -117l-85 -83l-153 145v110z" />
    <glyph glyph-name="logicalnot" unicode="&#xac;" 
d="M76 386h270v-192h-110v82h-160v110z" />
    <glyph glyph-name="uni00AD" unicode="&#xad;" horiz-adv-x="308" 
 />
    <glyph glyph-name="registered" unicode="&#xae;" horiz-adv-x="606" 
d="M564 395q0 -53 -14 -99t-45.5 -80t-81 -54t-120.5 -20t-120.5 20t-81 54.5t-45.5 80.5t-14 98v67q0 53 14 99t45.5 80t81 53.5t120.5 19.5t120.5 -19.5t81 -53.5t45.5 -80t14 -99v-67zM467 462q0 49 -11 82t-32 52t-51.5 27t-69.5 8t-69.5 -8t-51.5 -27t-32 -51.5
t-11 -81.5v-69q0 -49 11 -81.5t32 -52t51.5 -27.5t69.5 -8t69.5 8t51.5 27.5t32 52t11 81.5v68zM402 483q0 -46 -31 -66l44 -134h-79l-33 120h-13v-120h-78v298h95q45 0 70 -24.5t25 -62.5v-11zM326 492q0 27 -24 27h-12v-69h12q13 0 18.5 5t5.5 21v16z" />
    <glyph glyph-name="macron" unicode="&#xaf;" horiz-adv-x="437" 
d="M97 675h242v-100h-242v100z" />
    <glyph glyph-name="degree" unicode="&#xb0;" horiz-adv-x="303" 
d="M118 628q0 -31 34 -31t34 31t-34 31t-34 -31zM30 628q0 50 33 81t89 31q57 0 89.5 -31t32.5 -81t-32.5 -81t-89.5 -31q-56 0 -89 31t-33 81z" />
    <glyph glyph-name="plusminus" unicode="&#xb1;" 
d="M76 386h80v50h110v-50h80v-110h-80v-50h-110v50h-80v110zM76 204h270v-110h-270v110z" />
    <glyph glyph-name="twosuperior" unicode="&#xb2;" horiz-adv-x="320" 
d="M25 541v13q0 24 7 46t23.5 38.5t43.5 26.5t66 10q70 0 100 -28t30 -71v-10q0 -26 -16.5 -60t-59.5 -77l-70 -69h146v-90h-260v98l60 57q48 47 70 76t22 52v4q0 28 -26 28q-16 0 -22 -10t-6 -24v-10h-108z" />
    <glyph glyph-name="threesuperior" unicode="&#xb3;" horiz-adv-x="321" 
d="M186 561q0 24 -27 24t-27 -30v-4h-108v7q0 53 34 85t106 32q35 0 60 -8.5t40.5 -22.5t22.5 -31.5t7 -35.5v-13q0 -27 -14 -48t-37 -31v-4q51 -23 51 -79v-23q0 -50 -33 -82.5t-101 -32.5t-102 30.5t-34 81.5v20h108v-10q0 -15 6 -23.5t21 -8.5q16 0 21.5 9t5.5 24v10
q0 20 -10.5 28t-33.5 8h-36v86h30q28 0 39 9t11 28v5z" />
    <glyph glyph-name="acute" unicode="&#xb4;" horiz-adv-x="437" 
d="M332 695l-72 -141h-106l48 141h130z" />
    <glyph glyph-name="mu" unicode="&#xb5;" horiz-adv-x="428" 
d="M177 520v-377q0 -28 7.5 -40.5t25.5 -12.5q26 0 35 14v416h129v-387q0 -17 6.5 -25t26.5 -8v-110q-41 0 -64.5 7t-36.5 34q-24 -41 -77 -41q-15 0 -29.5 4.5t-20.5 10.5v-120l-14 -95h-115v730h127z" />
    <glyph glyph-name="paragraph" unicode="&#xb6;" horiz-adv-x="471" 
d="M292 0v665h129v-665h-129zM239 0h-25v357h-34q-68 0 -95.5 38.5t-27.5 112.5v6q0 74 27.5 112.5t95.5 38.5h59v-665z" />
    <glyph glyph-name="periodcentered" unicode="&#xb7;" horiz-adv-x="258" 
d="M135 416q32 0 50.5 -19.5t18.5 -48.5t-18.5 -48.5t-50.5 -19.5t-51.5 19.5t-19.5 48.5t19.5 48.5t51.5 19.5z" />
    <glyph glyph-name="cedilla" unicode="&#xb8;" horiz-adv-x="437" 
d="M175 0h67v-28h7q19 0 36.5 -4.5t30.5 -15t20.5 -27t7.5 -41.5q0 -51 -30 -77.5t-83 -26.5q-52 0 -79 24.5t-27 71.5v2h77v-2q0 -11 7.5 -19.5t21.5 -8.5q29 0 29 33q0 20 -12 26.5t-38 6.5h-35v86z" />
    <glyph glyph-name="onesuperior" unicode="&#xb9;" horiz-adv-x="320" 
d="M154 270v287l-75 -48l-59 81l119 79h123v-399h-108z" />
    <glyph glyph-name="ordmasculine" unicode="&#xba;" horiz-adv-x="258" 
d="M236 457q0 -51 -25.5 -79t-82.5 -28t-81.5 28t-24.5 79v110q0 51 24.5 79.5t81.5 28.5t82.5 -28.5t25.5 -79.5v-110zM147 583q0 29 -19 29q-18 0 -18 -29v-141q0 -29 18 -29q19 0 19 29v141z" />
    <glyph glyph-name="guillemotright" unicode="&#xbb;" horiz-adv-x="517" 
d="M110 93l-85 83l127 117l-127 117l85 83l153 -145v-110zM323 93l-85 83l127 117l-127 117l85 83l153 -145v-110z" />
    <glyph glyph-name="onequarter" unicode="&#xbc;" horiz-adv-x="801" 
d="M154 270v287l-75 -48l-59 81l119 79h123v-399h-108zM300 0h-108l347 665h108zM676 61h-173v109l115 229h107l-121 -248h72v57h98v-208h-98v61z" />
    <glyph glyph-name="onehalf" unicode="&#xbd;" horiz-adv-x="801" 
d="M154 270v287l-75 -48l-59 81l119 79h123v-399h-108zM279 0h-108l347 665h108zM505 271v13q0 24 7 46t23.5 38.5t43.5 26.5t66 10q70 0 100 -28t30 -71v-10q0 -26 -16.5 -60t-59.5 -77l-70 -69h146v-90h-260v98l60 57q48 47 70 76t22 52v4q0 28 -26 28q-16 0 -22 -10
t-6 -24v-10h-108z" />
    <glyph glyph-name="threequarters" unicode="&#xbe;" horiz-adv-x="801" 
d="M186 561q0 24 -27 24t-27 -30v-4h-108v7q0 53 34 85t106 32q35 0 60 -8.5t40.5 -22.5t22.5 -31.5t7 -35.5v-13q0 -27 -14 -48t-37 -31v-4q51 -23 51 -79v-23q0 -50 -33 -82.5t-101 -32.5t-102 30.5t-34 81.5v20h108v-10q0 -15 6 -23.5t21 -8.5q16 0 21.5 9t5.5 24v10
q0 20 -10.5 28t-33.5 8h-36v86h30q28 0 39 9t11 28v5zM300 0h-108l347 665h108zM676 61h-173v109l115 229h107l-121 -248h72v57h98v-208h-98v61z" />
    <glyph glyph-name="questiondown" unicode="&#xbf;" horiz-adv-x="412" 
d="M371 55v-62q0 -61 -42 -102t-126 -41q-80 0 -120.5 34.5t-40.5 94.5v59q0 19 2.5 35.5t10 32.5t21 33.5t35.5 38.5q17 16 26.5 28.5t14.5 26.5t6 32.5t1 45.5v23h129v-29q0 -34 -2 -58t-8.5 -43.5t-19.5 -37.5t-35 -39q-18 -17 -28 -29t-15 -23.5t-6.5 -22.5t-1.5 -24
v-35q0 -18 8.5 -25.5t25.5 -7.5t26.5 10.5t9.5 30.5v54h129zM294 459q0 -32 -20 -51.5t-54 -19.5t-54 19.5t-20 51.5t20 51.5t54 19.5t54 -19.5t20 -51.5z" />
    <glyph glyph-name="Agrave" unicode="&#xc0;" horiz-adv-x="440" 
d="M11 0l135 665h151l132 -665h-134l-20 100h-117l-20 -100h-127zM171 210h91l-44 250h-4zM259 850l47 -141h-105l-72 141h130z" />
    <glyph glyph-name="Aacute" unicode="&#xc1;" horiz-adv-x="441" 
d="M11 0l135 665h151l132 -665h-134l-20 100h-117l-20 -100h-127zM171 210h91l-44 250h-4zM324 850l-72 -141h-106l48 141h130z" />
    <glyph glyph-name="Acircumflex" unicode="&#xc2;" horiz-adv-x="440" 
d="M11 0l135 665h151l132 -665h-134l-20 100h-117l-20 -100h-127zM171 210h91l-44 250h-4zM273 850l82 -141h-100l-34 64l-35 -64h-100l82 141h105z" />
    <glyph glyph-name="Atilde" unicode="&#xc3;" horiz-adv-x="441" 
d="M11 0l135 665h151l132 -665h-134l-20 100h-117l-20 -100h-127zM171 210h91l-44 250h-4zM69 716q0 62 27.5 90.5t62.5 28.5q22 0 36.5 -4t25.5 -8.5t20 -8t19 -3.5q18 0 18 19v8h94v-8q0 -62 -26 -91.5t-61 -29.5q-19 0 -33.5 4.5t-26.5 10.5t-22 10.5t-19 4.5t-15.5 -5
t-6.5 -18v-7h-93v7z" />
    <glyph glyph-name="Adieresis" unicode="&#xc4;" horiz-adv-x="441" 
d="M11 0l135 665h151l132 -665h-134l-20 100h-117l-20 -100h-127zM171 210h91l-44 250h-4zM138 843q30 0 48 -18.5t18 -46.5q0 -27 -18 -45.5t-48 -18.5q-29 0 -48 18.5t-19 45.5q0 28 19 46.5t48 18.5zM296 843q30 0 48 -18.5t18 -46.5q0 -27 -18 -45.5t-48 -18.5
q-29 0 -48 18.5t-19 45.5q0 28 19 46.5t48 18.5z" />
    <glyph glyph-name="Aring" unicode="&#xc5;" horiz-adv-x="440" 
d="M11 0l135 665h151l132 -665h-134l-20 100h-117l-20 -100h-127zM171 210h91l-44 250h-4zM192 789q0 -13 7 -21.5t22 -8.5t22 8.5t7 21.5q0 14 -7 22t-22 8t-22 -8t-7 -22zM123 789q0 43 27.5 66.5t70.5 23.5t70.5 -23.5t27.5 -66.5t-27.5 -66.5t-70.5 -23.5t-70.5 23.5
t-27.5 66.5z" />
    <glyph glyph-name="AE" unicode="&#xc6;" horiz-adv-x="630" 
d="M308 100h-128l-42 -100h-129l268 665h327v-114h-167v-141h136v-110h-136v-190h167v-110h-296v100zM308 210v220h-5l-87 -220h92z" />
    <glyph glyph-name="Ccedilla" unicode="&#xc7;" horiz-adv-x="413" 
d="M169 -6q-65 12 -96 61.5t-31 131.5v291q0 95 42 146t129 51q172 0 172 -211v-12h-130v34q0 30 -9 54.5t-33 24.5q-12 0 -20 -7t-13 -18.5t-7 -25.5t-2 -28v-306q0 -14 2 -28t7 -25.5t13 -18.5t20 -7q24 0 33 24.5t9 54.5v33h130v-14q0 -98 -38.5 -149.5t-110.5 -58.5v-19
h7q19 0 36.5 -4.5t30.5 -15t20.5 -27t7.5 -41.5q0 -51 -30 -77.5t-83 -26.5q-52 0 -79 24.5t-27 71.5v2h77v-2q0 -11 7.5 -19.5t21.5 -8.5q29 0 29 33q0 20 -12 26.5t-38 6.5h-35v80z" />
    <glyph glyph-name="Egrave" unicode="&#xc8;" horiz-adv-x="372" 
d="M346 551h-167v-141h136v-110h-136v-190h167v-110h-296v665h296v-114zM229 850l47 -141h-105l-72 141h130z" />
    <glyph glyph-name="Eacute" unicode="&#xc9;" horiz-adv-x="372" 
d="M346 551h-167v-141h136v-110h-136v-190h167v-110h-296v665h296v-114zM304 850l-72 -141h-106l48 141h130z" />
    <glyph glyph-name="Ecircumflex" unicode="&#xca;" horiz-adv-x="372" 
d="M346 551h-167v-141h136v-110h-136v-190h167v-110h-296v665h296v-114zM243 850l82 -141h-100l-34 64l-35 -64h-100l82 141h105z" />
    <glyph glyph-name="Edieresis" unicode="&#xcb;" horiz-adv-x="372" 
d="M346 551h-167v-141h136v-110h-136v-190h167v-110h-296v665h296v-114zM121 843q30 0 48 -18.5t18 -46.5q0 -27 -18 -45.5t-48 -18.5q-29 0 -48 18.5t-19 45.5q0 28 19 46.5t48 18.5zM279 843q30 0 48 -18.5t18 -46.5q0 -27 -18 -45.5t-48 -18.5q-29 0 -48 18.5t-19 45.5
q0 28 19 46.5t48 18.5z" />
    <glyph glyph-name="Igrave" unicode="&#xcc;" horiz-adv-x="229" 
d="M50 0v665h129v-665h-129zM152 850l47 -141h-105l-72 141h130z" />
    <glyph glyph-name="Iacute" unicode="&#xcd;" horiz-adv-x="229" 
d="M50 0v665h129v-665h-129zM228 850l-72 -141h-106l48 141h130z" />
    <glyph glyph-name="Icircumflex" unicode="&#xce;" horiz-adv-x="229" 
d="M50 0v665h129v-665h-129zM167 850l82 -141h-100l-34 64l-35 -64h-100l82 141h105z" />
    <glyph glyph-name="Idieresis" unicode="&#xcf;" horiz-adv-x="229" 
d="M50 0v665h129v-665h-129zM36 843q30 0 48 -18.5t18 -46.5q0 -27 -18 -45.5t-48 -18.5q-29 0 -48 18.5t-19 45.5q0 28 19 46.5t48 18.5zM194 843q30 0 48 -18.5t18 -46.5q0 -27 -18 -45.5t-48 -18.5q-29 0 -48 18.5t-19 45.5q0 28 19 46.5t48 18.5z" />
    <glyph glyph-name="Eth" unicode="&#xd0;" horiz-adv-x="449" 
d="M10 387h46v278h178q87 0 129.5 -45t42.5 -132v-311q0 -87 -42.5 -132t-129.5 -45h-178v277h-46v110zM277 496q0 21 -9.5 38t-33.5 17h-49v-164h50v-110h-50v-167h49q24 0 33.5 19t9.5 40v327z" />
    <glyph glyph-name="Ntilde" unicode="&#xd1;" horiz-adv-x="465" 
d="M415 0h-128l-129 390h-4v-390h-104v665h128l129 -415h4v415h104v-665zM81 716q0 62 27.5 90.5t62.5 28.5q22 0 36.5 -4t25.5 -8.5t20 -8t19 -3.5q18 0 18 19v8h94v-8q0 -62 -26 -91.5t-61 -29.5q-19 0 -33.5 4.5t-26.5 10.5t-22 10.5t-19 4.5t-15.5 -5t-6.5 -18v-7h-93v7
z" />
    <glyph glyph-name="Ograve" unicode="&#xd2;" 
d="M381 187q0 -95 -42.5 -146t-129.5 -51t-128.5 51t-41.5 146v291q0 95 42 146t129 51t129 -51t42 -146v-291zM252 485q0 30 -8.5 55t-34.5 25q-14 0 -22 -7t-12 -18t-5.5 -25.5t-1.5 -29.5v-304q0 -15 1.5 -29.5t5.5 -25.5t12 -18t22 -7q26 0 34.5 25t8.5 55v304zM249 850
l47 -141h-105l-72 141h130z" />
    <glyph glyph-name="Oacute" unicode="&#xd3;" 
d="M381 187q0 -95 -42.5 -146t-129.5 -51t-128.5 51t-41.5 146v291q0 95 42 146t129 51t129 -51t42 -146v-291zM252 485q0 30 -8.5 55t-34.5 25q-14 0 -22 -7t-12 -18t-5.5 -25.5t-1.5 -29.5v-304q0 -15 1.5 -29.5t5.5 -25.5t12 -18t22 -7q26 0 34.5 25t8.5 55v304zM324 850
l-72 -141h-106l48 141h130z" />
    <glyph glyph-name="Ocircumflex" unicode="&#xd4;" 
d="M381 187q0 -95 -42.5 -146t-129.5 -51t-128.5 51t-41.5 146v291q0 95 42 146t129 51t129 -51t42 -146v-291zM252 485q0 30 -8.5 55t-34.5 25q-14 0 -22 -7t-12 -18t-5.5 -25.5t-1.5 -29.5v-304q0 -15 1.5 -29.5t5.5 -25.5t12 -18t22 -7q26 0 34.5 25t8.5 55v304zM263 850
l82 -141h-100l-34 64l-35 -64h-100l82 141h105z" />
    <glyph glyph-name="Otilde" unicode="&#xd5;" 
d="M381 187q0 -95 -42.5 -146t-129.5 -51t-128.5 51t-41.5 146v291q0 95 42 146t129 51t129 -51t42 -146v-291zM252 485q0 30 -8.5 55t-34.5 25q-14 0 -22 -7t-12 -18t-5.5 -25.5t-1.5 -29.5v-304q0 -15 1.5 -29.5t5.5 -25.5t12 -18t22 -7q26 0 34.5 25t8.5 55v304zM59 716
q0 62 27.5 90.5t62.5 28.5q22 0 36.5 -4t25.5 -8.5t20 -8t19 -3.5q18 0 18 19v8h94v-8q0 -62 -26 -91.5t-61 -29.5q-19 0 -33.5 4.5t-26.5 10.5t-22 10.5t-19 4.5t-15.5 -5t-6.5 -18v-7h-93v7z" />
    <glyph glyph-name="Odieresis" unicode="&#xd6;" 
d="M381 187q0 -95 -42.5 -146t-129.5 -51t-128.5 51t-41.5 146v291q0 95 42 146t129 51t129 -51t42 -146v-291zM252 485q0 30 -8.5 55t-34.5 25q-14 0 -22 -7t-12 -18t-5.5 -25.5t-1.5 -29.5v-304q0 -15 1.5 -29.5t5.5 -25.5t12 -18t22 -7q26 0 34.5 25t8.5 55v304zM132 843
q30 0 48 -18.5t18 -46.5q0 -27 -18 -45.5t-48 -18.5q-29 0 -48 18.5t-19 45.5q0 28 19 46.5t48 18.5zM290 843q30 0 48 -18.5t18 -46.5q0 -27 -18 -45.5t-48 -18.5q-29 0 -48 18.5t-19 45.5q0 28 19 46.5t48 18.5z" />
    <glyph glyph-name="multiply" unicode="&#xd7;" 
d="M76 244l56 57l-56 57l77 77l57 -56l57 56l77 -77l-56 -57l56 -57l-77 -77l-57 56l-57 -56z" />
    <glyph glyph-name="Oslash" unicode="&#xd8;" horiz-adv-x="424" 
d="M381 187q0 -95 -42.5 -146t-129.5 -51q-58 0 -96 23l-19 -48l-55 16l30 75q-30 49 -30 131v291q0 95 42 146t129 51q59 0 100 -27l21 52l54 -16l-33 -80q29 -49 29 -126v-291zM168 299l83 205q-2 25 -11 43t-31 18q-14 0 -22 -7t-12 -18t-5.5 -25.5t-1.5 -29.5v-186z
M252 355l-83 -204q2 -21 11 -35.5t29 -14.5q26 0 34.5 25t8.5 55v174z" />
    <glyph glyph-name="Ugrave" unicode="&#xd9;" horiz-adv-x="435" 
d="M390 665v-478q0 -95 -43 -146t-130 -51t-129.5 51t-42.5 146v478h129v-485q0 -14 2.5 -28t7.5 -25.5t13 -18.5t20 -7t20.5 7t14 18t7.5 25.5t2 28.5v485h129zM257 850l47 -141h-105l-72 141h130z" />
    <glyph glyph-name="Uacute" unicode="&#xda;" horiz-adv-x="435" 
d="M390 665v-478q0 -95 -43 -146t-130 -51t-129.5 51t-42.5 146v478h129v-485q0 -14 2.5 -28t7.5 -25.5t13 -18.5t20 -7t20.5 7t14 18t7.5 25.5t2 28.5v485h129zM332 850l-72 -141h-106l48 141h130z" />
    <glyph glyph-name="Ucircumflex" unicode="&#xdb;" horiz-adv-x="435" 
d="M390 665v-478q0 -95 -43 -146t-130 -51t-129.5 51t-42.5 146v478h129v-485q0 -14 2.5 -28t7.5 -25.5t13 -18.5t20 -7t20.5 7t14 18t7.5 25.5t2 28.5v485h129zM271 850l82 -141h-100l-34 64l-35 -64h-100l82 141h105z" />
    <glyph glyph-name="Udieresis" unicode="&#xdc;" horiz-adv-x="435" 
d="M390 665v-478q0 -95 -43 -146t-130 -51t-129.5 51t-42.5 146v478h129v-485q0 -14 2.5 -28t7.5 -25.5t13 -18.5t20 -7t20.5 7t14 18t7.5 25.5t2 28.5v485h129zM139 843q30 0 48 -18.5t18 -46.5q0 -27 -18 -45.5t-48 -18.5q-29 0 -48 18.5t-19 45.5q0 28 19 46.5t48 18.5z
M297 843q30 0 48 -18.5t18 -46.5q0 -27 -18 -45.5t-48 -18.5q-29 0 -48 18.5t-19 45.5q0 28 19 46.5t48 18.5z" />
    <glyph glyph-name="Yacute" unicode="&#xdd;" horiz-adv-x="444" 
d="M286 190v-190h-129v191l-141 474h134l69 -298h5l70 298h134zM335 850l-72 -141h-106l48 141h130z" />
    <glyph glyph-name="Thorn" unicode="&#xde;" horiz-adv-x="429" 
d="M394 298q0 -175 -173 -175h-39v-123h-132v665h132v-122h39q87 0 130 -45t43 -132v-68zM265 373q0 29 -11.5 44.5t-38.5 15.5h-33v-200h33q27 0 38.5 15.5t11.5 44.5v80z" />
    <glyph glyph-name="germandbls" unicode="&#xdf;" horiz-adv-x="420" 
d="M179 -35l-11 -95h-118v665q0 38 9.5 70t29 55.5t50 36.5t73.5 13q86 0 127 -43.5t41 -126.5v-13q0 -51 -15.5 -77.5t-50.5 -43.5q35 -17 50.5 -52t15.5 -87v-122q0 -75 -38 -110t-107 -35h-22v110h7q31 0 31 32v153q0 24 -8.5 35.5t-30.5 11.5h-7v110h7q39 0 39 41v59
q0 28 -7 43t-27 15q-38 0 -38 -58v-587z" />
    <glyph glyph-name="agrave" unicode="&#xe0;" horiz-adv-x="414" 
d="M45 351v17q0 36 8.5 65.5t26.5 51t47 33.5t70 12q87 0 124.5 -41.5t37.5 -128.5v-234q0 -14 7.5 -20t26.5 -6v-110q-31 0 -53.5 2.5t-38.5 9.5t-27.5 19t-20.5 31q-14 -29 -37.5 -45.5t-59.5 -16.5q-54 0 -88.5 36t-34.5 112v38q0 29 7 54.5t22 44t38 29t54 10.5
q25 0 43.5 -5t32.5 -13v81q0 26 -7 39.5t-27 13.5q-17 0 -25.5 -13t-8.5 -48v-18h-117zM230 225q-12 4 -27 4q-23 0 -32 -12.5t-9 -41.5v-34q0 -29 8.5 -40t28.5 -11q9 0 17 3t14 11v121zM244 695l47 -141h-105l-72 141h130z" />
    <glyph glyph-name="aacute" unicode="&#xe1;" horiz-adv-x="414" 
d="M45 351v17q0 36 8.5 65.5t26.5 51t47 33.5t70 12q87 0 124.5 -41.5t37.5 -128.5v-234q0 -14 7.5 -20t26.5 -6v-110q-31 0 -53.5 2.5t-38.5 9.5t-27.5 19t-20.5 31q-14 -29 -37.5 -45.5t-59.5 -16.5q-54 0 -88.5 36t-34.5 112v38q0 29 7 54.5t22 44t38 29t54 10.5
q25 0 43.5 -5t32.5 -13v81q0 26 -7 39.5t-27 13.5q-17 0 -25.5 -13t-8.5 -48v-18h-117zM230 225q-12 4 -27 4q-23 0 -32 -12.5t-9 -41.5v-34q0 -29 8.5 -40t28.5 -11q9 0 17 3t14 11v121zM319 695l-72 -141h-106l48 141h130z" />
    <glyph glyph-name="acircumflex" unicode="&#xe2;" horiz-adv-x="414" 
d="M45 351v17q0 36 8.5 65.5t26.5 51t47 33.5t70 12q87 0 124.5 -41.5t37.5 -128.5v-234q0 -14 7.5 -20t26.5 -6v-110q-31 0 -53.5 2.5t-38.5 9.5t-27.5 19t-20.5 31q-14 -29 -37.5 -45.5t-59.5 -16.5q-54 0 -88.5 36t-34.5 112v38q0 29 7 54.5t22 44t38 29t54 10.5
q25 0 43.5 -5t32.5 -13v81q0 26 -7 39.5t-27 13.5q-17 0 -25.5 -13t-8.5 -48v-18h-117zM230 225q-12 4 -27 4q-23 0 -32 -12.5t-9 -41.5v-34q0 -29 8.5 -40t28.5 -11q9 0 17 3t14 11v121zM258 695l82 -141h-100l-34 64l-35 -64h-100l82 141h105z" />
    <glyph glyph-name="atilde" unicode="&#xe3;" horiz-adv-x="414" 
d="M45 351v17q0 36 8.5 65.5t26.5 51t47 33.5t70 12q87 0 124.5 -41.5t37.5 -128.5v-234q0 -14 7.5 -20t26.5 -6v-110q-31 0 -53.5 2.5t-38.5 9.5t-27.5 19t-20.5 31q-14 -29 -37.5 -45.5t-59.5 -16.5q-54 0 -88.5 36t-34.5 112v38q0 29 7 54.5t22 44t38 29t54 10.5
q25 0 43.5 -5t32.5 -13v81q0 26 -7 39.5t-27 13.5q-17 0 -25.5 -13t-8.5 -48v-18h-117zM230 225q-12 4 -27 4q-23 0 -32 -12.5t-9 -41.5v-34q0 -29 8.5 -40t28.5 -11q9 0 17 3t14 11v121zM55 561q0 62 27.5 90.5t62.5 28.5q22 0 36.5 -4t25.5 -8.5t20 -8t19 -3.5q18 0 18 19
v8h94v-8q0 -62 -26 -91.5t-61 -29.5q-19 0 -33.5 4.5t-26.5 10.5t-22 10.5t-19 4.5t-15.5 -5t-6.5 -18v-7h-93v7z" />
    <glyph glyph-name="adieresis" unicode="&#xe4;" horiz-adv-x="414" 
d="M45 351v17q0 36 8.5 65.5t26.5 51t47 33.5t70 12q87 0 124.5 -41.5t37.5 -128.5v-234q0 -14 7.5 -20t26.5 -6v-110q-31 0 -53.5 2.5t-38.5 9.5t-27.5 19t-20.5 31q-14 -29 -37.5 -45.5t-59.5 -16.5q-54 0 -88.5 36t-34.5 112v38q0 29 7 54.5t22 44t38 29t54 10.5
q25 0 43.5 -5t32.5 -13v81q0 26 -7 39.5t-27 13.5q-17 0 -25.5 -13t-8.5 -48v-18h-117zM230 225q-12 4 -27 4q-23 0 -32 -12.5t-9 -41.5v-34q0 -29 8.5 -40t28.5 -11q9 0 17 3t14 11v121zM129 688q30 0 48 -18.5t18 -46.5q0 -27 -18 -45.5t-48 -18.5q-29 0 -48 18.5
t-19 45.5q0 28 19 46.5t48 18.5zM287 688q30 0 48 -18.5t18 -46.5q0 -27 -18 -45.5t-48 -18.5q-29 0 -48 18.5t-19 45.5q0 28 19 46.5t48 18.5z" />
    <glyph glyph-name="aring" unicode="&#xe5;" horiz-adv-x="414" 
d="M45 351v17q0 36 8.5 65.5t26.5 51t47 33.5t70 12q87 0 124.5 -41.5t37.5 -128.5v-234q0 -14 7.5 -20t26.5 -6v-110q-31 0 -53.5 2.5t-38.5 9.5t-27.5 19t-20.5 31q-14 -29 -37.5 -45.5t-59.5 -16.5q-54 0 -88.5 36t-34.5 112v38q0 29 7 54.5t22 44t38 29t54 10.5
q25 0 43.5 -5t32.5 -13v81q0 26 -7 39.5t-27 13.5q-17 0 -25.5 -13t-8.5 -48v-18h-117zM230 225q-12 4 -27 4q-23 0 -32 -12.5t-9 -41.5v-34q0 -29 8.5 -40t28.5 -11q9 0 17 3t14 11v121zM177 634q0 -13 7 -21.5t22 -8.5t22 8.5t7 21.5q0 14 -7 22t-22 8t-22 -8t-7 -22z
M108 634q0 43 27.5 66.5t70.5 23.5t70.5 -23.5t27.5 -66.5t-27.5 -66.5t-70.5 -23.5t-70.5 23.5t-27.5 66.5z" />
    <glyph glyph-name="ae" unicode="&#xe6;" horiz-adv-x="595" 
d="M230 225q-12 4 -27 4q-23 0 -32 -10.5t-9 -43.5v-34q0 -31 8.5 -41t25.5 -10q10 0 19 2.5t15 11.5v121zM359 163q0 -38 7 -55.5t27 -17.5t27.5 17.5t7.5 55.5v12h129v-9q0 -80 -38 -128t-114 -48q-33 0 -62.5 13.5t-48.5 36.5q-27 -29 -57.5 -39.5t-65.5 -10.5
q-63 0 -100.5 36t-37.5 112v38q0 29 7.5 54.5t23 44t39.5 29t58 10.5q41 0 69 -13v56q0 37 -7 55t-27 18q-17 0 -25.5 -13t-8.5 -48v-18h-117v17q0 36 9 65.5t27 51t44 33.5t61 12q38 0 63.5 -12t45.5 -38q17 23 44 36.5t67 13.5q72 0 111.5 -50t39.5 -142v-124h-198v-51z
M427 357q0 38 -7 55.5t-27 17.5t-27 -17.5t-7 -55.5v-48h68v48z" />
    <glyph glyph-name="ccedilla" unicode="&#xe7;" horiz-adv-x="394" 
d="M154 -5q-60 13 -87.5 61t-27.5 126v156q0 92 38.5 142t123.5 50q86 0 122.5 -50.5t36.5 -141.5v-36h-123v55q0 38 -7.5 55.5t-27.5 17.5t-27 -17.5t-7 -55.5v-194q0 -38 7 -55.5t27 -17.5t27.5 17.5t7.5 55.5v55h123v-36q0 -87 -32 -136t-107 -55v-19h7q19 0 36.5 -4.5
t30.5 -15t20.5 -27t7.5 -41.5q0 -51 -30 -77.5t-83 -26.5q-52 0 -79 24.5t-27 71.5v2h77v-2q0 -11 7.5 -19.5t21.5 -8.5q29 0 29 33q0 20 -12 26.5t-38 6.5h-35v81z" />
    <glyph glyph-name="egrave" unicode="&#xe8;" horiz-adv-x="404" 
d="M168 309h68v48q0 38 -7 55.5t-27 17.5t-27 -17.5t-7 -55.5v-48zM237 175h128v-9q0 -80 -39.5 -128t-124.5 -48q-90 0 -126 50t-36 142v156q0 92 38.5 142t123.5 50q87 0 125.5 -50t38.5 -142v-124h-197v-51q0 -38 7 -55.5t27 -17.5t27.5 17.5t7.5 55.5v12zM240 695
l47 -141h-105l-72 141h130z" />
    <glyph glyph-name="eacute" unicode="&#xe9;" horiz-adv-x="404" 
d="M168 309h68v48q0 38 -7 55.5t-27 17.5t-27 -17.5t-7 -55.5v-48zM237 175h128v-9q0 -80 -39.5 -128t-124.5 -48q-90 0 -126 50t-36 142v156q0 92 38.5 142t123.5 50q87 0 125.5 -50t38.5 -142v-124h-197v-51q0 -38 7 -55.5t27 -17.5t27.5 17.5t7.5 55.5v12zM315 695
l-72 -141h-106l48 141h130z" />
    <glyph glyph-name="ecircumflex" unicode="&#xea;" horiz-adv-x="404" 
d="M168 309h68v48q0 38 -7 55.5t-27 17.5t-27 -17.5t-7 -55.5v-48zM237 175h128v-9q0 -80 -39.5 -128t-124.5 -48q-90 0 -126 50t-36 142v156q0 92 38.5 142t123.5 50q87 0 125.5 -50t38.5 -142v-124h-197v-51q0 -38 7 -55.5t27 -17.5t27.5 17.5t7.5 55.5v12zM254 695
l82 -141h-100l-34 64l-35 -64h-100l82 141h105z" />
    <glyph glyph-name="edieresis" unicode="&#xeb;" horiz-adv-x="404" 
d="M168 309h68v48q0 38 -7 55.5t-27 17.5t-27 -17.5t-7 -55.5v-48zM237 175h128v-9q0 -80 -39.5 -128t-124.5 -48q-90 0 -126 50t-36 142v156q0 92 38.5 142t123.5 50q87 0 125.5 -50t38.5 -142v-124h-197v-51q0 -38 7 -55.5t27 -17.5t27.5 17.5t7.5 55.5v12zM124 688
q30 0 48 -18.5t18 -46.5q0 -27 -18 -45.5t-48 -18.5q-29 0 -48 18.5t-19 45.5q0 28 19 46.5t48 18.5zM282 688q30 0 48 -18.5t18 -46.5q0 -27 -18 -45.5t-48 -18.5q-29 0 -48 18.5t-19 45.5q0 28 19 46.5t48 18.5z" />
    <glyph glyph-name="igrave" unicode="&#xec;" horiz-adv-x="228" 
d="M50 520h118l14 -95v-425h-132v520zM152 695l47 -141h-105l-72 141h130z" />
    <glyph glyph-name="iacute" unicode="&#xed;" horiz-adv-x="228" 
d="M50 520h118l14 -95v-425h-132v520zM228 695l-72 -141h-106l48 141h130z" />
    <glyph glyph-name="icircumflex" unicode="&#xee;" horiz-adv-x="228" 
d="M50 520h118l14 -95v-425h-132v520zM167 695l82 -141h-100l-34 64l-35 -64h-100l82 141h105z" />
    <glyph glyph-name="idieresis" unicode="&#xef;" horiz-adv-x="228" 
d="M50 520h118l14 -95v-425h-132v520zM36 688q30 0 48 -18.5t18 -46.5q0 -27 -18 -45.5t-48 -18.5q-29 0 -48 18.5t-19 45.5q0 28 19 46.5t48 18.5zM194 688q30 0 48 -18.5t18 -46.5q0 -27 -18 -45.5t-48 -18.5q-29 0 -48 18.5t-19 45.5q0 28 19 46.5t48 18.5z" />
    <glyph glyph-name="eth" unicode="&#xf0;" horiz-adv-x="405" 
d="M163 585l28 15q-28 10 -58 10h-7v65h8q38 0 66.5 -8.5t54.5 -25.5l53 30l29 -39l-46 -25q38 -42 56 -105.5t18 -141.5v-179q0 -92 -38.5 -141.5t-125.5 -49.5q-85 0 -123.5 49t-38.5 141v160q0 46 11 81.5t29.5 59.5t44 36.5t55.5 12.5q33 0 52.5 -10.5t32.5 -22.5
q-3 14 -13.5 35t-24.5 35l-35 -21zM236 377q0 28 -7 40.5t-27 12.5q-19 0 -26.5 -17.5t-7.5 -55.5v-194q0 -38 7 -55.5t27 -17.5t27 17.5t7 55.5v214z" />
    <glyph glyph-name="ntilde" unicode="&#xf1;" horiz-adv-x="419" 
d="M143 480q14 19 41 34.5t69 15.5q62 0 92.5 -39.5t30.5 -122.5v-368h-118l-11 95v282q0 26 -6.5 39.5t-26.5 13.5q-14 0 -22 -3t-13 -7v-420h-129v520h84zM58 561q0 62 27.5 90.5t62.5 28.5q22 0 36.5 -4t25.5 -8.5t20 -8t19 -3.5q18 0 18 19v8h94v-8q0 -62 -26 -91.5
t-61 -29.5q-19 0 -33.5 4.5t-26.5 10.5t-22 10.5t-19 4.5t-15.5 -5t-6.5 -18v-7h-93v7z" />
    <glyph glyph-name="ograve" unicode="&#xf2;" horiz-adv-x="405" 
d="M365 180q0 -92 -38.5 -141t-125.5 -49q-85 0 -123.5 49t-38.5 141v160q0 92 38.5 141t123.5 49q87 0 125.5 -49t38.5 -141v-160zM236 357q0 38 -7 55.5t-27 17.5t-27 -17.5t-7 -55.5v-194q0 -38 7 -55.5t27 -17.5t27 17.5t7 55.5v194zM241 695l47 -141h-105l-72 141h130z
" />
    <glyph glyph-name="oacute" unicode="&#xf3;" horiz-adv-x="405" 
d="M365 180q0 -92 -38.5 -141t-125.5 -49q-85 0 -123.5 49t-38.5 141v160q0 92 38.5 141t123.5 49q87 0 125.5 -49t38.5 -141v-160zM236 357q0 38 -7 55.5t-27 17.5t-27 -17.5t-7 -55.5v-194q0 -38 7 -55.5t27 -17.5t27 17.5t7 55.5v194zM316 695l-72 -141h-106l48 141h130z
" />
    <glyph glyph-name="ocircumflex" unicode="&#xf4;" horiz-adv-x="405" 
d="M365 180q0 -92 -38.5 -141t-125.5 -49q-85 0 -123.5 49t-38.5 141v160q0 92 38.5 141t123.5 49q87 0 125.5 -49t38.5 -141v-160zM236 357q0 38 -7 55.5t-27 17.5t-27 -17.5t-7 -55.5v-194q0 -38 7 -55.5t27 -17.5t27 17.5t7 55.5v194zM255 695l82 -141h-100l-34 64
l-35 -64h-100l82 141h105z" />
    <glyph glyph-name="otilde" unicode="&#xf5;" horiz-adv-x="405" 
d="M365 180q0 -92 -38.5 -141t-125.5 -49q-85 0 -123.5 49t-38.5 141v160q0 92 38.5 141t123.5 49q87 0 125.5 -49t38.5 -141v-160zM236 357q0 38 -7 55.5t-27 17.5t-27 -17.5t-7 -55.5v-194q0 -38 7 -55.5t27 -17.5t27 17.5t7 55.5v194zM51 561q0 62 27.5 90.5t62.5 28.5
q22 0 36.5 -4t25.5 -8.5t20 -8t19 -3.5q18 0 18 19v8h94v-8q0 -62 -26 -91.5t-61 -29.5q-19 0 -33.5 4.5t-26.5 10.5t-22 10.5t-19 4.5t-15.5 -5t-6.5 -18v-7h-93v7z" />
    <glyph glyph-name="odieresis" unicode="&#xf6;" horiz-adv-x="405" 
d="M365 180q0 -92 -38.5 -141t-125.5 -49q-85 0 -123.5 49t-38.5 141v160q0 92 38.5 141t123.5 49q87 0 125.5 -49t38.5 -141v-160zM236 357q0 38 -7 55.5t-27 17.5t-27 -17.5t-7 -55.5v-194q0 -38 7 -55.5t27 -17.5t27 17.5t7 55.5v194zM124 688q30 0 48 -18.5t18 -46.5
q0 -27 -18 -45.5t-48 -18.5q-29 0 -48 18.5t-19 45.5q0 28 19 46.5t48 18.5zM282 688q30 0 48 -18.5t18 -46.5q0 -27 -18 -45.5t-48 -18.5q-29 0 -48 18.5t-19 45.5q0 28 19 46.5t48 18.5z" />
    <glyph glyph-name="divide" unicode="&#xf7;" 
d="M137 155q0 32 20 51.5t54 19.5t54 -19.5t20 -51.5t-20 -51.5t-54 -19.5t-54 19.5t-20 51.5zM137 447q0 32 20 51.5t54 19.5t54 -19.5t20 -51.5t-20 -51.5t-54 -19.5t-54 19.5t-20 51.5zM76 356h270v-110h-270v110z" />
    <glyph glyph-name="oslash" unicode="&#xf8;" horiz-adv-x="405" 
d="M365 180q0 -92 -38.5 -141t-125.5 -49q-60 0 -98 26l-20 -38l-47 22l29 56q-26 45 -26 124v160q0 92 38.5 141t123.5 49q60 0 98 -26l20 38l47 -21l-29 -56q28 -47 28 -125v-160zM236 271l-68 -129q3 -52 34 -52q20 0 27 17.5t7 55.5v108zM168 253l67 128q-4 49 -33 49
q-20 0 -27 -17.5t-7 -55.5v-104z" />
    <glyph glyph-name="ugrave" unicode="&#xf9;" 
d="M44 520h129v-374q0 -28 7 -42t27 -14q25 0 34 14v416h129v-390q0 -12 7 -21t27 -9v-110q-31 0 -53.5 2.5t-38.5 9.5t-27.5 19t-20.5 31q-14 -29 -40.5 -45.5t-68.5 -16.5q-54 0 -82.5 34t-28.5 115v381zM249 695l47 -141h-105l-72 141h130z" />
    <glyph glyph-name="uacute" unicode="&#xfa;" 
d="M44 520h129v-374q0 -28 7 -42t27 -14q25 0 34 14v416h129v-390q0 -12 7 -21t27 -9v-110q-31 0 -53.5 2.5t-38.5 9.5t-27.5 19t-20.5 31q-14 -29 -40.5 -45.5t-68.5 -16.5q-54 0 -82.5 34t-28.5 115v381zM324 695l-72 -141h-106l48 141h130z" />
    <glyph glyph-name="ucircumflex" unicode="&#xfb;" 
d="M44 520h129v-374q0 -28 7 -42t27 -14q25 0 34 14v416h129v-390q0 -12 7 -21t27 -9v-110q-31 0 -53.5 2.5t-38.5 9.5t-27.5 19t-20.5 31q-14 -29 -40.5 -45.5t-68.5 -16.5q-54 0 -82.5 34t-28.5 115v381zM263 695l82 -141h-100l-34 64l-35 -64h-100l82 141h105z" />
    <glyph glyph-name="udieresis" unicode="&#xfc;" 
d="M44 520h129v-374q0 -28 7 -42t27 -14q25 0 34 14v416h129v-390q0 -12 7 -21t27 -9v-110q-31 0 -53.5 2.5t-38.5 9.5t-27.5 19t-20.5 31q-14 -29 -40.5 -45.5t-68.5 -16.5q-54 0 -82.5 34t-28.5 115v381zM132 688q30 0 48 -18.5t18 -46.5q0 -27 -18 -45.5t-48 -18.5
q-29 0 -48 18.5t-19 45.5q0 28 19 46.5t48 18.5zM290 688q30 0 48 -18.5t18 -46.5q0 -27 -18 -45.5t-48 -18.5q-29 0 -48 18.5t-19 45.5q0 28 19 46.5t48 18.5z" />
    <glyph glyph-name="yacute" unicode="&#xfd;" horiz-adv-x="388" 
d="M20 520h129l46 -309h4l43 309h129l-129 -565q-8 -32 -24 -62t-43 -53t-65 -36.5t-89 -13.5v110q33 0 64.5 16t41.5 52l7 28zM307 695l-72 -141h-106l48 141h130z" />
    <glyph glyph-name="thorn" unicode="&#xfe;" horiz-adv-x="415" 
d="M179 95q8 -5 29 -5q19 0 29 15t10 62v200q0 32 -7 47.5t-27 15.5q-12 0 -20 -2t-14 -5v-328zM179 -210h-129v920h115l14 -95v-111q30 26 84 26q25 0 45.5 -9.5t35.5 -30t23.5 -53.5t8.5 -79v-176q0 -92 -37 -142t-95 -50q-23 0 -38.5 3.5t-26.5 12.5v-216z" />
    <glyph glyph-name="ydieresis" unicode="&#xff;" horiz-adv-x="388" 
d="M20 520h129l46 -309h4l43 309h129l-129 -565q-8 -32 -24 -62t-43 -53t-65 -36.5t-89 -13.5v110q33 0 64.5 16t41.5 52l7 28zM116 688q30 0 48 -18.5t18 -46.5q0 -27 -18 -45.5t-48 -18.5q-29 0 -48 18.5t-19 45.5q0 28 19 46.5t48 18.5zM274 688q30 0 48 -18.5t18 -46.5
q0 -27 -18 -45.5t-48 -18.5q-29 0 -48 18.5t-19 45.5q0 28 19 46.5t48 18.5z" />
    <glyph glyph-name="Amacron" unicode="&#x100;" horiz-adv-x="440" 
d="M11 0l135 665h151l132 -665h-134l-20 100h-117l-20 -100h-127zM171 210h91l-44 250h-4zM97 830h242v-100h-242v100z" />
    <glyph glyph-name="amacron" unicode="&#x101;" horiz-adv-x="414" 
d="M45 351v17q0 36 8.5 65.5t26.5 51t47 33.5t70 12q87 0 124.5 -41.5t37.5 -128.5v-234q0 -14 7.5 -20t26.5 -6v-110q-31 0 -53.5 2.5t-38.5 9.5t-27.5 19t-20.5 31q-14 -29 -37.5 -45.5t-59.5 -16.5q-54 0 -88.5 36t-34.5 112v38q0 29 7 54.5t22 44t38 29t54 10.5
q25 0 43.5 -5t32.5 -13v81q0 26 -7 39.5t-27 13.5q-17 0 -25.5 -13t-8.5 -48v-18h-117zM230 225q-12 4 -27 4q-23 0 -32 -12.5t-9 -41.5v-34q0 -29 8.5 -40t28.5 -11q9 0 17 3t14 11v121zM85 675h242v-100h-242v100z" />
    <glyph glyph-name="Abreve" unicode="&#x102;" horiz-adv-x="441" 
d="M11 0l135 665h151l132 -665h-134l-20 100h-117l-20 -100h-127zM171 210h91l-44 250h-4zM349 837v-12q0 -51 -32 -83.5t-98 -32.5t-98.5 32.5t-32.5 83.5v12h101v-12q0 -17 8 -23t22 -6t22 6t8 23v12h100z" />
    <glyph glyph-name="abreve" unicode="&#x103;" horiz-adv-x="414" 
d="M45 351v17q0 36 8.5 65.5t26.5 51t47 33.5t70 12q87 0 124.5 -41.5t37.5 -128.5v-234q0 -14 7.5 -20t26.5 -6v-110q-31 0 -53.5 2.5t-38.5 9.5t-27.5 19t-20.5 31q-14 -29 -37.5 -45.5t-59.5 -16.5q-54 0 -88.5 36t-34.5 112v38q0 29 7 54.5t22 44t38 29t54 10.5
q25 0 43.5 -5t32.5 -13v81q0 26 -7 39.5t-27 13.5q-17 0 -25.5 -13t-8.5 -48v-18h-117zM230 225q-12 4 -27 4q-23 0 -32 -12.5t-9 -41.5v-34q0 -29 8.5 -40t28.5 -11q9 0 17 3t14 11v121zM335 682v-12q0 -51 -32 -83.5t-98 -32.5t-98.5 32.5t-32.5 83.5v12h101v-12
q0 -17 8 -23t22 -6t22 6t8 23v12h100z" />
    <glyph glyph-name="Aogonek" unicode="&#x104;" horiz-adv-x="441" 
d="M11 0l135 665h151l132 -665h-42q-41 -25 -65 -53t-24 -61q0 -15 6 -20t15 -5q10 0 16 4.5t6 20.5v12h77v-12q0 -17 -5.5 -34.5t-17.5 -32t-31.5 -23.5t-46.5 -9q-52 0 -78.5 25.5t-26.5 65.5q0 46 23 78.5t58 53.5l-18 90h-117l-20 -100h-127zM171 210h91l-44 250h-4z
" />
    <glyph glyph-name="aogonek" unicode="&#x105;" horiz-adv-x="414" 
d="M45 351v17q0 36 8.5 65.5t26.5 51t47 33.5t70 12q87 0 124.5 -41.5t37.5 -128.5v-237q0 -12 7.5 -17.5t26.5 -5.5v-110q-14 0 -25 0.5t-21 1.5q-35 -23 -55.5 -49t-20.5 -57q0 -15 6 -20t15 -5q10 0 16 4.5t6 20.5v12h77v-12q0 -17 -5.5 -34.5t-17.5 -32t-31.5 -23.5
t-46.5 -9q-52 0 -78.5 25.5t-26.5 65.5q0 50 27 83.5t65 55.5q-14 14 -24 35q-14 -29 -37.5 -45.5t-59.5 -16.5q-54 0 -88.5 36t-34.5 112v38q0 29 7 54.5t22 44t38 29t54 10.5q25 0 43.5 -5t32.5 -13v81q0 26 -7 39.5t-27 13.5q-17 0 -25.5 -13t-8.5 -48v-18h-117zM230 225
q-12 4 -27 4q-23 0 -32 -10.5t-9 -43.5v-34q0 -31 8.5 -41t25.5 -10q10 0 19 2.5t15 11.5v121z" />
    <glyph glyph-name="Cacute" unicode="&#x106;" horiz-adv-x="413" 
d="M255 452v34q0 30 -9 54.5t-33 24.5q-12 0 -20 -7t-13 -18.5t-7 -25.5t-2 -28v-306q0 -38 9.5 -58.5t32.5 -20.5q24 0 33 21.5t9 57.5v33h129v-14q0 -106 -44 -157.5t-127 -51.5q-87 0 -129 51t-42 146v291q0 95 42 146t129 51q171 0 171 -211v-12h-129zM322 850l-72 -141
h-106l48 141h130z" />
    <glyph glyph-name="cacute" unicode="&#x107;" horiz-adv-x="394" 
d="M237 302v55q0 38 -7.5 55.5t-27.5 17.5t-27 -17.5t-7 -55.5v-194q0 -38 7 -55.5t27 -17.5t27.5 17.5t7.5 55.5v55h123v-36q0 -92 -36.5 -142t-122.5 -50q-85 0 -123.5 50t-38.5 142v156q0 92 38.5 142t123.5 50q86 0 122.5 -50.5t36.5 -141.5v-36h-123zM311 695l-72 -141
h-106l48 141h130z" />
    <glyph glyph-name="Ccircumflex" unicode="&#x108;" horiz-adv-x="413" 
d="M255 452v34q0 30 -9 54.5t-33 24.5q-12 0 -20 -7t-13 -18.5t-7 -25.5t-2 -28v-306q0 -38 9.5 -58.5t32.5 -20.5q24 0 33 21.5t9 57.5v33h129v-14q0 -106 -44 -157.5t-127 -51.5q-87 0 -129 51t-42 146v291q0 95 42 146t129 51q171 0 171 -211v-12h-129zM261 850l82 -141
h-100l-34 64l-35 -64h-100l82 141h105z" />
    <glyph glyph-name="ccircumflex" unicode="&#x109;" horiz-adv-x="394" 
d="M237 302v55q0 38 -7.5 55.5t-27.5 17.5t-27 -17.5t-7 -55.5v-194q0 -38 7 -55.5t27 -17.5t27.5 17.5t7.5 55.5v55h123v-36q0 -92 -36.5 -142t-122.5 -50q-85 0 -123.5 50t-38.5 142v156q0 92 38.5 142t123.5 50q86 0 122.5 -50.5t36.5 -141.5v-36h-123zM255 695l82 -141
h-100l-34 64l-35 -64h-100l82 141h105z" />
    <glyph glyph-name="Cdotaccent" unicode="&#x10a;" horiz-adv-x="413" 
d="M255 452v34q0 30 -9 54.5t-33 24.5q-12 0 -20 -7t-13 -18.5t-7 -25.5t-2 -28v-306q0 -38 9.5 -58.5t32.5 -20.5q24 0 33 21.5t9 57.5v33h129v-14q0 -106 -44 -157.5t-127 -51.5q-87 0 -129 51t-42 146v291q0 95 42 146t129 51q171 0 171 -211v-12h-129zM214 841
q32 0 50.5 -19.5t18.5 -48.5t-18.5 -48.5t-50.5 -19.5t-51.5 19.5t-19.5 48.5t19.5 48.5t51.5 19.5z" />
    <glyph glyph-name="cdotaccent" unicode="&#x10b;" horiz-adv-x="394" 
d="M237 302v55q0 38 -7.5 55.5t-27.5 17.5t-27 -17.5t-7 -55.5v-194q0 -38 7 -55.5t27 -17.5t27.5 17.5t7.5 55.5v55h123v-36q0 -92 -36.5 -142t-122.5 -50q-85 0 -123.5 50t-38.5 142v156q0 92 38.5 142t123.5 50q86 0 122.5 -50.5t36.5 -141.5v-36h-123zM203 686
q32 0 50.5 -19.5t18.5 -48.5t-18.5 -48.5t-50.5 -19.5t-51.5 19.5t-19.5 48.5t19.5 48.5t51.5 19.5z" />
    <glyph glyph-name="Ccaron" unicode="&#x10c;" horiz-adv-x="413" 
d="M255 452v34q0 30 -9 54.5t-33 24.5q-12 0 -20 -7t-13 -18.5t-7 -25.5t-2 -28v-306q0 -38 9.5 -58.5t32.5 -20.5q24 0 33 21.5t9 57.5v33h129v-14q0 -106 -44 -157.5t-127 -51.5q-87 0 -129 51t-42 146v291q0 95 42 146t129 51q171 0 171 -211v-12h-129zM158 709l-79 141
h95l34 -66l34 66h96l-79 -141h-101z" />
    <glyph glyph-name="ccaron" unicode="&#x10d;" horiz-adv-x="394" 
d="M237 302v55q0 38 -7.5 55.5t-27.5 17.5t-27 -17.5t-7 -55.5v-194q0 -38 7 -55.5t27 -17.5t27.5 17.5t7.5 55.5v55h123v-36q0 -92 -36.5 -142t-122.5 -50q-85 0 -123.5 50t-38.5 142v156q0 92 38.5 142t123.5 50q86 0 122.5 -50.5t36.5 -141.5v-36h-123zM147 554l-79 141
h95l34 -66l34 66h96l-79 -141h-101z" />
    <glyph glyph-name="Dcaron" unicode="&#x10e;" horiz-adv-x="443" 
d="M400 177q0 -87 -43 -132t-130 -45h-177v665h177q87 0 130 -45t43 -132v-311zM271 496q0 21 -9.5 38t-34.5 17h-48v-441h48q25 0 34.5 19t9.5 40v327zM170 709l-79 141h95l34 -66l34 66h96l-79 -141h-101z" />
    <glyph glyph-name="dcaron" unicode="&#x10f;" horiz-adv-x="507" 
d="M236 421q-5 4 -12.5 6.5t-16.5 2.5q-22 0 -30.5 -14.5t-8.5 -47.5v-211q0 -37 8 -52t28 -15q21 0 32 14v317zM365 132q0 -17 7.5 -24.5t26.5 -7.5v-110q-31 0 -53.5 2.5t-38.5 9.5t-27.5 19t-20.5 31q-14 -29 -37.5 -45.5t-65.5 -16.5q-55 0 -86 40.5t-31 127.5v200
q0 93 32.5 132.5t85.5 39.5q51 0 79 -26v206h116l13 -95v-483zM468 554h-66l19 151h98z" />
    <glyph glyph-name="Dcroat" unicode="&#x110;" horiz-adv-x="449" 
d="M10 387h46v278h178q87 0 129.5 -45t42.5 -132v-311q0 -87 -42.5 -132t-129.5 -45h-178v277h-46v110zM277 496q0 21 -9.5 38t-33.5 17h-49v-164h50v-110h-50v-167h49q24 0 33.5 19t9.5 40v327z" />
    <glyph glyph-name="dcroat" unicode="&#x111;" horiz-adv-x="420" 
d="M105 635h131v75h116l10 -75h37v-70h-34v-433q0 -17 7.5 -24.5t26.5 -7.5v-110q-31 0 -53.5 2.5t-38.5 9.5t-27.5 19t-20.5 31q-14 -29 -37.5 -45.5t-65.5 -16.5q-55 0 -86 40.5t-31 127.5v200q0 93 32.5 132.5t85.5 39.5q51 0 79 -26v61h-131v70zM236 421q-5 4 -12.5 6.5
t-16.5 2.5q-22 0 -30.5 -14.5t-8.5 -47.5v-211q0 -37 8 -52t28 -15q21 0 32 14v317z" />
    <glyph glyph-name="Emacron" unicode="&#x112;" horiz-adv-x="372" 
d="M346 551h-167v-141h136v-110h-136v-190h167v-110h-296v665h296v-114zM69 830h242v-100h-242v100z" />
    <glyph glyph-name="emacron" unicode="&#x113;" horiz-adv-x="404" 
d="M168 309h68v48q0 38 -7 55.5t-27 17.5t-27 -17.5t-7 -55.5v-48zM237 175h128v-9q0 -80 -39.5 -128t-124.5 -48q-90 0 -126 50t-36 142v156q0 92 38.5 142t123.5 50q87 0 125.5 -50t38.5 -142v-124h-197v-51q0 -38 7 -55.5t27 -17.5t27.5 17.5t7.5 55.5v12zM80 675h242
v-100h-242v100z" />
    <glyph glyph-name="Ebreve" unicode="&#x114;" horiz-adv-x="372" 
d="M346 551h-167v-141h136v-110h-136v-190h167v-110h-296v665h296v-114zM333 837v-12q0 -51 -32 -83.5t-98 -32.5t-98.5 32.5t-32.5 83.5v12h101v-12q0 -17 8 -23t22 -6t22 6t8 23v12h100z" />
    <glyph glyph-name="ebreve" unicode="&#x115;" horiz-adv-x="404" 
d="M168 309h68v48q0 38 -7 55.5t-27 17.5t-27 -17.5t-7 -55.5v-48zM237 175h128v-9q0 -80 -39.5 -128t-124.5 -48q-90 0 -126 50t-36 142v156q0 92 38.5 142t123.5 50q87 0 125.5 -50t38.5 -142v-124h-197v-51q0 -38 7 -55.5t27 -17.5t27.5 17.5t7.5 55.5v12zM330 682v-12
q0 -51 -32 -83.5t-98 -32.5t-98.5 32.5t-32.5 83.5v12h101v-12q0 -17 8 -23t22 -6t22 6t8 23v12h100z" />
    <glyph glyph-name="Edotaccent" unicode="&#x116;" horiz-adv-x="372" 
d="M346 551h-167v-141h136v-110h-136v-190h167v-110h-296v665h296v-114zM204 841q32 0 50.5 -19.5t18.5 -48.5t-18.5 -48.5t-50.5 -19.5t-51.5 19.5t-19.5 48.5t19.5 48.5t51.5 19.5z" />
    <glyph glyph-name="edotaccent" unicode="&#x117;" horiz-adv-x="404" 
d="M168 309h68v48q0 38 -7 55.5t-27 17.5t-27 -17.5t-7 -55.5v-48zM237 175h128v-9q0 -80 -39.5 -128t-124.5 -48q-90 0 -126 50t-36 142v156q0 92 38.5 142t123.5 50q87 0 125.5 -50t38.5 -142v-124h-197v-51q0 -38 7 -55.5t27 -17.5t27.5 17.5t7.5 55.5v12zM202 686
q32 0 50.5 -19.5t18.5 -48.5t-18.5 -48.5t-50.5 -19.5t-51.5 19.5t-19.5 48.5t19.5 48.5t51.5 19.5z" />
    <glyph glyph-name="Eogonek" unicode="&#x118;" horiz-adv-x="372" 
d="M346 551h-167v-141h136v-110h-136v-190h167v-110h-33q-41 -25 -65 -53t-24 -61q0 -15 6 -20t15 -5q10 0 16 4.5t6 20.5v12h77v-12q0 -17 -5.5 -34.5t-17.5 -32t-31.5 -23.5t-46.5 -9q-52 0 -78.5 25.5t-26.5 65.5q0 42 18.5 71.5t47.5 50.5h-154v665h296v-114z" />
    <glyph glyph-name="eogonek" unicode="&#x119;" horiz-adv-x="404" 
d="M237 175h128v-9q0 -58 -18 -93.5t-48 -61.5q-36 -32 -56 -64t-20 -61q0 -15 6 -20t15 -5q10 0 16 4.5t6 20.5v12h77v-12q0 -17 -5.5 -34.5t-17.5 -32t-31.5 -23.5t-46.5 -9q-52 0 -78.5 25.5t-26.5 65.5q0 36 15 64t38 48q-84 3 -117.5 53t-33.5 139v156q0 92 38.5 142
t123.5 50q87 0 125.5 -50t38.5 -142v-124h-197v-51q0 -38 7 -55.5t27 -17.5t27.5 17.5t7.5 55.5v12zM168 309h68v48q0 38 -7 55.5t-27 17.5t-27 -17.5t-7 -55.5v-48z" />
    <glyph glyph-name="Ecaron" unicode="&#x11a;" horiz-adv-x="372" 
d="M346 551h-167v-141h136v-110h-136v-190h167v-110h-296v665h296v-114zM150 709l-79 141h95l34 -66l34 66h96l-79 -141h-101z" />
    <glyph glyph-name="ecaron" unicode="&#x11b;" horiz-adv-x="404" 
d="M168 309h68v48q0 38 -7 55.5t-27 17.5t-27 -17.5t-7 -55.5v-48zM237 175h128v-9q0 -80 -39.5 -128t-124.5 -48q-90 0 -126 50t-36 142v156q0 92 38.5 142t123.5 50q87 0 125.5 -50t38.5 -142v-124h-197v-51q0 -38 7 -55.5t27 -17.5t27.5 17.5t7.5 55.5v12zM151 554
l-79 141h95l34 -66l34 66h96l-79 -141h-101z" />
    <glyph glyph-name="Gcircumflex" unicode="&#x11c;" horiz-adv-x="430" 
d="M216 279v110h175v-202q0 -95 -44.5 -146t-131.5 -51t-131.5 51t-44.5 146v291q0 95 44 146t131 51q177 0 177 -206v-17h-129v33q0 30 -10.5 55t-36.5 25t-36.5 -25t-10.5 -55v-304q0 -37 10 -58.5t36 -21.5t37 21t11 59v98h-46zM268 850l82 -141h-100l-34 64l-35 -64
h-100l82 141h105z" />
    <glyph glyph-name="gcircumflex" unicode="&#x11d;" horiz-adv-x="412" 
d="M236 418q-10 12 -29 12q-21 0 -30 -17.5t-9 -55.5v-194q0 -38 7.5 -55.5t28.5 -17.5q20 0 32 17v311zM169 -40v-9q0 -33 8 -47t25 -14q20 0 27 13t7 40v97q-11 -23 -32 -36.5t-59 -13.5q-26 0 -45.5 9t-33 31.5t-20.5 59t-7 92.5v156q0 92 35 142t99 50q42 0 63.5 -14
t35.5 -36l10 40h83v-549q0 -84 -41 -132.5t-122 -48.5t-121.5 37.5t-40.5 118.5v14h129zM259 695l82 -141h-100l-34 64l-35 -64h-100l82 141h105z" />
    <glyph glyph-name="Gbreve" unicode="&#x11e;" horiz-adv-x="430" 
d="M216 279v110h175v-202q0 -95 -44.5 -146t-131.5 -51t-131.5 51t-44.5 146v291q0 95 44 146t131 51q177 0 177 -206v-17h-129v33q0 30 -10.5 55t-36.5 25t-36.5 -25t-10.5 -55v-304q0 -37 10 -58.5t36 -21.5t37 21t11 59v98h-46zM344 837v-12q0 -51 -32 -83.5t-98 -32.5
t-98.5 32.5t-32.5 83.5v12h101v-12q0 -17 8 -23t22 -6t22 6t8 23v12h100z" />
    <glyph glyph-name="gbreve" unicode="&#x11f;" horiz-adv-x="412" 
d="M236 418q-10 12 -29 12q-21 0 -30 -17.5t-9 -55.5v-194q0 -38 7.5 -55.5t28.5 -17.5q20 0 32 17v311zM169 -40v-9q0 -33 8 -47t25 -14q20 0 27 13t7 40v97q-11 -23 -32 -36.5t-59 -13.5q-26 0 -45.5 9t-33 31.5t-20.5 59t-7 92.5v156q0 92 35 142t99 50q42 0 63.5 -14
t35.5 -36l10 40h83v-549q0 -84 -41 -132.5t-122 -48.5t-121.5 37.5t-40.5 118.5v14h129zM335 682v-12q0 -51 -32 -83.5t-98 -32.5t-98.5 32.5t-32.5 83.5v12h101v-12q0 -17 8 -23t22 -6t22 6t8 23v12h100z" />
    <glyph glyph-name="Gdotaccent" unicode="&#x120;" horiz-adv-x="430" 
d="M216 279v110h175v-202q0 -95 -44.5 -146t-131.5 -51t-131.5 51t-44.5 146v291q0 95 44 146t131 51q177 0 177 -206v-17h-129v33q0 30 -10.5 55t-36.5 25t-36.5 -25t-10.5 -55v-304q0 -37 10 -58.5t36 -21.5t37 21t11 59v98h-46zM216 841q32 0 50.5 -19.5t18.5 -48.5
t-18.5 -48.5t-50.5 -19.5t-51.5 19.5t-19.5 48.5t19.5 48.5t51.5 19.5z" />
    <glyph glyph-name="gdotaccent" unicode="&#x121;" horiz-adv-x="412" 
d="M236 418q-10 12 -29 12q-21 0 -30 -17.5t-9 -55.5v-194q0 -38 7.5 -55.5t28.5 -17.5q20 0 32 17v311zM169 -40v-9q0 -33 8 -47t25 -14q20 0 27 13t7 40v97q-11 -23 -32 -36.5t-59 -13.5q-26 0 -45.5 9t-33 31.5t-20.5 59t-7 92.5v156q0 92 35 142t99 50q42 0 63.5 -14
t35.5 -36l10 40h83v-549q0 -84 -41 -132.5t-122 -48.5t-121.5 37.5t-40.5 118.5v14h129zM207 686q32 0 50.5 -19.5t18.5 -48.5t-18.5 -48.5t-50.5 -19.5t-51.5 19.5t-19.5 48.5t19.5 48.5t51.5 19.5z" />
    <glyph glyph-name="Gcommaaccent" unicode="&#x122;" horiz-adv-x="430" 
d="M216 279v110h175v-202q0 -95 -44.5 -146t-131.5 -51t-131.5 51t-44.5 146v291q0 95 44 146t131 51q177 0 177 -206v-17h-129v33q0 30 -10.5 55t-36.5 25t-36.5 -25t-10.5 -55v-304q0 -37 10 -58.5t36 -21.5t37 21t11 59v98h-46zM226 -181h-94l36 141h119z" />
    <glyph glyph-name="gcommaaccent" unicode="&#x123;" horiz-adv-x="412" 
d="M236 418q-10 12 -29 12q-21 0 -30 -17.5t-9 -55.5v-194q0 -38 7.5 -55.5t28.5 -17.5q20 0 32 17v311zM169 -40v-9q0 -33 8 -47t25 -14q20 0 27 13t7 40v97q-11 -23 -32 -36.5t-59 -13.5q-26 0 -45.5 9t-33 31.5t-20.5 59t-7 92.5v156q0 92 35 142t99 50q42 0 63.5 -14
t35.5 -36l10 40h83v-549q0 -84 -41 -132.5t-122 -48.5t-121.5 37.5t-40.5 118.5v14h129zM212 695h85l-16 -141h-119z" />
    <glyph glyph-name="Hcircumflex" unicode="&#x124;" horiz-adv-x="457" 
d="M278 0v292h-99v-292h-129v665h129v-263h99v263h129v-665h-129zM281 850l82 -141h-100l-34 64l-35 -64h-100l82 141h105z" />
    <glyph glyph-name="hcircumflex" unicode="&#x125;" horiz-adv-x="419" 
d="M179 504q17 11 38 18.5t51 7.5q59 0 83.5 -39.5t24.5 -122.5v-368h-118l-11 95v282q0 26 -6.5 39.5t-26.5 13.5q-14 0 -22 -3t-13 -7v-420h-129v710h115l14 -95v-111zM234 881l82 -141h-100l-34 64l-35 -64h-100l82 141h105z" />
    <glyph glyph-name="Hbar" unicode="&#x126;" horiz-adv-x="457" 
d="M278 0v292h-99v-292h-129v665h129v-95h99v95h129v-665h-129zM278 402v68h-99v-68h99z" />
    <glyph glyph-name="hbar" unicode="&#x127;" horiz-adv-x="419" 
d="M20 635h30v75h115l11 -75h149v-70h-146v-61q17 11 38 18.5t51 7.5q59 0 83.5 -39.5t24.5 -122.5v-368h-118l-11 95v282q0 26 -6.5 39.5t-26.5 13.5q-14 0 -22 -3t-13 -7v-420h-129v565h-30v70z" />
    <glyph glyph-name="Itilde" unicode="&#x128;" horiz-adv-x="229" 
d="M50 0v665h129v-665h-129zM-37 716q0 62 27.5 90.5t62.5 28.5q22 0 36.5 -4t25.5 -8.5t20 -8t19 -3.5q18 0 18 19v8h94v-8q0 -62 -26 -91.5t-61 -29.5q-19 0 -33.5 4.5t-26.5 10.5t-22 10.5t-19 4.5t-15.5 -5t-6.5 -18v-7h-93v7z" />
    <glyph glyph-name="itilde" unicode="&#x129;" horiz-adv-x="228" 
d="M50 520h118l14 -95v-425h-132v520zM-37 561q0 62 27.5 90.5t62.5 28.5q22 0 36.5 -4t25.5 -8.5t20 -8t19 -3.5q18 0 18 19v8h94v-8q0 -62 -26 -91.5t-61 -29.5q-19 0 -33.5 4.5t-26.5 10.5t-22 10.5t-19 4.5t-15.5 -5t-6.5 -18v-7h-93v7z" />
    <glyph glyph-name="Imacron" unicode="&#x12a;" horiz-adv-x="229" 
d="M50 0v665h129v-665h-129zM-8 830h242v-100h-242v100z" />
    <glyph glyph-name="imacron" unicode="&#x12b;" horiz-adv-x="228" 
d="M50 520h118l14 -95v-425h-132v520zM-8 675h242v-100h-242v100z" />
    <glyph glyph-name="Ibreve" unicode="&#x12c;" horiz-adv-x="229" 
d="M50 0v665h129v-665h-129zM243 837v-12q0 -51 -32 -83.5t-98 -32.5t-98.5 32.5t-32.5 83.5v12h101v-12q0 -17 8 -23t22 -6t22 6t8 23v12h100z" />
    <glyph glyph-name="ibreve" unicode="&#x12d;" horiz-adv-x="228" 
d="M50 520h118l14 -95v-425h-132v520zM243 682v-12q0 -51 -32 -83.5t-98 -32.5t-98.5 32.5t-32.5 83.5v12h101v-12q0 -17 8 -23t22 -6t22 6t8 23v12h100z" />
    <glyph glyph-name="Iogonek" unicode="&#x12e;" horiz-adv-x="229" 
d="M160 0q-41 -25 -65 -53t-24 -61q0 -15 6 -20t15 -5q10 0 16 4.5t6 20.5v12h77v-12q0 -17 -5.5 -34.5t-17.5 -32t-31.5 -23.5t-46.5 -9q-52 0 -78.5 25.5t-26.5 65.5q0 42 18.5 71.5t47.5 50.5h-1v665h129v-665h-19z" />
    <glyph glyph-name="iogonek" unicode="&#x12f;" horiz-adv-x="225" 
d="M50 520h115l14 -95v-425h-20q-41 -25 -65 -53t-24 -61q0 -15 6 -20t15 -5q10 0 16 4.5t6 20.5v12h77v-12q0 -17 -5.5 -34.5t-17.5 -32t-31.5 -23.5t-46.5 -9q-52 0 -78.5 25.5t-26.5 65.5q0 42 18.5 71.5t47.5 50.5v520zM114 686q32 0 50.5 -19.5t18.5 -48.5t-18.5 -48.5
t-50.5 -19.5t-51.5 19.5t-19.5 48.5t19.5 48.5t51.5 19.5z" />
    <glyph glyph-name="Idotaccent" unicode="&#x130;" horiz-adv-x="229" 
d="M50 0v665h129v-665h-129zM115 841q32 0 50.5 -19.5t18.5 -48.5t-18.5 -48.5t-50.5 -19.5t-51.5 19.5t-19.5 48.5t19.5 48.5t51.5 19.5z" />
    <glyph glyph-name="dotlessi" unicode="&#x131;" horiz-adv-x="228" 
d="M50 520h118l14 -95v-425h-132v520z" />
    <glyph glyph-name="IJ" unicode="&#x132;" horiz-adv-x="517" 
d="M50 0v665h129v-665h-129zM255 99q25 1 42 7.5t27.5 17.5t14.5 25.5t4 30.5v485h129v-478q0 -187 -217 -199v111z" />
    <glyph glyph-name="ij" unicode="&#x133;" horiz-adv-x="444" 
d="M50 520h115l14 -95v-425h-129v520zM114 686q32 0 50.5 -19.5t18.5 -48.5t-18.5 -48.5t-50.5 -19.5t-51.5 19.5t-19.5 48.5t19.5 48.5t51.5 19.5zM380 520l14 -95v-443q0 -57 -13.5 -94.5t-38 -59t-59 -30t-75.5 -8.5v110q34 0 45.5 15.5t11.5 57.5v547h115zM329 686
q32 0 50.5 -19.5t18.5 -48.5t-18.5 -48.5t-50.5 -19.5t-51.5 19.5t-19.5 48.5t19.5 48.5t51.5 19.5z" />
    <glyph glyph-name="Jcircumflex" unicode="&#x134;" horiz-adv-x="288" 
d="M26 99q25 1 42 7.5t27.5 17.5t14.5 25.5t4 30.5v485h129v-478q0 -187 -217 -199v111zM231 850l82 -141h-100l-34 64l-35 -64h-100l82 141h105z" />
    <glyph glyph-name="jcircumflex" unicode="&#x135;" horiz-adv-x="232" 
d="M165 520l14 -95v-443q0 -57 -13.5 -94.5t-38 -59t-59 -30t-75.5 -8.5v110q34 0 45.5 15.5t11.5 57.5v547h115zM169 695l82 -141h-100l-34 64l-35 -64h-100l82 141h105z" />
    <glyph glyph-name="Kcommaaccent" unicode="&#x136;" horiz-adv-x="452" 
d="M286 385l155 -385h-136l-106 271l-20 -37v-234h-129v665h129v-256l120 256h136zM236 -181h-94l36 141h119z" />
    <glyph glyph-name="kcommaaccent" unicode="&#x137;" horiz-adv-x="414" 
d="M291 336l102 -336h-129l-60 229l-25 -40v-189h-129v710h115l14 -95v-285l93 190h127zM221 -181h-94l36 141h119z" />
    <glyph glyph-name="Lacute" unicode="&#x139;" horiz-adv-x="386" 
d="M179 665v-555h187v-110h-316v665h129zM254 850l-72 -141h-106l48 141h130z" />
    <glyph glyph-name="lacute" unicode="&#x13a;" horiz-adv-x="226" 
d="M179 615v-615h-118l-11 95v615h115zM231 881l-72 -141h-106l48 141h130z" />
    <glyph glyph-name="Lcommaaccent" unicode="&#x13b;" horiz-adv-x="386" 
d="M179 665v-555h187v-110h-316v665h129zM207 -181h-94l36 141h119z" />
    <glyph glyph-name="lcommaaccent" unicode="&#x13c;" horiz-adv-x="226" 
d="M179 615v-615h-118l-11 95v615h115zM123 -181h-94l36 141h119z" />
    <glyph glyph-name="Lcaron" unicode="&#x13d;" horiz-adv-x="386" 
d="M179 665v-555h187v-110h-316v665h129zM297 534h-66l19 151h98z" />
    <glyph glyph-name="lcaron" unicode="&#x13e;" horiz-adv-x="314" 
d="M179 615v-615h-118l-11 95v615h115zM275 558h-66l19 151h98z" />
    <glyph glyph-name="Ldot" unicode="&#x13f;" horiz-adv-x="386" 
d="M179 665v-555h187v-110h-316v665h129zM303 416q32 0 50.5 -19.5t18.5 -48.5t-18.5 -48.5t-50.5 -19.5t-51.5 19.5t-19.5 48.5t19.5 48.5t51.5 19.5z" />
    <glyph glyph-name="ldot" unicode="&#x140;" horiz-adv-x="370" 
d="M179 615v-615h-118l-11 95v615h115zM292 416q32 0 50.5 -19.5t18.5 -48.5t-18.5 -48.5t-50.5 -19.5t-51.5 19.5t-19.5 48.5t19.5 48.5t51.5 19.5z" />
    <glyph glyph-name="Lslash" unicode="&#x141;" horiz-adv-x="385" 
d="M179 665v-275l107 49v-122l-107 -49v-158h187v-110h-316v210l-41 -18v122l41 18v333h129z" />
    <glyph glyph-name="lslash" unicode="&#x142;" horiz-adv-x="226" 
d="M179 615v-154l39 22v-120l-39 -22v-341h-118l-11 95v173l-35 -19v120l35 19v322h115z" />
    <glyph glyph-name="Nacute" unicode="&#x143;" horiz-adv-x="465" 
d="M415 0h-128l-129 390h-4v-390h-104v665h128l129 -415h4v415h104v-665zM346 850l-72 -141h-106l48 141h130z" />
    <glyph glyph-name="nacute" unicode="&#x144;" horiz-adv-x="419" 
d="M143 480q14 19 41 34.5t69 15.5q62 0 92.5 -39.5t30.5 -122.5v-368h-118l-11 95v282q0 26 -6.5 39.5t-26.5 13.5q-14 0 -22 -3t-13 -7v-420h-129v520h84zM323 695l-72 -141h-106l48 141h130z" />
    <glyph glyph-name="Ncommaaccent" unicode="&#x145;" horiz-adv-x="465" 
d="M415 0h-128l-129 390h-4v-390h-104v665h128l129 -415h4v415h104v-665zM243 -181h-94l36 141h119z" />
    <glyph glyph-name="ncommaaccent" unicode="&#x146;" horiz-adv-x="419" 
d="M143 480q14 19 41 34.5t69 15.5q62 0 92.5 -39.5t30.5 -122.5v-368h-118l-11 95v282q0 26 -6.5 39.5t-26.5 13.5q-14 0 -22 -3t-13 -7v-420h-129v520h84zM220 -181h-94l36 141h119z" />
    <glyph glyph-name="Ncaron" unicode="&#x147;" horiz-adv-x="465" 
d="M415 0h-128l-129 390h-4v-390h-104v665h128l129 -415h4v415h104v-665zM182 709l-79 141h95l34 -66l34 66h96l-79 -141h-101z" />
    <glyph glyph-name="ncaron" unicode="&#x148;" horiz-adv-x="419" 
d="M143 480q14 19 41 34.5t69 15.5q62 0 92.5 -39.5t30.5 -122.5v-368h-118l-11 95v282q0 26 -6.5 39.5t-26.5 13.5q-14 0 -22 -3t-13 -7v-420h-129v520h84zM159 554l-79 141h95l34 -66l34 66h96l-79 -141h-101z" />
    <glyph glyph-name="Omacron" unicode="&#x14c;" 
d="M381 187q0 -95 -42.5 -146t-129.5 -51t-128.5 51t-41.5 146v291q0 95 42 146t129 51t129 -51t42 -146v-291zM252 485q0 30 -8.5 55t-34.5 25q-14 0 -22 -7t-12 -18t-5.5 -25.5t-1.5 -29.5v-304q0 -15 1.5 -29.5t5.5 -25.5t12 -18t22 -7q26 0 34.5 25t8.5 55v304zM89 830
h242v-100h-242v100z" />
    <glyph glyph-name="omacron" unicode="&#x14d;" horiz-adv-x="405" 
d="M365 180q0 -92 -38.5 -141t-125.5 -49q-85 0 -123.5 49t-38.5 141v160q0 92 38.5 141t123.5 49q87 0 125.5 -49t38.5 -141v-160zM236 357q0 38 -7 55.5t-27 17.5t-27 -17.5t-7 -55.5v-194q0 -38 7 -55.5t27 -17.5t27 17.5t7 55.5v194zM81 675h242v-100h-242v100z" />
    <glyph glyph-name="Obreve" unicode="&#x14e;" 
d="M381 187q0 -95 -42.5 -146t-129.5 -51t-128.5 51t-41.5 146v291q0 95 42 146t129 51t129 -51t42 -146v-291zM252 485q0 30 -8.5 55t-34.5 25q-14 0 -22 -7t-12 -18t-5.5 -25.5t-1.5 -29.5v-304q0 -15 1.5 -29.5t5.5 -25.5t12 -18t22 -7q26 0 34.5 25t8.5 55v304zM339 837
v-12q0 -51 -32 -83.5t-98 -32.5t-98.5 32.5t-32.5 83.5v12h101v-12q0 -17 8 -23t22 -6t22 6t8 23v12h100z" />
    <glyph glyph-name="obreve" unicode="&#x14f;" horiz-adv-x="405" 
d="M365 180q0 -92 -38.5 -141t-125.5 -49q-85 0 -123.5 49t-38.5 141v160q0 92 38.5 141t123.5 49q87 0 125.5 -49t38.5 -141v-160zM236 357q0 38 -7 55.5t-27 17.5t-27 -17.5t-7 -55.5v-194q0 -38 7 -55.5t27 -17.5t27 17.5t7 55.5v194zM331 682v-12q0 -51 -32 -83.5
t-98 -32.5t-98.5 32.5t-32.5 83.5v12h101v-12q0 -17 8 -23t22 -6t22 6t8 23v12h100z" />
    <glyph glyph-name="Ohungarumlaut" unicode="&#x150;" 
d="M381 187q0 -95 -42.5 -146t-129.5 -51t-128.5 51t-41.5 146v291q0 95 42 146t129 51t129 -51t42 -146v-291zM252 485q0 30 -8.5 55t-34.5 25q-14 0 -22 -7t-12 -18t-5.5 -25.5t-1.5 -29.5v-304q0 -15 1.5 -29.5t5.5 -25.5t12 -18t22 -7q26 0 34.5 25t8.5 55v304zM415 850
l-88 -141h-100l64 141h124zM253 850l-77 -141h-100l53 141h124z" />
    <glyph glyph-name="ohungarumlaut" unicode="&#x151;" horiz-adv-x="405" 
d="M365 180q0 -92 -38.5 -141t-125.5 -49q-85 0 -123.5 49t-38.5 141v160q0 92 38.5 141t123.5 49q87 0 125.5 -49t38.5 -141v-160zM236 357q0 38 -7 55.5t-27 17.5t-27 -17.5t-7 -55.5v-194q0 -38 7 -55.5t27 -17.5t27 17.5t7 55.5v194zM407 695l-88 -141h-100l64 141h124z
M245 695l-77 -141h-100l53 141h124z" />
    <glyph glyph-name="OE" unicode="&#x152;" horiz-adv-x="577" 
d="M551 551h-167v-141h136v-110h-136v-190h167v-110h-265v30q-16 -17 -37.5 -28.5t-62.5 -11.5q-64 0 -105.5 51t-41.5 146v301q0 91 41.5 139t105.5 48q41 0 63.5 -13t36.5 -27v30h265v-114zM212 101q25 0 34 25t9 55v314q0 13 -2 25.5t-6.5 22.5t-13 16t-21.5 6t-21 -6
t-12 -16t-5.5 -22.5t-1.5 -25.5v-314q0 -15 1.5 -29.5t5.5 -25.5t12 -18t21 -7z" />
    <glyph glyph-name="oe" unicode="&#x153;" horiz-adv-x="601" 
d="M301 480q21 26 48 38t65 12q75 0 112 -50t37 -142v-124h-198v-51q0 -38 7 -55.5t27 -17.5t27.5 17.5t7.5 55.5v12h129v-9q0 -40 -7.5 -72.5t-25 -55.5t-46 -35.5t-70.5 -12.5q-72 0 -113 50q-23 -25 -48.5 -37.5t-66.5 -12.5q-73 0 -110 49t-37 141v160q0 92 42 141
t113 49q38 0 62.5 -12t44.5 -38zM236 357q0 38 -7 55.5t-27 17.5t-27 -17.5t-7 -55.5v-194q0 -38 7 -55.5t27 -17.5t27 17.5t7 55.5v194zM365 309h68v48q0 38 -7 55.5t-27 17.5t-27 -17t-7 -56v-48z" />
    <glyph glyph-name="Racute" unicode="&#x154;" horiz-adv-x="439" 
d="M395 460q0 -51 -20.5 -89.5t-53.5 -60.5l104 -310h-135l-76 274h-35v-274h-129v665h172q87 0 130 -45t43 -132v-28zM266 495q0 56 -53 56h-34v-167h33q28 0 41 12.5t13 47.5v51zM332 850l-72 -141h-106l48 141h130z" />
    <glyph glyph-name="racute" unicode="&#x155;" horiz-adv-x="315" 
d="M50 520h84l10 -40q20 23 45 36.5t59 13.5q35 0 55 -12l-29 -109q-8 5 -17.5 6.5t-18.5 1.5q-19 0 -33.5 -6t-25.5 -16v-395h-129v520zM271 695l-72 -141h-106l48 141h130z" />
    <glyph glyph-name="Rcommaaccent" unicode="&#x156;" horiz-adv-x="440" 
d="M395 460q0 -51 -20.5 -89.5t-53.5 -60.5l104 -310h-135l-76 274h-35v-274h-129v665h172q87 0 130 -45t43 -132v-28zM266 495q0 56 -53 56h-34v-167h33q28 0 41 12.5t13 47.5v51zM229 -181h-94l36 141h119z" />
    <glyph glyph-name="rcommaaccent" unicode="&#x157;" horiz-adv-x="315" 
d="M50 520h84l10 -40q20 23 45 36.5t59 13.5q35 0 55 -12l-29 -109q-8 5 -17.5 6.5t-18.5 1.5q-19 0 -33.5 -6t-25.5 -16v-395h-129v520zM121 -181h-94l36 141h119z" />
    <glyph glyph-name="Rcaron" unicode="&#x158;" horiz-adv-x="439" 
d="M395 460q0 -51 -20.5 -89.5t-53.5 -60.5l104 -310h-135l-76 274h-35v-274h-129v665h172q87 0 130 -45t43 -132v-28zM266 495q0 56 -53 56h-34v-167h33q28 0 41 12.5t13 47.5v51zM168 709l-79 141h95l34 -66l34 66h96l-79 -141h-101z" />
    <glyph glyph-name="rcaron" unicode="&#x159;" horiz-adv-x="315" 
d="M50 520h84l10 -40q20 23 45 36.5t59 13.5q35 0 55 -12l-29 -109q-8 5 -17.5 6.5t-18.5 1.5q-19 0 -33.5 -6t-25.5 -16v-395h-129v520zM114 554l-79 141h95l34 -66l34 66h96l-79 -141h-101z" />
    <glyph glyph-name="Sacute" unicode="&#x15a;" horiz-adv-x="400" 
d="M29 511q0 31 10 61t31 52.5t53 36.5t77 14q81 0 126 -41.5t45 -140.5v-41h-129v53q0 23 -8 41.5t-34 18.5q-24 0 -31.5 -18.5t-7.5 -41.5v-19q0 -21 13.5 -41t49.5 -43q28 -18 55 -38.5t47 -44t32.5 -52t12.5 -62.5v-51q0 -30 -9.5 -59t-30.5 -52.5t-53.5 -38
t-77.5 -14.5q-90 0 -130.5 51t-40.5 135v37h132v-53q0 -23 6.5 -41.5t32.5 -18.5q24 0 33 18.5t9 41.5v26q0 35 -23.5 59.5t-55.5 44.5q-59 38 -96.5 79.5t-37.5 97.5v44zM314 850l-72 -141h-106l48 141h130z" />
    <glyph glyph-name="sacute" unicode="&#x15b;" horiz-adv-x="375" 
d="M154 169v-12q0 -33 6 -50t28 -17q37 0 37 48q0 12 -4 22t-14 20.5t-27.5 22.5t-44.5 27q-56 30 -82.5 66t-26.5 91q0 25 9 50.5t28.5 46t50 33.5t72.5 13q78 0 118 -42.5t40 -120.5v-10h-124v22q0 24 -6.5 37.5t-27.5 13.5q-19 0 -26.5 -11t-7.5 -30q0 -31 24 -49t71 -40
q58 -29 80 -68t22 -83q0 -26 -9 -54.5t-28 -51.5t-49 -38t-72 -15q-83 0 -122 43.5t-39 126.5v9h124zM301 695l-72 -141h-106l48 141h130z" />
    <glyph glyph-name="Scircumflex" unicode="&#x15c;" horiz-adv-x="400" 
d="M29 511q0 31 10 61t31 52.5t53 36.5t77 14q81 0 126 -41.5t45 -140.5v-41h-129v53q0 23 -8 41.5t-34 18.5q-24 0 -31.5 -18.5t-7.5 -41.5v-19q0 -21 13.5 -41t49.5 -43q28 -18 55 -38.5t47 -44t32.5 -52t12.5 -62.5v-51q0 -30 -9.5 -59t-30.5 -52.5t-53.5 -38
t-77.5 -14.5q-90 0 -130.5 51t-40.5 135v37h132v-53q0 -23 6.5 -41.5t32.5 -18.5q24 0 33 18.5t9 41.5v26q0 35 -23.5 59.5t-55.5 44.5q-59 38 -96.5 79.5t-37.5 97.5v44zM253 850l82 -141h-100l-34 64l-35 -64h-100l82 141h105z" />
    <glyph glyph-name="scircumflex" unicode="&#x15d;" horiz-adv-x="375" 
d="M154 169v-12q0 -33 6 -50t28 -17q37 0 37 48q0 12 -4 22t-14 20.5t-27.5 22.5t-44.5 27q-56 30 -82.5 66t-26.5 91q0 25 9 50.5t28.5 46t50 33.5t72.5 13q78 0 118 -42.5t40 -120.5v-10h-124v22q0 24 -6.5 37.5t-27.5 13.5q-19 0 -26.5 -11t-7.5 -30q0 -31 24 -49t71 -40
q58 -29 80 -68t22 -83q0 -26 -9 -54.5t-28 -51.5t-49 -38t-72 -15q-83 0 -122 43.5t-39 126.5v9h124zM240 695l82 -141h-100l-34 64l-35 -64h-100l82 141h105z" />
    <glyph glyph-name="Scedilla" unicode="&#x15e;" horiz-adv-x="400" 
d="M157 -6q-68 11 -98 59.5t-30 122.5v37h132v-53q0 -23 6.5 -41.5t32.5 -18.5q24 0 33 18.5t9 41.5v26q0 35 -23.5 59.5t-55.5 44.5q-59 38 -96.5 79.5t-37.5 97.5v44q0 31 10 61t31 52.5t53 36.5t77 14q81 0 126 -41.5t45 -140.5v-41h-129v53q0 23 -8 41.5t-34 18.5
q-24 0 -31.5 -18.5t-7.5 -41.5v-19q0 -21 13.5 -41t49.5 -43q28 -18 55 -38.5t47 -44t32.5 -52t12.5 -62.5v-51q0 -28 -8.5 -55.5t-26.5 -50t-45.5 -37.5t-66.5 -19v-20h7q19 0 36.5 -4.5t30.5 -15t20.5 -27t7.5 -41.5q0 -51 -30 -77.5t-83 -26.5q-52 0 -79 24.5t-27 71.5v2
h77v-2q0 -11 7.5 -19.5t21.5 -8.5q29 0 29 33q0 20 -12 26.5t-38 6.5h-35v80z" />
    <glyph glyph-name="scedilla" unicode="&#x15f;" horiz-adv-x="375" 
d="M145 -6q-60 11 -87.5 53t-27.5 113v9h124v-12q0 -33 6 -50t28 -17q37 0 37 48q0 12 -4 22t-14 20.5t-27.5 22.5t-44.5 27q-56 30 -82.5 66t-26.5 91q0 25 9 50.5t28.5 46t50 33.5t72.5 13q78 0 118 -42.5t40 -120.5v-10h-124v22q0 24 -6.5 37.5t-27.5 13.5
q-19 0 -26.5 -11t-7.5 -30q0 -31 24 -49t71 -40q58 -29 80 -68t22 -83q0 -25 -8 -51.5t-24.5 -49t-42.5 -38t-62 -19.5v-19h7q19 0 36.5 -4.5t30.5 -15t20.5 -27t7.5 -41.5q0 -51 -30 -77.5t-83 -26.5q-52 0 -79 24.5t-27 71.5v2h77v-2q0 -11 7.5 -19.5t21.5 -8.5
q29 0 29 33q0 20 -12 26.5t-38 6.5h-35v80z" />
    <glyph glyph-name="Scaron" unicode="&#x160;" horiz-adv-x="400" 
d="M29 511q0 31 10 61t31 52.5t53 36.5t77 14q81 0 126 -41.5t45 -140.5v-41h-129v53q0 23 -8 41.5t-34 18.5q-24 0 -31.5 -18.5t-7.5 -41.5v-19q0 -21 13.5 -41t49.5 -43q28 -18 55 -38.5t47 -44t32.5 -52t12.5 -62.5v-51q0 -30 -9.5 -59t-30.5 -52.5t-53.5 -38
t-77.5 -14.5q-90 0 -130.5 51t-40.5 135v37h132v-53q0 -23 6.5 -41.5t32.5 -18.5q24 0 33 18.5t9 41.5v26q0 35 -23.5 59.5t-55.5 44.5q-59 38 -96.5 79.5t-37.5 97.5v44zM150 709l-79 141h95l34 -66l34 66h96l-79 -141h-101z" />
    <glyph glyph-name="scaron" unicode="&#x161;" horiz-adv-x="375" 
d="M154 169v-12q0 -33 6 -50t28 -17q37 0 37 48q0 12 -4 22t-14 20.5t-27.5 22.5t-44.5 27q-56 30 -82.5 66t-26.5 91q0 25 9 50.5t28.5 46t50 33.5t72.5 13q78 0 118 -42.5t40 -120.5v-10h-124v22q0 24 -6.5 37.5t-27.5 13.5q-19 0 -26.5 -11t-7.5 -30q0 -31 24 -49t71 -40
q58 -29 80 -68t22 -83q0 -26 -9 -54.5t-28 -51.5t-49 -38t-72 -15q-83 0 -122 43.5t-39 126.5v9h124zM138 554l-79 141h95l34 -66l34 66h96l-79 -141h-101z" />
    <glyph glyph-name="uni0162" unicode="&#x162;" horiz-adv-x="398" 
d="M132 0v551h-118v114h369v-114h-122v-551h-129zM199 -181h-94l36 141h119z" />
    <glyph glyph-name="uni0163" unicode="&#x163;" horiz-adv-x="305" 
d="M297 14q-22 -12 -42.5 -18t-49.5 -6q-86 0 -123 44.5t-37 127.5v458h115l14 -90v-10h104v-100h-104v-264q0 -20 8 -38t37 -18q25 0 48 13zM180 -181h-94l36 141h119z" />
    <glyph glyph-name="Tcaron" unicode="&#x164;" horiz-adv-x="398" 
d="M132 0v551h-118v114h369v-114h-122v-551h-129zM149 709l-79 141h95l34 -66l34 66h96l-79 -141h-101z" />
    <glyph glyph-name="tcaron" unicode="&#x165;" horiz-adv-x="320" 
d="M297 14q-22 -12 -42.5 -18t-49.5 -6q-86 0 -123 44.5t-37 127.5v458h115l14 -90v-10h104v-100h-104v-264q0 -20 8 -38t37 -18q25 0 48 13zM265 574h-66l19 151h98z" />
    <glyph glyph-name="Tbar" unicode="&#x166;" horiz-adv-x="398" 
d="M50 427h82v124h-118v114h369v-114h-122v-124h83v-100h-83v-327h-129v327h-82v100z" />
    <glyph glyph-name="tbar" unicode="&#x167;" horiz-adv-x="305" 
d="M297 14q-22 -12 -42.5 -18t-49.5 -6q-86 0 -123 44.5t-37 127.5v458h115l14 -90v-10h104v-100h-104v-79h104v-90h-104v-95q0 -20 8 -38t37 -18q25 0 48 13z" />
    <glyph glyph-name="Utilde" unicode="&#x168;" horiz-adv-x="435" 
d="M390 665v-478q0 -95 -43 -146t-130 -51t-129.5 51t-42.5 146v478h129v-485q0 -14 2.5 -28t7.5 -25.5t13 -18.5t20 -7t20.5 7t14 18t7.5 25.5t2 28.5v485h129zM67 716q0 62 27.5 90.5t62.5 28.5q22 0 36.5 -4t25.5 -8.5t20 -8t19 -3.5q18 0 18 19v8h94v-8q0 -62 -26 -91.5
t-61 -29.5q-19 0 -33.5 4.5t-26.5 10.5t-22 10.5t-19 4.5t-15.5 -5t-6.5 -18v-7h-93v7z" />
    <glyph glyph-name="utilde" unicode="&#x169;" 
d="M44 520h129v-374q0 -28 7 -42t27 -14q25 0 34 14v416h129v-390q0 -12 7 -21t27 -9v-110q-31 0 -53.5 2.5t-38.5 9.5t-27.5 19t-20.5 31q-14 -29 -40.5 -45.5t-68.5 -16.5q-54 0 -82.5 34t-28.5 115v381zM59 561q0 62 27.5 90.5t62.5 28.5q22 0 36.5 -4t25.5 -8.5t20 -8
t19 -3.5q18 0 18 19v8h94v-8q0 -62 -26 -91.5t-61 -29.5q-19 0 -33.5 4.5t-26.5 10.5t-22 10.5t-19 4.5t-15.5 -5t-6.5 -18v-7h-93v7z" />
    <glyph glyph-name="Umacron" unicode="&#x16a;" horiz-adv-x="435" 
d="M390 665v-478q0 -95 -43 -146t-130 -51t-129.5 51t-42.5 146v478h129v-485q0 -14 2.5 -28t7.5 -25.5t13 -18.5t20 -7t20.5 7t14 18t7.5 25.5t2 28.5v485h129zM97 830h242v-100h-242v100z" />
    <glyph glyph-name="umacron" unicode="&#x16b;" 
d="M44 520h129v-374q0 -28 7 -42t27 -14q25 0 34 14v416h129v-390q0 -12 7 -21t27 -9v-110q-31 0 -53.5 2.5t-38.5 9.5t-27.5 19t-20.5 31q-14 -29 -40.5 -45.5t-68.5 -16.5q-54 0 -82.5 34t-28.5 115v381zM89 675h242v-100h-242v100z" />
    <glyph glyph-name="Ubreve" unicode="&#x16c;" horiz-adv-x="435" 
d="M390 665v-478q0 -95 -43 -146t-130 -51t-129.5 51t-42.5 146v478h129v-485q0 -14 2.5 -28t7.5 -25.5t13 -18.5t20 -7t20.5 7t14 18t7.5 25.5t2 28.5v485h129zM347 837v-12q0 -51 -32 -83.5t-98 -32.5t-98.5 32.5t-32.5 83.5v12h101v-12q0 -17 8 -23t22 -6t22 6t8 23v12
h100z" />
    <glyph glyph-name="ubreve" unicode="&#x16d;" 
d="M44 520h129v-374q0 -28 7 -42t27 -14q25 0 34 14v416h129v-390q0 -12 7 -21t27 -9v-110q-31 0 -53.5 2.5t-38.5 9.5t-27.5 19t-20.5 31q-14 -29 -40.5 -45.5t-68.5 -16.5q-54 0 -82.5 34t-28.5 115v381zM339 682v-12q0 -51 -32 -83.5t-98 -32.5t-98.5 32.5t-32.5 83.5v12
h101v-12q0 -17 8 -23t22 -6t22 6t8 23v12h100z" />
    <glyph glyph-name="Uring" unicode="&#x16e;" horiz-adv-x="435" 
d="M390 665v-478q0 -95 -43 -146t-130 -51t-129.5 51t-42.5 146v478h129v-485q0 -14 2.5 -28t7.5 -25.5t13 -18.5t20 -7t20.5 7t14 18t7.5 25.5t2 28.5v485h129zM190 789q0 -13 7 -21.5t22 -8.5t22 8.5t7 21.5q0 14 -7 22t-22 8t-22 -8t-7 -22zM121 789q0 43 27.5 66.5
t70.5 23.5t70.5 -23.5t27.5 -66.5t-27.5 -66.5t-70.5 -23.5t-70.5 23.5t-27.5 66.5z" />
    <glyph glyph-name="uring" unicode="&#x16f;" 
d="M44 520h129v-374q0 -28 7 -42t27 -14q25 0 34 14v416h129v-390q0 -12 7 -21t27 -9v-110q-31 0 -53.5 2.5t-38.5 9.5t-27.5 19t-20.5 31q-14 -29 -40.5 -45.5t-68.5 -16.5q-54 0 -82.5 34t-28.5 115v381zM181 634q0 -13 7 -21.5t22 -8.5t22 8.5t7 21.5q0 14 -7 22t-22 8
t-22 -8t-7 -22zM112 634q0 43 27.5 66.5t70.5 23.5t70.5 -23.5t27.5 -66.5t-27.5 -66.5t-70.5 -23.5t-70.5 23.5t-27.5 66.5z" />
    <glyph glyph-name="Uhungarumlaut" unicode="&#x170;" horiz-adv-x="435" 
d="M390 665v-478q0 -95 -43 -146t-130 -51t-129.5 51t-42.5 146v478h129v-485q0 -14 2.5 -28t7.5 -25.5t13 -18.5t20 -7t20.5 7t14 18t7.5 25.5t2 28.5v485h129zM423 850l-88 -141h-100l64 141h124zM261 850l-77 -141h-100l53 141h124z" />
    <glyph glyph-name="uhungarumlaut" unicode="&#x171;" 
d="M44 520h129v-374q0 -28 7 -42t27 -14q25 0 34 14v416h129v-390q0 -12 7 -21t27 -9v-110q-31 0 -53.5 2.5t-38.5 9.5t-27.5 19t-20.5 31q-14 -29 -40.5 -45.5t-68.5 -16.5q-54 0 -82.5 34t-28.5 115v381zM415 695l-88 -141h-100l64 141h124zM253 695l-77 -141h-100l53 141
h124z" />
    <glyph glyph-name="Uogonek" unicode="&#x172;" horiz-adv-x="435" 
d="M390 665v-478q0 -36 -6 -63.5t-16.5 -48.5t-25 -37t-32.5 -30q-38 -29 -58 -61t-20 -61q0 -15 6 -20t15 -5q10 0 16 4.5t6 20.5v12h77v-12q0 -17 -5.5 -34.5t-17.5 -32t-31.5 -23.5t-46.5 -9q-52 0 -78.5 25.5t-26.5 65.5q0 37 15 65t40 49q-79 5 -117.5 54.5
t-38.5 140.5v478h129v-485q0 -14 2.5 -28t7.5 -25.5t13 -18.5t20 -7t20.5 7t14 18t7.5 25.5t2 28.5v485h129z" />
    <glyph glyph-name="uogonek" unicode="&#x173;" 
d="M44 520h129v-377q0 -28 7 -40.5t27 -12.5q25 0 34 14v416h129v-397q0 -12 7 -17.5t27 -5.5v-110q-13 0 -24.5 0.5t-21.5 1.5q-35 -23 -55 -49t-20 -57q0 -15 6 -20t15 -5q10 0 16 4.5t6 20.5v12h77v-12q0 -17 -5.5 -34.5t-17.5 -32t-31.5 -23.5t-46.5 -9
q-52 0 -78.5 25.5t-26.5 65.5q0 50 26.5 83t64.5 55q-14 13 -24 36q-14 -29 -40.5 -45.5t-68.5 -16.5q-54 0 -82.5 36t-28.5 113v381z" />
    <glyph glyph-name="Wcircumflex" unicode="&#x174;" horiz-adv-x="591" 
d="M339 665l66 -421h5l35 421h129l-93 -665h-125l-63 340h-5l-63 -340h-117l-92 665h129l34 -421h5l65 421h90zM347 850l82 -141h-100l-34 64l-35 -64h-100l82 141h105z" />
    <glyph glyph-name="wcircumflex" unicode="&#x175;" horiz-adv-x="590" 
d="M244 520h101l52 -283h5l40 283h129l-91 -520h-121l-62 261h-7l-61 -261h-120l-90 520h129l36 -283h4zM347 695l82 -141h-100l-34 64l-35 -64h-100l82 141h105z" />
    <glyph glyph-name="Ycircumflex" unicode="&#x176;" horiz-adv-x="444" 
d="M286 190v-190h-129v191l-141 474h134l69 -298h5l70 298h134zM274 850l82 -141h-100l-34 64l-35 -64h-100l82 141h105z" />
    <glyph glyph-name="ycircumflex" unicode="&#x177;" horiz-adv-x="388" 
d="M20 520h129l46 -309h4l43 309h129l-129 -565q-8 -32 -24 -62t-43 -53t-65 -36.5t-89 -13.5v110q33 0 64.5 16t41.5 52l7 28zM246 695l82 -141h-100l-34 64l-35 -64h-100l82 141h105z" />
    <glyph glyph-name="Ydieresis" unicode="&#x178;" horiz-adv-x="444" 
d="M286 190v-190h-129v191l-141 474h134l69 -298h5l70 298h134zM143 843q30 0 48 -18.5t18 -46.5q0 -27 -18 -45.5t-48 -18.5q-29 0 -48 18.5t-19 45.5q0 28 19 46.5t48 18.5zM301 843q30 0 48 -18.5t18 -46.5q0 -27 -18 -45.5t-48 -18.5q-29 0 -48 18.5t-19 45.5
q0 28 19 46.5t48 18.5z" />
    <glyph glyph-name="Zacute" unicode="&#x179;" horiz-adv-x="375" 
d="M27 551v114h326v-130l-210 -425h204v-110h-325v130l210 421h-205zM301 850l-72 -141h-106l48 141h130z" />
    <glyph glyph-name="zacute" unicode="&#x17a;" horiz-adv-x="321" 
d="M32 410v110h263v-120l-151 -290h146v-110h-264v120l151 290h-145zM274 695l-72 -141h-106l48 141h130z" />
    <glyph glyph-name="Zdotaccent" unicode="&#x17b;" horiz-adv-x="375" 
d="M27 551v114h326v-130l-210 -425h204v-110h-325v130l210 421h-205zM188 841q32 0 50.5 -19.5t18.5 -48.5t-18.5 -48.5t-50.5 -19.5t-51.5 19.5t-19.5 48.5t19.5 48.5t51.5 19.5z" />
    <glyph glyph-name="zdotaccent" unicode="&#x17c;" horiz-adv-x="321" 
d="M32 410v110h263v-120l-151 -290h146v-110h-264v120l151 290h-145zM161 686q32 0 50.5 -19.5t18.5 -48.5t-18.5 -48.5t-50.5 -19.5t-51.5 19.5t-19.5 48.5t19.5 48.5t51.5 19.5z" />
    <glyph glyph-name="Zcaron" unicode="&#x17d;" horiz-adv-x="375" 
d="M27 551v114h326v-130l-210 -425h204v-110h-325v130l210 421h-205zM137 709l-79 141h95l34 -66l34 66h96l-79 -141h-101z" />
    <glyph glyph-name="zcaron" unicode="&#x17e;" horiz-adv-x="321" 
d="M32 410v110h263v-120l-151 -290h146v-110h-264v120l151 290h-145zM110 554l-79 141h95l34 -66l34 66h96l-79 -141h-101z" />
    <glyph glyph-name="florin" unicode="&#x192;" horiz-adv-x="491" 
d="M311 176q0 -94 -44.5 -140t-125.5 -46q-51 0 -80 14.5t-51 35.5l77 70q7 -7 18 -13.5t25 -6.5q28 0 38.5 18.5t10.5 49.5v321q0 97 42 146.5t123 49.5q54 0 84 -14.5t52 -35.5l-76 -74q-9 9 -19.5 16.5t-27.5 7.5q-26 0 -36 -18t-10 -46v-116h104v-100h-104v-119z" />
    <glyph glyph-name="uni0218" unicode="&#x218;" horiz-adv-x="400" 
d="M29 511q0 31 10 61t31 52.5t53 36.5t77 14q81 0 126 -41.5t45 -140.5v-41h-129v53q0 23 -8 41.5t-34 18.5q-24 0 -31.5 -18.5t-7.5 -41.5v-19q0 -21 13.5 -41t49.5 -43q28 -18 55 -38.5t47 -44t32.5 -52t12.5 -62.5v-51q0 -30 -9.5 -59t-30.5 -52.5t-53.5 -38
t-77.5 -14.5q-90 0 -130.5 51t-40.5 135v37h132v-53q0 -23 6.5 -41.5t32.5 -18.5q24 0 33 18.5t9 41.5v26q0 35 -23.5 59.5t-55.5 44.5q-59 38 -96.5 79.5t-37.5 97.5v44zM210 -181h-94l36 141h119z" />
    <glyph glyph-name="uni0219" unicode="&#x219;" horiz-adv-x="375" 
d="M154 169v-12q0 -33 6 -50t28 -17q37 0 37 48q0 12 -4 22t-14 20.5t-27.5 22.5t-44.5 27q-56 30 -82.5 66t-26.5 91q0 25 9 50.5t28.5 46t50 33.5t72.5 13q78 0 118 -42.5t40 -120.5v-10h-124v22q0 24 -6.5 37.5t-27.5 13.5q-19 0 -26.5 -11t-7.5 -30q0 -31 24 -49t71 -40
q58 -29 80 -68t22 -83q0 -26 -9 -54.5t-28 -51.5t-49 -38t-72 -15q-83 0 -122 43.5t-39 126.5v9h124zM198 -181h-94l36 141h119z" />
    <glyph glyph-name="uni021A" unicode="&#x21a;" horiz-adv-x="398" 
d="M132 0v551h-118v114h369v-114h-122v-551h-129zM199 -181h-94l36 141h119z" />
    <glyph glyph-name="uni021B" unicode="&#x21b;" horiz-adv-x="305" 
d="M297 14q-22 -12 -42.5 -18t-49.5 -6q-86 0 -123 44.5t-37 127.5v458h115l14 -90v-10h104v-100h-104v-264q0 -20 8 -38t37 -18q25 0 48 13zM180 -181h-94l36 141h119z" />
    <glyph glyph-name="dotlessj" unicode="&#x237;" horiz-adv-x="229" 
d="M165 520l14 -95v-443q0 -57 -13.5 -94.5t-38 -59t-59 -30t-75.5 -8.5v110q34 0 45.5 15.5t11.5 57.5v547h115z" />
    <glyph glyph-name="circumflex" unicode="&#x2c6;" horiz-adv-x="437" 
d="M271 695l82 -141h-100l-34 64l-35 -64h-100l82 141h105z" />
    <glyph glyph-name="caron" unicode="&#x2c7;" horiz-adv-x="437" 
d="M168 554l-79 141h95l34 -66l34 66h96l-79 -141h-101z" />
    <glyph glyph-name="breve" unicode="&#x2d8;" horiz-adv-x="437" 
d="M347 682v-12q0 -51 -32 -83.5t-98 -32.5t-98.5 32.5t-32.5 83.5v12h101v-12q0 -17 8 -23t22 -6t22 6t8 23v12h100z" />
    <glyph glyph-name="dotaccent" unicode="&#x2d9;" horiz-adv-x="437" 
d="M219 686q32 0 50.5 -19.5t18.5 -48.5t-18.5 -48.5t-50.5 -19.5t-51.5 19.5t-19.5 48.5t19.5 48.5t51.5 19.5z" />
    <glyph glyph-name="ring" unicode="&#x2da;" horiz-adv-x="437" 
d="M190 634q0 -13 7 -21.5t22 -8.5t22 8.5t7 21.5q0 14 -7 22t-22 8t-22 -8t-7 -22zM121 634q0 43 27.5 66.5t70.5 23.5t70.5 -23.5t27.5 -66.5t-27.5 -66.5t-70.5 -23.5t-70.5 23.5t-27.5 66.5z" />
    <glyph glyph-name="ogonek" unicode="&#x2db;" horiz-adv-x="437" 
d="M312 0q-41 -25 -65 -53t-24 -61q0 -15 6 -20t15 -5q10 0 16 4.5t6 20.5v12h77v-12q0 -17 -5.5 -34.5t-17.5 -32t-31.5 -23.5t-46.5 -9q-52 0 -78.5 25.5t-26.5 65.5q0 33 12 58.5t32.5 45t46 34t52.5 25.5z" />
    <glyph glyph-name="tilde" unicode="&#x2dc;" horiz-adv-x="437" 
d="M67 561q0 62 27.5 90.5t62.5 28.5q22 0 36.5 -4t25.5 -8.5t20 -8t19 -3.5q18 0 18 19v8h94v-8q0 -62 -26 -91.5t-61 -29.5q-19 0 -33.5 4.5t-26.5 10.5t-22 10.5t-19 4.5t-15.5 -5t-6.5 -18v-7h-93v7z" />
    <glyph glyph-name="hungarumlaut" unicode="&#x2dd;" horiz-adv-x="437" 
d="M423 695l-88 -141h-100l64 141h124zM261 695l-77 -141h-100l53 141h124z" />
    <glyph glyph-name="uni0394" unicode="&#x394;" horiz-adv-x="389" 
d="M262 110l-67 325l-68 -325h135zM150 665h90l132 -539v-126h-355v126z" />
    <glyph glyph-name="uni03A9" unicode="&#x3a9;" 
d="M381 261q0 -57 -23 -95.5t-72 -55.5h95v-110h-156v115q17 22 22 52t5 81v250q0 26 -8 46.5t-34 20.5q-27 0 -34.5 -20.5t-7.5 -46.5v-250q0 -50 5.5 -80.5t19.5 -52.5v-115h-154v110h95q-45 17 -70 55.5t-25 95.5v230q0 86 41.5 135t128.5 49t129.5 -49t42.5 -135v-230z
" />
    <glyph glyph-name="pi" unicode="&#x3c0;" horiz-adv-x="512" 
d="M422 0h-129v410h-75v-410h-129v410h-60v110h454v-110h-61v-410z" />
    <glyph glyph-name="Wgrave" unicode="&#x1e80;" horiz-adv-x="591" 
d="M339 665l66 -421h5l35 421h129l-93 -665h-125l-63 340h-5l-63 -340h-117l-92 665h129l34 -421h5l65 421h90zM333 850l47 -141h-105l-72 141h130z" />
    <glyph glyph-name="wgrave" unicode="&#x1e81;" horiz-adv-x="590" 
d="M244 520h101l52 -283h5l40 283h129l-91 -520h-121l-62 261h-7l-61 -261h-120l-90 520h129l36 -283h4zM333 695l47 -141h-105l-72 141h130z" />
    <glyph glyph-name="Wacute" unicode="&#x1e82;" horiz-adv-x="591" 
d="M339 665l66 -421h5l35 421h129l-93 -665h-125l-63 340h-5l-63 -340h-117l-92 665h129l34 -421h5l65 421h90zM408 850l-72 -141h-106l48 141h130z" />
    <glyph glyph-name="wacute" unicode="&#x1e83;" horiz-adv-x="590" 
d="M244 520h101l52 -283h5l40 283h129l-91 -520h-121l-62 261h-7l-61 -261h-120l-90 520h129l36 -283h4zM408 695l-72 -141h-106l48 141h130z" />
    <glyph glyph-name="Wdieresis" unicode="&#x1e84;" horiz-adv-x="591" 
d="M339 665l66 -421h5l35 421h129l-93 -665h-125l-63 340h-5l-63 -340h-117l-92 665h129l34 -421h5l65 421h90zM216 843q30 0 48 -18.5t18 -46.5q0 -27 -18 -45.5t-48 -18.5q-29 0 -48 18.5t-19 45.5q0 28 19 46.5t48 18.5zM374 843q30 0 48 -18.5t18 -46.5q0 -27 -18 -45.5
t-48 -18.5q-29 0 -48 18.5t-19 45.5q0 28 19 46.5t48 18.5z" />
    <glyph glyph-name="wdieresis" unicode="&#x1e85;" horiz-adv-x="590" 
d="M244 520h101l52 -283h5l40 283h129l-91 -520h-121l-62 261h-7l-61 -261h-120l-90 520h129l36 -283h4zM216 688q30 0 48 -18.5t18 -46.5q0 -27 -18 -45.5t-48 -18.5q-29 0 -48 18.5t-19 45.5q0 28 19 46.5t48 18.5zM374 688q30 0 48 -18.5t18 -46.5q0 -27 -18 -45.5
t-48 -18.5q-29 0 -48 18.5t-19 45.5q0 28 19 46.5t48 18.5z" />
    <glyph glyph-name="Ygrave" unicode="&#x1ef2;" horiz-adv-x="444" 
d="M286 190v-190h-129v191l-141 474h134l69 -298h5l70 298h134zM260 850l47 -141h-105l-72 141h130z" />
    <glyph glyph-name="ygrave" unicode="&#x1ef3;" horiz-adv-x="388" 
d="M20 520h129l46 -309h4l43 309h129l-129 -565q-8 -32 -24 -62t-43 -53t-65 -36.5t-89 -13.5v110q33 0 64.5 16t41.5 52l7 28zM232 695l47 -141h-105l-72 141h130z" />
    <glyph glyph-name="endash" unicode="&#x2013;" horiz-adv-x="625" 
d="M62 371h500v-110h-500v110z" />
    <glyph glyph-name="emdash" unicode="&#x2014;" horiz-adv-x="1250" 
d="M62 371h1125v-110h-1125v110z" />
    <glyph glyph-name="quoteleft" unicode="&#x2018;" horiz-adv-x="234" 
d="M94 685h85l-16 -258h-119z" />
    <glyph glyph-name="quoteright" unicode="&#x2019;" horiz-adv-x="234" 
d="M140 427h-85l16 258h119z" />
    <glyph glyph-name="quotesinglbase" unicode="&#x201a;" horiz-adv-x="234" 
d="M140 -171h-85l16 216h119z" />
    <glyph glyph-name="quotedblleft" unicode="&#x201c;" horiz-adv-x="401" 
d="M94 685h85l-16 -258h-119zM260 685h85l-16 -258h-119z" />
    <glyph glyph-name="quotedblright" unicode="&#x201d;" horiz-adv-x="401" 
d="M140 427h-85l16 258h119zM307 427h-85l16 258h119z" />
    <glyph glyph-name="quotedblbase" unicode="&#x201e;" horiz-adv-x="401" 
d="M140 -171h-85l16 216h119zM307 -171h-85l16 216h119z" />
    <glyph glyph-name="dagger" unicode="&#x2020;" horiz-adv-x="367" 
d="M35 541h84v169h129v-169h83v-110h-83v-431h-129v431h-84v110z" />
    <glyph glyph-name="daggerdbl" unicode="&#x2021;" horiz-adv-x="367" 
d="M35 541h84v169h129v-169h83v-110h-83v-151h83v-110h-83v-170h-129v170h-84v110h84v151h-84v110z" />
    <glyph glyph-name="bullet" unicode="&#x2022;" horiz-adv-x="288" 
d="M30 333q0 53 32 84.5t82 31.5t82 -31.5t32 -84.5t-32 -84.5t-82 -31.5t-82 31.5t-32 84.5z" />
    <glyph glyph-name="ellipsis" unicode="&#x2026;" horiz-adv-x="676" 
d="M34 66q0 32 20 51.5t54 19.5t54 -19.5t20 -51.5t-20 -51.5t-54 -19.5t-54 19.5t-20 51.5zM494 66q0 32 20 51.5t54 19.5t54 -19.5t20 -51.5t-20 -51.5t-54 -19.5t-54 19.5t-20 51.5zM264 66q0 32 20 51.5t54 19.5t54 -19.5t20 -51.5t-20 -51.5t-54 -19.5t-54 19.5
t-20 51.5z" />
    <glyph glyph-name="perthousand" unicode="&#x2030;" horiz-adv-x="1124" 
d="M296 396q0 -27 -7.5 -51t-23.5 -42t-41.5 -28.5t-61.5 -10.5t-62 10.5t-42.5 28.5t-24 42t-7.5 51v147q0 26 7.5 50t24 42t42.5 29t62 11t61.5 -11t41.5 -29t23.5 -42t7.5 -50v-147zM187 550q0 15 -5.5 25t-20.5 10q-16 0 -21.5 -10t-5.5 -25v-161q0 -15 5.5 -25
t21.5 -10q15 0 20.5 10t5.5 25v161zM282 0h-108l347 665h108zM777 126q0 -27 -7.5 -51t-23.5 -42t-41.5 -28.5t-61.5 -10.5t-62 10.5t-42.5 28.5t-24 42t-7.5 51v147q0 26 7.5 50t24 42t42.5 29t62 11t61.5 -11t41.5 -29t23.5 -42t7.5 -50v-147zM668 280q0 15 -5.5 25
t-20.5 10q-16 0 -21.5 -10t-5.5 -25v-161q0 -15 5.5 -25t21.5 -10q15 0 20.5 10t5.5 25v161zM1097 126q0 -27 -7.5 -51t-23.5 -42t-41.5 -28.5t-61.5 -10.5t-62 10.5t-42.5 28.5t-24 42t-7.5 51v147q0 26 7.5 50t24 42t42.5 29t62 11t61.5 -11t41.5 -29t23.5 -42t7.5 -50
v-147zM988 280q0 15 -5.5 25t-20.5 10q-16 0 -21.5 -10t-5.5 -25v-161q0 -15 5.5 -25t21.5 -10q15 0 20.5 10t5.5 25v161z" />
    <glyph glyph-name="guilsinglleft" unicode="&#x2039;" horiz-adv-x="303" 
d="M193 493l85 -83l-127 -117l127 -117l-85 -83l-153 145v110z" />
    <glyph glyph-name="guilsinglright" unicode="&#x203a;" horiz-adv-x="303" 
d="M110 93l-85 83l127 117l-127 117l85 83l153 -145v-110z" />
    <glyph glyph-name="fraction" unicode="&#x2044;" horiz-adv-x="159" 
d="M-40 0h-108l347 665h108z" />
    <glyph glyph-name="zerosuperior" unicode="&#x2070;" horiz-adv-x="320" 
d="M295 396q0 -27 -7.5 -51t-23.5 -42t-41.5 -28.5t-61.5 -10.5t-62 10.5t-42.5 28.5t-24 42t-7.5 51v147q0 26 7.5 50t24 42t42.5 29t62 11t61.5 -11t41.5 -29t23.5 -42t7.5 -50v-147zM186 550q0 15 -5.5 25t-20.5 10q-16 0 -21.5 -10t-5.5 -25v-161q0 -15 5.5 -25
t21.5 -10q15 0 20.5 10t5.5 25v161z" />
    <glyph glyph-name="foursuperior" unicode="&#x2074;" horiz-adv-x="321" 
d="M196 331h-173v109l115 229h107l-121 -248h72v57h98v-208h-98v61z" />
    <glyph glyph-name="fivesuperior" unicode="&#x2075;" horiz-adv-x="320" 
d="M25 669h261v-90h-158v-57q21 27 69 27q21 0 38.5 -6t30.5 -20t20.5 -37t7.5 -57v-35q0 -26 -8 -49.5t-25 -41.5t-42.5 -28.5t-60.5 -10.5t-60 9t-41.5 24.5t-24 36t-7.5 43.5v22h108v-12q0 -15 5.5 -24t21.5 -9q14 0 20 9t6 24v44q0 12 -5.5 20.5t-19.5 8.5
q-25 0 -27 -23h-109v232z" />
    <glyph glyph-name="sixsuperior" unicode="&#x2076;" horiz-adv-x="320" 
d="M186 548v5q0 32 -26 32q-27 0 -27 -32v-59q8 14 27 22.5t44 8.5q42 0 66.5 -25.5t24.5 -77.5v-31q0 -26 -7.5 -49t-23.5 -40.5t-41.5 -27.5t-61.5 -10t-62 10t-42.5 27.5t-24 40.5t-7.5 49v151q0 28 7.5 52t24 42t42.5 28.5t62 10.5t61.5 -10t41.5 -26.5t23.5 -38
t7.5 -43.5v-9h-109zM160 354q15 0 20.5 8.5t5.5 23.5v22q0 15 -5.5 23.5t-20.5 8.5t-21 -8.5t-6 -23.5v-22q0 -15 5.5 -23.5t21.5 -8.5z" />
    <glyph glyph-name="sevensuperior" unicode="&#x2077;" horiz-adv-x="320" 
d="M35 270l154 309h-166v90h274v-103l-148 -296h-114z" />
    <glyph glyph-name="eightsuperior" unicode="&#x2078;" horiz-adv-x="320" 
d="M25 571q0 46 35.5 75t100.5 29q32 0 57 -9t42 -23.5t26 -33.5t9 -39v-8q0 -29 -16.5 -47.5t-47.5 -38.5q29 -19 46.5 -40.5t17.5 -56.5v-9q0 -46 -32.5 -76t-101.5 -30q-34 0 -59.5 9t-42.5 23.5t-25.5 33t-8.5 37.5v10q0 34 17 57t45 42q-30 20 -46 38.5t-16 47.5v9z
M133 383q0 -12 6.5 -20.5t20.5 -8.5t20.5 9t6.5 21v5q0 9 -5.5 18.5t-20.5 20.5q-16 -11 -22 -20.5t-6 -18.5v-6zM133 555q0 -10 5.5 -17.5t22.5 -18.5q15 11 20 18.5t5 17.5v4q0 26 -26 26q-27 0 -27 -26v-4z" />
    <glyph glyph-name="ninesuperior" unicode="&#x2079;" horiz-adv-x="320" 
d="M133 391v-7q0 -30 27 -30q26 0 26 30v58q-9 -11 -26 -19.5t-44 -8.5q-41 0 -66 25.5t-25 77.5v31q0 26 7.5 49t24 40.5t42 27.5t61.5 10t61.5 -10t42 -27.5t24 -40.5t7.5 -49v-149q0 -27 -7.5 -51.5t-23.5 -43t-41.5 -29.5t-61.5 -11t-62 10.5t-42.5 27.5t-24 38.5
t-7.5 44.5v6h108zM160 585q-27 0 -27 -32v-21q0 -14 6.5 -23.5t20.5 -9.5t20 9.5t6 23.5v21q0 32 -26 32z" />
    <glyph glyph-name="zeroinferior" unicode="&#x2080;" horiz-adv-x="320" 
d="M295 126q0 -27 -7.5 -51t-23.5 -42t-41.5 -28.5t-61.5 -10.5t-62 10.5t-42.5 28.5t-24 42t-7.5 51v147q0 26 7.5 50t24 42t42.5 29t62 11t61.5 -11t41.5 -29t23.5 -42t7.5 -50v-147zM186 280q0 15 -5.5 25t-20.5 10q-16 0 -21.5 -10t-5.5 -25v-161q0 -15 5.5 -25
t21.5 -10q15 0 20.5 10t5.5 25v161z" />
    <glyph glyph-name="oneinferior" unicode="&#x2081;" horiz-adv-x="320" 
d="M154 0v287l-75 -48l-59 81l119 79h123v-399h-108z" />
    <glyph glyph-name="twoinferior" unicode="&#x2082;" horiz-adv-x="320" 
d="M25 271v13q0 24 7 46t23.5 38.5t43.5 26.5t66 10q70 0 100 -28t30 -71v-10q0 -26 -16.5 -60t-59.5 -77l-70 -69h146v-90h-260v98l60 57q48 47 70 76t22 52v4q0 28 -26 28q-16 0 -22 -10t-6 -24v-10h-108z" />
    <glyph glyph-name="threeinferior" unicode="&#x2083;" horiz-adv-x="321" 
d="M186 291q0 24 -27 24t-27 -30v-4h-108v7q0 53 34 85t106 32q35 0 60 -8.5t40.5 -22.5t22.5 -31.5t7 -35.5v-13q0 -27 -14 -48t-37 -31v-4q51 -23 51 -79v-23q0 -50 -33 -82.5t-101 -32.5t-102 30.5t-34 81.5v20h108v-10q0 -15 6 -23.5t21 -8.5q16 0 21.5 9t5.5 24v10
q0 20 -10.5 28t-33.5 8h-36v86h30q28 0 39 9t11 28v5z" />
    <glyph glyph-name="fourinferior" unicode="&#x2084;" horiz-adv-x="321" 
d="M196 61h-173v109l115 229h107l-121 -248h72v57h98v-208h-98v61z" />
    <glyph glyph-name="fiveinferior" unicode="&#x2085;" horiz-adv-x="320" 
d="M25 399h261v-90h-158v-57q21 27 69 27q21 0 38.5 -6t30.5 -20t20.5 -37t7.5 -57v-35q0 -26 -8 -49.5t-25 -41.5t-42.5 -28.5t-60.5 -10.5t-60 9t-41.5 24.5t-24 36t-7.5 43.5v22h108v-12q0 -15 5.5 -24t21.5 -9q14 0 20 9t6 24v44q0 12 -5.5 20.5t-19.5 8.5
q-25 0 -27 -23h-109v232z" />
    <glyph glyph-name="sixinferior" unicode="&#x2086;" horiz-adv-x="320" 
d="M186 278v5q0 32 -26 32q-27 0 -27 -32v-59q8 14 27 22.5t44 8.5q42 0 66.5 -25.5t24.5 -77.5v-31q0 -26 -7.5 -49t-23.5 -40.5t-41.5 -27.5t-61.5 -10t-62 10t-42.5 27.5t-24 40.5t-7.5 49v151q0 28 7.5 52t24 42t42.5 28.5t62 10.5t61.5 -10t41.5 -26.5t23.5 -38
t7.5 -43.5v-9h-109zM160 84q15 0 20.5 8.5t5.5 23.5v22q0 15 -5.5 23.5t-20.5 8.5t-21 -8.5t-6 -23.5v-22q0 -15 5.5 -23.5t21.5 -8.5z" />
    <glyph glyph-name="seveninferior" unicode="&#x2087;" horiz-adv-x="320" 
d="M35 0l154 309h-166v90h274v-103l-148 -296h-114z" />
    <glyph glyph-name="eightinferior" unicode="&#x2088;" horiz-adv-x="320" 
d="M25 301q0 46 35.5 75t100.5 29q32 0 57 -9t42 -23.5t26 -33.5t9 -39v-8q0 -29 -16.5 -47.5t-47.5 -38.5q29 -19 46.5 -40.5t17.5 -56.5v-9q0 -46 -32.5 -76t-101.5 -30q-34 0 -59.5 9t-42.5 23.5t-25.5 33t-8.5 37.5v10q0 34 17 57t45 42q-30 20 -46 38.5t-16 47.5v9z
M133 113q0 -12 6.5 -20.5t20.5 -8.5t20.5 9t6.5 21v5q0 9 -5.5 18.5t-20.5 20.5q-16 -11 -22 -20.5t-6 -18.5v-6zM133 285q0 -10 5.5 -17.5t22.5 -18.5q15 11 20 18.5t5 17.5v4q0 26 -26 26q-27 0 -27 -26v-4z" />
    <glyph glyph-name="nineinferior" unicode="&#x2089;" horiz-adv-x="320" 
d="M133 121v-7q0 -30 27 -30q26 0 26 30v58q-9 -11 -26 -19.5t-44 -8.5q-41 0 -66 25.5t-25 77.5v31q0 26 7.5 49t24 40.5t42 27.5t61.5 10t61.5 -10t42 -27.5t24 -40.5t7.5 -49v-149q0 -27 -7.5 -51.5t-23.5 -43t-41.5 -29.5t-61.5 -11t-62 10.5t-42.5 27.5t-24 38.5
t-7.5 44.5v6h108zM160 315q-27 0 -27 -32v-21q0 -14 6.5 -23.5t20.5 -9.5t20 9.5t6 23.5v21q0 32 -26 32z" />
    <glyph glyph-name="Euro" unicode="&#x20ac;" horiz-adv-x="459" 
d="M291 462v44q0 23 -9 41t-33 18q-23 0 -32 -19.5t-9 -39.5v-79h154v-80h-154v-30h154v-80h-154v-77q0 -20 9 -39.5t32 -19.5q24 0 33 18t9 41v43h130v-4q0 -113 -44.5 -161t-127.5 -48q-87 0 -129 45.5t-42 131.5v70h-55v80h55v30h-55v80h55v71q0 86 42 131.5t129 45.5
q85 0 128.5 -46.5t43.5 -154.5v-12h-130z" />
    <glyph glyph-name="uni2113" unicode="&#x2113;" horiz-adv-x="532" 
d="M16 221q26 15 50 30.5t47 30.5q6 82 31 159.5t64.5 138t90.5 97t108 36.5q26 0 43.5 -9t28 -23t15 -31t4.5 -33q0 -49 -20 -97t-57.5 -95.5t-90.5 -93t-120 -90.5q0 -69 13 -110t41 -41q26 0 52 26t49 66l82 -46q-18 -29 -38.5 -55.5t-44.5 -46.5t-52 -32t-60 -12
q-65 0 -99 48t-41 138q-12 -10 -28.5 -20t-27.5 -15zM377 610q-17 0 -39 -23t-44.5 -60t-42 -82t-31.5 -90q44 34 77.5 68.5t56 65.5t33.5 55.5t11 39.5q0 26 -21 26z" />
    <glyph glyph-name="trademark" unicode="&#x2122;" horiz-adv-x="550" 
d="M70 419v191h-51v55h170v-55h-52v-191h-67zM224 419v246h97l45 -122h2l46 122h96v-246h-64v178h-2l-57 -147h-40l-57 147h-3v-178h-63z" />
    <glyph glyph-name="Omega" unicode="&#x2126;" 
d="M381 261q0 -57 -23 -95.5t-72 -55.5h95v-110h-156v115q17 22 22 52t5 81v250q0 26 -8 46.5t-34 20.5q-27 0 -34.5 -20.5t-7.5 -46.5v-250q0 -50 5.5 -80.5t19.5 -52.5v-115h-154v110h95q-45 17 -70 55.5t-25 95.5v230q0 86 41.5 135t128.5 49t129.5 -49t42.5 -135v-230z
" />
    <glyph glyph-name="estimated" unicode="&#x212e;" horiz-adv-x="833" 
d="M207 302q-5 0 -5 -4v-176q0 -12 8 -20q42 -45 98.5 -70.5t122.5 -25.5q70 0 129.5 29t102.5 78h52q-49 -57 -123 -91.5t-162 -34.5q-75 0 -140.5 25.5t-114 69.5t-77 103t-28.5 126t28.5 126t77 103t114 69.5t140.5 25.5t140.5 -25.5t114 -69.5t77 -103t28.5 -126v-9
h-583zM658 503q0 12 -9 21q-42 42 -98 67t-120 25q-65 0 -121.5 -25.5t-98.5 -69.5q-9 -9 -9 -22v-174q0 -5 5 -5h447q4 0 4 5v178z" />
    <glyph glyph-name="onethird" unicode="&#x2153;" horiz-adv-x="801" 
d="M154 270v287l-75 -48l-59 81l119 79h123v-399h-108zM278 0h-108l347 665h108zM666 291q0 24 -27 24t-27 -30v-4h-108v7q0 53 34 85t106 32q35 0 60 -8.5t40.5 -22.5t22.5 -31.5t7 -35.5v-13q0 -27 -14 -48t-37 -31v-4q51 -23 51 -79v-23q0 -50 -33 -82.5t-101 -32.5
t-102 30.5t-34 81.5v20h108v-10q0 -15 6 -23.5t21 -8.5q16 0 21.5 9t5.5 24v10q0 20 -10.5 28t-33.5 8h-36v86h30q28 0 39 9t11 28v5z" />
    <glyph glyph-name="twothirds" unicode="&#x2154;" horiz-adv-x="801" 
d="M25 541v13q0 24 7 46t23.5 38.5t43.5 26.5t66 10q70 0 100 -28t30 -71v-10q0 -26 -16.5 -60t-59.5 -77l-70 -69h146v-90h-260v98l60 57q48 47 70 76t22 52v4q0 28 -26 28q-16 0 -22 -10t-6 -24v-10h-108zM291 0h-108l347 665h108zM666 291q0 24 -27 24t-27 -30v-4h-108v7
q0 53 34 85t106 32q35 0 60 -8.5t40.5 -22.5t22.5 -31.5t7 -35.5v-13q0 -27 -14 -48t-37 -31v-4q51 -23 51 -79v-23q0 -50 -33 -82.5t-101 -32.5t-102 30.5t-34 81.5v20h108v-10q0 -15 6 -23.5t21 -8.5q16 0 21.5 9t5.5 24v10q0 20 -10.5 28t-33.5 8h-36v86h30q28 0 39 9
t11 28v5z" />
    <glyph glyph-name="oneeighth" unicode="&#x215b;" horiz-adv-x="801" 
d="M154 270v287l-75 -48l-59 81l119 79h123v-399h-108zM279 0h-108l347 665h108zM505 301q0 46 35.5 75t100.5 29q32 0 57 -9t42 -23.5t26 -33.5t9 -39v-8q0 -29 -16.5 -47.5t-47.5 -38.5q29 -19 46.5 -40.5t17.5 -56.5v-9q0 -46 -32.5 -76t-101.5 -30q-34 0 -59.5 9
t-42.5 23.5t-25.5 33t-8.5 37.5v10q0 34 17 57t45 42q-30 20 -46 38.5t-16 47.5v9zM613 113q0 -12 6.5 -20.5t20.5 -8.5t20.5 9t6.5 21v5q0 9 -5.5 18.5t-20.5 20.5q-16 -11 -22 -20.5t-6 -18.5v-6zM613 285q0 -10 5.5 -17.5t22.5 -18.5q15 11 20 18.5t5 17.5v4q0 26 -26 26
q-27 0 -27 -26v-4z" />
    <glyph glyph-name="threeeighths" unicode="&#x215c;" horiz-adv-x="801" 
d="M186 561q0 24 -27 24t-27 -30v-4h-108v7q0 53 34 85t106 32q35 0 60 -8.5t40.5 -22.5t22.5 -31.5t7 -35.5v-13q0 -27 -14 -48t-37 -31v-4q51 -23 51 -79v-23q0 -50 -33 -82.5t-101 -32.5t-102 30.5t-34 81.5v20h108v-10q0 -15 6 -23.5t21 -8.5q16 0 21.5 9t5.5 24v10
q0 20 -10.5 28t-33.5 8h-36v86h30q28 0 39 9t11 28v5zM280 0h-108l347 665h108zM505 301q0 46 35.5 75t100.5 29q32 0 57 -9t42 -23.5t26 -33.5t9 -39v-8q0 -29 -16.5 -47.5t-47.5 -38.5q29 -19 46.5 -40.5t17.5 -56.5v-9q0 -46 -32.5 -76t-101.5 -30q-34 0 -59.5 9
t-42.5 23.5t-25.5 33t-8.5 37.5v10q0 34 17 57t45 42q-30 20 -46 38.5t-16 47.5v9zM613 113q0 -12 6.5 -20.5t20.5 -8.5t20.5 9t6.5 21v5q0 9 -5.5 18.5t-20.5 20.5q-16 -11 -22 -20.5t-6 -18.5v-6zM613 285q0 -10 5.5 -17.5t22.5 -18.5q15 11 20 18.5t5 17.5v4q0 26 -26 26
q-27 0 -27 -26v-4z" />
    <glyph glyph-name="fiveeighths" unicode="&#x215d;" horiz-adv-x="800" 
d="M25 669h261v-90h-158v-57q21 27 69 27q21 0 38.5 -6t30.5 -20t20.5 -37t7.5 -57v-35q0 -26 -8 -49.5t-25 -41.5t-42.5 -28.5t-60.5 -10.5t-60 9t-41.5 24.5t-24 36t-7.5 43.5v22h108v-12q0 -15 5.5 -24t21.5 -9q14 0 20 9t6 24v44q0 12 -5.5 20.5t-19.5 8.5
q-25 0 -27 -23h-109v232zM280 0h-108l347 665h108zM505 301q0 46 35.5 75t100.5 29q32 0 57 -9t42 -23.5t26 -33.5t9 -39v-8q0 -29 -16.5 -47.5t-47.5 -38.5q29 -19 46.5 -40.5t17.5 -56.5v-9q0 -46 -32.5 -76t-101.5 -30q-34 0 -59.5 9t-42.5 23.5t-25.5 33t-8.5 37.5v10
q0 34 17 57t45 42q-30 20 -46 38.5t-16 47.5v9zM613 113q0 -12 6.5 -20.5t20.5 -8.5t20.5 9t6.5 21v5q0 9 -5.5 18.5t-20.5 20.5q-16 -11 -22 -20.5t-6 -18.5v-6zM613 285q0 -10 5.5 -17.5t22.5 -18.5q15 11 20 18.5t5 17.5v4q0 26 -26 26q-27 0 -27 -26v-4z" />
    <glyph glyph-name="seveneighths" unicode="&#x215e;" horiz-adv-x="801" 
d="M35 270l154 309h-166v90h274v-103l-148 -296h-114zM243 0h-108l347 665h108zM505 301q0 46 35.5 75t100.5 29q32 0 57 -9t42 -23.5t26 -33.5t9 -39v-8q0 -29 -16.5 -47.5t-47.5 -38.5q29 -19 46.5 -40.5t17.5 -56.5v-9q0 -46 -32.5 -76t-101.5 -30q-34 0 -59.5 9
t-42.5 23.5t-25.5 33t-8.5 37.5v10q0 34 17 57t45 42q-30 20 -46 38.5t-16 47.5v9zM613 113q0 -12 6.5 -20.5t20.5 -8.5t20.5 9t6.5 21v5q0 9 -5.5 18.5t-20.5 20.5q-16 -11 -22 -20.5t-6 -18.5v-6zM613 285q0 -10 5.5 -17.5t22.5 -18.5q15 11 20 18.5t5 17.5v4q0 26 -26 26
q-27 0 -27 -26v-4z" />
    <glyph glyph-name="partialdiff" unicode="&#x2202;" horiz-adv-x="425" 
d="M39 487v7q0 35 11 67.5t32 58t51.5 40.5t69.5 15q51 0 86 -19.5t56.5 -60t31 -104t9.5 -150.5q0 -101 -12.5 -168.5t-36.5 -108t-58 -57.5t-76 -17q-33 0 -63 10.5t-52.5 35t-35.5 65t-13 99.5q0 61 12 103.5t32 69.5t46.5 39t55.5 12t48.5 -8t32.5 -27q-2 61 -7 96
t-13 53t-18.5 22.5t-22.5 4.5q-14 0 -23 -6.5t-14.5 -17t-7.5 -23t-2 -25.5v-6h-119zM211 100q32 0 40.5 45t8.5 136q-6 14 -16.5 23.5t-27.5 9.5q-26 0 -37 -24.5t-11 -78.5q0 -48 7.5 -79.5t35.5 -31.5z" />
    <glyph glyph-name="Delta" unicode="&#x2206;" horiz-adv-x="389" 
d="M262 110l-67 325l-68 -325h135zM150 665h90l132 -539v-126h-355v126z" />
    <glyph glyph-name="product" unicode="&#x220f;" horiz-adv-x="547" 
d="M447 -80h-129v635h-89v-635h-129v635h-71v110h489v-110h-71v-635z" />
    <glyph glyph-name="summation" unicode="&#x2211;" horiz-adv-x="342" 
d="M320 30v-110h-291v131l129 241l-129 236v137h291v-110h-166l114 -208v-110l-114 -207h166z" />
    <glyph glyph-name="minus" unicode="&#x2212;" 
d="M76 356h270v-110h-270v110z" />
    <glyph glyph-name="uni2215" unicode="&#x2215;" horiz-adv-x="159" 
d="M-40 0h-108l347 665h108z" />
    <glyph glyph-name="radical" unicode="&#x221a;" horiz-adv-x="437" 
d="M188 0l-89 253l-55 -14l-29 95l154 44l65 -208l77 495h108l-115 -665h-116z" />
    <glyph glyph-name="infinity" unicode="&#x221e;" horiz-adv-x="615" 
d="M308 276q-16 -18 -30 -28.5t-27 -16t-25.5 -6.5t-25.5 -1h-18q-18 0 -38 5t-36.5 17.5t-27 33.5t-10.5 52t10.5 52t27 33.5t36.5 17.5t38 5h18q13 0 25.5 -1t25.5 -6t27 -15.5t30 -29.5q16 19 30 29.5t27 15.5t25.5 6t25.5 1h18q18 0 38 -5t36.5 -17.5t27 -33.5t10.5 -52
t-10.5 -52t-27 -33.5t-36.5 -17.5t-38 -5h-18q-13 0 -25.5 1t-25.5 6.5t-27 16t-30 28.5zM196 296q9 0 15 1t12 5t12.5 11t16.5 19q-10 12 -17 19t-13 11t-12 5t-14 1h-6q-14 0 -24.5 -9t-10.5 -27t10.5 -27t24.5 -9h6zM426 294q14 0 25 9t11 28t-11 28t-25 9h-6
q-16 0 -27 -6t-30 -31q19 -25 29.5 -31t27.5 -6h6z" />
    <glyph glyph-name="integral" unicode="&#x222b;" horiz-adv-x="327" 
d="M300 575q-29 0 -50 -19.5t-21 -54.5v-325q0 -94 -53 -140t-149 -46v100q35 0 52.5 21t17.5 57v321q0 186 203 186v-100z" />
    <glyph glyph-name="approxequal" unicode="&#x2248;" horiz-adv-x="420" 
d="M365 289q0 -80 -21.5 -117t-63.5 -37q-31 0 -58 13q-13 6 -24.5 13t-22.5 7q-9 0 -14.5 -9.5t-5.5 -23.5h-100q0 40 7.5 69t20.5 48t29.5 28t33.5 9q14 0 25.5 -3t26.5 -11q9 -5 23.5 -13.5t25.5 -8.5q8 0 13 8t5 28h100zM365 465q0 -80 -21.5 -117t-63.5 -37
q-31 0 -58 13q-13 6 -24.5 13t-22.5 7q-9 0 -14.5 -9.5t-5.5 -23.5h-100q0 40 7.5 69t20.5 48t29.5 28t33.5 9q14 0 25.5 -3t26.5 -11q9 -5 23.5 -13.5t25.5 -8.5q8 0 13 8t5 28h100z" />
    <glyph glyph-name="notequal" unicode="&#x2260;" 
d="M76 433h121l24 80h105l-24 -80h44v-110h-77l-12 -42h89v-110h-122l-23 -80h-105l23 80h-43v110h76l12 42h-88v110z" />
    <glyph glyph-name="lessequal" unicode="&#x2264;" 
d="M70 427l270 90v-120l-125 -20l125 -20v-120l-270 90v100zM70 226h270v-110h-270v110z" />
    <glyph glyph-name="greaterequal" unicode="&#x2265;" 
d="M351 327l-270 -90v120l125 20l-125 20v120l270 -90v-100zM81 226h270v-110h-270v110z" />
    <glyph glyph-name="lozenge" unicode="&#x25ca;" horiz-adv-x="342" 
d="M171 170l55 162l-55 162l-55 -162zM121 612h100l113 -280l-113 -280h-100l-113 280z" />
    <glyph glyph-name="heart" unicode="&#x2665;" horiz-adv-x="602" 
d="M305 435q16 29 41.5 47t56.5 18q43 0 71 -29.5t28 -75.5q0 -30 -13.5 -65t-39 -70t-63 -67.5t-85.5 -57.5q-48 25 -85.5 57.5t-63 67.5t-39 70t-13.5 65q0 46 28 75.5t71 29.5q31 0 56.5 -18t41.5 -47h8z" />
    <glyph glyph-name="zeroslash" unicode="&#xe01a;" 
d="M381 187q0 -95 -42.5 -146t-129.5 -51t-128.5 51t-41.5 146v291q0 95 42 146t129 51t129 -51t42 -146v-291zM252 333l-84 -158q0 -14 1.5 -27.5t6 -24t12.5 -16.5t21 -6q26 0 34.5 24.5t8.5 55.5v152zM168 343l83 160q-2 25 -10.5 43.5t-30.5 18.5q-14 0 -22 -7
t-12.5 -18t-6 -25.5t-1.5 -29.5v-142z" />
    <glyph glyph-name="numbersign.plf" unicode="&#xe020;" horiz-adv-x="633" 
d="M99 175h-67v95h98l44 135h-64v95h95l54 165h112l-54 -165h104l54 165h112l-54 -165h67v-95h-98l-43 -135h63v-95h-94l-57 -175h-113l57 175h-103l-57 -175h-113zM243 270h103l44 135h-104z" />
    <glyph glyph-name="Euro.plf" unicode="&#xe021;" horiz-adv-x="459" 
d="M291 462v44q0 23 -9 41t-33 18q-23 0 -32 -19.5t-9 -39.5v-79h154v-80h-154v-30h154v-80h-154v-77q0 -20 9 -39.5t32 -19.5q24 0 33 18t9 41v43h130v-4q0 -113 -44.5 -161t-127.5 -48q-87 0 -129 45.5t-42 131.5v70h-55v80h55v30h-55v80h55v71q0 86 42 131.5t129 45.5
q85 0 128.5 -46.5t43.5 -154.5v-12h-130z" />
    <glyph glyph-name="dollar.plf" unicode="&#xe022;" horiz-adv-x="409" 
d="M33 511q0 51 26.5 92t81.5 58v69h129v-65q49 -15 77.5 -55t28.5 -117v-41h-129v53q0 23 -8 41.5t-34 18.5q-24 0 -31.5 -18.5t-7.5 -41.5v-19q0 -21 13.5 -40.5t48.5 -43.5q28 -19 54.5 -39.5t47.5 -44.5t33.5 -53t12.5 -66v-45q0 -60 -30 -98t-76 -54v-67h-129v67
q-24 9 -43.5 21.5t-34 32.5t-22.5 49t-8 71v37h133v-53q0 -11 1 -22t5 -19.5t11.5 -13.5t21.5 -5q24 0 33 18.5t9 41.5v26q0 35 -24 58.5t-55 43.5q-30 19 -55 39.5t-42.5 43t-27.5 49t-10 58.5v33z" />
    <glyph glyph-name="yen.plf" unicode="&#xe023;" horiz-adv-x="471" 
d="M65 340h84l-119 325h133l70 -258h4l71 258h133l-125 -325h89v-80h-105v-31l105 1v-80h-105v-150h-130v150h-105v80h105v30h-105v80z" />
    <glyph glyph-name="sterling.plf" unicode="&#xe024;" horiz-adv-x="462" 
d="M39 336h50v157q0 88 42 135t129 47q85 0 128 -46.5t43 -154.5v-22h-129v54q0 25 -9 42t-33 17q-23 0 -32.5 -18t-9.5 -41v-170h126v-110h-126v-116h214v-110h-393v110h50v116h-50v110z" />
    <glyph glyph-name="cent.plf" unicode="&#xe025;" horiz-adv-x="385" 
d="M129 -65v67q-51 17 -73 57.5t-22 102.5v196q0 61 22 101.5t73 57.5v68h129v-65q52 -17 74.5 -58t22.5 -104v-56h-123v25q0 52 -5.5 77.5t-29.5 25.5q-20 0 -27 -12.5t-7 -40.5v-234q0 -28 7 -40.5t27 -12.5q25 0 30 25t5 78v25h123v-56q0 -64 -22.5 -105.5t-74.5 -56.5
v-65h-129z" />
    <glyph glyph-name="florin.plf" unicode="&#xe026;" horiz-adv-x="491" 
d="M311 176q0 -94 -44.5 -140t-125.5 -46q-51 0 -80 14.5t-51 35.5l77 70q7 -7 18 -13.5t25 -6.5q28 0 38.5 18.5t10.5 49.5v321q0 97 42 146.5t123 49.5q54 0 84 -14.5t52 -35.5l-76 -74q-9 9 -19.5 16.5t-27.5 7.5q-26 0 -36 -18t-10 -46v-116h104v-100h-104v-119z" />
    <glyph glyph-name="zero.plf" unicode="&#xe027;" 
d="M381 187q0 -95 -42.5 -146t-129.5 -51t-128.5 51t-41.5 146v291q0 95 42 146t129 51t129 -51t42 -146v-291zM252 485q0 15 -1.5 29.5t-6 25.5t-13 18t-21.5 7q-14 0 -22 -7t-12.5 -18t-6 -25.5t-1.5 -29.5v-304q0 -15 1.5 -29.5t5.5 -25.5t12 -18t22 -7q26 0 34.5 24.5
t8.5 55.5v304z" />
    <glyph glyph-name="one.plf" unicode="&#xe028;" horiz-adv-x="379" 
d="M186 0v534l-98 -84l-79 83l155 132h151v-665h-129z" />
    <glyph glyph-name="two.plf" unicode="&#xe029;" horiz-adv-x="415" 
d="M34 477v29q0 82 44.5 125.5t129.5 43.5q92 0 131.5 -43t39.5 -128v-21q0 -45 -26 -97.5t-65 -106.5l-125 -169h216v-110h-345v123l102 134q33 43 54.5 77t35 61t19 48.5t5.5 41.5v15q0 31 -9 48t-34 17t-34.5 -14t-9.5 -43v-31h-129z" />
    <glyph glyph-name="three.plf" unicode="&#xe02a;" horiz-adv-x="413" 
d="M245 504q0 21 -9 40.5t-35 19.5t-34.5 -18.5t-8.5 -41.5v-22h-129v16q0 86 42.5 131.5t129.5 45.5q43 0 75.5 -11t54 -29.5t32.5 -44t11 -55.5v-51q0 -50 -21.5 -79.5t-60.5 -46.5v-6q38 -17 60 -48t22 -84v-69q0 -41 -14.5 -71.5t-38.5 -50t-55.5 -29t-64.5 -9.5
q-172 0 -172 167v26h129v-23q0 -10 1.5 -20.5t6.5 -19.5t13 -14.5t22 -5.5q13 0 22 5.5t13.5 14.5t6.5 19.5t2 20.5v59q0 39 -19.5 58t-70.5 19h-30v110h30q51 0 70.5 18.5t19.5 58.5v20z" />
    <glyph glyph-name="four.plf" unicode="&#xe02b;" 
d="M249 137h-223v130l166 398h129l-174 -418h102v83h129v-330h-129v137z" />
    <glyph glyph-name="five.plf" unicode="&#xe02c;" horiz-adv-x="423" 
d="M38 665h345v-114h-216v-109q13 14 32.5 23t51.5 9q70 0 101 -43.5t31 -144.5v-123q0 -37 -10.5 -68.5t-31.5 -55t-53.5 -36.5t-77.5 -13t-77.5 13.5t-53.5 36.5t-31 55t-10 69v20h129v-16q0 -11 1.5 -23t6.5 -22t13 -16.5t22 -6.5q13 0 21.5 6.5t13.5 16t7 21.5t2 23v137
q0 24 -8.5 42t-33.5 18t-33.5 -20t-10.5 -47h-130v368z" />
    <glyph glyph-name="six.plf" unicode="&#xe02d;" horiz-adv-x="424" 
d="M255 467v32q0 12 -2 23.5t-7 21t-13.5 15.5t-21.5 6q-14 0 -22 -6t-13 -15.5t-6.5 -21.5t-1.5 -23v-111q11 15 35.5 25.5t53.5 10.5q63 0 95 -36t32 -124v-93q0 -86 -42 -133.5t-130 -47.5t-130.5 47.5t-42.5 133.5v321q0 85 43.5 134t129.5 49q87 0 129.5 -44.5
t42.5 -138.5v-25h-129zM211 100q26 0 35 18.5t9 41.5v94q0 23 -9 41.5t-35 18.5t-34.5 -18.5t-8.5 -41.5v-94q0 -23 8 -41.5t35 -18.5z" />
    <glyph glyph-name="seven.plf" unicode="&#xe02e;" horiz-adv-x="395" 
d="M44 0l203 551h-222v114h338v-130l-190 -535h-129z" />
    <glyph glyph-name="eight.plf" unicode="&#xe02f;" horiz-adv-x="424" 
d="M39 511q0 75 42.5 119.5t130.5 44.5q87 0 129.5 -41.5t42.5 -106.5v-36q0 -49 -22 -82t-69 -65q45 -32 68 -71.5t23 -98.5v-23q0 -75 -46.5 -118t-125.5 -43q-85 0 -129 40.5t-44 104.5v39q0 59 24 98t67 71q-46 32 -68.5 65.5t-22.5 82.5v20zM168 160q0 -23 8.5 -41.5
t35.5 -18.5q26 0 34.5 18.5t8.5 41.5v37q0 19 -8.5 37.5t-34.5 37.5q-26 -18 -35 -36t-9 -41v-35zM168 492q0 -23 9.5 -40.5t34.5 -34.5q25 17 34 34.5t9 40.5v13q0 23 -8.5 41.5t-34.5 18.5t-35 -18.5t-9 -41.5v-13z" />
    <glyph glyph-name="nine.plf" unicode="&#xe030;" horiz-adv-x="424" 
d="M172 198v-32q0 -12 1 -23.5t5.5 -21t12 -15.5t21.5 -6q13 0 21.5 6t13 15.5t6.5 21.5t2 23v117q-16 -20 -39.5 -31t-58.5 -11q-58 0 -88 38t-30 124v90q0 86 42.5 134t130.5 48t130 -48t42 -134v-320q0 -87 -43 -135t-129 -48q-88 0 -130.5 44t-42.5 136v28h133zM213 565
q-27 0 -34 -18.5t-7 -41.5v-94q0 -23 7.5 -41.5t33.5 -18.5q25 0 33.5 18.5t8.5 41.5v94q0 23 -8 41.5t-34 18.5z" />
    <glyph glyph-name="zeroslash.plf" unicode="&#xe031;" 
d="M381 187q0 -95 -42.5 -146t-129.5 -51t-128.5 51t-41.5 146v291q0 95 42 146t129 51t129 -51t42 -146v-291zM252 333l-84 -158q0 -14 1.5 -27.5t6 -24t12.5 -16.5t21 -6q26 0 34.5 24.5t8.5 55.5v152zM168 343l83 160q-2 25 -10.5 43.5t-30.5 18.5q-14 0 -22 -7
t-12.5 -18t-6 -25.5t-1.5 -29.5v-142z" />
    <glyph glyph-name="numbersign.tlf" unicode="&#xe032;" 
d="M45 175h-49v95h70l30 135h-50v95h71l37 165h102l-36 -165h53l37 165h102l-36 -165h50v-95h-71l-30 -135h51v-95h-72l-38 -175h-103l38 175h-53l-38 -175h-103zM169 270h53l30 135h-53z" />
    <glyph glyph-name="Euro.tlf" unicode="&#xe033;" 
d="M276 462v44q0 23 -9 41t-33 18q-23 0 -32 -19.5t-9 -39.5v-79h154v-80h-154v-30h154v-80h-154v-77q0 -20 9 -39.5t32 -19.5q24 0 33 18t9 41v43h130v-4q0 -113 -44.5 -161t-127.5 -48q-87 0 -129 45.5t-42 131.5v70h-55v80h55v30h-55v80h55v71q0 86 42 131.5t129 45.5
q85 0 128.5 -46.5t43.5 -154.5v-12h-130z" />
    <glyph glyph-name="dollar.tlf" unicode="&#xe034;" 
d="M38 511q0 51 26.5 92t81.5 58v69h129v-65q49 -15 77.5 -55t28.5 -117v-41h-129v53q0 23 -8 41.5t-34 18.5q-24 0 -31.5 -18.5t-7.5 -41.5v-19q0 -21 13.5 -40.5t48.5 -43.5q28 -19 54.5 -39.5t47.5 -44.5t33.5 -53t12.5 -66v-45q0 -60 -30 -98t-76 -54v-67h-129v67
q-24 9 -43.5 21.5t-34 32.5t-22.5 49t-8 71v37h133v-53q0 -11 1 -22t5 -19.5t11.5 -13.5t21.5 -5q24 0 33 18.5t9 41.5v26q0 35 -24 58.5t-55 43.5q-30 19 -55 39.5t-42.5 43t-27.5 49t-10 58.5v33z" />
    <glyph glyph-name="yen.tlf" unicode="&#xe035;" 
d="M40 340h84l-119 325h133l70 -258h4l71 258h133l-125 -325h89v-80h-105v-31l105 1v-80h-105v-150h-130v150h-105v80h105v30h-105v80z" />
    <glyph glyph-name="sterling.tlf" unicode="&#xe036;" 
d="M13 336h50v157q0 88 42 135t129 47q85 0 128 -46.5t43 -154.5v-22h-129v54q0 25 -9 42t-33 17q-23 0 -32.5 -18t-9.5 -41v-170h126v-110h-126v-116h214v-110h-393v110h50v116h-50v110z" />
    <glyph glyph-name="cent.tlf" unicode="&#xe037;" 
d="M144 -65v67q-51 17 -73 57.5t-22 102.5v196q0 61 22 101.5t73 57.5v68h129v-65q52 -17 74.5 -58t22.5 -104v-56h-123v25q0 52 -5.5 77.5t-29.5 25.5q-20 0 -27 -12.5t-7 -40.5v-234q0 -28 7 -40.5t27 -12.5q25 0 30 25t5 78v25h123v-56q0 -64 -22.5 -105.5t-74.5 -56.5
v-65h-129z" />
    <glyph glyph-name="florin.tlf" unicode="&#xe038;" 
d="M279 176q0 -94 -44.5 -140t-125.5 -46q-51 0 -80 14.5t-51 35.5l77 70q7 -7 18 -13.5t25 -6.5q28 0 38.5 18.5t10.5 49.5v321q0 97 42 146.5t123 49.5q54 0 84 -14.5t52 -35.5l-76 -74q-9 9 -19.5 16.5t-27.5 7.5q-26 0 -36 -18t-10 -46v-116h104v-100h-104v-119z" />
    <glyph glyph-name="zero.tlf" unicode="&#xe039;" 
d="M381 187q0 -95 -42.5 -146t-129.5 -51t-128.5 51t-41.5 146v291q0 95 42 146t129 51t129 -51t42 -146v-291zM252 485q0 15 -1.5 29.5t-6 25.5t-13 18t-21.5 7q-14 0 -22 -7t-12.5 -18t-6 -25.5t-1.5 -29.5v-304q0 -15 1.5 -29.5t5.5 -25.5t12 -18t22 -7q26 0 34.5 24.5
t8.5 55.5v304z" />
    <glyph glyph-name="one.tlf" unicode="&#xe03a;" 
d="M206 0v534l-99 -81l-81 80l158 132h151v-665h-129z" />
    <glyph glyph-name="two.tlf" unicode="&#xe03b;" 
d="M36 477v29q0 82 44.5 125.5t129.5 43.5q92 0 131.5 -43t39.5 -128v-21q0 -45 -26 -97.5t-65 -106.5l-125 -169h216v-110h-345v123l102 134q33 43 54.5 77t35 61t19 48.5t5.5 41.5v15q0 31 -9 48t-34 17t-34.5 -14t-9.5 -43v-31h-129z" />
    <glyph glyph-name="three.tlf" unicode="&#xe03c;" 
d="M248 504q0 21 -9 40.5t-35 19.5t-34.5 -18.5t-8.5 -41.5v-22h-129v16q0 86 42.5 131.5t129.5 45.5q43 0 75.5 -11t54 -29.5t32.5 -44t11 -55.5v-51q0 -50 -21.5 -79.5t-60.5 -46.5v-6q38 -17 60 -48t22 -84v-69q0 -41 -14.5 -71.5t-38.5 -50t-55.5 -29t-64.5 -9.5
q-172 0 -172 167v26h129v-23q0 -10 1.5 -20.5t6.5 -19.5t13 -14.5t22 -5.5q13 0 22 5.5t13.5 14.5t6.5 19.5t2 20.5v59q0 39 -19.5 58t-70.5 19h-30v110h30q51 0 70.5 18.5t19.5 58.5v20z" />
    <glyph glyph-name="four.tlf" unicode="&#xe03d;" 
d="M252 137h-223v130l166 398h129l-174 -418h102v83h129v-330h-129v137z" />
    <glyph glyph-name="five.tlf" unicode="&#xe03e;" 
d="M38 665h345v-114h-216v-109q13 14 32.5 23t51.5 9q70 0 101 -43.5t31 -144.5v-123q0 -37 -10.5 -68.5t-31.5 -55t-53.5 -36.5t-77.5 -13t-77.5 13.5t-53.5 36.5t-31 55t-10 69v20h129v-16q0 -11 1.5 -23t6.5 -22t13 -16.5t22 -6.5q13 0 21.5 6.5t13.5 16t7 21.5t2 23v137
q0 24 -8.5 42t-33.5 18t-33.5 -20t-10.5 -47h-130v368z" />
    <glyph glyph-name="six.tlf" unicode="&#xe03f;" 
d="M255 467v32q0 12 -2 23.5t-7 21t-13.5 15.5t-21.5 6q-14 0 -22 -6t-13 -15.5t-6.5 -21.5t-1.5 -23v-111q11 15 35.5 25.5t53.5 10.5q63 0 95 -36t32 -124v-93q0 -86 -42 -133.5t-130 -47.5t-130.5 47.5t-42.5 133.5v321q0 85 43.5 134t129.5 49q87 0 129.5 -44.5
t42.5 -138.5v-25h-129zM211 100q26 0 35 18.5t9 41.5v94q0 23 -9 41.5t-35 18.5t-34.5 -18.5t-8.5 -41.5v-94q0 -23 8 -41.5t35 -18.5z" />
    <glyph glyph-name="seven.tlf" unicode="&#xe040;" 
d="M56 0l203 551h-222v114h338v-130l-190 -535h-129z" />
    <glyph glyph-name="eight.tlf" unicode="&#xe041;" 
d="M39 511q0 75 42.5 119.5t130.5 44.5q87 0 129.5 -41.5t42.5 -106.5v-36q0 -49 -22 -82t-69 -65q45 -32 68 -71.5t23 -98.5v-23q0 -75 -46.5 -118t-125.5 -43q-85 0 -129 40.5t-44 104.5v39q0 59 24 98t67 71q-46 32 -68.5 65.5t-22.5 82.5v20zM168 160q0 -23 8.5 -41.5
t35.5 -18.5q26 0 34.5 18.5t8.5 41.5v37q0 19 -8.5 37.5t-34.5 37.5q-26 -18 -35 -36t-9 -41v-35zM168 492q0 -23 9.5 -40.5t34.5 -34.5q25 17 34 34.5t9 40.5v13q0 23 -8.5 41.5t-34.5 18.5t-35 -18.5t-9 -41.5v-13z" />
    <glyph glyph-name="nine.tlf" unicode="&#xe042;" 
d="M169 198v-32q0 -12 1 -23.5t5.5 -21t12 -15.5t21.5 -6q13 0 21.5 6t13 15.5t6.5 21.5t2 23v117q-16 -20 -39.5 -31t-58.5 -11q-58 0 -88 38t-30 124v90q0 86 42.5 134t130.5 48t130 -48t42 -134v-320q0 -87 -43 -135t-129 -48q-88 0 -130.5 44t-42.5 136v28h133zM210 565
q-27 0 -34 -18.5t-7 -41.5v-94q0 -23 7.5 -41.5t33.5 -18.5q25 0 33.5 18.5t8.5 41.5v94q0 23 -8 41.5t-34 18.5z" />
    <glyph glyph-name="zeroslash.tlf" unicode="&#xe043;" 
d="M381 187q0 -95 -42.5 -146t-129.5 -51t-128.5 51t-41.5 146v291q0 95 42 146t129 51t129 -51t42 -146v-291zM252 333l-84 -158q0 -14 1.5 -27.5t6 -24t12.5 -16.5t21 -6q26 0 34.5 24.5t8.5 55.5v152zM168 343l83 160q-2 25 -10.5 43.5t-30.5 18.5q-14 0 -22 -7
t-12.5 -18t-6 -25.5t-1.5 -29.5v-142z" />
    <glyph glyph-name="numbersign.tosf" unicode="&#xe044;" 
d="M38 409h65l26 112h102l-26 -112h65l26 112h102l-26 -112h55v-95h-73l-26 -107h55v-95h-73l-26 -112h-103l26 112h-64l-27 -112h-102l26 112h-46v95h65l25 107h-46v95zM161 207h65l25 107h-64z" />
    <glyph glyph-name="Euro.tosf" unicode="&#xe045;" 
d="M280 349v11q0 23 -8.5 41.5t-34.5 18.5t-33 -18.5t-7 -41.5v-35h140v-55h-140v-20h140v-55h-140v-35q0 -23 7 -41.5t33 -18.5t34.5 18.5t8.5 41.5v11h129v-4q0 -86 -42 -131.5t-129 -45.5t-130.5 45.5t-43.5 131.5v28h-55v55h55v20h-55v55h55v28q0 86 43.5 131.5
t130.5 45.5q85 0 128 -45t43 -126v-10h-129z" />
    <glyph glyph-name="dollar.tosf" unicode="&#xe046;" 
d="M177 169v-12q0 -33 6 -50t28 -17q37 0 37 48q0 12 -4 22t-14 20.5t-27.5 22.5t-44.5 27q-56 30 -82.5 66t-26.5 91q0 19 6 38.5t18.5 37.5t31.5 32.5t45 23.5v56h118v-55q99 -33 99 -153v-10h-124v22q0 24 -6.5 37.5t-27.5 13.5q-19 0 -26.5 -11t-7.5 -30q0 -31 23.5 -49
t71.5 -40q58 -28 80 -68t22 -83q0 -22 -6 -44.5t-18.5 -43t-32 -37t-47.5 -25.5v-54h-118v56q-97 34 -97 159v9h124z" />
    <glyph glyph-name="yen.tosf" unicode="&#xe047;" 
d="M40 265h82l-117 255h133l70 -198h4l71 198h133l-122 -255h86v-55h-105v-21l105 1v-55h-105v-135h-130v135h-105v55h105v20h-105v55z" />
    <glyph glyph-name="sterling.tosf" unicode="&#xe048;" 
d="M15 241h50v112q0 86 41.5 131.5t128.5 45.5q85 0 129 -45t44 -127v-31h-131v34q0 23 -9 41t-33 18q-23 0 -32 -19.5t-9 -39.5v-120h122v-55h-122v-76h214v-110h-393v110h50v76h-50v55z" />
    <glyph glyph-name="cent.tosf" unicode="&#xe049;" 
d="M146 -65v67q-51 17 -73 57.5t-22 102.5v116q0 61 22 101.5t73 57.5v68h129v-65q52 -17 74.5 -58t22.5 -104v-16h-123v5q0 26 -1 42t-5 25t-10.5 12.5t-18.5 3.5q-20 0 -27 -12.5t-7 -40.5v-87q0 -66 5.5 -93t28.5 -27q12 0 18.5 3t10.5 12t5 25.5t1 42.5v5h123
q0 -45 -3 -74.5t-13 -49t-29.5 -32t-51.5 -22.5v-65h-129z" />
    <glyph glyph-name="florin.tosf" unicode="&#xe04a;" 
d="M39 90q37 0 48.5 18.5t11.5 49.5v186q0 186 165 186q54 0 85 -13t53 -34l-61 -81q-11 12 -24.5 20t-32.5 8q-31 0 -42 -18t-11 -46v-66h114v-55h-114v-69q0 -47 -10 -81.5t-32.5 -58t-59 -35t-90.5 -11.5v100z" />
    <glyph glyph-name="zero.tosf" unicode="&#xe04b;" 
d="M384 177q0 -91 -42 -139t-129 -48t-130.5 48t-43.5 139v166q0 91 43.5 139t130.5 48t129 -48t42 -139v-166zM255 350q0 27 -8.5 48.5t-34.5 21.5q-13 0 -21 -6t-12 -16t-5.5 -22.5t-1.5 -25.5v-180q0 -13 1.5 -25.5t5.5 -22.5t12 -16t21 -6q26 0 34.5 21.5t8.5 48.5v180z
" />
    <glyph glyph-name="one.tosf" unicode="&#xe04c;" 
d="M214 0v389l-99 -81l-81 80l158 132h151v-520h-129z" />
    <glyph glyph-name="two.tosf" unicode="&#xe04d;" 
d="M37 332v26q0 82 44.5 127t129.5 45q92 0 131.5 -40.5t39.5 -111.5v-12q0 -21 -5.5 -45.5t-22 -51.5t-45.5 -57t-76 -63l-56 -39h205v-110h-345v123l95 75q60 49 90.5 89t30.5 75v8q0 24 -9 37t-34 13t-34.5 -17t-9.5 -43v-28h-129z" />
    <glyph glyph-name="three.tosf" unicode="&#xe04e;" 
d="M252 359q0 21 -9 40.5t-35 19.5t-34.5 -18.5t-8.5 -41.5v-22h-129v16q0 86 43 131.5t132 45.5q42 0 74 -11.5t53 -31.5t32 -47.5t11 -59.5v-63q0 -50 -23.5 -83.5t-58.5 -50.5v-6q39 -16 60.5 -48.5t21.5 -83.5v-84q0 -83 -47.5 -127t-125.5 -44t-125 43.5t-47 128.5v21
h129v-18q0 -10 1.5 -21.5t6.5 -21t13 -16t22 -6.5q13 0 22 6.5t13.5 16t6.5 21t2 21.5v80q0 39 -21 58t-69 19h-30v110h30q51 0 70.5 22.5t19.5 62.5v42z" />
    <glyph glyph-name="four.tosf" unicode="&#xe04f;" 
d="M254 0h-223v130l166 390h129l-173 -410h101v83h130v-343h-130v150z" />
    <glyph glyph-name="five.tosf" unicode="&#xe050;" 
d="M38 520h345v-110h-216v-133q14 14 35 23t54 9q66 0 96.5 -43.5t30.5 -144.5v-155q0 -86 -41 -131t-132 -45q-45 0 -77.5 13t-53.5 36.5t-31 55.5t-10 71v18h129v-24q0 -23 8 -41.5t35 -18.5q26 0 35 18.5t9 41.5v179q0 23 -8.5 41.5t-33.5 18.5t-33.5 -20t-10.5 -47h-130
v388z" />
    <glyph glyph-name="six.tosf" unicode="&#xe051;" 
d="M255 467v38q0 23 -9 41.5t-35 18.5q-27 0 -35 -18.5t-8 -41.5v-121q13 18 37 29t52 11q66 0 96.5 -39t30.5 -125v-93q0 -86 -42 -131.5t-130 -45.5t-130.5 45.5t-42.5 131.5v331q0 87 43.5 132t129.5 45t129 -40.5t43 -136.5v-31h-129zM211 100q26 0 35 18.5t9 41.5v94
q0 23 -9 41.5t-35 18.5t-34.5 -18.5t-8.5 -41.5v-94q0 -23 8 -41.5t35 -18.5z" />
    <glyph glyph-name="seven.tosf" unicode="&#xe052;" 
d="M47 -150l203 560h-222v110h338v-130l-190 -540h-129z" />
    <glyph glyph-name="eight.tosf" unicode="&#xe053;" 
d="M39 510q0 75 42.5 120t130.5 45q87 0 129.5 -42t42.5 -107v-39q0 -49 -23 -80.5t-70 -63.5q45 -32 69 -69t24 -96v-28q0 -75 -46.5 -117.5t-125.5 -42.5q-85 0 -129 40t-44 104v44q0 59 24 96t67 69q-46 32 -68.5 63.5t-22.5 80.5v23zM168 160q0 -23 8.5 -41.5
t35.5 -18.5q26 0 34.5 18.5t8.5 41.5v47q0 14 -8.5 30t-34.5 35q-26 -18 -35 -33t-9 -32v-47zM168 492q0 -23 8 -40t36 -35q27 18 35 35t8 40v13q0 23 -8.5 41.5t-34.5 18.5t-35 -18.5t-9 -41.5v-13z" />
    <glyph glyph-name="nine.tosf" unicode="&#xe054;" 
d="M169 -2v-38q0 -23 7 -41.5t33 -18.5t34.5 18.5t8.5 41.5v157q-14 -20 -40 -30.5t-59 -10.5q-117 0 -117 170v107q0 86 42.5 131.5t130.5 45.5t130 -45.5t42 -131.5v-379q0 -87 -42.5 -135.5t-129.5 -48.5q-173 0 -173 184v24h133zM210 420q-27 0 -34 -18.5t-7 -41.5v-114
q0 -23 7.5 -41.5t33.5 -18.5q25 0 33.5 18.5t8.5 41.5v114q0 23 -8 41.5t-34 18.5z" />
    <glyph glyph-name="zeroslash.tosf" unicode="&#xe055;" 
d="M384 177q0 -91 -42 -139t-129 -48t-130.5 48t-43.5 139v166q0 91 43.5 139t130.5 48t129 -48t42 -139v-166zM255 257l-80 -122q3 -15 11.5 -25t25.5 -10q26 0 34.5 21.5t8.5 48.5v87zM172 278l78 110q-4 14 -13 23t-25 9q-13 0 -21 -6t-12 -16t-5.5 -22.5t-1.5 -25.5v-72
z" />
    <glyph glyph-name="numbersign.posf" unicode="&#xe056;" horiz-adv-x="567" 
d="M79 409h94l39 112h113l-39 -112h87l39 112h113l-39 -112h67v-95h-94l-38 -107h67v-95h-94l-40 -112h-112l39 112h-88l-39 -112h-113l40 112h-68v95h94l39 107h-67v95zM220 207h88l38 107h-88z" />
    <glyph glyph-name="Euro.posf" unicode="&#xe057;" horiz-adv-x="454" 
d="M295 349v11q0 23 -8.5 41.5t-34.5 18.5t-33 -18.5t-7 -41.5v-35h140v-55h-140v-20h140v-55h-140v-35q0 -23 7 -41.5t33 -18.5t34.5 18.5t8.5 41.5v11h129v-4q0 -86 -42 -131.5t-129 -45.5t-130.5 45.5t-43.5 131.5v28h-55v55h55v20h-55v55h55v28q0 86 43.5 131.5
t130.5 45.5q85 0 128 -45t43 -126v-10h-129z" />
    <glyph glyph-name="dollar.posf" unicode="&#xe058;" horiz-adv-x="385" 
d="M159 169v-12q0 -33 6 -50t28 -17q37 0 37 48q0 12 -4 22t-14 20.5t-27.5 22.5t-44.5 27q-56 30 -82.5 66t-26.5 91q0 19 6 38.5t18.5 37.5t31.5 32.5t45 23.5v56h118v-55q99 -33 99 -153v-10h-124v22q0 24 -6.5 37.5t-27.5 13.5q-19 0 -26.5 -11t-7.5 -30q0 -31 23.5 -49
t71.5 -40q58 -28 80 -68t22 -83q0 -22 -6 -44.5t-18.5 -43t-32 -37t-47.5 -25.5v-54h-118v56q-97 34 -97 159v9h124z" />
    <glyph glyph-name="yen.posf" unicode="&#xe059;" horiz-adv-x="459" 
d="M59 265h82l-117 255h133l70 -198h4l71 198h133l-122 -255h86v-55h-105v-21l105 1v-55h-105v-135h-130v135h-105v55h105v20h-105v55z" />
    <glyph glyph-name="sterling.posf" unicode="&#xe05a;" horiz-adv-x="451" 
d="M29 241h50v112q0 86 41.5 131.5t128.5 45.5q85 0 129 -45t44 -127v-31h-131v34q0 23 -9 41t-33 18q-23 0 -32 -19.5t-9 -39.5v-120h122v-55h-122v-76h214v-110h-393v110h50v76h-50v55z" />
    <glyph glyph-name="cent.posf" unicode="&#xe05b;" horiz-adv-x="385" 
d="M129 -65v67q-51 17 -73 57.5t-22 102.5v116q0 61 22 101.5t73 57.5v68h129v-65q52 -17 74.5 -58t22.5 -104v-16h-123v5q0 26 -1 42t-5 25t-10.5 12.5t-18.5 3.5q-20 0 -27 -12.5t-7 -40.5v-87q0 -66 5.5 -93t28.5 -27q12 0 18.5 3t10.5 12t5 25.5t1 42.5v5h123
q0 -45 -3 -74.5t-13 -49t-29.5 -32t-51.5 -22.5v-65h-129z" />
    <glyph glyph-name="florin.posf" unicode="&#xe05c;" horiz-adv-x="398" 
d="M21 90q37 0 48.5 18.5t11.5 49.5v186q0 186 165 186q54 0 85 -13t53 -34l-61 -81q-11 12 -24.5 20t-32.5 8q-31 0 -42 -18t-11 -46v-66h114v-55h-114v-69q0 -47 -10 -81.5t-32.5 -58t-59 -35t-90.5 -11.5v100z" />
    <glyph glyph-name="zero.posf" unicode="&#xe05d;" horiz-adv-x="424" 
d="M384 177q0 -91 -42 -139t-129 -48t-130.5 48t-43.5 139v166q0 91 43.5 139t130.5 48t129 -48t42 -139v-166zM255 350q0 27 -8.5 48.5t-34.5 21.5q-13 0 -21 -6t-12 -16t-5.5 -22.5t-1.5 -25.5v-180q0 -13 1.5 -25.5t5.5 -22.5t12 -16t21 -6q26 0 34.5 21.5t8.5 48.5v180z
" />
    <glyph glyph-name="one.posf" unicode="&#xe05e;" horiz-adv-x="382" 
d="M189 0v389l-99 -81l-81 80l158 132h151v-520h-129z" />
    <glyph glyph-name="two.posf" unicode="&#xe05f;" horiz-adv-x="417" 
d="M34 332v26q0 82 44.5 127t129.5 45q92 0 131.5 -40.5t39.5 -111.5v-12q0 -21 -5.5 -45.5t-22 -51.5t-45.5 -57t-76 -63l-56 -39h205v-110h-345v123l95 75q60 49 90.5 89t30.5 75v8q0 24 -9 37t-34 13t-34.5 -17t-9.5 -43v-28h-129z" />
    <glyph glyph-name="three.posf" unicode="&#xe060;" horiz-adv-x="413" 
d="M245 359q0 21 -9 40.5t-35 19.5t-34.5 -18.5t-8.5 -41.5v-22h-129v16q0 86 43 131.5t132 45.5q42 0 74 -11.5t53 -31.5t32 -47.5t11 -59.5v-63q0 -50 -23.5 -83.5t-58.5 -50.5v-6q39 -16 60.5 -48.5t21.5 -83.5v-84q0 -83 -47.5 -127t-125.5 -44t-125 43.5t-47 128.5v21
h129v-18q0 -10 1.5 -21.5t6.5 -21t13 -16t22 -6.5q13 0 22 6.5t13.5 16t6.5 21t2 21.5v80q0 39 -21 58t-69 19h-30v110h30q51 0 70.5 22.5t19.5 62.5v42z" />
    <glyph glyph-name="four.posf" unicode="&#xe061;" horiz-adv-x="420" 
d="M254 0h-223v130l166 390h129l-173 -410h101v83h130v-343h-130v150z" />
    <glyph glyph-name="five.posf" unicode="&#xe062;" horiz-adv-x="429" 
d="M42 520h345v-110h-216v-133q14 14 35 23t54 9q66 0 96.5 -43.5t30.5 -144.5v-155q0 -86 -41 -131t-132 -45q-45 0 -77.5 13t-53.5 36.5t-31 55.5t-10 71v18h129v-24q0 -23 8 -41.5t35 -18.5q26 0 35 18.5t9 41.5v179q0 23 -8.5 41.5t-33.5 18.5t-33.5 -20t-10.5 -47h-130
v388z" />
    <glyph glyph-name="six.posf" unicode="&#xe063;" horiz-adv-x="424" 
d="M255 467v38q0 23 -9 41.5t-35 18.5q-27 0 -35 -18.5t-8 -41.5v-121q13 18 37 29t52 11q66 0 96.5 -39t30.5 -125v-93q0 -86 -42 -131.5t-130 -45.5t-130.5 45.5t-42.5 131.5v331q0 87 43.5 132t129.5 45t129 -40.5t43 -136.5v-31h-129zM211 100q26 0 35 18.5t9 41.5v94
q0 23 -9 41.5t-35 18.5t-34.5 -18.5t-8.5 -41.5v-94q0 -23 8 -41.5t35 -18.5z" />
    <glyph glyph-name="seven.posf" unicode="&#xe064;" horiz-adv-x="395" 
d="M43 -150l203 560h-222v110h338v-130l-190 -540h-129z" />
    <glyph glyph-name="eight.posf" unicode="&#xe065;" horiz-adv-x="424" 
d="M39 510q0 75 42.5 120t130.5 45q87 0 129.5 -42t42.5 -107v-39q0 -49 -23 -80.5t-70 -63.5q45 -32 69 -69t24 -96v-28q0 -75 -46.5 -117.5t-125.5 -42.5q-85 0 -129 40t-44 104v44q0 59 24 96t67 69q-46 32 -68.5 63.5t-22.5 80.5v23zM168 160q0 -23 8.5 -41.5
t35.5 -18.5q26 0 34.5 18.5t8.5 41.5v47q0 14 -8.5 30t-34.5 35q-26 -18 -35 -33t-9 -32v-47zM168 492q0 -23 8 -40t36 -35q27 18 35 35t8 40v13q0 23 -8.5 41.5t-34.5 18.5t-35 -18.5t-9 -41.5v-13z" />
    <glyph glyph-name="nine.posf" unicode="&#xe066;" horiz-adv-x="424" 
d="M172 -2v-38q0 -23 7 -41.5t33 -18.5t34.5 18.5t8.5 41.5v157q-14 -20 -40 -30.5t-59 -10.5q-117 0 -117 170v107q0 86 42.5 131.5t130.5 45.5t130 -45.5t42 -131.5v-379q0 -87 -42.5 -135.5t-129.5 -48.5q-173 0 -173 184v24h133zM213 420q-27 0 -34 -18.5t-7 -41.5v-114
q0 -23 7.5 -41.5t33.5 -18.5q25 0 33.5 18.5t8.5 41.5v114q0 23 -8 41.5t-34 18.5z" />
    <glyph glyph-name="zeroslash.posf" unicode="&#xe067;" horiz-adv-x="424" 
d="M384 177q0 -91 -42 -139t-129 -48t-130.5 48t-43.5 139v166q0 91 43.5 139t130.5 48t129 -48t42 -139v-166zM255 257l-80 -122q3 -15 11.5 -25t25.5 -10q26 0 34.5 21.5t8.5 48.5v87zM172 278l78 110q-4 14 -13 23t-25 9q-13 0 -21 -6t-12 -16t-5.5 -22.5t-1.5 -25.5v-72
z" />
    <glyph glyph-name="onefifth" unicode="&#xe07c;" horiz-adv-x="801" 
d="M154 270v287l-75 -48l-59 81l119 79h123v-399h-108zM266 0h-108l347 665h108zM505 399h261v-90h-158v-57q21 27 69 27q21 0 38.5 -6t30.5 -20t20.5 -37t7.5 -57v-35q0 -26 -8 -49.5t-25 -41.5t-42.5 -28.5t-60.5 -10.5t-60 9t-41.5 24.5t-24 36t-7.5 43.5v22h108v-12
q0 -15 5.5 -24t21.5 -9q14 0 20 9t6 24v44q0 12 -5.5 20.5t-19.5 8.5q-25 0 -27 -23h-109v232z" />
    <glyph glyph-name="twofifths" unicode="&#xe07d;" horiz-adv-x="801" 
d="M25 541v13q0 24 7 46t23.5 38.5t43.5 26.5t66 10q70 0 100 -28t30 -71v-10q0 -26 -16.5 -60t-59.5 -77l-70 -69h146v-90h-260v98l60 57q48 47 70 76t22 52v4q0 28 -26 28q-16 0 -22 -10t-6 -24v-10h-108zM280 0h-108l347 665h108zM505 399h261v-90h-158v-57q21 27 69 27
q21 0 38.5 -6t30.5 -20t20.5 -37t7.5 -57v-35q0 -26 -8 -49.5t-25 -41.5t-42.5 -28.5t-60.5 -10.5t-60 9t-41.5 24.5t-24 36t-7.5 43.5v22h108v-12q0 -15 5.5 -24t21.5 -9q14 0 20 9t6 24v44q0 12 -5.5 20.5t-19.5 8.5q-25 0 -27 -23h-109v232z" />
    <glyph glyph-name="threefifths" unicode="&#xe07e;" horiz-adv-x="801" 
d="M186 561q0 24 -27 24t-27 -30v-4h-108v7q0 53 34 85t106 32q35 0 60 -8.5t40.5 -22.5t22.5 -31.5t7 -35.5v-13q0 -27 -14 -48t-37 -31v-4q51 -23 51 -79v-23q0 -50 -33 -82.5t-101 -32.5t-102 30.5t-34 81.5v20h108v-10q0 -15 6 -23.5t21 -8.5q16 0 21.5 9t5.5 24v10
q0 20 -10.5 28t-33.5 8h-36v86h30q28 0 39 9t11 28v5zM267 0h-108l347 665h108zM505 399h261v-90h-158v-57q21 27 69 27q21 0 38.5 -6t30.5 -20t20.5 -37t7.5 -57v-35q0 -26 -8 -49.5t-25 -41.5t-42.5 -28.5t-60.5 -10.5t-60 9t-41.5 24.5t-24 36t-7.5 43.5v22h108v-12
q0 -15 5.5 -24t21.5 -9q14 0 20 9t6 24v44q0 12 -5.5 20.5t-19.5 8.5q-25 0 -27 -23h-109v232z" />
    <glyph glyph-name="fourfifths" unicode="&#xe07f;" horiz-adv-x="801" 
d="M196 331h-173v109l115 229h107l-121 -248h72v57h98v-208h-98v61zM279 0h-108l347 665h108zM505 399h261v-90h-158v-57q21 27 69 27q21 0 38.5 -6t30.5 -20t20.5 -37t7.5 -57v-35q0 -26 -8 -49.5t-25 -41.5t-42.5 -28.5t-60.5 -10.5t-60 9t-41.5 24.5t-24 36t-7.5 43.5v22
h108v-12q0 -15 5.5 -24t21.5 -9q14 0 20 9t6 24v44q0 12 -5.5 20.5t-19.5 8.5q-25 0 -27 -23h-109v232z" />
    <glyph glyph-name="onesixth" unicode="&#xe080;" horiz-adv-x="801" 
d="M154 270v287l-75 -48l-59 81l119 79h123v-399h-108zM280 0h-108l347 665h108zM666 278v5q0 32 -26 32q-27 0 -27 -32v-59q8 14 27 22.5t44 8.5q42 0 66.5 -25.5t24.5 -77.5v-31q0 -26 -7.5 -49t-23.5 -40.5t-41.5 -27.5t-61.5 -10t-62 10t-42.5 27.5t-24 40.5t-7.5 49
v151q0 28 7.5 52t24 42t42.5 28.5t62 10.5t61.5 -10t41.5 -26.5t23.5 -38t7.5 -43.5v-9h-109zM640 84q15 0 20.5 8.5t5.5 23.5v22q0 15 -5.5 23.5t-20.5 8.5t-21 -8.5t-6 -23.5v-22q0 -15 5.5 -23.5t21.5 -8.5z" />
    <glyph glyph-name="fivesixths" unicode="&#xe081;" horiz-adv-x="800" 
d="M25 669h261v-90h-158v-57q21 27 69 27q21 0 38.5 -6t30.5 -20t20.5 -37t7.5 -57v-35q0 -26 -8 -49.5t-25 -41.5t-42.5 -28.5t-60.5 -10.5t-60 9t-41.5 24.5t-24 36t-7.5 43.5v22h108v-12q0 -15 5.5 -24t21.5 -9q14 0 20 9t6 24v44q0 12 -5.5 20.5t-19.5 8.5
q-25 0 -27 -23h-109v232zM280 0h-108l347 665h108zM666 278v5q0 32 -26 32q-27 0 -27 -32v-59q8 14 27 22.5t44 8.5q42 0 66.5 -25.5t24.5 -77.5v-31q0 -26 -7.5 -49t-23.5 -40.5t-41.5 -27.5t-61.5 -10t-62 10t-42.5 27.5t-24 40.5t-7.5 49v151q0 28 7.5 52t24 42
t42.5 28.5t62 10.5t61.5 -10t41.5 -26.5t23.5 -38t7.5 -43.5v-9h-109zM640 84q15 0 20.5 8.5t5.5 23.5v22q0 15 -5.5 23.5t-20.5 8.5t-21 -8.5t-6 -23.5v-22q0 -15 5.5 -23.5t21.5 -8.5z" />
    <glyph glyph-name="oneseventh" unicode="&#xe082;" horiz-adv-x="801" 
d="M154 270v287l-75 -48l-59 81l119 79h123v-399h-108zM267 0h-108l347 665h108zM515 0l154 309h-166v90h274v-103l-148 -296h-114z" />
    <glyph glyph-name="twosevenths" unicode="&#xe083;" horiz-adv-x="801" 
d="M25 541v13q0 24 7 46t23.5 38.5t43.5 26.5t66 10q70 0 100 -28t30 -71v-10q0 -26 -16.5 -60t-59.5 -77l-70 -69h146v-90h-260v98l60 57q48 47 70 76t22 52v4q0 28 -26 28q-16 0 -22 -10t-6 -24v-10h-108zM280 0h-108l347 665h108zM515 0l154 309h-166v90h274v-103
l-148 -296h-114z" />
    <glyph glyph-name="threesevenths" unicode="&#xe084;" horiz-adv-x="801" 
d="M186 561q0 24 -27 24t-27 -30v-4h-108v7q0 53 34 85t106 32q35 0 60 -8.5t40.5 -22.5t22.5 -31.5t7 -35.5v-13q0 -27 -14 -48t-37 -31v-4q51 -23 51 -79v-23q0 -50 -33 -82.5t-101 -32.5t-102 30.5t-34 81.5v20h108v-10q0 -15 6 -23.5t21 -8.5q16 0 21.5 9t5.5 24v10
q0 20 -10.5 28t-33.5 8h-36v86h30q28 0 39 9t11 28v5zM266 0h-108l347 665h108zM515 0l154 309h-166v90h274v-103l-148 -296h-114z" />
    <glyph glyph-name="foursevenths" unicode="&#xe085;" horiz-adv-x="801" 
d="M196 331h-173v109l115 229h107l-121 -248h72v57h98v-208h-98v61zM279 0h-108l347 665h108zM515 0l154 309h-166v90h274v-103l-148 -296h-114z" />
    <glyph glyph-name="fivesevenths" unicode="&#xe086;" horiz-adv-x="800" 
d="M25 669h261v-90h-158v-57q21 27 69 27q21 0 38.5 -6t30.5 -20t20.5 -37t7.5 -57v-35q0 -26 -8 -49.5t-25 -41.5t-42.5 -28.5t-60.5 -10.5t-60 9t-41.5 24.5t-24 36t-7.5 43.5v22h108v-12q0 -15 5.5 -24t21.5 -9q14 0 20 9t6 24v44q0 12 -5.5 20.5t-19.5 8.5
q-25 0 -27 -23h-109v232zM269 0h-108l347 665h108zM515 0l154 309h-166v90h274v-103l-148 -296h-114z" />
    <glyph glyph-name="sixsevenths" unicode="&#xe087;" horiz-adv-x="801" 
d="M186 548v5q0 32 -26 32q-27 0 -27 -32v-59q8 14 27 22.5t44 8.5q42 0 66.5 -25.5t24.5 -77.5v-31q0 -26 -7.5 -49t-23.5 -40.5t-41.5 -27.5t-61.5 -10t-62 10t-42.5 27.5t-24 40.5t-7.5 49v151q0 28 7.5 52t24 42t42.5 28.5t62 10.5t61.5 -10t41.5 -26.5t23.5 -38
t7.5 -43.5v-9h-109zM160 354q15 0 20.5 8.5t5.5 23.5v22q0 15 -5.5 23.5t-20.5 8.5t-21 -8.5t-6 -23.5v-22q0 -15 5.5 -23.5t21.5 -8.5zM269 0h-108l347 665h108zM515 0l154 309h-166v90h274v-103l-148 -296h-114z" />
    <glyph glyph-name="oneninth" unicode="&#xe088;" horiz-adv-x="801" 
d="M154 270v287l-75 -48l-59 81l119 79h123v-399h-108zM280 0h-108l347 665h108zM613 121v-7q0 -30 27 -30q26 0 26 30v58q-9 -11 -26 -19.5t-44 -8.5q-41 0 -66 25.5t-25 77.5v31q0 26 7.5 49t24 40.5t42 27.5t61.5 10t61.5 -10t42 -27.5t24 -40.5t7.5 -49v-149
q0 -27 -7.5 -51.5t-23.5 -43t-41.5 -29.5t-61.5 -11t-62 10.5t-42.5 27.5t-24 38.5t-7.5 44.5v6h108zM640 315q-27 0 -27 -32v-21q0 -14 6.5 -23.5t20.5 -9.5t20 9.5t6 23.5v21q0 32 -26 32z" />
    <glyph glyph-name="twoninths" unicode="&#xe089;" horiz-adv-x="801" 
d="M25 541v13q0 24 7 46t23.5 38.5t43.5 26.5t66 10q70 0 100 -28t30 -71v-10q0 -26 -16.5 -60t-59.5 -77l-70 -69h146v-90h-260v98l60 57q48 47 70 76t22 52v4q0 28 -26 28q-16 0 -22 -10t-6 -24v-10h-108zM292 0h-108l347 665h108zM613 121v-7q0 -30 27 -30q26 0 26 30v58
q-9 -11 -26 -19.5t-44 -8.5q-41 0 -66 25.5t-25 77.5v31q0 26 7.5 49t24 40.5t42 27.5t61.5 10t61.5 -10t42 -27.5t24 -40.5t7.5 -49v-149q0 -27 -7.5 -51.5t-23.5 -43t-41.5 -29.5t-61.5 -11t-62 10.5t-42.5 27.5t-24 38.5t-7.5 44.5v6h108zM640 315q-27 0 -27 -32v-21
q0 -14 6.5 -23.5t20.5 -9.5t20 9.5t6 23.5v21q0 32 -26 32z" />
    <glyph glyph-name="fourninths" unicode="&#xe08a;" horiz-adv-x="801" 
d="M196 331h-173v109l115 229h107l-121 -248h72v57h98v-208h-98v61zM292 0h-108l347 665h108zM613 121v-7q0 -30 27 -30q26 0 26 30v58q-9 -11 -26 -19.5t-44 -8.5q-41 0 -66 25.5t-25 77.5v31q0 26 7.5 49t24 40.5t42 27.5t61.5 10t61.5 -10t42 -27.5t24 -40.5t7.5 -49
v-149q0 -27 -7.5 -51.5t-23.5 -43t-41.5 -29.5t-61.5 -11t-62 10.5t-42.5 27.5t-24 38.5t-7.5 44.5v6h108zM640 315q-27 0 -27 -32v-21q0 -14 6.5 -23.5t20.5 -9.5t20 9.5t6 23.5v21q0 32 -26 32z" />
    <glyph glyph-name="fiveninths" unicode="&#xe08b;" horiz-adv-x="800" 
d="M25 669h261v-90h-158v-57q21 27 69 27q21 0 38.5 -6t30.5 -20t20.5 -37t7.5 -57v-35q0 -26 -8 -49.5t-25 -41.5t-42.5 -28.5t-60.5 -10.5t-60 9t-41.5 24.5t-24 36t-7.5 43.5v22h108v-12q0 -15 5.5 -24t21.5 -9q14 0 20 9t6 24v44q0 12 -5.5 20.5t-19.5 8.5
q-25 0 -27 -23h-109v232zM280 0h-108l347 665h108zM613 121v-7q0 -30 27 -30q26 0 26 30v58q-9 -11 -26 -19.5t-44 -8.5q-41 0 -66 25.5t-25 77.5v31q0 26 7.5 49t24 40.5t42 27.5t61.5 10t61.5 -10t42 -27.5t24 -40.5t7.5 -49v-149q0 -27 -7.5 -51.5t-23.5 -43t-41.5 -29.5
t-61.5 -11t-62 10.5t-42.5 27.5t-24 38.5t-7.5 44.5v6h108zM640 315q-27 0 -27 -32v-21q0 -14 6.5 -23.5t20.5 -9.5t20 9.5t6 23.5v21q0 32 -26 32z" />
    <glyph glyph-name="sevenninths" unicode="&#xe08c;" horiz-adv-x="801" 
d="M35 270l154 309h-166v90h274v-103l-148 -296h-114zM245 0h-108l347 665h108zM613 121v-7q0 -30 27 -30q26 0 26 30v58q-9 -11 -26 -19.5t-44 -8.5q-41 0 -66 25.5t-25 77.5v31q0 26 7.5 49t24 40.5t42 27.5t61.5 10t61.5 -10t42 -27.5t24 -40.5t7.5 -49v-149
q0 -27 -7.5 -51.5t-23.5 -43t-41.5 -29.5t-61.5 -11t-62 10.5t-42.5 27.5t-24 38.5t-7.5 44.5v6h108zM640 315q-27 0 -27 -32v-21q0 -14 6.5 -23.5t20.5 -9.5t20 9.5t6 23.5v21q0 32 -26 32z" />
    <glyph glyph-name="eightninths" unicode="&#xe08d;" horiz-adv-x="801" 
d="M25 571q0 46 35.5 75t100.5 29q32 0 57 -9t42 -23.5t26 -33.5t9 -39v-8q0 -29 -16.5 -47.5t-47.5 -38.5q29 -19 46.5 -40.5t17.5 -56.5v-9q0 -46 -32.5 -76t-101.5 -30q-34 0 -59.5 9t-42.5 23.5t-25.5 33t-8.5 37.5v10q0 34 17 57t45 42q-30 20 -46 38.5t-16 47.5v9z
M133 383q0 -12 6.5 -20.5t20.5 -8.5t20.5 9t6.5 21v5q0 9 -5.5 18.5t-20.5 20.5q-16 -11 -22 -20.5t-6 -18.5v-6zM133 555q0 -10 5.5 -17.5t22.5 -18.5q15 11 20 18.5t5 17.5v4q0 26 -26 26q-27 0 -27 -26v-4zM281 0h-108l347 665h108zM613 121v-7q0 -30 27 -30q26 0 26 30
v58q-9 -11 -26 -19.5t-44 -8.5q-41 0 -66 25.5t-25 77.5v31q0 26 7.5 49t24 40.5t42 27.5t61.5 10t61.5 -10t42 -27.5t24 -40.5t7.5 -49v-149q0 -27 -7.5 -51.5t-23.5 -43t-41.5 -29.5t-61.5 -11t-62 10.5t-42.5 27.5t-24 38.5t-7.5 44.5v6h108zM640 315q-27 0 -27 -32v-21
q0 -14 6.5 -23.5t20.5 -9.5t20 9.5t6 23.5v21q0 32 -26 32z" />
    <glyph glyph-name="zero.numerator" unicode="&#xe08e;" horiz-adv-x="320" 
d="M295 516q0 -27 -7.5 -51t-23.5 -42t-41.5 -28.5t-61.5 -10.5t-62 10.5t-42.5 28.5t-24 42t-7.5 51v147q0 26 7.5 50t24 42t42.5 29t62 11t61.5 -11t41.5 -29t23.5 -42t7.5 -50v-147zM186 670q0 15 -5.5 25t-20.5 10q-16 0 -21.5 -10t-5.5 -25v-161q0 -15 5.5 -25
t21.5 -10q15 0 20.5 10t5.5 25v161z" />
    <glyph glyph-name="one.numerator" unicode="&#xe08f;" horiz-adv-x="320" 
d="M154 390v287l-75 -48l-59 81l119 79h123v-399h-108z" />
    <glyph glyph-name="two.numerator" unicode="&#xe090;" horiz-adv-x="320" 
d="M25 661v13q0 24 7 46t23.5 38.5t43.5 26.5t66 10q70 0 100 -28t30 -71v-10q0 -26 -16.5 -60t-59.5 -77l-70 -69h146v-90h-260v98l60 57q48 47 70 76t22 52v4q0 28 -26 28q-16 0 -22 -10t-6 -24v-10h-108z" />
    <glyph glyph-name="three.numerator" unicode="&#xe091;" horiz-adv-x="321" 
d="M186 681q0 24 -27 24t-27 -30v-4h-108v7q0 53 34 85t106 32q35 0 60 -8.5t40.5 -22.5t22.5 -31.5t7 -35.5v-13q0 -27 -14 -48t-37 -31v-4q51 -23 51 -79v-23q0 -50 -33 -82.5t-101 -32.5t-102 30.5t-34 81.5v20h108v-10q0 -15 6 -23.5t21 -8.5q16 0 21.5 9t5.5 24v10
q0 20 -10.5 28t-33.5 8h-36v86h30q28 0 39 9t11 28v5z" />
    <glyph glyph-name="four.numerator" unicode="&#xe092;" horiz-adv-x="321" 
d="M196 451h-173v109l115 229h107l-121 -248h72v57h98v-208h-98v61z" />
    <glyph glyph-name="five.numerator" unicode="&#xe093;" horiz-adv-x="320" 
d="M25 789h261v-90h-158v-57q21 27 69 27q21 0 38.5 -6t30.5 -20t20.5 -37t7.5 -57v-35q0 -26 -8 -49.5t-25 -41.5t-42.5 -28.5t-60.5 -10.5t-60 9t-41.5 24.5t-24 36t-7.5 43.5v22h108v-12q0 -15 5.5 -24t21.5 -9q14 0 20 9t6 24v44q0 12 -5.5 20.5t-19.5 8.5
q-25 0 -27 -23h-109v232z" />
    <glyph glyph-name="six.numerator" unicode="&#xe094;" horiz-adv-x="320" 
d="M186 668v5q0 32 -26 32q-27 0 -27 -32v-59q8 14 27 22.5t44 8.5q42 0 66.5 -25.5t24.5 -77.5v-31q0 -26 -7.5 -49t-23.5 -40.5t-41.5 -27.5t-61.5 -10t-62 10t-42.5 27.5t-24 40.5t-7.5 49v151q0 28 7.5 52t24 42t42.5 28.5t62 10.5t61.5 -10t41.5 -26.5t23.5 -38
t7.5 -43.5v-9h-109zM160 474q15 0 20.5 8.5t5.5 23.5v22q0 15 -5.5 23.5t-20.5 8.5t-21 -8.5t-6 -23.5v-22q0 -15 5.5 -23.5t21.5 -8.5z" />
    <glyph glyph-name="seven.numerator" unicode="&#xe095;" horiz-adv-x="320" 
d="M35 390l154 309h-166v90h274v-103l-148 -296h-114z" />
    <glyph glyph-name="eight.numerator" unicode="&#xe096;" horiz-adv-x="320" 
d="M25 691q0 46 35.5 75t100.5 29q32 0 57 -9t42 -23.5t26 -33.5t9 -39v-8q0 -29 -16.5 -47.5t-47.5 -38.5q29 -19 46.5 -40.5t17.5 -56.5v-9q0 -46 -32.5 -76t-101.5 -30q-34 0 -59.5 9t-42.5 23.5t-25.5 33t-8.5 37.5v10q0 34 17 57t45 42q-30 20 -46 38.5t-16 47.5v9z
M133 503q0 -12 6.5 -20.5t20.5 -8.5t20.5 9t6.5 21v5q0 9 -5.5 18.5t-20.5 20.5q-16 -11 -22 -20.5t-6 -18.5v-6zM133 675q0 -10 5.5 -17.5t22.5 -18.5q15 11 20 18.5t5 17.5v4q0 26 -26 26q-27 0 -27 -26v-4z" />
    <glyph glyph-name="nine.numerator" unicode="&#xe097;" horiz-adv-x="320" 
d="M133 511v-7q0 -30 27 -30q26 0 26 30v58q-9 -11 -26 -19.5t-44 -8.5q-41 0 -66 25.5t-25 77.5v31q0 26 7.5 49t24 40.5t42 27.5t61.5 10t61.5 -10t42 -27.5t24 -40.5t7.5 -49v-149q0 -27 -7.5 -51.5t-23.5 -43t-41.5 -29.5t-61.5 -11t-62 10.5t-42.5 27.5t-24 38.5
t-7.5 44.5v6h108zM160 705q-27 0 -27 -32v-21q0 -14 6.5 -23.5t20.5 -9.5t20 9.5t6 23.5v21q0 32 -26 32z" />
    <glyph glyph-name="zero.denominator" unicode="&#xe098;" horiz-adv-x="320" 
d="M295 6q0 -27 -7.5 -51t-23.5 -42t-41.5 -28.5t-61.5 -10.5t-62 10.5t-42.5 28.5t-24 42t-7.5 51v147q0 26 7.5 50t24 42t42.5 29t62 11t61.5 -11t41.5 -29t23.5 -42t7.5 -50v-147zM186 160q0 15 -5.5 25t-20.5 10q-16 0 -21.5 -10t-5.5 -25v-161q0 -15 5.5 -25t21.5 -10
q15 0 20.5 10t5.5 25v161z" />
    <glyph glyph-name="one.denominator" unicode="&#xe099;" horiz-adv-x="320" 
d="M154 -120v287l-75 -48l-59 81l119 79h123v-399h-108z" />
    <glyph glyph-name="two.denominator" unicode="&#xe09a;" horiz-adv-x="320" 
d="M25 151v13q0 24 7 46t23.5 38.5t43.5 26.5t66 10q70 0 100 -28t30 -71v-10q0 -26 -16.5 -60t-59.5 -77l-70 -69h146v-90h-260v98l60 57q48 47 70 76t22 52v4q0 28 -26 28q-16 0 -22 -10t-6 -24v-10h-108z" />
    <glyph glyph-name="three.denominator" unicode="&#xe09b;" horiz-adv-x="321" 
d="M186 171q0 24 -27 24t-27 -30v-4h-108v7q0 53 34 85t106 32q35 0 60 -8.5t40.5 -22.5t22.5 -31.5t7 -35.5v-13q0 -27 -14 -48t-37 -31v-4q51 -23 51 -79v-23q0 -50 -33 -82.5t-101 -32.5t-102 30.5t-34 81.5v20h108v-10q0 -15 6 -23.5t21 -8.5q16 0 21.5 9t5.5 24v10
q0 20 -10.5 28t-33.5 8h-36v86h30q28 0 39 9t11 28v5z" />
    <glyph glyph-name="four.denominator" unicode="&#xe09c;" horiz-adv-x="321" 
d="M196 -59h-173v109l115 229h107l-121 -248h72v57h98v-208h-98v61z" />
    <glyph glyph-name="five.denominator" unicode="&#xe09d;" horiz-adv-x="320" 
d="M25 279h261v-90h-158v-57q21 27 69 27q21 0 38.5 -6t30.5 -20t20.5 -37t7.5 -57v-35q0 -26 -8 -49.5t-25 -41.5t-42.5 -28.5t-60.5 -10.5t-60 9t-41.5 24.5t-24 36t-7.5 43.5v22h108v-12q0 -15 5.5 -24t21.5 -9q14 0 20 9t6 24v44q0 12 -5.5 20.5t-19.5 8.5
q-25 0 -27 -23h-109v232z" />
    <glyph glyph-name="six.denominator" unicode="&#xe09e;" horiz-adv-x="320" 
d="M186 158v5q0 32 -26 32q-27 0 -27 -32v-59q8 14 27 22.5t44 8.5q42 0 66.5 -25.5t24.5 -77.5v-31q0 -26 -7.5 -49t-23.5 -40.5t-41.5 -27.5t-61.5 -10t-62 10t-42.5 27.5t-24 40.5t-7.5 49v151q0 28 7.5 52t24 42t42.5 28.5t62 10.5t61.5 -10t41.5 -26.5t23.5 -38
t7.5 -43.5v-9h-109zM160 -36q15 0 20.5 8.5t5.5 23.5v22q0 15 -5.5 23.5t-20.5 8.5t-21 -8.5t-6 -23.5v-22q0 -15 5.5 -23.5t21.5 -8.5z" />
    <glyph glyph-name="seven.denominator" unicode="&#xe09f;" horiz-adv-x="320" 
d="M35 -120l154 309h-166v90h274v-103l-148 -296h-114z" />
    <glyph glyph-name="eight.denominator" unicode="&#xe0a0;" horiz-adv-x="320" 
d="M25 181q0 46 35.5 75t100.5 29q32 0 57 -9t42 -23.5t26 -33.5t9 -39v-8q0 -29 -16.5 -47.5t-47.5 -38.5q29 -19 46.5 -40.5t17.5 -56.5v-9q0 -46 -32.5 -76t-101.5 -30q-34 0 -59.5 9t-42.5 23.5t-25.5 33t-8.5 37.5v10q0 34 17 57t45 42q-30 20 -46 38.5t-16 47.5v9z
M133 -7q0 -12 6.5 -20.5t20.5 -8.5t20.5 9t6.5 21v5q0 9 -5.5 18.5t-20.5 20.5q-16 -11 -22 -20.5t-6 -18.5v-6zM133 165q0 -10 5.5 -17.5t22.5 -18.5q15 11 20 18.5t5 17.5v4q0 26 -26 26q-27 0 -27 -26v-4z" />
    <glyph glyph-name="nine.denominator" unicode="&#xe0a1;" horiz-adv-x="320" 
d="M133 1v-7q0 -30 27 -30q26 0 26 30v58q-9 -11 -26 -19.5t-44 -8.5q-41 0 -66 25.5t-25 77.5v31q0 26 7.5 49t24 40.5t42 27.5t61.5 10t61.5 -10t42 -27.5t24 -40.5t7.5 -49v-149q0 -27 -7.5 -51.5t-23.5 -43t-41.5 -29.5t-61.5 -11t-62 10.5t-42.5 27.5t-24 38.5
t-7.5 44.5v6h108zM160 195q-27 0 -27 -32v-21q0 -14 6.5 -23.5t20.5 -9.5t20 9.5t6 23.5v21q0 32 -26 32z" />
    <glyph glyph-name="i.dot" unicode="&#xe166;" horiz-adv-x="225" 
d="M50 520h115l14 -95v-425h-129v520zM114 686q32 0 50.5 -19.5t18.5 -48.5t-18.5 -48.5t-50.5 -19.5t-51.5 19.5t-19.5 48.5t19.5 48.5t51.5 19.5z" />
    <glyph glyph-name="commaaccent" unicode="&#xf6c3;" horiz-adv-x="438" 
d="M229 -181h-94l36 141h119z" />
    <glyph glyph-name="caron.alt" horiz-adv-x="437" 
d="M329 534h-66l19 151h98z" />
    <glyph glyph-name="revcommaaccent" horiz-adv-x="437" 
d="M224 695h85l-16 -141h-119z" />
    </font>
</defs>
</svg>
